<?xml version="1.0" encoding="utf-8"?>
<svg xmlns="http://www.w3.org/2000/svg" xmlns:xlink="http://www.w3.org/1999/xlink" width="600" height="400" viewBox="0 0 2400 1600">
<defs>
  <clipPath id="clip740">
    <rect x="0" y="0" width="2400" height="1600"/>
  </clipPath>
</defs>
<path clip-path="url(#clip740)" d="
M0 1600 L2400 1600 L2400 0 L0 0  Z
  " fill="#ffffff" fill-rule="evenodd" fill-opacity="1"/>
<defs>
  <clipPath id="clip741">
    <rect x="480" y="0" width="1681" height="1600"/>
  </clipPath>
</defs>
<path clip-path="url(#clip740)" d="
M262.551 1423.18 L2352.76 1423.18 L2352.76 47.2441 L262.551 47.2441  Z
  " fill="#ffffff" fill-rule="evenodd" fill-opacity="1"/>
<defs>
  <clipPath id="clip742">
    <rect x="262" y="47" width="2091" height="1377"/>
  </clipPath>
</defs>
<polyline clip-path="url(#clip742)" style="stroke:#000000; stroke-linecap:round; stroke-linejoin:round; stroke-width:2; stroke-opacity:0.1; fill:none" points="
  328.567,1423.18 328.567,47.2441 
  "/>
<polyline clip-path="url(#clip742)" style="stroke:#000000; stroke-linecap:round; stroke-linejoin:round; stroke-width:2; stroke-opacity:0.1; fill:none" points="
  883.29,1423.18 883.29,47.2441 
  "/>
<polyline clip-path="url(#clip742)" style="stroke:#000000; stroke-linecap:round; stroke-linejoin:round; stroke-width:2; stroke-opacity:0.1; fill:none" points="
  1438.01,1423.18 1438.01,47.2441 
  "/>
<polyline clip-path="url(#clip742)" style="stroke:#000000; stroke-linecap:round; stroke-linejoin:round; stroke-width:2; stroke-opacity:0.1; fill:none" points="
  1992.74,1423.18 1992.74,47.2441 
  "/>
<polyline clip-path="url(#clip740)" style="stroke:#000000; stroke-linecap:round; stroke-linejoin:round; stroke-width:4; stroke-opacity:1; fill:none" points="
  262.551,1423.18 2352.76,1423.18 
  "/>
<polyline clip-path="url(#clip740)" style="stroke:#000000; stroke-linecap:round; stroke-linejoin:round; stroke-width:4; stroke-opacity:1; fill:none" points="
  328.567,1423.18 328.567,1404.28 
  "/>
<polyline clip-path="url(#clip740)" style="stroke:#000000; stroke-linecap:round; stroke-linejoin:round; stroke-width:4; stroke-opacity:1; fill:none" points="
  883.29,1423.18 883.29,1404.28 
  "/>
<polyline clip-path="url(#clip740)" style="stroke:#000000; stroke-linecap:round; stroke-linejoin:round; stroke-width:4; stroke-opacity:1; fill:none" points="
  1438.01,1423.18 1438.01,1404.28 
  "/>
<polyline clip-path="url(#clip740)" style="stroke:#000000; stroke-linecap:round; stroke-linejoin:round; stroke-width:4; stroke-opacity:1; fill:none" points="
  1992.74,1423.18 1992.74,1404.28 
  "/>
<path clip-path="url(#clip740)" d="M328.567 1454.1 Q324.956 1454.1 323.127 1457.66 Q321.322 1461.2 321.322 1468.33 Q321.322 1475.44 323.127 1479.01 Q324.956 1482.55 328.567 1482.55 Q332.201 1482.55 334.007 1479.01 Q335.835 1475.44 335.835 1468.33 Q335.835 1461.2 334.007 1457.66 Q332.201 1454.1 328.567 1454.1 M328.567 1450.39 Q334.377 1450.39 337.433 1455 Q340.511 1459.58 340.511 1468.33 Q340.511 1477.06 337.433 1481.67 Q334.377 1486.25 328.567 1486.25 Q322.757 1486.25 319.678 1481.67 Q316.623 1477.06 316.623 1468.33 Q316.623 1459.58 319.678 1455 Q322.757 1450.39 328.567 1450.39 Z" fill="#000000" fill-rule="evenodd" fill-opacity="1" /><path clip-path="url(#clip740)" d="M842.908 1451.02 L861.265 1451.02 L861.265 1454.96 L847.191 1454.96 L847.191 1463.43 Q848.209 1463.08 849.228 1462.92 Q850.246 1462.73 851.265 1462.73 Q857.052 1462.73 860.432 1465.9 Q863.811 1469.08 863.811 1474.49 Q863.811 1480.07 860.339 1483.17 Q856.867 1486.25 850.547 1486.25 Q848.371 1486.25 846.103 1485.88 Q843.858 1485.51 841.45 1484.77 L841.45 1480.07 Q843.533 1481.2 845.756 1481.76 Q847.978 1482.32 850.455 1482.32 Q854.459 1482.32 856.797 1480.21 Q859.135 1478.1 859.135 1474.49 Q859.135 1470.88 856.797 1468.77 Q854.459 1466.67 850.455 1466.67 Q848.58 1466.67 846.705 1467.08 Q844.853 1467.5 842.908 1468.38 L842.908 1451.02 Z" fill="#000000" fill-rule="evenodd" fill-opacity="1" /><path clip-path="url(#clip740)" d="M883.024 1454.1 Q879.413 1454.1 877.584 1457.66 Q875.779 1461.2 875.779 1468.33 Q875.779 1475.44 877.584 1479.01 Q879.413 1482.55 883.024 1482.55 Q886.658 1482.55 888.464 1479.01 Q890.292 1475.44 890.292 1468.33 Q890.292 1461.2 888.464 1457.66 Q886.658 1454.1 883.024 1454.1 M883.024 1450.39 Q888.834 1450.39 891.89 1455 Q894.968 1459.58 894.968 1468.33 Q894.968 1477.06 891.89 1481.67 Q888.834 1486.25 883.024 1486.25 Q877.214 1486.25 874.135 1481.67 Q871.08 1477.06 871.08 1468.33 Q871.08 1459.58 874.135 1455 Q877.214 1450.39 883.024 1450.39 Z" fill="#000000" fill-rule="evenodd" fill-opacity="1" /><path clip-path="url(#clip740)" d="M913.186 1454.1 Q909.575 1454.1 907.746 1457.66 Q905.941 1461.2 905.941 1468.33 Q905.941 1475.44 907.746 1479.01 Q909.575 1482.55 913.186 1482.55 Q916.82 1482.55 918.626 1479.01 Q920.454 1475.44 920.454 1468.33 Q920.454 1461.2 918.626 1457.66 Q916.82 1454.1 913.186 1454.1 M913.186 1450.39 Q918.996 1450.39 922.052 1455 Q925.13 1459.58 925.13 1468.33 Q925.13 1477.06 922.052 1481.67 Q918.996 1486.25 913.186 1486.25 Q907.376 1486.25 904.297 1481.67 Q901.242 1477.06 901.242 1468.33 Q901.242 1459.58 904.297 1455 Q907.376 1450.39 913.186 1450.39 Z" fill="#000000" fill-rule="evenodd" fill-opacity="1" /><path clip-path="url(#clip740)" d="M1382.54 1481.64 L1390.18 1481.64 L1390.18 1455.28 L1381.87 1456.95 L1381.87 1452.69 L1390.13 1451.02 L1394.81 1451.02 L1394.81 1481.64 L1402.45 1481.64 L1402.45 1485.58 L1382.54 1485.58 L1382.54 1481.64 Z" fill="#000000" fill-rule="evenodd" fill-opacity="1" /><path clip-path="url(#clip740)" d="M1421.89 1454.1 Q1418.28 1454.1 1416.45 1457.66 Q1414.65 1461.2 1414.65 1468.33 Q1414.65 1475.44 1416.45 1479.01 Q1418.28 1482.55 1421.89 1482.55 Q1425.53 1482.55 1427.33 1479.01 Q1429.16 1475.44 1429.16 1468.33 Q1429.16 1461.2 1427.33 1457.66 Q1425.53 1454.1 1421.89 1454.1 M1421.89 1450.39 Q1427.7 1450.39 1430.76 1455 Q1433.84 1459.58 1433.84 1468.33 Q1433.84 1477.06 1430.76 1481.67 Q1427.7 1486.25 1421.89 1486.25 Q1416.08 1486.25 1413 1481.67 Q1409.95 1477.06 1409.95 1468.33 Q1409.95 1459.58 1413 1455 Q1416.08 1450.39 1421.89 1450.39 Z" fill="#000000" fill-rule="evenodd" fill-opacity="1" /><path clip-path="url(#clip740)" d="M1452.05 1454.1 Q1448.44 1454.1 1446.61 1457.66 Q1444.81 1461.2 1444.81 1468.33 Q1444.81 1475.44 1446.61 1479.01 Q1448.44 1482.55 1452.05 1482.55 Q1455.69 1482.55 1457.49 1479.01 Q1459.32 1475.44 1459.32 1468.33 Q1459.32 1461.2 1457.49 1457.66 Q1455.69 1454.1 1452.05 1454.1 M1452.05 1450.39 Q1457.86 1450.39 1460.92 1455 Q1464 1459.58 1464 1468.33 Q1464 1477.06 1460.92 1481.67 Q1457.86 1486.25 1452.05 1486.25 Q1446.24 1486.25 1443.16 1481.67 Q1440.11 1477.06 1440.11 1468.33 Q1440.11 1459.58 1443.16 1455 Q1446.24 1450.39 1452.05 1450.39 Z" fill="#000000" fill-rule="evenodd" fill-opacity="1" /><path clip-path="url(#clip740)" d="M1482.21 1454.1 Q1478.6 1454.1 1476.77 1457.66 Q1474.97 1461.2 1474.97 1468.33 Q1474.97 1475.44 1476.77 1479.01 Q1478.6 1482.55 1482.21 1482.55 Q1485.85 1482.55 1487.65 1479.01 Q1489.48 1475.44 1489.48 1468.33 Q1489.48 1461.2 1487.65 1457.66 Q1485.85 1454.1 1482.21 1454.1 M1482.21 1450.39 Q1488.02 1450.39 1491.08 1455 Q1494.16 1459.58 1494.16 1468.33 Q1494.16 1477.06 1491.08 1481.67 Q1488.02 1486.25 1482.21 1486.25 Q1476.4 1486.25 1473.33 1481.67 Q1470.27 1477.06 1470.27 1468.33 Q1470.27 1459.58 1473.33 1455 Q1476.4 1450.39 1482.21 1450.39 Z" fill="#000000" fill-rule="evenodd" fill-opacity="1" /><path clip-path="url(#clip740)" d="M1937.26 1481.64 L1944.9 1481.64 L1944.9 1455.28 L1936.59 1456.95 L1936.59 1452.69 L1944.86 1451.02 L1949.53 1451.02 L1949.53 1481.64 L1957.17 1481.64 L1957.17 1485.58 L1937.26 1485.58 L1937.26 1481.64 Z" fill="#000000" fill-rule="evenodd" fill-opacity="1" /><path clip-path="url(#clip740)" d="M1966.66 1451.02 L1985.02 1451.02 L1985.02 1454.96 L1970.94 1454.96 L1970.94 1463.43 Q1971.96 1463.08 1972.98 1462.92 Q1974 1462.73 1975.02 1462.73 Q1980.8 1462.73 1984.18 1465.9 Q1987.56 1469.08 1987.56 1474.49 Q1987.56 1480.07 1984.09 1483.17 Q1980.62 1486.25 1974.3 1486.25 Q1972.12 1486.25 1969.86 1485.88 Q1967.61 1485.51 1965.2 1484.77 L1965.2 1480.07 Q1967.29 1481.2 1969.51 1481.76 Q1971.73 1482.32 1974.21 1482.32 Q1978.21 1482.32 1980.55 1480.21 Q1982.89 1478.1 1982.89 1474.49 Q1982.89 1470.88 1980.55 1468.77 Q1978.21 1466.67 1974.21 1466.67 Q1972.33 1466.67 1970.46 1467.08 Q1968.61 1467.5 1966.66 1468.38 L1966.66 1451.02 Z" fill="#000000" fill-rule="evenodd" fill-opacity="1" /><path clip-path="url(#clip740)" d="M2006.78 1454.1 Q2003.17 1454.1 2001.34 1457.66 Q1999.53 1461.2 1999.53 1468.33 Q1999.53 1475.44 2001.34 1479.01 Q2003.17 1482.55 2006.78 1482.55 Q2010.41 1482.55 2012.22 1479.01 Q2014.04 1475.44 2014.04 1468.33 Q2014.04 1461.2 2012.22 1457.66 Q2010.41 1454.1 2006.78 1454.1 M2006.78 1450.39 Q2012.59 1450.39 2015.64 1455 Q2018.72 1459.58 2018.72 1468.33 Q2018.72 1477.06 2015.64 1481.67 Q2012.59 1486.25 2006.78 1486.25 Q2000.97 1486.25 1997.89 1481.67 Q1994.83 1477.06 1994.83 1468.33 Q1994.83 1459.58 1997.89 1455 Q2000.97 1450.39 2006.78 1450.39 Z" fill="#000000" fill-rule="evenodd" fill-opacity="1" /><path clip-path="url(#clip740)" d="M2036.94 1454.1 Q2033.33 1454.1 2031.5 1457.66 Q2029.69 1461.2 2029.69 1468.33 Q2029.69 1475.44 2031.5 1479.01 Q2033.33 1482.55 2036.94 1482.55 Q2040.57 1482.55 2042.38 1479.01 Q2044.21 1475.44 2044.21 1468.33 Q2044.21 1461.2 2042.38 1457.66 Q2040.57 1454.1 2036.94 1454.1 M2036.94 1450.39 Q2042.75 1450.39 2045.8 1455 Q2048.88 1459.58 2048.88 1468.33 Q2048.88 1477.06 2045.8 1481.67 Q2042.75 1486.25 2036.94 1486.25 Q2031.13 1486.25 2028.05 1481.67 Q2024.99 1477.06 2024.99 1468.33 Q2024.99 1459.58 2028.05 1455 Q2031.13 1450.39 2036.94 1450.39 Z" fill="#000000" fill-rule="evenodd" fill-opacity="1" /><path clip-path="url(#clip740)" d="M1324.27 1532.4 L1311.38 1549.74 L1324.94 1568.04 L1318.03 1568.04 L1307.65 1554.04 L1297.28 1568.04 L1290.37 1568.04 L1304.22 1549.39 L1291.55 1532.4 L1298.46 1532.4 L1307.91 1545.1 L1317.36 1532.4 L1324.27 1532.4 Z" fill="#000000" fill-rule="evenodd" fill-opacity="1" /><polyline clip-path="url(#clip742)" style="stroke:#000000; stroke-linecap:round; stroke-linejoin:round; stroke-width:2; stroke-opacity:0.1; fill:none" points="
  262.551,1389.79 2352.76,1389.79 
  "/>
<polyline clip-path="url(#clip742)" style="stroke:#000000; stroke-linecap:round; stroke-linejoin:round; stroke-width:2; stroke-opacity:0.1; fill:none" points="
  262.551,1112.42 2352.76,1112.42 
  "/>
<polyline clip-path="url(#clip742)" style="stroke:#000000; stroke-linecap:round; stroke-linejoin:round; stroke-width:2; stroke-opacity:0.1; fill:none" points="
  262.551,835.062 2352.76,835.062 
  "/>
<polyline clip-path="url(#clip742)" style="stroke:#000000; stroke-linecap:round; stroke-linejoin:round; stroke-width:2; stroke-opacity:0.1; fill:none" points="
  262.551,557.701 2352.76,557.701 
  "/>
<polyline clip-path="url(#clip742)" style="stroke:#000000; stroke-linecap:round; stroke-linejoin:round; stroke-width:2; stroke-opacity:0.1; fill:none" points="
  262.551,280.339 2352.76,280.339 
  "/>
<polyline clip-path="url(#clip740)" style="stroke:#000000; stroke-linecap:round; stroke-linejoin:round; stroke-width:4; stroke-opacity:1; fill:none" points="
  262.551,1423.18 262.551,47.2441 
  "/>
<polyline clip-path="url(#clip740)" style="stroke:#000000; stroke-linecap:round; stroke-linejoin:round; stroke-width:4; stroke-opacity:1; fill:none" points="
  262.551,1389.79 281.449,1389.79 
  "/>
<polyline clip-path="url(#clip740)" style="stroke:#000000; stroke-linecap:round; stroke-linejoin:round; stroke-width:4; stroke-opacity:1; fill:none" points="
  262.551,1112.42 281.449,1112.42 
  "/>
<polyline clip-path="url(#clip740)" style="stroke:#000000; stroke-linecap:round; stroke-linejoin:round; stroke-width:4; stroke-opacity:1; fill:none" points="
  262.551,835.062 281.449,835.062 
  "/>
<polyline clip-path="url(#clip740)" style="stroke:#000000; stroke-linecap:round; stroke-linejoin:round; stroke-width:4; stroke-opacity:1; fill:none" points="
  262.551,557.701 281.449,557.701 
  "/>
<polyline clip-path="url(#clip740)" style="stroke:#000000; stroke-linecap:round; stroke-linejoin:round; stroke-width:4; stroke-opacity:1; fill:none" points="
  262.551,280.339 281.449,280.339 
  "/>
<path clip-path="url(#clip740)" d="M214.607 1375.58 Q210.996 1375.58 209.167 1379.15 Q207.362 1382.69 207.362 1389.82 Q207.362 1396.93 209.167 1400.49 Q210.996 1404.03 214.607 1404.03 Q218.241 1404.03 220.047 1400.49 Q221.875 1396.93 221.875 1389.82 Q221.875 1382.69 220.047 1379.15 Q218.241 1375.58 214.607 1375.58 M214.607 1371.88 Q220.417 1371.88 223.473 1376.49 Q226.551 1381.07 226.551 1389.82 Q226.551 1398.55 223.473 1403.15 Q220.417 1407.74 214.607 1407.74 Q208.797 1407.74 205.718 1403.15 Q202.662 1398.55 202.662 1389.82 Q202.662 1381.07 205.718 1376.49 Q208.797 1371.88 214.607 1371.88 Z" fill="#000000" fill-rule="evenodd" fill-opacity="1" /><path clip-path="url(#clip740)" d="M148.311 1125.77 L164.63 1125.77 L164.63 1129.7 L142.686 1129.7 L142.686 1125.77 Q145.348 1123.01 149.931 1118.38 Q154.538 1113.73 155.718 1112.39 Q157.964 1109.87 158.843 1108.13 Q159.746 1106.37 159.746 1104.68 Q159.746 1101.93 157.802 1100.19 Q155.88 1098.45 152.778 1098.45 Q150.579 1098.45 148.126 1099.22 Q145.695 1099.98 142.917 1101.53 L142.917 1096.81 Q145.741 1095.68 148.195 1095.1 Q150.649 1094.52 152.686 1094.52 Q158.056 1094.52 161.251 1097.2 Q164.445 1099.89 164.445 1104.38 Q164.445 1106.51 163.635 1108.43 Q162.848 1110.33 160.741 1112.92 Q160.163 1113.59 157.061 1116.81 Q153.959 1120 148.311 1125.77 Z" fill="#000000" fill-rule="evenodd" fill-opacity="1" /><path clip-path="url(#clip740)" d="M174.491 1095.14 L192.848 1095.14 L192.848 1099.08 L178.774 1099.08 L178.774 1107.55 Q179.792 1107.2 180.811 1107.04 Q181.829 1106.86 182.848 1106.86 Q188.635 1106.86 192.014 1110.03 Q195.394 1113.2 195.394 1118.62 Q195.394 1124.19 191.922 1127.3 Q188.45 1130.38 182.13 1130.38 Q179.954 1130.38 177.686 1130 Q175.44 1129.63 173.033 1128.89 L173.033 1124.19 Q175.116 1125.33 177.339 1125.88 Q179.561 1126.44 182.038 1126.44 Q186.042 1126.44 188.38 1124.33 Q190.718 1122.23 190.718 1118.62 Q190.718 1115 188.38 1112.9 Q186.042 1110.79 182.038 1110.79 Q180.163 1110.79 178.288 1111.21 Q176.436 1111.63 174.491 1112.5 L174.491 1095.14 Z" fill="#000000" fill-rule="evenodd" fill-opacity="1" /><path clip-path="url(#clip740)" d="M214.607 1098.22 Q210.996 1098.22 209.167 1101.79 Q207.362 1105.33 207.362 1112.46 Q207.362 1119.56 209.167 1123.13 Q210.996 1126.67 214.607 1126.67 Q218.241 1126.67 220.047 1123.13 Q221.875 1119.56 221.875 1112.46 Q221.875 1105.33 220.047 1101.79 Q218.241 1098.22 214.607 1098.22 M214.607 1094.52 Q220.417 1094.52 223.473 1099.13 Q226.551 1103.71 226.551 1112.46 Q226.551 1121.19 223.473 1125.79 Q220.417 1130.38 214.607 1130.38 Q208.797 1130.38 205.718 1125.79 Q202.662 1121.19 202.662 1112.46 Q202.662 1103.71 205.718 1099.13 Q208.797 1094.52 214.607 1094.52 Z" fill="#000000" fill-rule="evenodd" fill-opacity="1" /><path clip-path="url(#clip740)" d="M144.329 817.782 L162.686 817.782 L162.686 821.717 L148.612 821.717 L148.612 830.19 Q149.63 829.842 150.649 829.68 Q151.667 829.495 152.686 829.495 Q158.473 829.495 161.852 832.666 Q165.232 835.838 165.232 841.254 Q165.232 846.833 161.76 849.935 Q158.288 853.013 151.968 853.013 Q149.792 853.013 147.524 852.643 Q145.279 852.273 142.871 851.532 L142.871 846.833 Q144.954 847.967 147.177 848.523 Q149.399 849.078 151.876 849.078 Q155.88 849.078 158.218 846.972 Q160.556 844.865 160.556 841.254 Q160.556 837.643 158.218 835.537 Q155.88 833.43 151.876 833.43 Q150.001 833.43 148.126 833.847 Q146.274 834.264 144.329 835.143 L144.329 817.782 Z" fill="#000000" fill-rule="evenodd" fill-opacity="1" /><path clip-path="url(#clip740)" d="M184.445 820.861 Q180.834 820.861 179.005 824.426 Q177.2 827.967 177.2 835.097 Q177.2 842.203 179.005 845.768 Q180.834 849.31 184.445 849.31 Q188.079 849.31 189.885 845.768 Q191.713 842.203 191.713 835.097 Q191.713 827.967 189.885 824.426 Q188.079 820.861 184.445 820.861 M184.445 817.157 Q190.255 817.157 193.311 821.764 Q196.389 826.347 196.389 835.097 Q196.389 843.824 193.311 848.43 Q190.255 853.013 184.445 853.013 Q178.635 853.013 175.556 848.43 Q172.501 843.824 172.501 835.097 Q172.501 826.347 175.556 821.764 Q178.635 817.157 184.445 817.157 Z" fill="#000000" fill-rule="evenodd" fill-opacity="1" /><path clip-path="url(#clip740)" d="M214.607 820.861 Q210.996 820.861 209.167 824.426 Q207.362 827.967 207.362 835.097 Q207.362 842.203 209.167 845.768 Q210.996 849.31 214.607 849.31 Q218.241 849.31 220.047 845.768 Q221.875 842.203 221.875 835.097 Q221.875 827.967 220.047 824.426 Q218.241 820.861 214.607 820.861 M214.607 817.157 Q220.417 817.157 223.473 821.764 Q226.551 826.347 226.551 835.097 Q226.551 843.824 223.473 848.43 Q220.417 853.013 214.607 853.013 Q208.797 853.013 205.718 848.43 Q202.662 843.824 202.662 835.097 Q202.662 826.347 205.718 821.764 Q208.797 817.157 214.607 817.157 Z" fill="#000000" fill-rule="evenodd" fill-opacity="1" /><path clip-path="url(#clip740)" d="M143.103 540.421 L165.325 540.421 L165.325 542.411 L152.778 574.981 L147.894 574.981 L159.7 544.356 L143.103 544.356 L143.103 540.421 Z" fill="#000000" fill-rule="evenodd" fill-opacity="1" /><path clip-path="url(#clip740)" d="M174.491 540.421 L192.848 540.421 L192.848 544.356 L178.774 544.356 L178.774 552.828 Q179.792 552.481 180.811 552.319 Q181.829 552.133 182.848 552.133 Q188.635 552.133 192.014 555.305 Q195.394 558.476 195.394 563.893 Q195.394 569.471 191.922 572.573 Q188.45 575.652 182.13 575.652 Q179.954 575.652 177.686 575.281 Q175.44 574.911 173.033 574.17 L173.033 569.471 Q175.116 570.606 177.339 571.161 Q179.561 571.717 182.038 571.717 Q186.042 571.717 188.38 569.61 Q190.718 567.504 190.718 563.893 Q190.718 560.282 188.38 558.175 Q186.042 556.069 182.038 556.069 Q180.163 556.069 178.288 556.485 Q176.436 556.902 174.491 557.782 L174.491 540.421 Z" fill="#000000" fill-rule="evenodd" fill-opacity="1" /><path clip-path="url(#clip740)" d="M214.607 543.499 Q210.996 543.499 209.167 547.064 Q207.362 550.606 207.362 557.735 Q207.362 564.842 209.167 568.406 Q210.996 571.948 214.607 571.948 Q218.241 571.948 220.047 568.406 Q221.875 564.842 221.875 557.735 Q221.875 550.606 220.047 547.064 Q218.241 543.499 214.607 543.499 M214.607 539.796 Q220.417 539.796 223.473 544.402 Q226.551 548.985 226.551 557.735 Q226.551 566.462 223.473 571.068 Q220.417 575.652 214.607 575.652 Q208.797 575.652 205.718 571.068 Q202.662 566.462 202.662 557.735 Q202.662 548.985 205.718 544.402 Q208.797 539.796 214.607 539.796 Z" fill="#000000" fill-rule="evenodd" fill-opacity="1" /><path clip-path="url(#clip740)" d="M114.931 293.684 L122.57 293.684 L122.57 267.318 L114.26 268.985 L114.26 264.725 L122.524 263.059 L127.2 263.059 L127.2 293.684 L134.839 293.684 L134.839 297.619 L114.931 297.619 L114.931 293.684 Z" fill="#000000" fill-rule="evenodd" fill-opacity="1" /><path clip-path="url(#clip740)" d="M154.283 266.138 Q150.672 266.138 148.843 269.702 Q147.038 273.244 147.038 280.374 Q147.038 287.48 148.843 291.045 Q150.672 294.586 154.283 294.586 Q157.917 294.586 159.723 291.045 Q161.552 287.48 161.552 280.374 Q161.552 273.244 159.723 269.702 Q157.917 266.138 154.283 266.138 M154.283 262.434 Q160.093 262.434 163.149 267.04 Q166.227 271.624 166.227 280.374 Q166.227 289.1 163.149 293.707 Q160.093 298.29 154.283 298.29 Q148.473 298.29 145.394 293.707 Q142.339 289.1 142.339 280.374 Q142.339 271.624 145.394 267.04 Q148.473 262.434 154.283 262.434 Z" fill="#000000" fill-rule="evenodd" fill-opacity="1" /><path clip-path="url(#clip740)" d="M184.445 266.138 Q180.834 266.138 179.005 269.702 Q177.2 273.244 177.2 280.374 Q177.2 287.48 179.005 291.045 Q180.834 294.586 184.445 294.586 Q188.079 294.586 189.885 291.045 Q191.713 287.48 191.713 280.374 Q191.713 273.244 189.885 269.702 Q188.079 266.138 184.445 266.138 M184.445 262.434 Q190.255 262.434 193.311 267.04 Q196.389 271.624 196.389 280.374 Q196.389 289.1 193.311 293.707 Q190.255 298.29 184.445 298.29 Q178.635 298.29 175.556 293.707 Q172.501 289.1 172.501 280.374 Q172.501 271.624 175.556 267.04 Q178.635 262.434 184.445 262.434 Z" fill="#000000" fill-rule="evenodd" fill-opacity="1" /><path clip-path="url(#clip740)" d="M214.607 266.138 Q210.996 266.138 209.167 269.702 Q207.362 273.244 207.362 280.374 Q207.362 287.48 209.167 291.045 Q210.996 294.586 214.607 294.586 Q218.241 294.586 220.047 291.045 Q221.875 287.48 221.875 280.374 Q221.875 273.244 220.047 269.702 Q218.241 266.138 214.607 266.138 M214.607 262.434 Q220.417 262.434 223.473 267.04 Q226.551 271.624 226.551 280.374 Q226.551 289.1 223.473 293.707 Q220.417 298.29 214.607 298.29 Q208.797 298.29 205.718 293.707 Q202.662 289.1 202.662 280.374 Q202.662 271.624 205.718 267.04 Q208.797 262.434 214.607 262.434 Z" fill="#000000" fill-rule="evenodd" fill-opacity="1" /><path clip-path="url(#clip740)" d="M67.3143 733.525 Q73.68 736.008 75.6216 738.363 Q77.5631 740.718 77.5631 744.665 L77.5631 749.344 L72.6615 749.344 L72.6615 745.906 Q72.6615 743.487 71.5157 742.151 Q70.3699 740.814 66.1048 739.191 L63.4312 738.14 L28.3562 752.559 L28.3562 746.352 L56.238 735.212 L28.3562 724.072 L28.3562 717.865 L67.3143 733.525 Z" fill="#000000" fill-rule="evenodd" fill-opacity="1" /><polyline clip-path="url(#clip742)" style="stroke:#009af9; stroke-linecap:round; stroke-linejoin:round; stroke-width:4; stroke-opacity:1; fill:none" points="
  2259,1117.97 2109.23,701.929 1815.23,585.437 1604.43,102.827 972.046,86.1857 855.554,324.717 711.326,557.701 489.437,652.003 433.964,1101.33 356.303,1134.61 
  356.303,1184.54 1060.8,1190.09 1626.62,1317.67 1676.54,1117.97 1249.41,851.704 1132.92,979.29 783.44,1112.42 661.401,873.893 794.534,774.043 788.987,685.287 
  966.499,652.003 944.31,485.586 894.385,419.02 911.026,280.339 1049.71,136.111 1299.33,369.095 1304.88,657.551 1266.05,663.098 1254.95,696.381 1249.41,713.023 
  1182.84,713.023 1088.54,713.023 1088.54,729.665 1105.18,746.306 1105.18,835.062 988.688,990.385 949.857,984.837 861.101,929.365 905.479,740.759 955.404,751.854 
  999.782,696.381 1127.37,685.287 1171.75,668.645 1210.58,674.192 1266.05,635.362 1376.99,629.815 1410.28,746.306 1682.09,746.306 1715.38,946.007 1793.04,1040.31 
  1953.91,1167.9 2026.02,1384.24 
  "/>
<circle clip-path="url(#clip742)" cx="2259" cy="1117.97" r="7.2" fill="#009af9" fill-rule="evenodd" fill-opacity="1" stroke="#000000" stroke-opacity="1" stroke-width="3.2"/>
<circle clip-path="url(#clip742)" cx="2109.23" cy="701.929" r="7.2" fill="#009af9" fill-rule="evenodd" fill-opacity="1" stroke="#000000" stroke-opacity="1" stroke-width="3.2"/>
<circle clip-path="url(#clip742)" cx="1815.23" cy="585.437" r="7.2" fill="#009af9" fill-rule="evenodd" fill-opacity="1" stroke="#000000" stroke-opacity="1" stroke-width="3.2"/>
<circle clip-path="url(#clip742)" cx="1604.43" cy="102.827" r="7.2" fill="#009af9" fill-rule="evenodd" fill-opacity="1" stroke="#000000" stroke-opacity="1" stroke-width="3.2"/>
<circle clip-path="url(#clip742)" cx="972.046" cy="86.1857" r="7.2" fill="#009af9" fill-rule="evenodd" fill-opacity="1" stroke="#000000" stroke-opacity="1" stroke-width="3.2"/>
<circle clip-path="url(#clip742)" cx="855.554" cy="324.717" r="7.2" fill="#009af9" fill-rule="evenodd" fill-opacity="1" stroke="#000000" stroke-opacity="1" stroke-width="3.2"/>
<circle clip-path="url(#clip742)" cx="711.326" cy="557.701" r="7.2" fill="#009af9" fill-rule="evenodd" fill-opacity="1" stroke="#000000" stroke-opacity="1" stroke-width="3.2"/>
<circle clip-path="url(#clip742)" cx="489.437" cy="652.003" r="7.2" fill="#009af9" fill-rule="evenodd" fill-opacity="1" stroke="#000000" stroke-opacity="1" stroke-width="3.2"/>
<circle clip-path="url(#clip742)" cx="433.964" cy="1101.33" r="7.2" fill="#009af9" fill-rule="evenodd" fill-opacity="1" stroke="#000000" stroke-opacity="1" stroke-width="3.2"/>
<circle clip-path="url(#clip742)" cx="356.303" cy="1134.61" r="7.2" fill="#009af9" fill-rule="evenodd" fill-opacity="1" stroke="#000000" stroke-opacity="1" stroke-width="3.2"/>
<circle clip-path="url(#clip742)" cx="356.303" cy="1184.54" r="7.2" fill="#009af9" fill-rule="evenodd" fill-opacity="1" stroke="#000000" stroke-opacity="1" stroke-width="3.2"/>
<circle clip-path="url(#clip742)" cx="1060.8" cy="1190.09" r="7.2" fill="#009af9" fill-rule="evenodd" fill-opacity="1" stroke="#000000" stroke-opacity="1" stroke-width="3.2"/>
<circle clip-path="url(#clip742)" cx="1626.62" cy="1317.67" r="7.2" fill="#009af9" fill-rule="evenodd" fill-opacity="1" stroke="#000000" stroke-opacity="1" stroke-width="3.2"/>
<circle clip-path="url(#clip742)" cx="1676.54" cy="1117.97" r="7.2" fill="#009af9" fill-rule="evenodd" fill-opacity="1" stroke="#000000" stroke-opacity="1" stroke-width="3.2"/>
<circle clip-path="url(#clip742)" cx="1249.41" cy="851.704" r="7.2" fill="#009af9" fill-rule="evenodd" fill-opacity="1" stroke="#000000" stroke-opacity="1" stroke-width="3.2"/>
<circle clip-path="url(#clip742)" cx="1132.92" cy="979.29" r="7.2" fill="#009af9" fill-rule="evenodd" fill-opacity="1" stroke="#000000" stroke-opacity="1" stroke-width="3.2"/>
<circle clip-path="url(#clip742)" cx="783.44" cy="1112.42" r="7.2" fill="#009af9" fill-rule="evenodd" fill-opacity="1" stroke="#000000" stroke-opacity="1" stroke-width="3.2"/>
<circle clip-path="url(#clip742)" cx="661.401" cy="873.893" r="7.2" fill="#009af9" fill-rule="evenodd" fill-opacity="1" stroke="#000000" stroke-opacity="1" stroke-width="3.2"/>
<circle clip-path="url(#clip742)" cx="794.534" cy="774.043" r="7.2" fill="#009af9" fill-rule="evenodd" fill-opacity="1" stroke="#000000" stroke-opacity="1" stroke-width="3.2"/>
<circle clip-path="url(#clip742)" cx="788.987" cy="685.287" r="7.2" fill="#009af9" fill-rule="evenodd" fill-opacity="1" stroke="#000000" stroke-opacity="1" stroke-width="3.2"/>
<circle clip-path="url(#clip742)" cx="966.499" cy="652.003" r="7.2" fill="#009af9" fill-rule="evenodd" fill-opacity="1" stroke="#000000" stroke-opacity="1" stroke-width="3.2"/>
<circle clip-path="url(#clip742)" cx="944.31" cy="485.586" r="7.2" fill="#009af9" fill-rule="evenodd" fill-opacity="1" stroke="#000000" stroke-opacity="1" stroke-width="3.2"/>
<circle clip-path="url(#clip742)" cx="894.385" cy="419.02" r="7.2" fill="#009af9" fill-rule="evenodd" fill-opacity="1" stroke="#000000" stroke-opacity="1" stroke-width="3.2"/>
<circle clip-path="url(#clip742)" cx="911.026" cy="280.339" r="7.2" fill="#009af9" fill-rule="evenodd" fill-opacity="1" stroke="#000000" stroke-opacity="1" stroke-width="3.2"/>
<circle clip-path="url(#clip742)" cx="1049.71" cy="136.111" r="7.2" fill="#009af9" fill-rule="evenodd" fill-opacity="1" stroke="#000000" stroke-opacity="1" stroke-width="3.2"/>
<circle clip-path="url(#clip742)" cx="1299.33" cy="369.095" r="7.2" fill="#009af9" fill-rule="evenodd" fill-opacity="1" stroke="#000000" stroke-opacity="1" stroke-width="3.2"/>
<circle clip-path="url(#clip742)" cx="1304.88" cy="657.551" r="7.2" fill="#009af9" fill-rule="evenodd" fill-opacity="1" stroke="#000000" stroke-opacity="1" stroke-width="3.2"/>
<circle clip-path="url(#clip742)" cx="1266.05" cy="663.098" r="7.2" fill="#009af9" fill-rule="evenodd" fill-opacity="1" stroke="#000000" stroke-opacity="1" stroke-width="3.2"/>
<circle clip-path="url(#clip742)" cx="1254.95" cy="696.381" r="7.2" fill="#009af9" fill-rule="evenodd" fill-opacity="1" stroke="#000000" stroke-opacity="1" stroke-width="3.2"/>
<circle clip-path="url(#clip742)" cx="1249.41" cy="713.023" r="7.2" fill="#009af9" fill-rule="evenodd" fill-opacity="1" stroke="#000000" stroke-opacity="1" stroke-width="3.2"/>
<circle clip-path="url(#clip742)" cx="1182.84" cy="713.023" r="7.2" fill="#009af9" fill-rule="evenodd" fill-opacity="1" stroke="#000000" stroke-opacity="1" stroke-width="3.2"/>
<circle clip-path="url(#clip742)" cx="1088.54" cy="713.023" r="7.2" fill="#009af9" fill-rule="evenodd" fill-opacity="1" stroke="#000000" stroke-opacity="1" stroke-width="3.2"/>
<circle clip-path="url(#clip742)" cx="1088.54" cy="729.665" r="7.2" fill="#009af9" fill-rule="evenodd" fill-opacity="1" stroke="#000000" stroke-opacity="1" stroke-width="3.2"/>
<circle clip-path="url(#clip742)" cx="1105.18" cy="746.306" r="7.2" fill="#009af9" fill-rule="evenodd" fill-opacity="1" stroke="#000000" stroke-opacity="1" stroke-width="3.2"/>
<circle clip-path="url(#clip742)" cx="1105.18" cy="835.062" r="7.2" fill="#009af9" fill-rule="evenodd" fill-opacity="1" stroke="#000000" stroke-opacity="1" stroke-width="3.2"/>
<circle clip-path="url(#clip742)" cx="988.688" cy="990.385" r="7.2" fill="#009af9" fill-rule="evenodd" fill-opacity="1" stroke="#000000" stroke-opacity="1" stroke-width="3.2"/>
<circle clip-path="url(#clip742)" cx="949.857" cy="984.837" r="7.2" fill="#009af9" fill-rule="evenodd" fill-opacity="1" stroke="#000000" stroke-opacity="1" stroke-width="3.2"/>
<circle clip-path="url(#clip742)" cx="861.101" cy="929.365" r="7.2" fill="#009af9" fill-rule="evenodd" fill-opacity="1" stroke="#000000" stroke-opacity="1" stroke-width="3.2"/>
<circle clip-path="url(#clip742)" cx="905.479" cy="740.759" r="7.2" fill="#009af9" fill-rule="evenodd" fill-opacity="1" stroke="#000000" stroke-opacity="1" stroke-width="3.2"/>
<circle clip-path="url(#clip742)" cx="955.404" cy="751.854" r="7.2" fill="#009af9" fill-rule="evenodd" fill-opacity="1" stroke="#000000" stroke-opacity="1" stroke-width="3.2"/>
<circle clip-path="url(#clip742)" cx="999.782" cy="696.381" r="7.2" fill="#009af9" fill-rule="evenodd" fill-opacity="1" stroke="#000000" stroke-opacity="1" stroke-width="3.2"/>
<circle clip-path="url(#clip742)" cx="1127.37" cy="685.287" r="7.2" fill="#009af9" fill-rule="evenodd" fill-opacity="1" stroke="#000000" stroke-opacity="1" stroke-width="3.2"/>
<circle clip-path="url(#clip742)" cx="1171.75" cy="668.645" r="7.2" fill="#009af9" fill-rule="evenodd" fill-opacity="1" stroke="#000000" stroke-opacity="1" stroke-width="3.2"/>
<circle clip-path="url(#clip742)" cx="1210.58" cy="674.192" r="7.2" fill="#009af9" fill-rule="evenodd" fill-opacity="1" stroke="#000000" stroke-opacity="1" stroke-width="3.2"/>
<circle clip-path="url(#clip742)" cx="1266.05" cy="635.362" r="7.2" fill="#009af9" fill-rule="evenodd" fill-opacity="1" stroke="#000000" stroke-opacity="1" stroke-width="3.2"/>
<circle clip-path="url(#clip742)" cx="1376.99" cy="629.815" r="7.2" fill="#009af9" fill-rule="evenodd" fill-opacity="1" stroke="#000000" stroke-opacity="1" stroke-width="3.2"/>
<circle clip-path="url(#clip742)" cx="1410.28" cy="746.306" r="7.2" fill="#009af9" fill-rule="evenodd" fill-opacity="1" stroke="#000000" stroke-opacity="1" stroke-width="3.2"/>
<circle clip-path="url(#clip742)" cx="1682.09" cy="746.306" r="7.2" fill="#009af9" fill-rule="evenodd" fill-opacity="1" stroke="#000000" stroke-opacity="1" stroke-width="3.2"/>
<circle clip-path="url(#clip742)" cx="1715.38" cy="946.007" r="7.2" fill="#009af9" fill-rule="evenodd" fill-opacity="1" stroke="#000000" stroke-opacity="1" stroke-width="3.2"/>
<circle clip-path="url(#clip742)" cx="1793.04" cy="1040.31" r="7.2" fill="#009af9" fill-rule="evenodd" fill-opacity="1" stroke="#000000" stroke-opacity="1" stroke-width="3.2"/>
<circle clip-path="url(#clip742)" cx="1953.91" cy="1167.9" r="7.2" fill="#009af9" fill-rule="evenodd" fill-opacity="1" stroke="#000000" stroke-opacity="1" stroke-width="3.2"/>
<circle clip-path="url(#clip742)" cx="2026.02" cy="1384.24" r="7.2" fill="#009af9" fill-rule="evenodd" fill-opacity="1" stroke="#000000" stroke-opacity="1" stroke-width="3.2"/>
</svg>
