<?xml version="1.0" encoding="utf-8"?>
<svg xmlns="http://www.w3.org/2000/svg" xmlns:xlink="http://www.w3.org/1999/xlink" width="600" height="400" viewBox="0 0 2400 1600">
<defs>
  <clipPath id="clip830">
    <rect x="0" y="0" width="2400" height="1600"/>
  </clipPath>
</defs>
<path clip-path="url(#clip830)" d="
M0 1600 L2400 1600 L2400 0 L0 0  Z
  " fill="#ffffff" fill-rule="evenodd" fill-opacity="1"/>
<defs>
  <clipPath id="clip831">
    <rect x="480" y="0" width="1681" height="1600"/>
  </clipPath>
</defs>
<path clip-path="url(#clip830)" d="
M235.283 1423.18 L2352.76 1423.18 L2352.76 47.2441 L235.283 47.2441  Z
  " fill="#ffffff" fill-rule="evenodd" fill-opacity="1"/>
<defs>
  <clipPath id="clip832">
    <rect x="235" y="47" width="2118" height="1377"/>
  </clipPath>
</defs>
<polyline clip-path="url(#clip832)" style="stroke:#000000; stroke-linecap:round; stroke-linejoin:round; stroke-width:2; stroke-opacity:0.1; fill:none" points="
  630.75,1423.18 630.75,47.2441 
  "/>
<polyline clip-path="url(#clip832)" style="stroke:#000000; stroke-linecap:round; stroke-linejoin:round; stroke-width:2; stroke-opacity:0.1; fill:none" points="
  1100.68,1423.18 1100.68,47.2441 
  "/>
<polyline clip-path="url(#clip832)" style="stroke:#000000; stroke-linecap:round; stroke-linejoin:round; stroke-width:2; stroke-opacity:0.1; fill:none" points="
  1570.61,1423.18 1570.61,47.2441 
  "/>
<polyline clip-path="url(#clip832)" style="stroke:#000000; stroke-linecap:round; stroke-linejoin:round; stroke-width:2; stroke-opacity:0.1; fill:none" points="
  2040.54,1423.18 2040.54,47.2441 
  "/>
<polyline clip-path="url(#clip830)" style="stroke:#000000; stroke-linecap:round; stroke-linejoin:round; stroke-width:4; stroke-opacity:1; fill:none" points="
  235.283,1423.18 2352.76,1423.18 
  "/>
<polyline clip-path="url(#clip830)" style="stroke:#000000; stroke-linecap:round; stroke-linejoin:round; stroke-width:4; stroke-opacity:1; fill:none" points="
  630.75,1423.18 630.75,1404.28 
  "/>
<polyline clip-path="url(#clip830)" style="stroke:#000000; stroke-linecap:round; stroke-linejoin:round; stroke-width:4; stroke-opacity:1; fill:none" points="
  1100.68,1423.18 1100.68,1404.28 
  "/>
<polyline clip-path="url(#clip830)" style="stroke:#000000; stroke-linecap:round; stroke-linejoin:round; stroke-width:4; stroke-opacity:1; fill:none" points="
  1570.61,1423.18 1570.61,1404.28 
  "/>
<polyline clip-path="url(#clip830)" style="stroke:#000000; stroke-linecap:round; stroke-linejoin:round; stroke-width:4; stroke-opacity:1; fill:none" points="
  2040.54,1423.18 2040.54,1404.28 
  "/>
<path clip-path="url(#clip830)" d="M630.75 1454.1 Q627.139 1454.1 625.31 1457.66 Q623.505 1461.2 623.505 1468.33 Q623.505 1475.44 625.31 1479.01 Q627.139 1482.55 630.75 1482.55 Q634.384 1482.55 636.19 1479.01 Q638.018 1475.44 638.018 1468.33 Q638.018 1461.2 636.19 1457.66 Q634.384 1454.1 630.75 1454.1 M630.75 1450.39 Q636.56 1450.39 639.616 1455 Q642.694 1459.58 642.694 1468.33 Q642.694 1477.06 639.616 1481.67 Q636.56 1486.25 630.75 1486.25 Q624.94 1486.25 621.861 1481.67 Q618.806 1477.06 618.806 1468.33 Q618.806 1459.58 621.861 1455 Q624.94 1450.39 630.75 1450.39 Z" fill="#000000" fill-rule="evenodd" fill-opacity="1" /><path clip-path="url(#clip830)" d="M1064.37 1481.64 L1080.69 1481.64 L1080.69 1485.58 L1058.75 1485.58 L1058.75 1481.64 Q1061.41 1478.89 1065.99 1474.26 Q1070.6 1469.61 1071.78 1468.27 Q1074.03 1465.74 1074.91 1464.01 Q1075.81 1462.25 1075.81 1460.56 Q1075.81 1457.8 1073.86 1456.07 Q1071.94 1454.33 1068.84 1454.33 Q1066.64 1454.33 1064.19 1455.09 Q1061.76 1455.86 1058.98 1457.41 L1058.98 1452.69 Q1061.8 1451.55 1064.26 1450.97 Q1066.71 1450.39 1068.75 1450.39 Q1074.12 1450.39 1077.31 1453.08 Q1080.51 1455.77 1080.51 1460.26 Q1080.51 1462.39 1079.7 1464.31 Q1078.91 1466.2 1076.8 1468.8 Q1076.22 1469.47 1073.12 1472.69 Q1070.02 1475.88 1064.37 1481.64 Z" fill="#000000" fill-rule="evenodd" fill-opacity="1" /><path clip-path="url(#clip830)" d="M1090.55 1451.02 L1108.91 1451.02 L1108.91 1454.96 L1094.84 1454.96 L1094.84 1463.43 Q1095.85 1463.08 1096.87 1462.92 Q1097.89 1462.73 1098.91 1462.73 Q1104.7 1462.73 1108.08 1465.9 Q1111.46 1469.08 1111.46 1474.49 Q1111.46 1480.07 1107.98 1483.17 Q1104.51 1486.25 1098.19 1486.25 Q1096.02 1486.25 1093.75 1485.88 Q1091.5 1485.51 1089.09 1484.77 L1089.09 1480.07 Q1091.18 1481.2 1093.4 1481.76 Q1095.62 1482.32 1098.1 1482.32 Q1102.1 1482.32 1104.44 1480.21 Q1106.78 1478.1 1106.78 1474.49 Q1106.78 1470.88 1104.44 1468.77 Q1102.1 1466.67 1098.1 1466.67 Q1096.22 1466.67 1094.35 1467.08 Q1092.5 1467.5 1090.55 1468.38 L1090.55 1451.02 Z" fill="#000000" fill-rule="evenodd" fill-opacity="1" /><path clip-path="url(#clip830)" d="M1130.67 1454.1 Q1127.06 1454.1 1125.23 1457.66 Q1123.42 1461.2 1123.42 1468.33 Q1123.42 1475.44 1125.23 1479.01 Q1127.06 1482.55 1130.67 1482.55 Q1134.3 1482.55 1136.11 1479.01 Q1137.94 1475.44 1137.94 1468.33 Q1137.94 1461.2 1136.11 1457.66 Q1134.3 1454.1 1130.67 1454.1 M1130.67 1450.39 Q1136.48 1450.39 1139.53 1455 Q1142.61 1459.58 1142.61 1468.33 Q1142.61 1477.06 1139.53 1481.67 Q1136.48 1486.25 1130.67 1486.25 Q1124.86 1486.25 1121.78 1481.67 Q1118.72 1477.06 1118.72 1468.33 Q1118.72 1459.58 1121.78 1455 Q1124.86 1450.39 1130.67 1450.39 Z" fill="#000000" fill-rule="evenodd" fill-opacity="1" /><path clip-path="url(#clip830)" d="M1530.23 1451.02 L1548.59 1451.02 L1548.59 1454.96 L1534.51 1454.96 L1534.51 1463.43 Q1535.53 1463.08 1536.55 1462.92 Q1537.57 1462.73 1538.59 1462.73 Q1544.37 1462.73 1547.75 1465.9 Q1551.13 1469.08 1551.13 1474.49 Q1551.13 1480.07 1547.66 1483.17 Q1544.19 1486.25 1537.87 1486.25 Q1535.69 1486.25 1533.42 1485.88 Q1531.18 1485.51 1528.77 1484.77 L1528.77 1480.07 Q1530.85 1481.2 1533.08 1481.76 Q1535.3 1482.32 1537.78 1482.32 Q1541.78 1482.32 1544.12 1480.21 Q1546.46 1478.1 1546.46 1474.49 Q1546.46 1470.88 1544.12 1468.77 Q1541.78 1466.67 1537.78 1466.67 Q1535.9 1466.67 1534.03 1467.08 Q1532.17 1467.5 1530.23 1468.38 L1530.23 1451.02 Z" fill="#000000" fill-rule="evenodd" fill-opacity="1" /><path clip-path="url(#clip830)" d="M1570.34 1454.1 Q1566.73 1454.1 1564.9 1457.66 Q1563.1 1461.2 1563.1 1468.33 Q1563.1 1475.44 1564.9 1479.01 Q1566.73 1482.55 1570.34 1482.55 Q1573.98 1482.55 1575.78 1479.01 Q1577.61 1475.44 1577.61 1468.33 Q1577.61 1461.2 1575.78 1457.66 Q1573.98 1454.1 1570.34 1454.1 M1570.34 1450.39 Q1576.15 1450.39 1579.21 1455 Q1582.29 1459.58 1582.29 1468.33 Q1582.29 1477.06 1579.21 1481.67 Q1576.15 1486.25 1570.34 1486.25 Q1564.53 1486.25 1561.46 1481.67 Q1558.4 1477.06 1558.4 1468.33 Q1558.4 1459.58 1561.46 1455 Q1564.53 1450.39 1570.34 1450.39 Z" fill="#000000" fill-rule="evenodd" fill-opacity="1" /><path clip-path="url(#clip830)" d="M1600.51 1454.1 Q1596.9 1454.1 1595.07 1457.66 Q1593.26 1461.2 1593.26 1468.33 Q1593.26 1475.44 1595.07 1479.01 Q1596.9 1482.55 1600.51 1482.55 Q1604.14 1482.55 1605.95 1479.01 Q1607.77 1475.44 1607.77 1468.33 Q1607.77 1461.2 1605.95 1457.66 Q1604.14 1454.1 1600.51 1454.1 M1600.51 1450.39 Q1606.32 1450.39 1609.37 1455 Q1612.45 1459.58 1612.45 1468.33 Q1612.45 1477.06 1609.37 1481.67 Q1606.32 1486.25 1600.51 1486.25 Q1594.7 1486.25 1591.62 1481.67 Q1588.56 1477.06 1588.56 1468.33 Q1588.56 1459.58 1591.62 1455 Q1594.7 1450.39 1600.51 1450.39 Z" fill="#000000" fill-rule="evenodd" fill-opacity="1" /><path clip-path="url(#clip830)" d="M1998.82 1451.02 L2021.04 1451.02 L2021.04 1453.01 L2008.49 1485.58 L2003.61 1485.58 L2015.41 1454.96 L1998.82 1454.96 L1998.82 1451.02 Z" fill="#000000" fill-rule="evenodd" fill-opacity="1" /><path clip-path="url(#clip830)" d="M2030.21 1451.02 L2048.56 1451.02 L2048.56 1454.96 L2034.49 1454.96 L2034.49 1463.43 Q2035.51 1463.08 2036.53 1462.92 Q2037.54 1462.73 2038.56 1462.73 Q2044.35 1462.73 2047.73 1465.9 Q2051.11 1469.08 2051.11 1474.49 Q2051.11 1480.07 2047.64 1483.17 Q2044.16 1486.25 2037.84 1486.25 Q2035.67 1486.25 2033.4 1485.88 Q2031.15 1485.51 2028.75 1484.77 L2028.75 1480.07 Q2030.83 1481.2 2033.05 1481.76 Q2035.28 1482.32 2037.75 1482.32 Q2041.76 1482.32 2044.09 1480.21 Q2046.43 1478.1 2046.43 1474.49 Q2046.43 1470.88 2044.09 1468.77 Q2041.76 1466.67 2037.75 1466.67 Q2035.88 1466.67 2034 1467.08 Q2032.15 1467.5 2030.21 1468.38 L2030.21 1451.02 Z" fill="#000000" fill-rule="evenodd" fill-opacity="1" /><path clip-path="url(#clip830)" d="M2070.32 1454.1 Q2066.71 1454.1 2064.88 1457.66 Q2063.08 1461.2 2063.08 1468.33 Q2063.08 1475.44 2064.88 1479.01 Q2066.71 1482.55 2070.32 1482.55 Q2073.96 1482.55 2075.76 1479.01 Q2077.59 1475.44 2077.59 1468.33 Q2077.59 1461.2 2075.76 1457.66 Q2073.96 1454.1 2070.32 1454.1 M2070.32 1450.39 Q2076.13 1450.39 2079.19 1455 Q2082.27 1459.58 2082.27 1468.33 Q2082.27 1477.06 2079.19 1481.67 Q2076.13 1486.25 2070.32 1486.25 Q2064.51 1486.25 2061.43 1481.67 Q2058.38 1477.06 2058.38 1468.33 Q2058.38 1459.58 2061.43 1455 Q2064.51 1450.39 2070.32 1450.39 Z" fill="#000000" fill-rule="evenodd" fill-opacity="1" /><path clip-path="url(#clip830)" d="M1310.63 1532.4 L1297.74 1549.74 L1311.3 1568.04 L1304.4 1568.04 L1294.02 1554.04 L1283.64 1568.04 L1276.74 1568.04 L1290.58 1549.39 L1277.91 1532.4 L1284.82 1532.4 L1294.27 1545.1 L1303.73 1532.4 L1310.63 1532.4 Z" fill="#000000" fill-rule="evenodd" fill-opacity="1" /><polyline clip-path="url(#clip832)" style="stroke:#000000; stroke-linecap:round; stroke-linejoin:round; stroke-width:2; stroke-opacity:0.1; fill:none" points="
  235.283,1385.12 2352.76,1385.12 
  "/>
<polyline clip-path="url(#clip832)" style="stroke:#000000; stroke-linecap:round; stroke-linejoin:round; stroke-width:2; stroke-opacity:0.1; fill:none" points="
  235.283,1009.18 2352.76,1009.18 
  "/>
<polyline clip-path="url(#clip832)" style="stroke:#000000; stroke-linecap:round; stroke-linejoin:round; stroke-width:2; stroke-opacity:0.1; fill:none" points="
  235.283,633.234 2352.76,633.234 
  "/>
<polyline clip-path="url(#clip832)" style="stroke:#000000; stroke-linecap:round; stroke-linejoin:round; stroke-width:2; stroke-opacity:0.1; fill:none" points="
  235.283,257.289 2352.76,257.289 
  "/>
<polyline clip-path="url(#clip830)" style="stroke:#000000; stroke-linecap:round; stroke-linejoin:round; stroke-width:4; stroke-opacity:1; fill:none" points="
  235.283,1423.18 235.283,47.2441 
  "/>
<polyline clip-path="url(#clip830)" style="stroke:#000000; stroke-linecap:round; stroke-linejoin:round; stroke-width:4; stroke-opacity:1; fill:none" points="
  235.283,1385.12 254.18,1385.12 
  "/>
<polyline clip-path="url(#clip830)" style="stroke:#000000; stroke-linecap:round; stroke-linejoin:round; stroke-width:4; stroke-opacity:1; fill:none" points="
  235.283,1009.18 254.18,1009.18 
  "/>
<polyline clip-path="url(#clip830)" style="stroke:#000000; stroke-linecap:round; stroke-linejoin:round; stroke-width:4; stroke-opacity:1; fill:none" points="
  235.283,633.234 254.18,633.234 
  "/>
<polyline clip-path="url(#clip830)" style="stroke:#000000; stroke-linecap:round; stroke-linejoin:round; stroke-width:4; stroke-opacity:1; fill:none" points="
  235.283,257.289 254.18,257.289 
  "/>
<path clip-path="url(#clip830)" d="M187.338 1370.92 Q183.727 1370.92 181.899 1374.49 Q180.093 1378.03 180.093 1385.16 Q180.093 1392.26 181.899 1395.83 Q183.727 1399.37 187.338 1399.37 Q190.973 1399.37 192.778 1395.83 Q194.607 1392.26 194.607 1385.16 Q194.607 1378.03 192.778 1374.49 Q190.973 1370.92 187.338 1370.92 M187.338 1367.22 Q193.149 1367.22 196.204 1371.82 Q199.283 1376.41 199.283 1385.16 Q199.283 1393.88 196.204 1398.49 Q193.149 1403.07 187.338 1403.07 Q181.528 1403.07 178.45 1398.49 Q175.394 1393.88 175.394 1385.16 Q175.394 1376.41 178.45 1371.82 Q181.528 1367.22 187.338 1367.22 Z" fill="#000000" fill-rule="evenodd" fill-opacity="1" /><path clip-path="url(#clip830)" d="M121.043 1022.52 L137.362 1022.52 L137.362 1026.46 L115.418 1026.46 L115.418 1022.52 Q118.08 1019.77 122.663 1015.14 Q127.269 1010.49 128.45 1009.14 Q130.695 1006.62 131.575 1004.88 Q132.478 1003.12 132.478 1001.43 Q132.478 998.68 130.533 996.944 Q128.612 995.208 125.51 995.208 Q123.311 995.208 120.857 995.972 Q118.427 996.736 115.649 998.287 L115.649 993.565 Q118.473 992.43 120.927 991.852 Q123.38 991.273 125.418 991.273 Q130.788 991.273 133.982 993.958 Q137.177 996.643 137.177 1001.13 Q137.177 1003.26 136.367 1005.18 Q135.579 1007.08 133.473 1009.68 Q132.894 1010.35 129.792 1013.56 Q126.691 1016.76 121.043 1022.52 Z" fill="#000000" fill-rule="evenodd" fill-opacity="1" /><path clip-path="url(#clip830)" d="M157.177 994.977 Q153.566 994.977 151.737 998.541 Q149.931 1002.08 149.931 1009.21 Q149.931 1016.32 151.737 1019.88 Q153.566 1023.43 157.177 1023.43 Q160.811 1023.43 162.616 1019.88 Q164.445 1016.32 164.445 1009.21 Q164.445 1002.08 162.616 998.541 Q160.811 994.977 157.177 994.977 M157.177 991.273 Q162.987 991.273 166.042 995.879 Q169.121 1000.46 169.121 1009.21 Q169.121 1017.94 166.042 1022.55 Q162.987 1027.13 157.177 1027.13 Q151.366 1027.13 148.288 1022.55 Q145.232 1017.94 145.232 1009.21 Q145.232 1000.46 148.288 995.879 Q151.366 991.273 157.177 991.273 Z" fill="#000000" fill-rule="evenodd" fill-opacity="1" /><path clip-path="url(#clip830)" d="M187.338 994.977 Q183.727 994.977 181.899 998.541 Q180.093 1002.08 180.093 1009.21 Q180.093 1016.32 181.899 1019.88 Q183.727 1023.43 187.338 1023.43 Q190.973 1023.43 192.778 1019.88 Q194.607 1016.32 194.607 1009.21 Q194.607 1002.08 192.778 998.541 Q190.973 994.977 187.338 994.977 M187.338 991.273 Q193.149 991.273 196.204 995.879 Q199.283 1000.46 199.283 1009.21 Q199.283 1017.94 196.204 1022.55 Q193.149 1027.13 187.338 1027.13 Q181.528 1027.13 178.45 1022.55 Q175.394 1017.94 175.394 1009.21 Q175.394 1000.46 178.45 995.879 Q181.528 991.273 187.338 991.273 Z" fill="#000000" fill-rule="evenodd" fill-opacity="1" /><path clip-path="url(#clip830)" d="M129.862 620.028 L118.056 638.477 L129.862 638.477 L129.862 620.028 M128.635 615.954 L134.515 615.954 L134.515 638.477 L139.445 638.477 L139.445 642.365 L134.515 642.365 L134.515 650.514 L129.862 650.514 L129.862 642.365 L114.26 642.365 L114.26 637.852 L128.635 615.954 Z" fill="#000000" fill-rule="evenodd" fill-opacity="1" /><path clip-path="url(#clip830)" d="M157.177 619.032 Q153.566 619.032 151.737 622.597 Q149.931 626.139 149.931 633.268 Q149.931 640.375 151.737 643.939 Q153.566 647.481 157.177 647.481 Q160.811 647.481 162.616 643.939 Q164.445 640.375 164.445 633.268 Q164.445 626.139 162.616 622.597 Q160.811 619.032 157.177 619.032 M157.177 615.329 Q162.987 615.329 166.042 619.935 Q169.121 624.518 169.121 633.268 Q169.121 641.995 166.042 646.602 Q162.987 651.185 157.177 651.185 Q151.366 651.185 148.288 646.602 Q145.232 641.995 145.232 633.268 Q145.232 624.518 148.288 619.935 Q151.366 615.329 157.177 615.329 Z" fill="#000000" fill-rule="evenodd" fill-opacity="1" /><path clip-path="url(#clip830)" d="M187.338 619.032 Q183.727 619.032 181.899 622.597 Q180.093 626.139 180.093 633.268 Q180.093 640.375 181.899 643.939 Q183.727 647.481 187.338 647.481 Q190.973 647.481 192.778 643.939 Q194.607 640.375 194.607 633.268 Q194.607 626.139 192.778 622.597 Q190.973 619.032 187.338 619.032 M187.338 615.329 Q193.149 615.329 196.204 619.935 Q199.283 624.518 199.283 633.268 Q199.283 641.995 196.204 646.602 Q193.149 651.185 187.338 651.185 Q181.528 651.185 178.45 646.602 Q175.394 641.995 175.394 633.268 Q175.394 624.518 178.45 619.935 Q181.528 615.329 187.338 615.329 Z" fill="#000000" fill-rule="evenodd" fill-opacity="1" /><path clip-path="url(#clip830)" d="M127.593 255.426 Q124.445 255.426 122.593 257.579 Q120.765 259.731 120.765 263.481 Q120.765 267.208 122.593 269.384 Q124.445 271.537 127.593 271.537 Q130.742 271.537 132.57 269.384 Q134.422 267.208 134.422 263.481 Q134.422 259.731 132.57 257.579 Q130.742 255.426 127.593 255.426 M136.876 240.773 L136.876 245.032 Q135.117 244.199 133.311 243.759 Q131.529 243.319 129.769 243.319 Q125.14 243.319 122.686 246.444 Q120.255 249.569 119.908 255.889 Q121.274 253.875 123.334 252.81 Q125.394 251.722 127.871 251.722 Q133.08 251.722 136.089 254.893 Q139.121 258.042 139.121 263.481 Q139.121 268.805 135.973 272.023 Q132.825 275.241 127.593 275.241 Q121.598 275.241 118.427 270.657 Q115.256 266.051 115.256 257.324 Q115.256 249.13 119.144 244.268 Q123.033 239.384 129.584 239.384 Q131.343 239.384 133.126 239.731 Q134.931 240.079 136.876 240.773 Z" fill="#000000" fill-rule="evenodd" fill-opacity="1" /><path clip-path="url(#clip830)" d="M157.177 243.088 Q153.566 243.088 151.737 246.653 Q149.931 250.194 149.931 257.324 Q149.931 264.43 151.737 267.995 Q153.566 271.537 157.177 271.537 Q160.811 271.537 162.616 267.995 Q164.445 264.43 164.445 257.324 Q164.445 250.194 162.616 246.653 Q160.811 243.088 157.177 243.088 M157.177 239.384 Q162.987 239.384 166.042 243.991 Q169.121 248.574 169.121 257.324 Q169.121 266.051 166.042 270.657 Q162.987 275.241 157.177 275.241 Q151.366 275.241 148.288 270.657 Q145.232 266.051 145.232 257.324 Q145.232 248.574 148.288 243.991 Q151.366 239.384 157.177 239.384 Z" fill="#000000" fill-rule="evenodd" fill-opacity="1" /><path clip-path="url(#clip830)" d="M187.338 243.088 Q183.727 243.088 181.899 246.653 Q180.093 250.194 180.093 257.324 Q180.093 264.43 181.899 267.995 Q183.727 271.537 187.338 271.537 Q190.973 271.537 192.778 267.995 Q194.607 264.43 194.607 257.324 Q194.607 250.194 192.778 246.653 Q190.973 243.088 187.338 243.088 M187.338 239.384 Q193.149 239.384 196.204 243.991 Q199.283 248.574 199.283 257.324 Q199.283 266.051 196.204 270.657 Q193.149 275.241 187.338 275.241 Q181.528 275.241 178.45 270.657 Q175.394 266.051 175.394 257.324 Q175.394 248.574 178.45 243.991 Q181.528 239.384 187.338 239.384 Z" fill="#000000" fill-rule="evenodd" fill-opacity="1" /><path clip-path="url(#clip830)" d="M67.3143 733.525 Q73.68 736.008 75.6216 738.363 Q77.5631 740.718 77.5631 744.665 L77.5631 749.344 L72.6615 749.344 L72.6615 745.906 Q72.6615 743.487 71.5157 742.151 Q70.3699 740.814 66.1048 739.191 L63.4312 738.14 L28.3562 752.559 L28.3562 746.352 L56.238 735.212 L28.3562 724.072 L28.3562 717.865 L67.3143 733.525 Z" fill="#000000" fill-rule="evenodd" fill-opacity="1" /><polyline clip-path="url(#clip832)" style="stroke:#009af9; stroke-linecap:round; stroke-linejoin:round; stroke-width:4; stroke-opacity:1; fill:none" points="
  643.767,1340.24 706.123,1033.17 789.612,1040.52 814.843,988.33 950,923.444 995.44,889.855 963.5,829.469 798.129,864.221 772.657,796.923 686.235,764.743 
  691.056,735.011 706.926,586.836 873.864,566.186 905.001,634.125 849.194,701.704 776.835,718.981 682.74,586.677 691.217,541.315 687.641,539.106 676.271,444.609 
  662.57,150.951 671.57,142.675 727.899,114.35 882.059,112.22 1044.38,213.909 1105.85,378.074 1105.25,379.159 1032.2,396.637 948.835,355.375 894.796,419.778 
  1018.06,562.248 1118.95,530.507 1158.16,522.794 1275.4,459.675 1410.92,484.585 1473.95,383.62 1484.16,375.302 1529.36,427.131 1577.73,417.648 1550.45,134.519 
  1262.3,143.318 1187.01,135.805 1173.03,129.979 1129.71,97.5148 1023.97,86.1857 994.839,106.475 1008.86,165.134 1232.05,206.837 1309.75,324.517 1488.5,262.564 
  1876.73,352.723 1931.78,362.928 1915.1,606.523 1906.62,613.072 1786.01,597.765 1755.48,545.133 1651.46,480.004 1636.87,499.651 1588.86,565.943 1619.8,615.402 
  1608.11,731.034 1515.5,803.111 1482.99,853.334 1579.1,932.322 1577.89,1060.17 1610.4,1135.38 1541.21,1292.55 1432.17,1269.09 1411.2,1236.79 1447.2,1210.87 
  1477.17,1147.55 1382.03,1090.3 1381.75,1064.02 1388.82,998.093 1413.01,957.273 1378.21,891.099 1461.18,821.634 1512.89,855.061 1672.59,859.883 1699.51,845.458 
  1944.27,730.15 1922.66,682.98 1902.08,687.561 1756.8,706.364 1697.74,722.114 1686.17,713.396 1707.38,683.383 1705.46,678.802 1465.44,662.089 1416.1,743.648 
  1327.15,760.041 1188.97,796.523 1161.98,765.908 1127.66,675.388 1126.34,583.261 1082.87,575.707 1044.3,616.085 1052.01,711.266 1097.33,738.586 1137.27,828.826 
  1000.46,968.16 801.906,1105.57 711.306,1265.15 749.956,1340.57 789.571,1325.26 901.105,1210.87 965.549,1188.33 1034.09,1303.08 1079.41,1322.16 1259.69,1081.02 
  1327.67,1099.58 1354.31,1220.72 1298.34,1241.53 1225.82,1261.74 1135.26,1285.68 1158.48,1373.99 1216.5,1381.35 1549.73,1378.33 1829.48,1283.23 1830.93,1267.4 
  1764.76,1132.49 1713.17,1118.26 1627.91,1039.56 1617.79,983.79 1621.16,979.651 1695.73,1009.26 1825.39,1007.33 1927.4,1070.09 1865.76,1310.35 1924.87,1384.24 
  
  "/>
<circle clip-path="url(#clip832)" cx="643.767" cy="1340.24" r="7.2" fill="#009af9" fill-rule="evenodd" fill-opacity="1" stroke="#000000" stroke-opacity="1" stroke-width="3.2"/>
<circle clip-path="url(#clip832)" cx="706.123" cy="1033.17" r="7.2" fill="#009af9" fill-rule="evenodd" fill-opacity="1" stroke="#000000" stroke-opacity="1" stroke-width="3.2"/>
<circle clip-path="url(#clip832)" cx="789.612" cy="1040.52" r="7.2" fill="#009af9" fill-rule="evenodd" fill-opacity="1" stroke="#000000" stroke-opacity="1" stroke-width="3.2"/>
<circle clip-path="url(#clip832)" cx="814.843" cy="988.33" r="7.2" fill="#009af9" fill-rule="evenodd" fill-opacity="1" stroke="#000000" stroke-opacity="1" stroke-width="3.2"/>
<circle clip-path="url(#clip832)" cx="950" cy="923.444" r="7.2" fill="#009af9" fill-rule="evenodd" fill-opacity="1" stroke="#000000" stroke-opacity="1" stroke-width="3.2"/>
<circle clip-path="url(#clip832)" cx="995.44" cy="889.855" r="7.2" fill="#009af9" fill-rule="evenodd" fill-opacity="1" stroke="#000000" stroke-opacity="1" stroke-width="3.2"/>
<circle clip-path="url(#clip832)" cx="963.5" cy="829.469" r="7.2" fill="#009af9" fill-rule="evenodd" fill-opacity="1" stroke="#000000" stroke-opacity="1" stroke-width="3.2"/>
<circle clip-path="url(#clip832)" cx="798.129" cy="864.221" r="7.2" fill="#009af9" fill-rule="evenodd" fill-opacity="1" stroke="#000000" stroke-opacity="1" stroke-width="3.2"/>
<circle clip-path="url(#clip832)" cx="772.657" cy="796.923" r="7.2" fill="#009af9" fill-rule="evenodd" fill-opacity="1" stroke="#000000" stroke-opacity="1" stroke-width="3.2"/>
<circle clip-path="url(#clip832)" cx="686.235" cy="764.743" r="7.2" fill="#009af9" fill-rule="evenodd" fill-opacity="1" stroke="#000000" stroke-opacity="1" stroke-width="3.2"/>
<circle clip-path="url(#clip832)" cx="691.056" cy="735.011" r="7.2" fill="#009af9" fill-rule="evenodd" fill-opacity="1" stroke="#000000" stroke-opacity="1" stroke-width="3.2"/>
<circle clip-path="url(#clip832)" cx="706.926" cy="586.836" r="7.2" fill="#009af9" fill-rule="evenodd" fill-opacity="1" stroke="#000000" stroke-opacity="1" stroke-width="3.2"/>
<circle clip-path="url(#clip832)" cx="873.864" cy="566.186" r="7.2" fill="#009af9" fill-rule="evenodd" fill-opacity="1" stroke="#000000" stroke-opacity="1" stroke-width="3.2"/>
<circle clip-path="url(#clip832)" cx="905.001" cy="634.125" r="7.2" fill="#009af9" fill-rule="evenodd" fill-opacity="1" stroke="#000000" stroke-opacity="1" stroke-width="3.2"/>
<circle clip-path="url(#clip832)" cx="849.194" cy="701.704" r="7.2" fill="#009af9" fill-rule="evenodd" fill-opacity="1" stroke="#000000" stroke-opacity="1" stroke-width="3.2"/>
<circle clip-path="url(#clip832)" cx="776.835" cy="718.981" r="7.2" fill="#009af9" fill-rule="evenodd" fill-opacity="1" stroke="#000000" stroke-opacity="1" stroke-width="3.2"/>
<circle clip-path="url(#clip832)" cx="682.74" cy="586.677" r="7.2" fill="#009af9" fill-rule="evenodd" fill-opacity="1" stroke="#000000" stroke-opacity="1" stroke-width="3.2"/>
<circle clip-path="url(#clip832)" cx="691.217" cy="541.315" r="7.2" fill="#009af9" fill-rule="evenodd" fill-opacity="1" stroke="#000000" stroke-opacity="1" stroke-width="3.2"/>
<circle clip-path="url(#clip832)" cx="687.641" cy="539.106" r="7.2" fill="#009af9" fill-rule="evenodd" fill-opacity="1" stroke="#000000" stroke-opacity="1" stroke-width="3.2"/>
<circle clip-path="url(#clip832)" cx="676.271" cy="444.609" r="7.2" fill="#009af9" fill-rule="evenodd" fill-opacity="1" stroke="#000000" stroke-opacity="1" stroke-width="3.2"/>
<circle clip-path="url(#clip832)" cx="662.57" cy="150.951" r="7.2" fill="#009af9" fill-rule="evenodd" fill-opacity="1" stroke="#000000" stroke-opacity="1" stroke-width="3.2"/>
<circle clip-path="url(#clip832)" cx="671.57" cy="142.675" r="7.2" fill="#009af9" fill-rule="evenodd" fill-opacity="1" stroke="#000000" stroke-opacity="1" stroke-width="3.2"/>
<circle clip-path="url(#clip832)" cx="727.899" cy="114.35" r="7.2" fill="#009af9" fill-rule="evenodd" fill-opacity="1" stroke="#000000" stroke-opacity="1" stroke-width="3.2"/>
<circle clip-path="url(#clip832)" cx="882.059" cy="112.22" r="7.2" fill="#009af9" fill-rule="evenodd" fill-opacity="1" stroke="#000000" stroke-opacity="1" stroke-width="3.2"/>
<circle clip-path="url(#clip832)" cx="1044.38" cy="213.909" r="7.2" fill="#009af9" fill-rule="evenodd" fill-opacity="1" stroke="#000000" stroke-opacity="1" stroke-width="3.2"/>
<circle clip-path="url(#clip832)" cx="1105.85" cy="378.074" r="7.2" fill="#009af9" fill-rule="evenodd" fill-opacity="1" stroke="#000000" stroke-opacity="1" stroke-width="3.2"/>
<circle clip-path="url(#clip832)" cx="1105.25" cy="379.159" r="7.2" fill="#009af9" fill-rule="evenodd" fill-opacity="1" stroke="#000000" stroke-opacity="1" stroke-width="3.2"/>
<circle clip-path="url(#clip832)" cx="1032.2" cy="396.637" r="7.2" fill="#009af9" fill-rule="evenodd" fill-opacity="1" stroke="#000000" stroke-opacity="1" stroke-width="3.2"/>
<circle clip-path="url(#clip832)" cx="948.835" cy="355.375" r="7.2" fill="#009af9" fill-rule="evenodd" fill-opacity="1" stroke="#000000" stroke-opacity="1" stroke-width="3.2"/>
<circle clip-path="url(#clip832)" cx="894.796" cy="419.778" r="7.2" fill="#009af9" fill-rule="evenodd" fill-opacity="1" stroke="#000000" stroke-opacity="1" stroke-width="3.2"/>
<circle clip-path="url(#clip832)" cx="1018.06" cy="562.248" r="7.2" fill="#009af9" fill-rule="evenodd" fill-opacity="1" stroke="#000000" stroke-opacity="1" stroke-width="3.2"/>
<circle clip-path="url(#clip832)" cx="1118.95" cy="530.507" r="7.2" fill="#009af9" fill-rule="evenodd" fill-opacity="1" stroke="#000000" stroke-opacity="1" stroke-width="3.2"/>
<circle clip-path="url(#clip832)" cx="1158.16" cy="522.794" r="7.2" fill="#009af9" fill-rule="evenodd" fill-opacity="1" stroke="#000000" stroke-opacity="1" stroke-width="3.2"/>
<circle clip-path="url(#clip832)" cx="1275.4" cy="459.675" r="7.2" fill="#009af9" fill-rule="evenodd" fill-opacity="1" stroke="#000000" stroke-opacity="1" stroke-width="3.2"/>
<circle clip-path="url(#clip832)" cx="1410.92" cy="484.585" r="7.2" fill="#009af9" fill-rule="evenodd" fill-opacity="1" stroke="#000000" stroke-opacity="1" stroke-width="3.2"/>
<circle clip-path="url(#clip832)" cx="1473.95" cy="383.62" r="7.2" fill="#009af9" fill-rule="evenodd" fill-opacity="1" stroke="#000000" stroke-opacity="1" stroke-width="3.2"/>
<circle clip-path="url(#clip832)" cx="1484.16" cy="375.302" r="7.2" fill="#009af9" fill-rule="evenodd" fill-opacity="1" stroke="#000000" stroke-opacity="1" stroke-width="3.2"/>
<circle clip-path="url(#clip832)" cx="1529.36" cy="427.131" r="7.2" fill="#009af9" fill-rule="evenodd" fill-opacity="1" stroke="#000000" stroke-opacity="1" stroke-width="3.2"/>
<circle clip-path="url(#clip832)" cx="1577.73" cy="417.648" r="7.2" fill="#009af9" fill-rule="evenodd" fill-opacity="1" stroke="#000000" stroke-opacity="1" stroke-width="3.2"/>
<circle clip-path="url(#clip832)" cx="1550.45" cy="134.519" r="7.2" fill="#009af9" fill-rule="evenodd" fill-opacity="1" stroke="#000000" stroke-opacity="1" stroke-width="3.2"/>
<circle clip-path="url(#clip832)" cx="1262.3" cy="143.318" r="7.2" fill="#009af9" fill-rule="evenodd" fill-opacity="1" stroke="#000000" stroke-opacity="1" stroke-width="3.2"/>
<circle clip-path="url(#clip832)" cx="1187.01" cy="135.805" r="7.2" fill="#009af9" fill-rule="evenodd" fill-opacity="1" stroke="#000000" stroke-opacity="1" stroke-width="3.2"/>
<circle clip-path="url(#clip832)" cx="1173.03" cy="129.979" r="7.2" fill="#009af9" fill-rule="evenodd" fill-opacity="1" stroke="#000000" stroke-opacity="1" stroke-width="3.2"/>
<circle clip-path="url(#clip832)" cx="1129.71" cy="97.5148" r="7.2" fill="#009af9" fill-rule="evenodd" fill-opacity="1" stroke="#000000" stroke-opacity="1" stroke-width="3.2"/>
<circle clip-path="url(#clip832)" cx="1023.97" cy="86.1857" r="7.2" fill="#009af9" fill-rule="evenodd" fill-opacity="1" stroke="#000000" stroke-opacity="1" stroke-width="3.2"/>
<circle clip-path="url(#clip832)" cx="994.839" cy="106.475" r="7.2" fill="#009af9" fill-rule="evenodd" fill-opacity="1" stroke="#000000" stroke-opacity="1" stroke-width="3.2"/>
<circle clip-path="url(#clip832)" cx="1008.86" cy="165.134" r="7.2" fill="#009af9" fill-rule="evenodd" fill-opacity="1" stroke="#000000" stroke-opacity="1" stroke-width="3.2"/>
<circle clip-path="url(#clip832)" cx="1232.05" cy="206.837" r="7.2" fill="#009af9" fill-rule="evenodd" fill-opacity="1" stroke="#000000" stroke-opacity="1" stroke-width="3.2"/>
<circle clip-path="url(#clip832)" cx="1309.75" cy="324.517" r="7.2" fill="#009af9" fill-rule="evenodd" fill-opacity="1" stroke="#000000" stroke-opacity="1" stroke-width="3.2"/>
<circle clip-path="url(#clip832)" cx="1488.5" cy="262.564" r="7.2" fill="#009af9" fill-rule="evenodd" fill-opacity="1" stroke="#000000" stroke-opacity="1" stroke-width="3.2"/>
<circle clip-path="url(#clip832)" cx="1876.73" cy="352.723" r="7.2" fill="#009af9" fill-rule="evenodd" fill-opacity="1" stroke="#000000" stroke-opacity="1" stroke-width="3.2"/>
<circle clip-path="url(#clip832)" cx="1931.78" cy="362.928" r="7.2" fill="#009af9" fill-rule="evenodd" fill-opacity="1" stroke="#000000" stroke-opacity="1" stroke-width="3.2"/>
<circle clip-path="url(#clip832)" cx="1915.1" cy="606.523" r="7.2" fill="#009af9" fill-rule="evenodd" fill-opacity="1" stroke="#000000" stroke-opacity="1" stroke-width="3.2"/>
<circle clip-path="url(#clip832)" cx="1906.62" cy="613.072" r="7.2" fill="#009af9" fill-rule="evenodd" fill-opacity="1" stroke="#000000" stroke-opacity="1" stroke-width="3.2"/>
<circle clip-path="url(#clip832)" cx="1786.01" cy="597.765" r="7.2" fill="#009af9" fill-rule="evenodd" fill-opacity="1" stroke="#000000" stroke-opacity="1" stroke-width="3.2"/>
<circle clip-path="url(#clip832)" cx="1755.48" cy="545.133" r="7.2" fill="#009af9" fill-rule="evenodd" fill-opacity="1" stroke="#000000" stroke-opacity="1" stroke-width="3.2"/>
<circle clip-path="url(#clip832)" cx="1651.46" cy="480.004" r="7.2" fill="#009af9" fill-rule="evenodd" fill-opacity="1" stroke="#000000" stroke-opacity="1" stroke-width="3.2"/>
<circle clip-path="url(#clip832)" cx="1636.87" cy="499.651" r="7.2" fill="#009af9" fill-rule="evenodd" fill-opacity="1" stroke="#000000" stroke-opacity="1" stroke-width="3.2"/>
<circle clip-path="url(#clip832)" cx="1588.86" cy="565.943" r="7.2" fill="#009af9" fill-rule="evenodd" fill-opacity="1" stroke="#000000" stroke-opacity="1" stroke-width="3.2"/>
<circle clip-path="url(#clip832)" cx="1619.8" cy="615.402" r="7.2" fill="#009af9" fill-rule="evenodd" fill-opacity="1" stroke="#000000" stroke-opacity="1" stroke-width="3.2"/>
<circle clip-path="url(#clip832)" cx="1608.11" cy="731.034" r="7.2" fill="#009af9" fill-rule="evenodd" fill-opacity="1" stroke="#000000" stroke-opacity="1" stroke-width="3.2"/>
<circle clip-path="url(#clip832)" cx="1515.5" cy="803.111" r="7.2" fill="#009af9" fill-rule="evenodd" fill-opacity="1" stroke="#000000" stroke-opacity="1" stroke-width="3.2"/>
<circle clip-path="url(#clip832)" cx="1482.99" cy="853.334" r="7.2" fill="#009af9" fill-rule="evenodd" fill-opacity="1" stroke="#000000" stroke-opacity="1" stroke-width="3.2"/>
<circle clip-path="url(#clip832)" cx="1579.1" cy="932.322" r="7.2" fill="#009af9" fill-rule="evenodd" fill-opacity="1" stroke="#000000" stroke-opacity="1" stroke-width="3.2"/>
<circle clip-path="url(#clip832)" cx="1577.89" cy="1060.17" r="7.2" fill="#009af9" fill-rule="evenodd" fill-opacity="1" stroke="#000000" stroke-opacity="1" stroke-width="3.2"/>
<circle clip-path="url(#clip832)" cx="1610.4" cy="1135.38" r="7.2" fill="#009af9" fill-rule="evenodd" fill-opacity="1" stroke="#000000" stroke-opacity="1" stroke-width="3.2"/>
<circle clip-path="url(#clip832)" cx="1541.21" cy="1292.55" r="7.2" fill="#009af9" fill-rule="evenodd" fill-opacity="1" stroke="#000000" stroke-opacity="1" stroke-width="3.2"/>
<circle clip-path="url(#clip832)" cx="1432.17" cy="1269.09" r="7.2" fill="#009af9" fill-rule="evenodd" fill-opacity="1" stroke="#000000" stroke-opacity="1" stroke-width="3.2"/>
<circle clip-path="url(#clip832)" cx="1411.2" cy="1236.79" r="7.2" fill="#009af9" fill-rule="evenodd" fill-opacity="1" stroke="#000000" stroke-opacity="1" stroke-width="3.2"/>
<circle clip-path="url(#clip832)" cx="1447.2" cy="1210.87" r="7.2" fill="#009af9" fill-rule="evenodd" fill-opacity="1" stroke="#000000" stroke-opacity="1" stroke-width="3.2"/>
<circle clip-path="url(#clip832)" cx="1477.17" cy="1147.55" r="7.2" fill="#009af9" fill-rule="evenodd" fill-opacity="1" stroke="#000000" stroke-opacity="1" stroke-width="3.2"/>
<circle clip-path="url(#clip832)" cx="1382.03" cy="1090.3" r="7.2" fill="#009af9" fill-rule="evenodd" fill-opacity="1" stroke="#000000" stroke-opacity="1" stroke-width="3.2"/>
<circle clip-path="url(#clip832)" cx="1381.75" cy="1064.02" r="7.2" fill="#009af9" fill-rule="evenodd" fill-opacity="1" stroke="#000000" stroke-opacity="1" stroke-width="3.2"/>
<circle clip-path="url(#clip832)" cx="1388.82" cy="998.093" r="7.2" fill="#009af9" fill-rule="evenodd" fill-opacity="1" stroke="#000000" stroke-opacity="1" stroke-width="3.2"/>
<circle clip-path="url(#clip832)" cx="1413.01" cy="957.273" r="7.2" fill="#009af9" fill-rule="evenodd" fill-opacity="1" stroke="#000000" stroke-opacity="1" stroke-width="3.2"/>
<circle clip-path="url(#clip832)" cx="1378.21" cy="891.099" r="7.2" fill="#009af9" fill-rule="evenodd" fill-opacity="1" stroke="#000000" stroke-opacity="1" stroke-width="3.2"/>
<circle clip-path="url(#clip832)" cx="1461.18" cy="821.634" r="7.2" fill="#009af9" fill-rule="evenodd" fill-opacity="1" stroke="#000000" stroke-opacity="1" stroke-width="3.2"/>
<circle clip-path="url(#clip832)" cx="1512.89" cy="855.061" r="7.2" fill="#009af9" fill-rule="evenodd" fill-opacity="1" stroke="#000000" stroke-opacity="1" stroke-width="3.2"/>
<circle clip-path="url(#clip832)" cx="1672.59" cy="859.883" r="7.2" fill="#009af9" fill-rule="evenodd" fill-opacity="1" stroke="#000000" stroke-opacity="1" stroke-width="3.2"/>
<circle clip-path="url(#clip832)" cx="1699.51" cy="845.458" r="7.2" fill="#009af9" fill-rule="evenodd" fill-opacity="1" stroke="#000000" stroke-opacity="1" stroke-width="3.2"/>
<circle clip-path="url(#clip832)" cx="1944.27" cy="730.15" r="7.2" fill="#009af9" fill-rule="evenodd" fill-opacity="1" stroke="#000000" stroke-opacity="1" stroke-width="3.2"/>
<circle clip-path="url(#clip832)" cx="1922.66" cy="682.98" r="7.2" fill="#009af9" fill-rule="evenodd" fill-opacity="1" stroke="#000000" stroke-opacity="1" stroke-width="3.2"/>
<circle clip-path="url(#clip832)" cx="1902.08" cy="687.561" r="7.2" fill="#009af9" fill-rule="evenodd" fill-opacity="1" stroke="#000000" stroke-opacity="1" stroke-width="3.2"/>
<circle clip-path="url(#clip832)" cx="1756.8" cy="706.364" r="7.2" fill="#009af9" fill-rule="evenodd" fill-opacity="1" stroke="#000000" stroke-opacity="1" stroke-width="3.2"/>
<circle clip-path="url(#clip832)" cx="1697.74" cy="722.114" r="7.2" fill="#009af9" fill-rule="evenodd" fill-opacity="1" stroke="#000000" stroke-opacity="1" stroke-width="3.2"/>
<circle clip-path="url(#clip832)" cx="1686.17" cy="713.396" r="7.2" fill="#009af9" fill-rule="evenodd" fill-opacity="1" stroke="#000000" stroke-opacity="1" stroke-width="3.2"/>
<circle clip-path="url(#clip832)" cx="1707.38" cy="683.383" r="7.2" fill="#009af9" fill-rule="evenodd" fill-opacity="1" stroke="#000000" stroke-opacity="1" stroke-width="3.2"/>
<circle clip-path="url(#clip832)" cx="1705.46" cy="678.802" r="7.2" fill="#009af9" fill-rule="evenodd" fill-opacity="1" stroke="#000000" stroke-opacity="1" stroke-width="3.2"/>
<circle clip-path="url(#clip832)" cx="1465.44" cy="662.089" r="7.2" fill="#009af9" fill-rule="evenodd" fill-opacity="1" stroke="#000000" stroke-opacity="1" stroke-width="3.2"/>
<circle clip-path="url(#clip832)" cx="1416.1" cy="743.648" r="7.2" fill="#009af9" fill-rule="evenodd" fill-opacity="1" stroke="#000000" stroke-opacity="1" stroke-width="3.2"/>
<circle clip-path="url(#clip832)" cx="1327.15" cy="760.041" r="7.2" fill="#009af9" fill-rule="evenodd" fill-opacity="1" stroke="#000000" stroke-opacity="1" stroke-width="3.2"/>
<circle clip-path="url(#clip832)" cx="1188.97" cy="796.523" r="7.2" fill="#009af9" fill-rule="evenodd" fill-opacity="1" stroke="#000000" stroke-opacity="1" stroke-width="3.2"/>
<circle clip-path="url(#clip832)" cx="1161.98" cy="765.908" r="7.2" fill="#009af9" fill-rule="evenodd" fill-opacity="1" stroke="#000000" stroke-opacity="1" stroke-width="3.2"/>
<circle clip-path="url(#clip832)" cx="1127.66" cy="675.388" r="7.2" fill="#009af9" fill-rule="evenodd" fill-opacity="1" stroke="#000000" stroke-opacity="1" stroke-width="3.2"/>
<circle clip-path="url(#clip832)" cx="1126.34" cy="583.261" r="7.2" fill="#009af9" fill-rule="evenodd" fill-opacity="1" stroke="#000000" stroke-opacity="1" stroke-width="3.2"/>
<circle clip-path="url(#clip832)" cx="1082.87" cy="575.707" r="7.2" fill="#009af9" fill-rule="evenodd" fill-opacity="1" stroke="#000000" stroke-opacity="1" stroke-width="3.2"/>
<circle clip-path="url(#clip832)" cx="1044.3" cy="616.085" r="7.2" fill="#009af9" fill-rule="evenodd" fill-opacity="1" stroke="#000000" stroke-opacity="1" stroke-width="3.2"/>
<circle clip-path="url(#clip832)" cx="1052.01" cy="711.266" r="7.2" fill="#009af9" fill-rule="evenodd" fill-opacity="1" stroke="#000000" stroke-opacity="1" stroke-width="3.2"/>
<circle clip-path="url(#clip832)" cx="1097.33" cy="738.586" r="7.2" fill="#009af9" fill-rule="evenodd" fill-opacity="1" stroke="#000000" stroke-opacity="1" stroke-width="3.2"/>
<circle clip-path="url(#clip832)" cx="1137.27" cy="828.826" r="7.2" fill="#009af9" fill-rule="evenodd" fill-opacity="1" stroke="#000000" stroke-opacity="1" stroke-width="3.2"/>
<circle clip-path="url(#clip832)" cx="1000.46" cy="968.16" r="7.2" fill="#009af9" fill-rule="evenodd" fill-opacity="1" stroke="#000000" stroke-opacity="1" stroke-width="3.2"/>
<circle clip-path="url(#clip832)" cx="801.906" cy="1105.57" r="7.2" fill="#009af9" fill-rule="evenodd" fill-opacity="1" stroke="#000000" stroke-opacity="1" stroke-width="3.2"/>
<circle clip-path="url(#clip832)" cx="711.306" cy="1265.15" r="7.2" fill="#009af9" fill-rule="evenodd" fill-opacity="1" stroke="#000000" stroke-opacity="1" stroke-width="3.2"/>
<circle clip-path="url(#clip832)" cx="749.956" cy="1340.57" r="7.2" fill="#009af9" fill-rule="evenodd" fill-opacity="1" stroke="#000000" stroke-opacity="1" stroke-width="3.2"/>
<circle clip-path="url(#clip832)" cx="789.571" cy="1325.26" r="7.2" fill="#009af9" fill-rule="evenodd" fill-opacity="1" stroke="#000000" stroke-opacity="1" stroke-width="3.2"/>
<circle clip-path="url(#clip832)" cx="901.105" cy="1210.87" r="7.2" fill="#009af9" fill-rule="evenodd" fill-opacity="1" stroke="#000000" stroke-opacity="1" stroke-width="3.2"/>
<circle clip-path="url(#clip832)" cx="965.549" cy="1188.33" r="7.2" fill="#009af9" fill-rule="evenodd" fill-opacity="1" stroke="#000000" stroke-opacity="1" stroke-width="3.2"/>
<circle clip-path="url(#clip832)" cx="1034.09" cy="1303.08" r="7.2" fill="#009af9" fill-rule="evenodd" fill-opacity="1" stroke="#000000" stroke-opacity="1" stroke-width="3.2"/>
<circle clip-path="url(#clip832)" cx="1079.41" cy="1322.16" r="7.2" fill="#009af9" fill-rule="evenodd" fill-opacity="1" stroke="#000000" stroke-opacity="1" stroke-width="3.2"/>
<circle clip-path="url(#clip832)" cx="1259.69" cy="1081.02" r="7.2" fill="#009af9" fill-rule="evenodd" fill-opacity="1" stroke="#000000" stroke-opacity="1" stroke-width="3.2"/>
<circle clip-path="url(#clip832)" cx="1327.67" cy="1099.58" r="7.2" fill="#009af9" fill-rule="evenodd" fill-opacity="1" stroke="#000000" stroke-opacity="1" stroke-width="3.2"/>
<circle clip-path="url(#clip832)" cx="1354.31" cy="1220.72" r="7.2" fill="#009af9" fill-rule="evenodd" fill-opacity="1" stroke="#000000" stroke-opacity="1" stroke-width="3.2"/>
<circle clip-path="url(#clip832)" cx="1298.34" cy="1241.53" r="7.2" fill="#009af9" fill-rule="evenodd" fill-opacity="1" stroke="#000000" stroke-opacity="1" stroke-width="3.2"/>
<circle clip-path="url(#clip832)" cx="1225.82" cy="1261.74" r="7.2" fill="#009af9" fill-rule="evenodd" fill-opacity="1" stroke="#000000" stroke-opacity="1" stroke-width="3.2"/>
<circle clip-path="url(#clip832)" cx="1135.26" cy="1285.68" r="7.2" fill="#009af9" fill-rule="evenodd" fill-opacity="1" stroke="#000000" stroke-opacity="1" stroke-width="3.2"/>
<circle clip-path="url(#clip832)" cx="1158.48" cy="1373.99" r="7.2" fill="#009af9" fill-rule="evenodd" fill-opacity="1" stroke="#000000" stroke-opacity="1" stroke-width="3.2"/>
<circle clip-path="url(#clip832)" cx="1216.5" cy="1381.35" r="7.2" fill="#009af9" fill-rule="evenodd" fill-opacity="1" stroke="#000000" stroke-opacity="1" stroke-width="3.2"/>
<circle clip-path="url(#clip832)" cx="1549.73" cy="1378.33" r="7.2" fill="#009af9" fill-rule="evenodd" fill-opacity="1" stroke="#000000" stroke-opacity="1" stroke-width="3.2"/>
<circle clip-path="url(#clip832)" cx="1829.48" cy="1283.23" r="7.2" fill="#009af9" fill-rule="evenodd" fill-opacity="1" stroke="#000000" stroke-opacity="1" stroke-width="3.2"/>
<circle clip-path="url(#clip832)" cx="1830.93" cy="1267.4" r="7.2" fill="#009af9" fill-rule="evenodd" fill-opacity="1" stroke="#000000" stroke-opacity="1" stroke-width="3.2"/>
<circle clip-path="url(#clip832)" cx="1764.76" cy="1132.49" r="7.2" fill="#009af9" fill-rule="evenodd" fill-opacity="1" stroke="#000000" stroke-opacity="1" stroke-width="3.2"/>
<circle clip-path="url(#clip832)" cx="1713.17" cy="1118.26" r="7.2" fill="#009af9" fill-rule="evenodd" fill-opacity="1" stroke="#000000" stroke-opacity="1" stroke-width="3.2"/>
<circle clip-path="url(#clip832)" cx="1627.91" cy="1039.56" r="7.2" fill="#009af9" fill-rule="evenodd" fill-opacity="1" stroke="#000000" stroke-opacity="1" stroke-width="3.2"/>
<circle clip-path="url(#clip832)" cx="1617.79" cy="983.79" r="7.2" fill="#009af9" fill-rule="evenodd" fill-opacity="1" stroke="#000000" stroke-opacity="1" stroke-width="3.2"/>
<circle clip-path="url(#clip832)" cx="1621.16" cy="979.651" r="7.2" fill="#009af9" fill-rule="evenodd" fill-opacity="1" stroke="#000000" stroke-opacity="1" stroke-width="3.2"/>
<circle clip-path="url(#clip832)" cx="1695.73" cy="1009.26" r="7.2" fill="#009af9" fill-rule="evenodd" fill-opacity="1" stroke="#000000" stroke-opacity="1" stroke-width="3.2"/>
<circle clip-path="url(#clip832)" cx="1825.39" cy="1007.33" r="7.2" fill="#009af9" fill-rule="evenodd" fill-opacity="1" stroke="#000000" stroke-opacity="1" stroke-width="3.2"/>
<circle clip-path="url(#clip832)" cx="1927.4" cy="1070.09" r="7.2" fill="#009af9" fill-rule="evenodd" fill-opacity="1" stroke="#000000" stroke-opacity="1" stroke-width="3.2"/>
<circle clip-path="url(#clip832)" cx="1865.76" cy="1310.35" r="7.2" fill="#009af9" fill-rule="evenodd" fill-opacity="1" stroke="#000000" stroke-opacity="1" stroke-width="3.2"/>
<circle clip-path="url(#clip832)" cx="1924.87" cy="1384.24" r="7.2" fill="#009af9" fill-rule="evenodd" fill-opacity="1" stroke="#000000" stroke-opacity="1" stroke-width="3.2"/>
</svg>
