<?xml version="1.0" encoding="utf-8"?>
<svg xmlns="http://www.w3.org/2000/svg" xmlns:xlink="http://www.w3.org/1999/xlink" width="600" height="400" viewBox="0 0 2400 1600">
<defs>
  <clipPath id="clip800">
    <rect x="0" y="0" width="2400" height="1600"/>
  </clipPath>
</defs>
<path clip-path="url(#clip800)" d="
M0 1600 L2400 1600 L2400 0 L0 0  Z
  " fill="#ffffff" fill-rule="evenodd" fill-opacity="1"/>
<defs>
  <clipPath id="clip801">
    <rect x="480" y="0" width="1681" height="1600"/>
  </clipPath>
</defs>
<path clip-path="url(#clip800)" d="
M264.287 1423.18 L2352.76 1423.18 L2352.76 47.2441 L264.287 47.2441  Z
  " fill="#ffffff" fill-rule="evenodd" fill-opacity="1"/>
<defs>
  <clipPath id="clip802">
    <rect x="264" y="47" width="2089" height="1377"/>
  </clipPath>
</defs>
<polyline clip-path="url(#clip802)" style="stroke:#000000; stroke-linecap:round; stroke-linejoin:round; stroke-width:2; stroke-opacity:0.1; fill:none" points="
  316.396,1423.18 316.396,47.2441 
  "/>
<polyline clip-path="url(#clip802)" style="stroke:#000000; stroke-linecap:round; stroke-linejoin:round; stroke-width:2; stroke-opacity:0.1; fill:none" points="
  816.333,1423.18 816.333,47.2441 
  "/>
<polyline clip-path="url(#clip802)" style="stroke:#000000; stroke-linecap:round; stroke-linejoin:round; stroke-width:2; stroke-opacity:0.1; fill:none" points="
  1316.27,1423.18 1316.27,47.2441 
  "/>
<polyline clip-path="url(#clip802)" style="stroke:#000000; stroke-linecap:round; stroke-linejoin:round; stroke-width:2; stroke-opacity:0.1; fill:none" points="
  1816.21,1423.18 1816.21,47.2441 
  "/>
<polyline clip-path="url(#clip802)" style="stroke:#000000; stroke-linecap:round; stroke-linejoin:round; stroke-width:2; stroke-opacity:0.1; fill:none" points="
  2316.15,1423.18 2316.15,47.2441 
  "/>
<polyline clip-path="url(#clip800)" style="stroke:#000000; stroke-linecap:round; stroke-linejoin:round; stroke-width:4; stroke-opacity:1; fill:none" points="
  264.287,1423.18 2352.76,1423.18 
  "/>
<polyline clip-path="url(#clip800)" style="stroke:#000000; stroke-linecap:round; stroke-linejoin:round; stroke-width:4; stroke-opacity:1; fill:none" points="
  316.396,1423.18 316.396,1404.28 
  "/>
<polyline clip-path="url(#clip800)" style="stroke:#000000; stroke-linecap:round; stroke-linejoin:round; stroke-width:4; stroke-opacity:1; fill:none" points="
  816.333,1423.18 816.333,1404.28 
  "/>
<polyline clip-path="url(#clip800)" style="stroke:#000000; stroke-linecap:round; stroke-linejoin:round; stroke-width:4; stroke-opacity:1; fill:none" points="
  1316.27,1423.18 1316.27,1404.28 
  "/>
<polyline clip-path="url(#clip800)" style="stroke:#000000; stroke-linecap:round; stroke-linejoin:round; stroke-width:4; stroke-opacity:1; fill:none" points="
  1816.21,1423.18 1816.21,1404.28 
  "/>
<polyline clip-path="url(#clip800)" style="stroke:#000000; stroke-linecap:round; stroke-linejoin:round; stroke-width:4; stroke-opacity:1; fill:none" points="
  2316.15,1423.18 2316.15,1404.28 
  "/>
<path clip-path="url(#clip800)" d="M316.396 1454.1 Q312.785 1454.1 310.956 1457.66 Q309.15 1461.2 309.15 1468.33 Q309.15 1475.44 310.956 1479.01 Q312.785 1482.55 316.396 1482.55 Q320.03 1482.55 321.836 1479.01 Q323.664 1475.44 323.664 1468.33 Q323.664 1461.2 321.836 1457.66 Q320.03 1454.1 316.396 1454.1 M316.396 1450.39 Q322.206 1450.39 325.261 1455 Q328.34 1459.58 328.34 1468.33 Q328.34 1477.06 325.261 1481.67 Q322.206 1486.25 316.396 1486.25 Q310.586 1486.25 307.507 1481.67 Q304.451 1477.06 304.451 1468.33 Q304.451 1459.58 307.507 1455 Q310.586 1450.39 316.396 1450.39 Z" fill="#000000" fill-rule="evenodd" fill-opacity="1" /><path clip-path="url(#clip800)" d="M760.859 1481.64 L768.498 1481.64 L768.498 1455.28 L760.188 1456.95 L760.188 1452.69 L768.452 1451.02 L773.127 1451.02 L773.127 1481.64 L780.766 1481.64 L780.766 1485.58 L760.859 1485.58 L760.859 1481.64 Z" fill="#000000" fill-rule="evenodd" fill-opacity="1" /><path clip-path="url(#clip800)" d="M800.211 1454.1 Q796.6 1454.1 794.771 1457.66 Q792.965 1461.2 792.965 1468.33 Q792.965 1475.44 794.771 1479.01 Q796.6 1482.55 800.211 1482.55 Q803.845 1482.55 805.65 1479.01 Q807.479 1475.44 807.479 1468.33 Q807.479 1461.2 805.65 1457.66 Q803.845 1454.1 800.211 1454.1 M800.211 1450.39 Q806.021 1450.39 809.076 1455 Q812.155 1459.58 812.155 1468.33 Q812.155 1477.06 809.076 1481.67 Q806.021 1486.25 800.211 1486.25 Q794.4 1486.25 791.322 1481.67 Q788.266 1477.06 788.266 1468.33 Q788.266 1459.58 791.322 1455 Q794.4 1450.39 800.211 1450.39 Z" fill="#000000" fill-rule="evenodd" fill-opacity="1" /><path clip-path="url(#clip800)" d="M830.372 1454.1 Q826.761 1454.1 824.933 1457.66 Q823.127 1461.2 823.127 1468.33 Q823.127 1475.44 824.933 1479.01 Q826.761 1482.55 830.372 1482.55 Q834.007 1482.55 835.812 1479.01 Q837.641 1475.44 837.641 1468.33 Q837.641 1461.2 835.812 1457.66 Q834.007 1454.1 830.372 1454.1 M830.372 1450.39 Q836.183 1450.39 839.238 1455 Q842.317 1459.58 842.317 1468.33 Q842.317 1477.06 839.238 1481.67 Q836.183 1486.25 830.372 1486.25 Q824.562 1486.25 821.484 1481.67 Q818.428 1477.06 818.428 1468.33 Q818.428 1459.58 821.484 1455 Q824.562 1450.39 830.372 1450.39 Z" fill="#000000" fill-rule="evenodd" fill-opacity="1" /><path clip-path="url(#clip800)" d="M860.534 1454.1 Q856.923 1454.1 855.095 1457.66 Q853.289 1461.2 853.289 1468.33 Q853.289 1475.44 855.095 1479.01 Q856.923 1482.55 860.534 1482.55 Q864.169 1482.55 865.974 1479.01 Q867.803 1475.44 867.803 1468.33 Q867.803 1461.2 865.974 1457.66 Q864.169 1454.1 860.534 1454.1 M860.534 1450.39 Q866.345 1450.39 869.4 1455 Q872.479 1459.58 872.479 1468.33 Q872.479 1477.06 869.4 1481.67 Q866.345 1486.25 860.534 1486.25 Q854.724 1486.25 851.646 1481.67 Q848.59 1477.06 848.59 1468.33 Q848.59 1459.58 851.646 1455 Q854.724 1450.39 860.534 1450.39 Z" fill="#000000" fill-rule="evenodd" fill-opacity="1" /><path clip-path="url(#clip800)" d="M1264.88 1481.64 L1281.2 1481.64 L1281.2 1485.58 L1259.26 1485.58 L1259.26 1481.64 Q1261.92 1478.89 1266.5 1474.26 Q1271.11 1469.61 1272.29 1468.27 Q1274.53 1465.74 1275.41 1464.01 Q1276.32 1462.25 1276.32 1460.56 Q1276.32 1457.8 1274.37 1456.07 Q1272.45 1454.33 1269.35 1454.33 Q1267.15 1454.33 1264.7 1455.09 Q1262.27 1455.86 1259.49 1457.41 L1259.49 1452.69 Q1262.31 1451.55 1264.77 1450.97 Q1267.22 1450.39 1269.26 1450.39 Q1274.63 1450.39 1277.82 1453.08 Q1281.02 1455.77 1281.02 1460.26 Q1281.02 1462.39 1280.21 1464.31 Q1279.42 1466.2 1277.31 1468.8 Q1276.73 1469.47 1273.63 1472.69 Q1270.53 1475.88 1264.88 1481.64 Z" fill="#000000" fill-rule="evenodd" fill-opacity="1" /><path clip-path="url(#clip800)" d="M1301.02 1454.1 Q1297.41 1454.1 1295.58 1457.66 Q1293.77 1461.2 1293.77 1468.33 Q1293.77 1475.44 1295.58 1479.01 Q1297.41 1482.55 1301.02 1482.55 Q1304.65 1482.55 1306.46 1479.01 Q1308.28 1475.44 1308.28 1468.33 Q1308.28 1461.2 1306.46 1457.66 Q1304.65 1454.1 1301.02 1454.1 M1301.02 1450.39 Q1306.83 1450.39 1309.88 1455 Q1312.96 1459.58 1312.96 1468.33 Q1312.96 1477.06 1309.88 1481.67 Q1306.83 1486.25 1301.02 1486.25 Q1295.21 1486.25 1292.13 1481.67 Q1289.07 1477.06 1289.07 1468.33 Q1289.07 1459.58 1292.13 1455 Q1295.21 1450.39 1301.02 1450.39 Z" fill="#000000" fill-rule="evenodd" fill-opacity="1" /><path clip-path="url(#clip800)" d="M1331.18 1454.1 Q1327.57 1454.1 1325.74 1457.66 Q1323.93 1461.2 1323.93 1468.33 Q1323.93 1475.44 1325.74 1479.01 Q1327.57 1482.55 1331.18 1482.55 Q1334.81 1482.55 1336.62 1479.01 Q1338.45 1475.44 1338.45 1468.33 Q1338.45 1461.2 1336.62 1457.66 Q1334.81 1454.1 1331.18 1454.1 M1331.18 1450.39 Q1336.99 1450.39 1340.04 1455 Q1343.12 1459.58 1343.12 1468.33 Q1343.12 1477.06 1340.04 1481.67 Q1336.99 1486.25 1331.18 1486.25 Q1325.37 1486.25 1322.29 1481.67 Q1319.23 1477.06 1319.23 1468.33 Q1319.23 1459.58 1322.29 1455 Q1325.37 1450.39 1331.18 1450.39 Z" fill="#000000" fill-rule="evenodd" fill-opacity="1" /><path clip-path="url(#clip800)" d="M1361.34 1454.1 Q1357.73 1454.1 1355.9 1457.66 Q1354.09 1461.2 1354.09 1468.33 Q1354.09 1475.44 1355.9 1479.01 Q1357.73 1482.55 1361.34 1482.55 Q1364.97 1482.55 1366.78 1479.01 Q1368.61 1475.44 1368.61 1468.33 Q1368.61 1461.2 1366.78 1457.66 Q1364.97 1454.1 1361.34 1454.1 M1361.34 1450.39 Q1367.15 1450.39 1370.21 1455 Q1373.28 1459.58 1373.28 1468.33 Q1373.28 1477.06 1370.21 1481.67 Q1367.15 1486.25 1361.34 1486.25 Q1355.53 1486.25 1352.45 1481.67 Q1349.4 1477.06 1349.4 1468.33 Q1349.4 1459.58 1352.45 1455 Q1355.53 1450.39 1361.34 1450.39 Z" fill="#000000" fill-rule="evenodd" fill-opacity="1" /><path clip-path="url(#clip800)" d="M1774.89 1466.95 Q1778.25 1467.66 1780.12 1469.93 Q1782.02 1472.2 1782.02 1475.53 Q1782.02 1480.65 1778.5 1483.45 Q1774.98 1486.25 1768.5 1486.25 Q1766.32 1486.25 1764.01 1485.81 Q1761.72 1485.39 1759.26 1484.54 L1759.26 1480.02 Q1761.21 1481.16 1763.52 1481.74 Q1765.84 1482.32 1768.36 1482.32 Q1772.76 1482.32 1775.05 1480.58 Q1777.37 1478.84 1777.37 1475.53 Q1777.37 1472.48 1775.21 1470.77 Q1773.08 1469.03 1769.26 1469.03 L1765.24 1469.03 L1765.24 1465.19 L1769.45 1465.19 Q1772.9 1465.19 1774.73 1463.82 Q1776.56 1462.43 1776.56 1459.84 Q1776.56 1457.18 1774.66 1455.77 Q1772.78 1454.33 1769.26 1454.33 Q1767.34 1454.33 1765.14 1454.75 Q1762.94 1455.16 1760.31 1456.04 L1760.31 1451.88 Q1762.97 1451.14 1765.28 1450.77 Q1767.62 1450.39 1769.68 1450.39 Q1775 1450.39 1778.11 1452.83 Q1781.21 1455.23 1781.21 1459.35 Q1781.21 1462.22 1779.56 1464.21 Q1777.92 1466.18 1774.89 1466.95 Z" fill="#000000" fill-rule="evenodd" fill-opacity="1" /><path clip-path="url(#clip800)" d="M1800.88 1454.1 Q1797.27 1454.1 1795.44 1457.66 Q1793.64 1461.2 1793.64 1468.33 Q1793.64 1475.44 1795.44 1479.01 Q1797.27 1482.55 1800.88 1482.55 Q1804.52 1482.55 1806.32 1479.01 Q1808.15 1475.44 1808.15 1468.33 Q1808.15 1461.2 1806.32 1457.66 Q1804.52 1454.1 1800.88 1454.1 M1800.88 1450.39 Q1806.69 1450.39 1809.75 1455 Q1812.83 1459.58 1812.83 1468.33 Q1812.83 1477.06 1809.75 1481.67 Q1806.69 1486.25 1800.88 1486.25 Q1795.07 1486.25 1792 1481.67 Q1788.94 1477.06 1788.94 1468.33 Q1788.94 1459.58 1792 1455 Q1795.07 1450.39 1800.88 1450.39 Z" fill="#000000" fill-rule="evenodd" fill-opacity="1" /><path clip-path="url(#clip800)" d="M1831.05 1454.1 Q1827.43 1454.1 1825.61 1457.66 Q1823.8 1461.2 1823.8 1468.33 Q1823.8 1475.44 1825.61 1479.01 Q1827.43 1482.55 1831.05 1482.55 Q1834.68 1482.55 1836.49 1479.01 Q1838.31 1475.44 1838.31 1468.33 Q1838.31 1461.2 1836.49 1457.66 Q1834.68 1454.1 1831.05 1454.1 M1831.05 1450.39 Q1836.86 1450.39 1839.91 1455 Q1842.99 1459.58 1842.99 1468.33 Q1842.99 1477.06 1839.91 1481.67 Q1836.86 1486.25 1831.05 1486.25 Q1825.24 1486.25 1822.16 1481.67 Q1819.1 1477.06 1819.1 1468.33 Q1819.1 1459.58 1822.16 1455 Q1825.24 1450.39 1831.05 1450.39 Z" fill="#000000" fill-rule="evenodd" fill-opacity="1" /><path clip-path="url(#clip800)" d="M1861.21 1454.1 Q1857.6 1454.1 1855.77 1457.66 Q1853.96 1461.2 1853.96 1468.33 Q1853.96 1475.44 1855.77 1479.01 Q1857.6 1482.55 1861.21 1482.55 Q1864.84 1482.55 1866.65 1479.01 Q1868.48 1475.44 1868.48 1468.33 Q1868.48 1461.2 1866.65 1457.66 Q1864.84 1454.1 1861.21 1454.1 M1861.21 1450.39 Q1867.02 1450.39 1870.07 1455 Q1873.15 1459.58 1873.15 1468.33 Q1873.15 1477.06 1870.07 1481.67 Q1867.02 1486.25 1861.21 1486.25 Q1855.4 1486.25 1852.32 1481.67 Q1849.26 1477.06 1849.26 1468.33 Q1849.26 1459.58 1852.32 1455 Q1855.4 1450.39 1861.21 1450.39 Z" fill="#000000" fill-rule="evenodd" fill-opacity="1" /><path clip-path="url(#clip800)" d="M2274.15 1455.09 L2262.35 1473.54 L2274.15 1473.54 L2274.15 1455.09 M2272.93 1451.02 L2278.81 1451.02 L2278.81 1473.54 L2283.74 1473.54 L2283.74 1477.43 L2278.81 1477.43 L2278.81 1485.58 L2274.15 1485.58 L2274.15 1477.43 L2258.55 1477.43 L2258.55 1472.92 L2272.93 1451.02 Z" fill="#000000" fill-rule="evenodd" fill-opacity="1" /><path clip-path="url(#clip800)" d="M2301.47 1454.1 Q2297.86 1454.1 2296.03 1457.66 Q2294.22 1461.2 2294.22 1468.33 Q2294.22 1475.44 2296.03 1479.01 Q2297.86 1482.55 2301.47 1482.55 Q2305.1 1482.55 2306.91 1479.01 Q2308.74 1475.44 2308.74 1468.33 Q2308.74 1461.2 2306.91 1457.66 Q2305.1 1454.1 2301.47 1454.1 M2301.47 1450.39 Q2307.28 1450.39 2310.34 1455 Q2313.41 1459.58 2313.41 1468.33 Q2313.41 1477.06 2310.34 1481.67 Q2307.28 1486.25 2301.47 1486.25 Q2295.66 1486.25 2292.58 1481.67 Q2289.53 1477.06 2289.53 1468.33 Q2289.53 1459.58 2292.58 1455 Q2295.66 1450.39 2301.47 1450.39 Z" fill="#000000" fill-rule="evenodd" fill-opacity="1" /><path clip-path="url(#clip800)" d="M2331.63 1454.1 Q2328.02 1454.1 2326.19 1457.66 Q2324.39 1461.2 2324.39 1468.33 Q2324.39 1475.44 2326.19 1479.01 Q2328.02 1482.55 2331.63 1482.55 Q2335.27 1482.55 2337.07 1479.01 Q2338.9 1475.44 2338.9 1468.33 Q2338.9 1461.2 2337.07 1457.66 Q2335.27 1454.1 2331.63 1454.1 M2331.63 1450.39 Q2337.44 1450.39 2340.5 1455 Q2343.58 1459.58 2343.58 1468.33 Q2343.58 1477.06 2340.5 1481.67 Q2337.44 1486.25 2331.63 1486.25 Q2325.82 1486.25 2322.74 1481.67 Q2319.69 1477.06 2319.69 1468.33 Q2319.69 1459.58 2322.74 1455 Q2325.82 1450.39 2331.63 1450.39 Z" fill="#000000" fill-rule="evenodd" fill-opacity="1" /><path clip-path="url(#clip800)" d="M2361.79 1454.1 Q2358.18 1454.1 2356.35 1457.66 Q2354.55 1461.2 2354.55 1468.33 Q2354.55 1475.44 2356.35 1479.01 Q2358.18 1482.55 2361.79 1482.55 Q2365.43 1482.55 2367.23 1479.01 Q2369.06 1475.44 2369.06 1468.33 Q2369.06 1461.2 2367.23 1457.66 Q2365.43 1454.1 2361.79 1454.1 M2361.79 1450.39 Q2367.6 1450.39 2370.66 1455 Q2373.74 1459.58 2373.74 1468.33 Q2373.74 1477.06 2370.66 1481.67 Q2367.6 1486.25 2361.79 1486.25 Q2355.98 1486.25 2352.9 1481.67 Q2349.85 1477.06 2349.85 1468.33 Q2349.85 1459.58 2352.9 1455 Q2355.98 1450.39 2361.79 1450.39 Z" fill="#000000" fill-rule="evenodd" fill-opacity="1" /><path clip-path="url(#clip800)" d="M1325.14 1532.4 L1312.25 1549.74 L1325.8 1568.04 L1318.9 1568.04 L1308.52 1554.04 L1298.15 1568.04 L1291.24 1568.04 L1305.08 1549.39 L1292.42 1532.4 L1299.32 1532.4 L1308.78 1545.1 L1318.23 1532.4 L1325.14 1532.4 Z" fill="#000000" fill-rule="evenodd" fill-opacity="1" /><polyline clip-path="url(#clip802)" style="stroke:#000000; stroke-linecap:round; stroke-linejoin:round; stroke-width:2; stroke-opacity:0.1; fill:none" points="
  264.287,1228.9 2352.76,1228.9 
  "/>
<polyline clip-path="url(#clip802)" style="stroke:#000000; stroke-linecap:round; stroke-linejoin:round; stroke-width:2; stroke-opacity:0.1; fill:none" points="
  264.287,978.931 2352.76,978.931 
  "/>
<polyline clip-path="url(#clip802)" style="stroke:#000000; stroke-linecap:round; stroke-linejoin:round; stroke-width:2; stroke-opacity:0.1; fill:none" points="
  264.287,728.963 2352.76,728.963 
  "/>
<polyline clip-path="url(#clip802)" style="stroke:#000000; stroke-linecap:round; stroke-linejoin:round; stroke-width:2; stroke-opacity:0.1; fill:none" points="
  264.287,478.994 2352.76,478.994 
  "/>
<polyline clip-path="url(#clip802)" style="stroke:#000000; stroke-linecap:round; stroke-linejoin:round; stroke-width:2; stroke-opacity:0.1; fill:none" points="
  264.287,229.025 2352.76,229.025 
  "/>
<polyline clip-path="url(#clip800)" style="stroke:#000000; stroke-linecap:round; stroke-linejoin:round; stroke-width:4; stroke-opacity:1; fill:none" points="
  264.287,1423.18 264.287,47.2441 
  "/>
<polyline clip-path="url(#clip800)" style="stroke:#000000; stroke-linecap:round; stroke-linejoin:round; stroke-width:4; stroke-opacity:1; fill:none" points="
  264.287,1228.9 283.185,1228.9 
  "/>
<polyline clip-path="url(#clip800)" style="stroke:#000000; stroke-linecap:round; stroke-linejoin:round; stroke-width:4; stroke-opacity:1; fill:none" points="
  264.287,978.931 283.185,978.931 
  "/>
<polyline clip-path="url(#clip800)" style="stroke:#000000; stroke-linecap:round; stroke-linejoin:round; stroke-width:4; stroke-opacity:1; fill:none" points="
  264.287,728.963 283.185,728.963 
  "/>
<polyline clip-path="url(#clip800)" style="stroke:#000000; stroke-linecap:round; stroke-linejoin:round; stroke-width:4; stroke-opacity:1; fill:none" points="
  264.287,478.994 283.185,478.994 
  "/>
<polyline clip-path="url(#clip800)" style="stroke:#000000; stroke-linecap:round; stroke-linejoin:round; stroke-width:4; stroke-opacity:1; fill:none" points="
  264.287,229.025 283.185,229.025 
  "/>
<path clip-path="url(#clip800)" d="M216.343 1214.7 Q212.732 1214.7 210.903 1218.26 Q209.098 1221.81 209.098 1228.93 Q209.098 1236.04 210.903 1239.61 Q212.732 1243.15 216.343 1243.15 Q219.977 1243.15 221.783 1239.61 Q223.611 1236.04 223.611 1228.93 Q223.611 1221.81 221.783 1218.26 Q219.977 1214.7 216.343 1214.7 M216.343 1211 Q222.153 1211 225.209 1215.6 Q228.287 1220.18 228.287 1228.93 Q228.287 1237.66 225.209 1242.27 Q222.153 1246.85 216.343 1246.85 Q210.533 1246.85 207.454 1242.27 Q204.399 1237.66 204.399 1228.93 Q204.399 1220.18 207.454 1215.6 Q210.533 1211 216.343 1211 Z" fill="#000000" fill-rule="evenodd" fill-opacity="1" /><path clip-path="url(#clip800)" d="M146.066 961.651 L164.422 961.651 L164.422 965.587 L150.348 965.587 L150.348 974.059 Q151.366 973.712 152.385 973.55 Q153.403 973.364 154.422 973.364 Q160.209 973.364 163.589 976.536 Q166.968 979.707 166.968 985.124 Q166.968 990.702 163.496 993.804 Q160.024 996.883 153.704 996.883 Q151.528 996.883 149.26 996.512 Q147.015 996.142 144.607 995.401 L144.607 990.702 Q146.691 991.836 148.913 992.392 Q151.135 992.948 153.612 992.948 Q157.616 992.948 159.954 990.841 Q162.292 988.735 162.292 985.124 Q162.292 981.512 159.954 979.406 Q157.616 977.3 153.612 977.3 Q151.737 977.3 149.862 977.716 Q148.01 978.133 146.066 979.012 L146.066 961.651 Z" fill="#000000" fill-rule="evenodd" fill-opacity="1" /><path clip-path="url(#clip800)" d="M186.181 964.73 Q182.57 964.73 180.741 968.295 Q178.936 971.837 178.936 978.966 Q178.936 986.073 180.741 989.637 Q182.57 993.179 186.181 993.179 Q189.815 993.179 191.621 989.637 Q193.45 986.073 193.45 978.966 Q193.45 971.837 191.621 968.295 Q189.815 964.73 186.181 964.73 M186.181 961.026 Q191.991 961.026 195.047 965.633 Q198.125 970.216 198.125 978.966 Q198.125 987.693 195.047 992.299 Q191.991 996.883 186.181 996.883 Q180.371 996.883 177.292 992.299 Q174.237 987.693 174.237 978.966 Q174.237 970.216 177.292 965.633 Q180.371 961.026 186.181 961.026 Z" fill="#000000" fill-rule="evenodd" fill-opacity="1" /><path clip-path="url(#clip800)" d="M216.343 964.73 Q212.732 964.73 210.903 968.295 Q209.098 971.837 209.098 978.966 Q209.098 986.073 210.903 989.637 Q212.732 993.179 216.343 993.179 Q219.977 993.179 221.783 989.637 Q223.611 986.073 223.611 978.966 Q223.611 971.837 221.783 968.295 Q219.977 964.73 216.343 964.73 M216.343 961.026 Q222.153 961.026 225.209 965.633 Q228.287 970.216 228.287 978.966 Q228.287 987.693 225.209 992.299 Q222.153 996.883 216.343 996.883 Q210.533 996.883 207.454 992.299 Q204.399 987.693 204.399 978.966 Q204.399 970.216 207.454 965.633 Q210.533 961.026 216.343 961.026 Z" fill="#000000" fill-rule="evenodd" fill-opacity="1" /><path clip-path="url(#clip800)" d="M116.668 742.308 L124.306 742.308 L124.306 715.942 L115.996 717.609 L115.996 713.349 L124.26 711.683 L128.936 711.683 L128.936 742.308 L136.575 742.308 L136.575 746.243 L116.668 746.243 L116.668 742.308 Z" fill="#000000" fill-rule="evenodd" fill-opacity="1" /><path clip-path="url(#clip800)" d="M156.019 714.761 Q152.408 714.761 150.579 718.326 Q148.774 721.868 148.774 728.997 Q148.774 736.104 150.579 739.669 Q152.408 743.21 156.019 743.21 Q159.653 743.21 161.459 739.669 Q163.288 736.104 163.288 728.997 Q163.288 721.868 161.459 718.326 Q159.653 714.761 156.019 714.761 M156.019 711.058 Q161.829 711.058 164.885 715.664 Q167.964 720.248 167.964 728.997 Q167.964 737.724 164.885 742.331 Q161.829 746.914 156.019 746.914 Q150.209 746.914 147.13 742.331 Q144.075 737.724 144.075 728.997 Q144.075 720.248 147.13 715.664 Q150.209 711.058 156.019 711.058 Z" fill="#000000" fill-rule="evenodd" fill-opacity="1" /><path clip-path="url(#clip800)" d="M186.181 714.761 Q182.57 714.761 180.741 718.326 Q178.936 721.868 178.936 728.997 Q178.936 736.104 180.741 739.669 Q182.57 743.21 186.181 743.21 Q189.815 743.21 191.621 739.669 Q193.45 736.104 193.45 728.997 Q193.45 721.868 191.621 718.326 Q189.815 714.761 186.181 714.761 M186.181 711.058 Q191.991 711.058 195.047 715.664 Q198.125 720.248 198.125 728.997 Q198.125 737.724 195.047 742.331 Q191.991 746.914 186.181 746.914 Q180.371 746.914 177.292 742.331 Q174.237 737.724 174.237 728.997 Q174.237 720.248 177.292 715.664 Q180.371 711.058 186.181 711.058 Z" fill="#000000" fill-rule="evenodd" fill-opacity="1" /><path clip-path="url(#clip800)" d="M216.343 714.761 Q212.732 714.761 210.903 718.326 Q209.098 721.868 209.098 728.997 Q209.098 736.104 210.903 739.669 Q212.732 743.21 216.343 743.21 Q219.977 743.21 221.783 739.669 Q223.611 736.104 223.611 728.997 Q223.611 721.868 221.783 718.326 Q219.977 714.761 216.343 714.761 M216.343 711.058 Q222.153 711.058 225.209 715.664 Q228.287 720.248 228.287 728.997 Q228.287 737.724 225.209 742.331 Q222.153 746.914 216.343 746.914 Q210.533 746.914 207.454 742.331 Q204.399 737.724 204.399 728.997 Q204.399 720.248 207.454 715.664 Q210.533 711.058 216.343 711.058 Z" fill="#000000" fill-rule="evenodd" fill-opacity="1" /><path clip-path="url(#clip800)" d="M116.668 492.339 L124.306 492.339 L124.306 465.973 L115.996 467.64 L115.996 463.381 L124.26 461.714 L128.936 461.714 L128.936 492.339 L136.575 492.339 L136.575 496.274 L116.668 496.274 L116.668 492.339 Z" fill="#000000" fill-rule="evenodd" fill-opacity="1" /><path clip-path="url(#clip800)" d="M146.066 461.714 L164.422 461.714 L164.422 465.649 L150.348 465.649 L150.348 474.121 Q151.366 473.774 152.385 473.612 Q153.403 473.427 154.422 473.427 Q160.209 473.427 163.589 476.598 Q166.968 479.769 166.968 485.186 Q166.968 490.765 163.496 493.867 Q160.024 496.945 153.704 496.945 Q151.528 496.945 149.26 496.575 Q147.015 496.205 144.607 495.464 L144.607 490.765 Q146.691 491.899 148.913 492.455 Q151.135 493.01 153.612 493.01 Q157.616 493.01 159.954 490.904 Q162.292 488.797 162.292 485.186 Q162.292 481.575 159.954 479.469 Q157.616 477.362 153.612 477.362 Q151.737 477.362 149.862 477.779 Q148.01 478.195 146.066 479.075 L146.066 461.714 Z" fill="#000000" fill-rule="evenodd" fill-opacity="1" /><path clip-path="url(#clip800)" d="M186.181 464.793 Q182.57 464.793 180.741 468.358 Q178.936 471.899 178.936 479.029 Q178.936 486.135 180.741 489.7 Q182.57 493.242 186.181 493.242 Q189.815 493.242 191.621 489.7 Q193.45 486.135 193.45 479.029 Q193.45 471.899 191.621 468.358 Q189.815 464.793 186.181 464.793 M186.181 461.089 Q191.991 461.089 195.047 465.696 Q198.125 470.279 198.125 479.029 Q198.125 487.756 195.047 492.362 Q191.991 496.945 186.181 496.945 Q180.371 496.945 177.292 492.362 Q174.237 487.756 174.237 479.029 Q174.237 470.279 177.292 465.696 Q180.371 461.089 186.181 461.089 Z" fill="#000000" fill-rule="evenodd" fill-opacity="1" /><path clip-path="url(#clip800)" d="M216.343 464.793 Q212.732 464.793 210.903 468.358 Q209.098 471.899 209.098 479.029 Q209.098 486.135 210.903 489.7 Q212.732 493.242 216.343 493.242 Q219.977 493.242 221.783 489.7 Q223.611 486.135 223.611 479.029 Q223.611 471.899 221.783 468.358 Q219.977 464.793 216.343 464.793 M216.343 461.089 Q222.153 461.089 225.209 465.696 Q228.287 470.279 228.287 479.029 Q228.287 487.756 225.209 492.362 Q222.153 496.945 216.343 496.945 Q210.533 496.945 207.454 492.362 Q204.399 487.756 204.399 479.029 Q204.399 470.279 207.454 465.696 Q210.533 461.089 216.343 461.089 Z" fill="#000000" fill-rule="evenodd" fill-opacity="1" /><path clip-path="url(#clip800)" d="M119.885 242.37 L136.204 242.37 L136.204 246.305 L114.26 246.305 L114.26 242.37 Q116.922 239.616 121.505 234.986 Q126.112 230.333 127.292 228.991 Q129.538 226.467 130.417 224.731 Q131.32 222.972 131.32 221.282 Q131.32 218.528 129.376 216.792 Q127.455 215.055 124.353 215.055 Q122.154 215.055 119.7 215.819 Q117.269 216.583 114.492 218.134 L114.492 213.412 Q117.316 212.278 119.769 211.699 Q122.223 211.12 124.26 211.12 Q129.63 211.12 132.825 213.806 Q136.019 216.491 136.019 220.981 Q136.019 223.111 135.209 225.032 Q134.422 226.93 132.316 229.523 Q131.737 230.194 128.635 233.412 Q125.533 236.606 119.885 242.37 Z" fill="#000000" fill-rule="evenodd" fill-opacity="1" /><path clip-path="url(#clip800)" d="M156.019 214.824 Q152.408 214.824 150.579 218.389 Q148.774 221.93 148.774 229.06 Q148.774 236.166 150.579 239.731 Q152.408 243.273 156.019 243.273 Q159.653 243.273 161.459 239.731 Q163.288 236.166 163.288 229.06 Q163.288 221.93 161.459 218.389 Q159.653 214.824 156.019 214.824 M156.019 211.12 Q161.829 211.12 164.885 215.727 Q167.964 220.31 167.964 229.06 Q167.964 237.787 164.885 242.393 Q161.829 246.977 156.019 246.977 Q150.209 246.977 147.13 242.393 Q144.075 237.787 144.075 229.06 Q144.075 220.31 147.13 215.727 Q150.209 211.12 156.019 211.12 Z" fill="#000000" fill-rule="evenodd" fill-opacity="1" /><path clip-path="url(#clip800)" d="M186.181 214.824 Q182.57 214.824 180.741 218.389 Q178.936 221.93 178.936 229.06 Q178.936 236.166 180.741 239.731 Q182.57 243.273 186.181 243.273 Q189.815 243.273 191.621 239.731 Q193.45 236.166 193.45 229.06 Q193.45 221.93 191.621 218.389 Q189.815 214.824 186.181 214.824 M186.181 211.12 Q191.991 211.12 195.047 215.727 Q198.125 220.31 198.125 229.06 Q198.125 237.787 195.047 242.393 Q191.991 246.977 186.181 246.977 Q180.371 246.977 177.292 242.393 Q174.237 237.787 174.237 229.06 Q174.237 220.31 177.292 215.727 Q180.371 211.12 186.181 211.12 Z" fill="#000000" fill-rule="evenodd" fill-opacity="1" /><path clip-path="url(#clip800)" d="M216.343 214.824 Q212.732 214.824 210.903 218.389 Q209.098 221.93 209.098 229.06 Q209.098 236.166 210.903 239.731 Q212.732 243.273 216.343 243.273 Q219.977 243.273 221.783 239.731 Q223.611 236.166 223.611 229.06 Q223.611 221.93 221.783 218.389 Q219.977 214.824 216.343 214.824 M216.343 211.12 Q222.153 211.12 225.209 215.727 Q228.287 220.31 228.287 229.06 Q228.287 237.787 225.209 242.393 Q222.153 246.977 216.343 246.977 Q210.533 246.977 207.454 242.393 Q204.399 237.787 204.399 229.06 Q204.399 220.31 207.454 215.727 Q210.533 211.12 216.343 211.12 Z" fill="#000000" fill-rule="evenodd" fill-opacity="1" /><path clip-path="url(#clip800)" d="M67.3143 733.525 Q73.68 736.008 75.6216 738.363 Q77.5631 740.718 77.5631 744.665 L77.5631 749.344 L72.6615 749.344 L72.6615 745.906 Q72.6615 743.487 71.5157 742.151 Q70.3699 740.814 66.1048 739.191 L63.4312 738.14 L28.3562 752.559 L28.3562 746.352 L56.238 735.212 L28.3562 724.072 L28.3562 717.865 L67.3143 733.525 Z" fill="#000000" fill-rule="evenodd" fill-opacity="1" /><polyline clip-path="url(#clip802)" style="stroke:#009af9; stroke-linecap:round; stroke-linejoin:round; stroke-width:4; stroke-opacity:1; fill:none" points="
  330.894,1225.9 405.385,1216.9 422.882,1118.91 336.393,997.929 365.89,960.934 437.381,936.937 621.858,892.442 706.847,893.442 733.344,914.44 735.843,918.939 
  704.347,1032.92 722.345,1053.42 816.333,1000.43 831.831,1014.93 845.33,1042.92 944.317,1198.4 1030.81,1161.91 1021.31,1075.42 959.315,966.433 909.822,875.944 
  969.814,746.96 1006.31,759.459 1088.3,797.454 1213.78,747.96 1209.78,724.463 1012.81,544.986 997.311,465.996 979.813,282.519 994.811,276.519 1126.79,314.015 
  1128.79,403.503 1146.29,450.998 1340.27,415.002 1405.26,419.501 1432.26,541.986 1467.25,665.471 1405.26,739.961 1364.76,738.462 1274.78,885.443 1340.77,1020.43 
  1250.28,1130.41 1203.28,1175.41 1205.78,1183.91 1587.24,1110.91 1610.23,1077.92 1602.73,929.438 1565.74,899.941 1496.75,908.94 1426.76,1083.42 1575.74,1161.41 
  1604.23,1134.41 1740.22,1180.91 1811.21,1121.91 1784.21,1060.42 1747.72,949.935 1811.71,832.95 1872.7,786.456 1903.2,696.967 1922.69,686.468 2013.18,714.965 
  2076.18,689.468 2139.17,719.964 2227.16,779.456 2243.15,767.458 2233.66,747.46 2180.66,634.975 2253.15,569.983 2291.15,449.998 2293.65,357.509 2109.17,274.52 
  2065.68,286.518 2071.18,393.505 2002.68,406.003 1973.19,288.518 2020.68,270.52 2039.68,314.015 1862.2,395.005 1855.2,458.497 1858.7,464.996 2008.18,479.994 
  2157.67,462.496 2184.16,457.997 2242.65,373.007 2271.65,392.505 2220.16,541.486 2133.67,641.974 2168.16,687.968 2194.16,787.955 2219.16,855.947 2260.15,895.942 
  2285.65,908.94 2223.66,1144.41 2024.18,1157.41 1940.69,1039.92 1964.69,983.431 1955.19,829.45 2055.68,818.452 2098.17,890.942 2253.65,929.938 2272.65,1132.91 
  2262.65,1177.91 2136.17,1207.4 1865.7,1142.41 1878.2,1024.93 1827.21,991.93 1706.72,989.93 1634.23,865.446 1641.23,827.95 1615.73,778.457 1603.23,755.959 
  1526.74,725.463 1557.24,637.474 1609.23,585.981 1630.23,489.493 1572.74,442.999 1532.74,459.996 1498.75,404.503 1461.25,324.013 1472.25,254.522 1602.73,244.523 
  1614.73,314.015 1604.23,391.005 1676.73,487.993 1674.23,512.99 1659.73,552.485 1702.72,585.981 1782.71,499.491 1796.71,426.501 1788.71,418.002 1680.23,380.006 
  1655.23,316.514 1592.24,274.52 1550.74,310.015 1475.25,266.521 1385.76,326.013 1357.27,352.51 1235.28,363.009 1219.78,373.507 1178.29,408.003 1082.8,339.012 
  1028.31,365.008 941.818,313.015 939.818,256.522 933.319,256.022 766.839,452.997 752.341,449.498 687.349,716.464 705.847,840.449 750.341,863.446 864.827,907.44 
  977.813,1088.92 905.322,1178.91 792.836,1094.92 796.336,1077.42 772.839,1070.42 718.845,1092.92 676.851,1135.91 544.867,1061.92 479.875,1096.42 436.881,1058.42 
  323.395,1001.93 325.895,891.942 342.892,800.454 396.886,775.957 412.384,726.963 359.39,696.467 327.394,735.462 377.888,797.954 425.882,779.956 504.372,816.452 
  514.371,814.952 505.372,704.966 433.381,669.97 442.38,608.978 327.394,420.501 415.383,324.013 477.876,372.007 465.377,472.495 453.379,518.989 557.366,560.484 
  621.858,536.987 662.852,537.487 685.35,566.483 684.85,586.481 729.344,615.977 785.337,751.46 808.334,746.461 829.832,708.465 873.826,702.966 907.822,533.487 
  780.338,379.007 780.838,346.011 761.34,306.016 668.852,323.014 593.361,316.514 547.867,394.005 544.867,425.501 408.884,457.997 385.387,424.001 337.893,250.523 
  
  "/>
<circle clip-path="url(#clip802)" cx="330.894" cy="1225.9" r="7.2" fill="#009af9" fill-rule="evenodd" fill-opacity="1" stroke="#000000" stroke-opacity="1" stroke-width="3.2"/>
<circle clip-path="url(#clip802)" cx="405.385" cy="1216.9" r="7.2" fill="#009af9" fill-rule="evenodd" fill-opacity="1" stroke="#000000" stroke-opacity="1" stroke-width="3.2"/>
<circle clip-path="url(#clip802)" cx="422.882" cy="1118.91" r="7.2" fill="#009af9" fill-rule="evenodd" fill-opacity="1" stroke="#000000" stroke-opacity="1" stroke-width="3.2"/>
<circle clip-path="url(#clip802)" cx="336.393" cy="997.929" r="7.2" fill="#009af9" fill-rule="evenodd" fill-opacity="1" stroke="#000000" stroke-opacity="1" stroke-width="3.2"/>
<circle clip-path="url(#clip802)" cx="365.89" cy="960.934" r="7.2" fill="#009af9" fill-rule="evenodd" fill-opacity="1" stroke="#000000" stroke-opacity="1" stroke-width="3.2"/>
<circle clip-path="url(#clip802)" cx="437.381" cy="936.937" r="7.2" fill="#009af9" fill-rule="evenodd" fill-opacity="1" stroke="#000000" stroke-opacity="1" stroke-width="3.2"/>
<circle clip-path="url(#clip802)" cx="621.858" cy="892.442" r="7.2" fill="#009af9" fill-rule="evenodd" fill-opacity="1" stroke="#000000" stroke-opacity="1" stroke-width="3.2"/>
<circle clip-path="url(#clip802)" cx="706.847" cy="893.442" r="7.2" fill="#009af9" fill-rule="evenodd" fill-opacity="1" stroke="#000000" stroke-opacity="1" stroke-width="3.2"/>
<circle clip-path="url(#clip802)" cx="733.344" cy="914.44" r="7.2" fill="#009af9" fill-rule="evenodd" fill-opacity="1" stroke="#000000" stroke-opacity="1" stroke-width="3.2"/>
<circle clip-path="url(#clip802)" cx="735.843" cy="918.939" r="7.2" fill="#009af9" fill-rule="evenodd" fill-opacity="1" stroke="#000000" stroke-opacity="1" stroke-width="3.2"/>
<circle clip-path="url(#clip802)" cx="704.347" cy="1032.92" r="7.2" fill="#009af9" fill-rule="evenodd" fill-opacity="1" stroke="#000000" stroke-opacity="1" stroke-width="3.2"/>
<circle clip-path="url(#clip802)" cx="722.345" cy="1053.42" r="7.2" fill="#009af9" fill-rule="evenodd" fill-opacity="1" stroke="#000000" stroke-opacity="1" stroke-width="3.2"/>
<circle clip-path="url(#clip802)" cx="816.333" cy="1000.43" r="7.2" fill="#009af9" fill-rule="evenodd" fill-opacity="1" stroke="#000000" stroke-opacity="1" stroke-width="3.2"/>
<circle clip-path="url(#clip802)" cx="831.831" cy="1014.93" r="7.2" fill="#009af9" fill-rule="evenodd" fill-opacity="1" stroke="#000000" stroke-opacity="1" stroke-width="3.2"/>
<circle clip-path="url(#clip802)" cx="845.33" cy="1042.92" r="7.2" fill="#009af9" fill-rule="evenodd" fill-opacity="1" stroke="#000000" stroke-opacity="1" stroke-width="3.2"/>
<circle clip-path="url(#clip802)" cx="944.317" cy="1198.4" r="7.2" fill="#009af9" fill-rule="evenodd" fill-opacity="1" stroke="#000000" stroke-opacity="1" stroke-width="3.2"/>
<circle clip-path="url(#clip802)" cx="1030.81" cy="1161.91" r="7.2" fill="#009af9" fill-rule="evenodd" fill-opacity="1" stroke="#000000" stroke-opacity="1" stroke-width="3.2"/>
<circle clip-path="url(#clip802)" cx="1021.31" cy="1075.42" r="7.2" fill="#009af9" fill-rule="evenodd" fill-opacity="1" stroke="#000000" stroke-opacity="1" stroke-width="3.2"/>
<circle clip-path="url(#clip802)" cx="959.315" cy="966.433" r="7.2" fill="#009af9" fill-rule="evenodd" fill-opacity="1" stroke="#000000" stroke-opacity="1" stroke-width="3.2"/>
<circle clip-path="url(#clip802)" cx="909.822" cy="875.944" r="7.2" fill="#009af9" fill-rule="evenodd" fill-opacity="1" stroke="#000000" stroke-opacity="1" stroke-width="3.2"/>
<circle clip-path="url(#clip802)" cx="969.814" cy="746.96" r="7.2" fill="#009af9" fill-rule="evenodd" fill-opacity="1" stroke="#000000" stroke-opacity="1" stroke-width="3.2"/>
<circle clip-path="url(#clip802)" cx="1006.31" cy="759.459" r="7.2" fill="#009af9" fill-rule="evenodd" fill-opacity="1" stroke="#000000" stroke-opacity="1" stroke-width="3.2"/>
<circle clip-path="url(#clip802)" cx="1088.3" cy="797.454" r="7.2" fill="#009af9" fill-rule="evenodd" fill-opacity="1" stroke="#000000" stroke-opacity="1" stroke-width="3.2"/>
<circle clip-path="url(#clip802)" cx="1213.78" cy="747.96" r="7.2" fill="#009af9" fill-rule="evenodd" fill-opacity="1" stroke="#000000" stroke-opacity="1" stroke-width="3.2"/>
<circle clip-path="url(#clip802)" cx="1209.78" cy="724.463" r="7.2" fill="#009af9" fill-rule="evenodd" fill-opacity="1" stroke="#000000" stroke-opacity="1" stroke-width="3.2"/>
<circle clip-path="url(#clip802)" cx="1012.81" cy="544.986" r="7.2" fill="#009af9" fill-rule="evenodd" fill-opacity="1" stroke="#000000" stroke-opacity="1" stroke-width="3.2"/>
<circle clip-path="url(#clip802)" cx="997.311" cy="465.996" r="7.2" fill="#009af9" fill-rule="evenodd" fill-opacity="1" stroke="#000000" stroke-opacity="1" stroke-width="3.2"/>
<circle clip-path="url(#clip802)" cx="979.813" cy="282.519" r="7.2" fill="#009af9" fill-rule="evenodd" fill-opacity="1" stroke="#000000" stroke-opacity="1" stroke-width="3.2"/>
<circle clip-path="url(#clip802)" cx="994.811" cy="276.519" r="7.2" fill="#009af9" fill-rule="evenodd" fill-opacity="1" stroke="#000000" stroke-opacity="1" stroke-width="3.2"/>
<circle clip-path="url(#clip802)" cx="1126.79" cy="314.015" r="7.2" fill="#009af9" fill-rule="evenodd" fill-opacity="1" stroke="#000000" stroke-opacity="1" stroke-width="3.2"/>
<circle clip-path="url(#clip802)" cx="1128.79" cy="403.503" r="7.2" fill="#009af9" fill-rule="evenodd" fill-opacity="1" stroke="#000000" stroke-opacity="1" stroke-width="3.2"/>
<circle clip-path="url(#clip802)" cx="1146.29" cy="450.998" r="7.2" fill="#009af9" fill-rule="evenodd" fill-opacity="1" stroke="#000000" stroke-opacity="1" stroke-width="3.2"/>
<circle clip-path="url(#clip802)" cx="1340.27" cy="415.002" r="7.2" fill="#009af9" fill-rule="evenodd" fill-opacity="1" stroke="#000000" stroke-opacity="1" stroke-width="3.2"/>
<circle clip-path="url(#clip802)" cx="1405.26" cy="419.501" r="7.2" fill="#009af9" fill-rule="evenodd" fill-opacity="1" stroke="#000000" stroke-opacity="1" stroke-width="3.2"/>
<circle clip-path="url(#clip802)" cx="1432.26" cy="541.986" r="7.2" fill="#009af9" fill-rule="evenodd" fill-opacity="1" stroke="#000000" stroke-opacity="1" stroke-width="3.2"/>
<circle clip-path="url(#clip802)" cx="1467.25" cy="665.471" r="7.2" fill="#009af9" fill-rule="evenodd" fill-opacity="1" stroke="#000000" stroke-opacity="1" stroke-width="3.2"/>
<circle clip-path="url(#clip802)" cx="1405.26" cy="739.961" r="7.2" fill="#009af9" fill-rule="evenodd" fill-opacity="1" stroke="#000000" stroke-opacity="1" stroke-width="3.2"/>
<circle clip-path="url(#clip802)" cx="1364.76" cy="738.462" r="7.2" fill="#009af9" fill-rule="evenodd" fill-opacity="1" stroke="#000000" stroke-opacity="1" stroke-width="3.2"/>
<circle clip-path="url(#clip802)" cx="1274.78" cy="885.443" r="7.2" fill="#009af9" fill-rule="evenodd" fill-opacity="1" stroke="#000000" stroke-opacity="1" stroke-width="3.2"/>
<circle clip-path="url(#clip802)" cx="1340.77" cy="1020.43" r="7.2" fill="#009af9" fill-rule="evenodd" fill-opacity="1" stroke="#000000" stroke-opacity="1" stroke-width="3.2"/>
<circle clip-path="url(#clip802)" cx="1250.28" cy="1130.41" r="7.2" fill="#009af9" fill-rule="evenodd" fill-opacity="1" stroke="#000000" stroke-opacity="1" stroke-width="3.2"/>
<circle clip-path="url(#clip802)" cx="1203.28" cy="1175.41" r="7.2" fill="#009af9" fill-rule="evenodd" fill-opacity="1" stroke="#000000" stroke-opacity="1" stroke-width="3.2"/>
<circle clip-path="url(#clip802)" cx="1205.78" cy="1183.91" r="7.2" fill="#009af9" fill-rule="evenodd" fill-opacity="1" stroke="#000000" stroke-opacity="1" stroke-width="3.2"/>
<circle clip-path="url(#clip802)" cx="1587.24" cy="1110.91" r="7.2" fill="#009af9" fill-rule="evenodd" fill-opacity="1" stroke="#000000" stroke-opacity="1" stroke-width="3.2"/>
<circle clip-path="url(#clip802)" cx="1610.23" cy="1077.92" r="7.2" fill="#009af9" fill-rule="evenodd" fill-opacity="1" stroke="#000000" stroke-opacity="1" stroke-width="3.2"/>
<circle clip-path="url(#clip802)" cx="1602.73" cy="929.438" r="7.2" fill="#009af9" fill-rule="evenodd" fill-opacity="1" stroke="#000000" stroke-opacity="1" stroke-width="3.2"/>
<circle clip-path="url(#clip802)" cx="1565.74" cy="899.941" r="7.2" fill="#009af9" fill-rule="evenodd" fill-opacity="1" stroke="#000000" stroke-opacity="1" stroke-width="3.2"/>
<circle clip-path="url(#clip802)" cx="1496.75" cy="908.94" r="7.2" fill="#009af9" fill-rule="evenodd" fill-opacity="1" stroke="#000000" stroke-opacity="1" stroke-width="3.2"/>
<circle clip-path="url(#clip802)" cx="1426.76" cy="1083.42" r="7.2" fill="#009af9" fill-rule="evenodd" fill-opacity="1" stroke="#000000" stroke-opacity="1" stroke-width="3.2"/>
<circle clip-path="url(#clip802)" cx="1575.74" cy="1161.41" r="7.2" fill="#009af9" fill-rule="evenodd" fill-opacity="1" stroke="#000000" stroke-opacity="1" stroke-width="3.2"/>
<circle clip-path="url(#clip802)" cx="1604.23" cy="1134.41" r="7.2" fill="#009af9" fill-rule="evenodd" fill-opacity="1" stroke="#000000" stroke-opacity="1" stroke-width="3.2"/>
<circle clip-path="url(#clip802)" cx="1740.22" cy="1180.91" r="7.2" fill="#009af9" fill-rule="evenodd" fill-opacity="1" stroke="#000000" stroke-opacity="1" stroke-width="3.2"/>
<circle clip-path="url(#clip802)" cx="1811.21" cy="1121.91" r="7.2" fill="#009af9" fill-rule="evenodd" fill-opacity="1" stroke="#000000" stroke-opacity="1" stroke-width="3.2"/>
<circle clip-path="url(#clip802)" cx="1784.21" cy="1060.42" r="7.2" fill="#009af9" fill-rule="evenodd" fill-opacity="1" stroke="#000000" stroke-opacity="1" stroke-width="3.2"/>
<circle clip-path="url(#clip802)" cx="1747.72" cy="949.935" r="7.2" fill="#009af9" fill-rule="evenodd" fill-opacity="1" stroke="#000000" stroke-opacity="1" stroke-width="3.2"/>
<circle clip-path="url(#clip802)" cx="1811.71" cy="832.95" r="7.2" fill="#009af9" fill-rule="evenodd" fill-opacity="1" stroke="#000000" stroke-opacity="1" stroke-width="3.2"/>
<circle clip-path="url(#clip802)" cx="1872.7" cy="786.456" r="7.2" fill="#009af9" fill-rule="evenodd" fill-opacity="1" stroke="#000000" stroke-opacity="1" stroke-width="3.2"/>
<circle clip-path="url(#clip802)" cx="1903.2" cy="696.967" r="7.2" fill="#009af9" fill-rule="evenodd" fill-opacity="1" stroke="#000000" stroke-opacity="1" stroke-width="3.2"/>
<circle clip-path="url(#clip802)" cx="1922.69" cy="686.468" r="7.2" fill="#009af9" fill-rule="evenodd" fill-opacity="1" stroke="#000000" stroke-opacity="1" stroke-width="3.2"/>
<circle clip-path="url(#clip802)" cx="2013.18" cy="714.965" r="7.2" fill="#009af9" fill-rule="evenodd" fill-opacity="1" stroke="#000000" stroke-opacity="1" stroke-width="3.2"/>
<circle clip-path="url(#clip802)" cx="2076.18" cy="689.468" r="7.2" fill="#009af9" fill-rule="evenodd" fill-opacity="1" stroke="#000000" stroke-opacity="1" stroke-width="3.2"/>
<circle clip-path="url(#clip802)" cx="2139.17" cy="719.964" r="7.2" fill="#009af9" fill-rule="evenodd" fill-opacity="1" stroke="#000000" stroke-opacity="1" stroke-width="3.2"/>
<circle clip-path="url(#clip802)" cx="2227.16" cy="779.456" r="7.2" fill="#009af9" fill-rule="evenodd" fill-opacity="1" stroke="#000000" stroke-opacity="1" stroke-width="3.2"/>
<circle clip-path="url(#clip802)" cx="2243.15" cy="767.458" r="7.2" fill="#009af9" fill-rule="evenodd" fill-opacity="1" stroke="#000000" stroke-opacity="1" stroke-width="3.2"/>
<circle clip-path="url(#clip802)" cx="2233.66" cy="747.46" r="7.2" fill="#009af9" fill-rule="evenodd" fill-opacity="1" stroke="#000000" stroke-opacity="1" stroke-width="3.2"/>
<circle clip-path="url(#clip802)" cx="2180.66" cy="634.975" r="7.2" fill="#009af9" fill-rule="evenodd" fill-opacity="1" stroke="#000000" stroke-opacity="1" stroke-width="3.2"/>
<circle clip-path="url(#clip802)" cx="2253.15" cy="569.983" r="7.2" fill="#009af9" fill-rule="evenodd" fill-opacity="1" stroke="#000000" stroke-opacity="1" stroke-width="3.2"/>
<circle clip-path="url(#clip802)" cx="2291.15" cy="449.998" r="7.2" fill="#009af9" fill-rule="evenodd" fill-opacity="1" stroke="#000000" stroke-opacity="1" stroke-width="3.2"/>
<circle clip-path="url(#clip802)" cx="2293.65" cy="357.509" r="7.2" fill="#009af9" fill-rule="evenodd" fill-opacity="1" stroke="#000000" stroke-opacity="1" stroke-width="3.2"/>
<circle clip-path="url(#clip802)" cx="2109.17" cy="274.52" r="7.2" fill="#009af9" fill-rule="evenodd" fill-opacity="1" stroke="#000000" stroke-opacity="1" stroke-width="3.2"/>
<circle clip-path="url(#clip802)" cx="2065.68" cy="286.518" r="7.2" fill="#009af9" fill-rule="evenodd" fill-opacity="1" stroke="#000000" stroke-opacity="1" stroke-width="3.2"/>
<circle clip-path="url(#clip802)" cx="2071.18" cy="393.505" r="7.2" fill="#009af9" fill-rule="evenodd" fill-opacity="1" stroke="#000000" stroke-opacity="1" stroke-width="3.2"/>
<circle clip-path="url(#clip802)" cx="2002.68" cy="406.003" r="7.2" fill="#009af9" fill-rule="evenodd" fill-opacity="1" stroke="#000000" stroke-opacity="1" stroke-width="3.2"/>
<circle clip-path="url(#clip802)" cx="1973.19" cy="288.518" r="7.2" fill="#009af9" fill-rule="evenodd" fill-opacity="1" stroke="#000000" stroke-opacity="1" stroke-width="3.2"/>
<circle clip-path="url(#clip802)" cx="2020.68" cy="270.52" r="7.2" fill="#009af9" fill-rule="evenodd" fill-opacity="1" stroke="#000000" stroke-opacity="1" stroke-width="3.2"/>
<circle clip-path="url(#clip802)" cx="2039.68" cy="314.015" r="7.2" fill="#009af9" fill-rule="evenodd" fill-opacity="1" stroke="#000000" stroke-opacity="1" stroke-width="3.2"/>
<circle clip-path="url(#clip802)" cx="1862.2" cy="395.005" r="7.2" fill="#009af9" fill-rule="evenodd" fill-opacity="1" stroke="#000000" stroke-opacity="1" stroke-width="3.2"/>
<circle clip-path="url(#clip802)" cx="1855.2" cy="458.497" r="7.2" fill="#009af9" fill-rule="evenodd" fill-opacity="1" stroke="#000000" stroke-opacity="1" stroke-width="3.2"/>
<circle clip-path="url(#clip802)" cx="1858.7" cy="464.996" r="7.2" fill="#009af9" fill-rule="evenodd" fill-opacity="1" stroke="#000000" stroke-opacity="1" stroke-width="3.2"/>
<circle clip-path="url(#clip802)" cx="2008.18" cy="479.994" r="7.2" fill="#009af9" fill-rule="evenodd" fill-opacity="1" stroke="#000000" stroke-opacity="1" stroke-width="3.2"/>
<circle clip-path="url(#clip802)" cx="2157.67" cy="462.496" r="7.2" fill="#009af9" fill-rule="evenodd" fill-opacity="1" stroke="#000000" stroke-opacity="1" stroke-width="3.2"/>
<circle clip-path="url(#clip802)" cx="2184.16" cy="457.997" r="7.2" fill="#009af9" fill-rule="evenodd" fill-opacity="1" stroke="#000000" stroke-opacity="1" stroke-width="3.2"/>
<circle clip-path="url(#clip802)" cx="2242.65" cy="373.007" r="7.2" fill="#009af9" fill-rule="evenodd" fill-opacity="1" stroke="#000000" stroke-opacity="1" stroke-width="3.2"/>
<circle clip-path="url(#clip802)" cx="2271.65" cy="392.505" r="7.2" fill="#009af9" fill-rule="evenodd" fill-opacity="1" stroke="#000000" stroke-opacity="1" stroke-width="3.2"/>
<circle clip-path="url(#clip802)" cx="2220.16" cy="541.486" r="7.2" fill="#009af9" fill-rule="evenodd" fill-opacity="1" stroke="#000000" stroke-opacity="1" stroke-width="3.2"/>
<circle clip-path="url(#clip802)" cx="2133.67" cy="641.974" r="7.2" fill="#009af9" fill-rule="evenodd" fill-opacity="1" stroke="#000000" stroke-opacity="1" stroke-width="3.2"/>
<circle clip-path="url(#clip802)" cx="2168.16" cy="687.968" r="7.2" fill="#009af9" fill-rule="evenodd" fill-opacity="1" stroke="#000000" stroke-opacity="1" stroke-width="3.2"/>
<circle clip-path="url(#clip802)" cx="2194.16" cy="787.955" r="7.2" fill="#009af9" fill-rule="evenodd" fill-opacity="1" stroke="#000000" stroke-opacity="1" stroke-width="3.2"/>
<circle clip-path="url(#clip802)" cx="2219.16" cy="855.947" r="7.2" fill="#009af9" fill-rule="evenodd" fill-opacity="1" stroke="#000000" stroke-opacity="1" stroke-width="3.2"/>
<circle clip-path="url(#clip802)" cx="2260.15" cy="895.942" r="7.2" fill="#009af9" fill-rule="evenodd" fill-opacity="1" stroke="#000000" stroke-opacity="1" stroke-width="3.2"/>
<circle clip-path="url(#clip802)" cx="2285.65" cy="908.94" r="7.2" fill="#009af9" fill-rule="evenodd" fill-opacity="1" stroke="#000000" stroke-opacity="1" stroke-width="3.2"/>
<circle clip-path="url(#clip802)" cx="2223.66" cy="1144.41" r="7.2" fill="#009af9" fill-rule="evenodd" fill-opacity="1" stroke="#000000" stroke-opacity="1" stroke-width="3.2"/>
<circle clip-path="url(#clip802)" cx="2024.18" cy="1157.41" r="7.2" fill="#009af9" fill-rule="evenodd" fill-opacity="1" stroke="#000000" stroke-opacity="1" stroke-width="3.2"/>
<circle clip-path="url(#clip802)" cx="1940.69" cy="1039.92" r="7.2" fill="#009af9" fill-rule="evenodd" fill-opacity="1" stroke="#000000" stroke-opacity="1" stroke-width="3.2"/>
<circle clip-path="url(#clip802)" cx="1964.69" cy="983.431" r="7.2" fill="#009af9" fill-rule="evenodd" fill-opacity="1" stroke="#000000" stroke-opacity="1" stroke-width="3.2"/>
<circle clip-path="url(#clip802)" cx="1955.19" cy="829.45" r="7.2" fill="#009af9" fill-rule="evenodd" fill-opacity="1" stroke="#000000" stroke-opacity="1" stroke-width="3.2"/>
<circle clip-path="url(#clip802)" cx="2055.68" cy="818.452" r="7.2" fill="#009af9" fill-rule="evenodd" fill-opacity="1" stroke="#000000" stroke-opacity="1" stroke-width="3.2"/>
<circle clip-path="url(#clip802)" cx="2098.17" cy="890.942" r="7.2" fill="#009af9" fill-rule="evenodd" fill-opacity="1" stroke="#000000" stroke-opacity="1" stroke-width="3.2"/>
<circle clip-path="url(#clip802)" cx="2253.65" cy="929.938" r="7.2" fill="#009af9" fill-rule="evenodd" fill-opacity="1" stroke="#000000" stroke-opacity="1" stroke-width="3.2"/>
<circle clip-path="url(#clip802)" cx="2272.65" cy="1132.91" r="7.2" fill="#009af9" fill-rule="evenodd" fill-opacity="1" stroke="#000000" stroke-opacity="1" stroke-width="3.2"/>
<circle clip-path="url(#clip802)" cx="2262.65" cy="1177.91" r="7.2" fill="#009af9" fill-rule="evenodd" fill-opacity="1" stroke="#000000" stroke-opacity="1" stroke-width="3.2"/>
<circle clip-path="url(#clip802)" cx="2136.17" cy="1207.4" r="7.2" fill="#009af9" fill-rule="evenodd" fill-opacity="1" stroke="#000000" stroke-opacity="1" stroke-width="3.2"/>
<circle clip-path="url(#clip802)" cx="1865.7" cy="1142.41" r="7.2" fill="#009af9" fill-rule="evenodd" fill-opacity="1" stroke="#000000" stroke-opacity="1" stroke-width="3.2"/>
<circle clip-path="url(#clip802)" cx="1878.2" cy="1024.93" r="7.2" fill="#009af9" fill-rule="evenodd" fill-opacity="1" stroke="#000000" stroke-opacity="1" stroke-width="3.2"/>
<circle clip-path="url(#clip802)" cx="1827.21" cy="991.93" r="7.2" fill="#009af9" fill-rule="evenodd" fill-opacity="1" stroke="#000000" stroke-opacity="1" stroke-width="3.2"/>
<circle clip-path="url(#clip802)" cx="1706.72" cy="989.93" r="7.2" fill="#009af9" fill-rule="evenodd" fill-opacity="1" stroke="#000000" stroke-opacity="1" stroke-width="3.2"/>
<circle clip-path="url(#clip802)" cx="1634.23" cy="865.446" r="7.2" fill="#009af9" fill-rule="evenodd" fill-opacity="1" stroke="#000000" stroke-opacity="1" stroke-width="3.2"/>
<circle clip-path="url(#clip802)" cx="1641.23" cy="827.95" r="7.2" fill="#009af9" fill-rule="evenodd" fill-opacity="1" stroke="#000000" stroke-opacity="1" stroke-width="3.2"/>
<circle clip-path="url(#clip802)" cx="1615.73" cy="778.457" r="7.2" fill="#009af9" fill-rule="evenodd" fill-opacity="1" stroke="#000000" stroke-opacity="1" stroke-width="3.2"/>
<circle clip-path="url(#clip802)" cx="1603.23" cy="755.959" r="7.2" fill="#009af9" fill-rule="evenodd" fill-opacity="1" stroke="#000000" stroke-opacity="1" stroke-width="3.2"/>
<circle clip-path="url(#clip802)" cx="1526.74" cy="725.463" r="7.2" fill="#009af9" fill-rule="evenodd" fill-opacity="1" stroke="#000000" stroke-opacity="1" stroke-width="3.2"/>
<circle clip-path="url(#clip802)" cx="1557.24" cy="637.474" r="7.2" fill="#009af9" fill-rule="evenodd" fill-opacity="1" stroke="#000000" stroke-opacity="1" stroke-width="3.2"/>
<circle clip-path="url(#clip802)" cx="1609.23" cy="585.981" r="7.2" fill="#009af9" fill-rule="evenodd" fill-opacity="1" stroke="#000000" stroke-opacity="1" stroke-width="3.2"/>
<circle clip-path="url(#clip802)" cx="1630.23" cy="489.493" r="7.2" fill="#009af9" fill-rule="evenodd" fill-opacity="1" stroke="#000000" stroke-opacity="1" stroke-width="3.2"/>
<circle clip-path="url(#clip802)" cx="1572.74" cy="442.999" r="7.2" fill="#009af9" fill-rule="evenodd" fill-opacity="1" stroke="#000000" stroke-opacity="1" stroke-width="3.2"/>
<circle clip-path="url(#clip802)" cx="1532.74" cy="459.996" r="7.2" fill="#009af9" fill-rule="evenodd" fill-opacity="1" stroke="#000000" stroke-opacity="1" stroke-width="3.2"/>
<circle clip-path="url(#clip802)" cx="1498.75" cy="404.503" r="7.2" fill="#009af9" fill-rule="evenodd" fill-opacity="1" stroke="#000000" stroke-opacity="1" stroke-width="3.2"/>
<circle clip-path="url(#clip802)" cx="1461.25" cy="324.013" r="7.2" fill="#009af9" fill-rule="evenodd" fill-opacity="1" stroke="#000000" stroke-opacity="1" stroke-width="3.2"/>
<circle clip-path="url(#clip802)" cx="1472.25" cy="254.522" r="7.2" fill="#009af9" fill-rule="evenodd" fill-opacity="1" stroke="#000000" stroke-opacity="1" stroke-width="3.2"/>
<circle clip-path="url(#clip802)" cx="1602.73" cy="244.523" r="7.2" fill="#009af9" fill-rule="evenodd" fill-opacity="1" stroke="#000000" stroke-opacity="1" stroke-width="3.2"/>
<circle clip-path="url(#clip802)" cx="1614.73" cy="314.015" r="7.2" fill="#009af9" fill-rule="evenodd" fill-opacity="1" stroke="#000000" stroke-opacity="1" stroke-width="3.2"/>
<circle clip-path="url(#clip802)" cx="1604.23" cy="391.005" r="7.2" fill="#009af9" fill-rule="evenodd" fill-opacity="1" stroke="#000000" stroke-opacity="1" stroke-width="3.2"/>
<circle clip-path="url(#clip802)" cx="1676.73" cy="487.993" r="7.2" fill="#009af9" fill-rule="evenodd" fill-opacity="1" stroke="#000000" stroke-opacity="1" stroke-width="3.2"/>
<circle clip-path="url(#clip802)" cx="1674.23" cy="512.99" r="7.2" fill="#009af9" fill-rule="evenodd" fill-opacity="1" stroke="#000000" stroke-opacity="1" stroke-width="3.2"/>
<circle clip-path="url(#clip802)" cx="1659.73" cy="552.485" r="7.2" fill="#009af9" fill-rule="evenodd" fill-opacity="1" stroke="#000000" stroke-opacity="1" stroke-width="3.2"/>
<circle clip-path="url(#clip802)" cx="1702.72" cy="585.981" r="7.2" fill="#009af9" fill-rule="evenodd" fill-opacity="1" stroke="#000000" stroke-opacity="1" stroke-width="3.2"/>
<circle clip-path="url(#clip802)" cx="1782.71" cy="499.491" r="7.2" fill="#009af9" fill-rule="evenodd" fill-opacity="1" stroke="#000000" stroke-opacity="1" stroke-width="3.2"/>
<circle clip-path="url(#clip802)" cx="1796.71" cy="426.501" r="7.2" fill="#009af9" fill-rule="evenodd" fill-opacity="1" stroke="#000000" stroke-opacity="1" stroke-width="3.2"/>
<circle clip-path="url(#clip802)" cx="1788.71" cy="418.002" r="7.2" fill="#009af9" fill-rule="evenodd" fill-opacity="1" stroke="#000000" stroke-opacity="1" stroke-width="3.2"/>
<circle clip-path="url(#clip802)" cx="1680.23" cy="380.006" r="7.2" fill="#009af9" fill-rule="evenodd" fill-opacity="1" stroke="#000000" stroke-opacity="1" stroke-width="3.2"/>
<circle clip-path="url(#clip802)" cx="1655.23" cy="316.514" r="7.2" fill="#009af9" fill-rule="evenodd" fill-opacity="1" stroke="#000000" stroke-opacity="1" stroke-width="3.2"/>
<circle clip-path="url(#clip802)" cx="1592.24" cy="274.52" r="7.2" fill="#009af9" fill-rule="evenodd" fill-opacity="1" stroke="#000000" stroke-opacity="1" stroke-width="3.2"/>
<circle clip-path="url(#clip802)" cx="1550.74" cy="310.015" r="7.2" fill="#009af9" fill-rule="evenodd" fill-opacity="1" stroke="#000000" stroke-opacity="1" stroke-width="3.2"/>
<circle clip-path="url(#clip802)" cx="1475.25" cy="266.521" r="7.2" fill="#009af9" fill-rule="evenodd" fill-opacity="1" stroke="#000000" stroke-opacity="1" stroke-width="3.2"/>
<circle clip-path="url(#clip802)" cx="1385.76" cy="326.013" r="7.2" fill="#009af9" fill-rule="evenodd" fill-opacity="1" stroke="#000000" stroke-opacity="1" stroke-width="3.2"/>
<circle clip-path="url(#clip802)" cx="1357.27" cy="352.51" r="7.2" fill="#009af9" fill-rule="evenodd" fill-opacity="1" stroke="#000000" stroke-opacity="1" stroke-width="3.2"/>
<circle clip-path="url(#clip802)" cx="1235.28" cy="363.009" r="7.2" fill="#009af9" fill-rule="evenodd" fill-opacity="1" stroke="#000000" stroke-opacity="1" stroke-width="3.2"/>
<circle clip-path="url(#clip802)" cx="1219.78" cy="373.507" r="7.2" fill="#009af9" fill-rule="evenodd" fill-opacity="1" stroke="#000000" stroke-opacity="1" stroke-width="3.2"/>
<circle clip-path="url(#clip802)" cx="1178.29" cy="408.003" r="7.2" fill="#009af9" fill-rule="evenodd" fill-opacity="1" stroke="#000000" stroke-opacity="1" stroke-width="3.2"/>
<circle clip-path="url(#clip802)" cx="1082.8" cy="339.012" r="7.2" fill="#009af9" fill-rule="evenodd" fill-opacity="1" stroke="#000000" stroke-opacity="1" stroke-width="3.2"/>
<circle clip-path="url(#clip802)" cx="1028.31" cy="365.008" r="7.2" fill="#009af9" fill-rule="evenodd" fill-opacity="1" stroke="#000000" stroke-opacity="1" stroke-width="3.2"/>
<circle clip-path="url(#clip802)" cx="941.818" cy="313.015" r="7.2" fill="#009af9" fill-rule="evenodd" fill-opacity="1" stroke="#000000" stroke-opacity="1" stroke-width="3.2"/>
<circle clip-path="url(#clip802)" cx="939.818" cy="256.522" r="7.2" fill="#009af9" fill-rule="evenodd" fill-opacity="1" stroke="#000000" stroke-opacity="1" stroke-width="3.2"/>
<circle clip-path="url(#clip802)" cx="933.319" cy="256.022" r="7.2" fill="#009af9" fill-rule="evenodd" fill-opacity="1" stroke="#000000" stroke-opacity="1" stroke-width="3.2"/>
<circle clip-path="url(#clip802)" cx="766.839" cy="452.997" r="7.2" fill="#009af9" fill-rule="evenodd" fill-opacity="1" stroke="#000000" stroke-opacity="1" stroke-width="3.2"/>
<circle clip-path="url(#clip802)" cx="752.341" cy="449.498" r="7.2" fill="#009af9" fill-rule="evenodd" fill-opacity="1" stroke="#000000" stroke-opacity="1" stroke-width="3.2"/>
<circle clip-path="url(#clip802)" cx="687.349" cy="716.464" r="7.2" fill="#009af9" fill-rule="evenodd" fill-opacity="1" stroke="#000000" stroke-opacity="1" stroke-width="3.2"/>
<circle clip-path="url(#clip802)" cx="705.847" cy="840.449" r="7.2" fill="#009af9" fill-rule="evenodd" fill-opacity="1" stroke="#000000" stroke-opacity="1" stroke-width="3.2"/>
<circle clip-path="url(#clip802)" cx="750.341" cy="863.446" r="7.2" fill="#009af9" fill-rule="evenodd" fill-opacity="1" stroke="#000000" stroke-opacity="1" stroke-width="3.2"/>
<circle clip-path="url(#clip802)" cx="864.827" cy="907.44" r="7.2" fill="#009af9" fill-rule="evenodd" fill-opacity="1" stroke="#000000" stroke-opacity="1" stroke-width="3.2"/>
<circle clip-path="url(#clip802)" cx="977.813" cy="1088.92" r="7.2" fill="#009af9" fill-rule="evenodd" fill-opacity="1" stroke="#000000" stroke-opacity="1" stroke-width="3.2"/>
<circle clip-path="url(#clip802)" cx="905.322" cy="1178.91" r="7.2" fill="#009af9" fill-rule="evenodd" fill-opacity="1" stroke="#000000" stroke-opacity="1" stroke-width="3.2"/>
<circle clip-path="url(#clip802)" cx="792.836" cy="1094.92" r="7.2" fill="#009af9" fill-rule="evenodd" fill-opacity="1" stroke="#000000" stroke-opacity="1" stroke-width="3.2"/>
<circle clip-path="url(#clip802)" cx="796.336" cy="1077.42" r="7.2" fill="#009af9" fill-rule="evenodd" fill-opacity="1" stroke="#000000" stroke-opacity="1" stroke-width="3.2"/>
<circle clip-path="url(#clip802)" cx="772.839" cy="1070.42" r="7.2" fill="#009af9" fill-rule="evenodd" fill-opacity="1" stroke="#000000" stroke-opacity="1" stroke-width="3.2"/>
<circle clip-path="url(#clip802)" cx="718.845" cy="1092.92" r="7.2" fill="#009af9" fill-rule="evenodd" fill-opacity="1" stroke="#000000" stroke-opacity="1" stroke-width="3.2"/>
<circle clip-path="url(#clip802)" cx="676.851" cy="1135.91" r="7.2" fill="#009af9" fill-rule="evenodd" fill-opacity="1" stroke="#000000" stroke-opacity="1" stroke-width="3.2"/>
<circle clip-path="url(#clip802)" cx="544.867" cy="1061.92" r="7.2" fill="#009af9" fill-rule="evenodd" fill-opacity="1" stroke="#000000" stroke-opacity="1" stroke-width="3.2"/>
<circle clip-path="url(#clip802)" cx="479.875" cy="1096.42" r="7.2" fill="#009af9" fill-rule="evenodd" fill-opacity="1" stroke="#000000" stroke-opacity="1" stroke-width="3.2"/>
<circle clip-path="url(#clip802)" cx="436.881" cy="1058.42" r="7.2" fill="#009af9" fill-rule="evenodd" fill-opacity="1" stroke="#000000" stroke-opacity="1" stroke-width="3.2"/>
<circle clip-path="url(#clip802)" cx="323.395" cy="1001.93" r="7.2" fill="#009af9" fill-rule="evenodd" fill-opacity="1" stroke="#000000" stroke-opacity="1" stroke-width="3.2"/>
<circle clip-path="url(#clip802)" cx="325.895" cy="891.942" r="7.2" fill="#009af9" fill-rule="evenodd" fill-opacity="1" stroke="#000000" stroke-opacity="1" stroke-width="3.2"/>
<circle clip-path="url(#clip802)" cx="342.892" cy="800.454" r="7.2" fill="#009af9" fill-rule="evenodd" fill-opacity="1" stroke="#000000" stroke-opacity="1" stroke-width="3.2"/>
<circle clip-path="url(#clip802)" cx="396.886" cy="775.957" r="7.2" fill="#009af9" fill-rule="evenodd" fill-opacity="1" stroke="#000000" stroke-opacity="1" stroke-width="3.2"/>
<circle clip-path="url(#clip802)" cx="412.384" cy="726.963" r="7.2" fill="#009af9" fill-rule="evenodd" fill-opacity="1" stroke="#000000" stroke-opacity="1" stroke-width="3.2"/>
<circle clip-path="url(#clip802)" cx="359.39" cy="696.467" r="7.2" fill="#009af9" fill-rule="evenodd" fill-opacity="1" stroke="#000000" stroke-opacity="1" stroke-width="3.2"/>
<circle clip-path="url(#clip802)" cx="327.394" cy="735.462" r="7.2" fill="#009af9" fill-rule="evenodd" fill-opacity="1" stroke="#000000" stroke-opacity="1" stroke-width="3.2"/>
<circle clip-path="url(#clip802)" cx="377.888" cy="797.954" r="7.2" fill="#009af9" fill-rule="evenodd" fill-opacity="1" stroke="#000000" stroke-opacity="1" stroke-width="3.2"/>
<circle clip-path="url(#clip802)" cx="425.882" cy="779.956" r="7.2" fill="#009af9" fill-rule="evenodd" fill-opacity="1" stroke="#000000" stroke-opacity="1" stroke-width="3.2"/>
<circle clip-path="url(#clip802)" cx="504.372" cy="816.452" r="7.2" fill="#009af9" fill-rule="evenodd" fill-opacity="1" stroke="#000000" stroke-opacity="1" stroke-width="3.2"/>
<circle clip-path="url(#clip802)" cx="514.371" cy="814.952" r="7.2" fill="#009af9" fill-rule="evenodd" fill-opacity="1" stroke="#000000" stroke-opacity="1" stroke-width="3.2"/>
<circle clip-path="url(#clip802)" cx="505.372" cy="704.966" r="7.2" fill="#009af9" fill-rule="evenodd" fill-opacity="1" stroke="#000000" stroke-opacity="1" stroke-width="3.2"/>
<circle clip-path="url(#clip802)" cx="433.381" cy="669.97" r="7.2" fill="#009af9" fill-rule="evenodd" fill-opacity="1" stroke="#000000" stroke-opacity="1" stroke-width="3.2"/>
<circle clip-path="url(#clip802)" cx="442.38" cy="608.978" r="7.2" fill="#009af9" fill-rule="evenodd" fill-opacity="1" stroke="#000000" stroke-opacity="1" stroke-width="3.2"/>
<circle clip-path="url(#clip802)" cx="327.394" cy="420.501" r="7.2" fill="#009af9" fill-rule="evenodd" fill-opacity="1" stroke="#000000" stroke-opacity="1" stroke-width="3.2"/>
<circle clip-path="url(#clip802)" cx="415.383" cy="324.013" r="7.2" fill="#009af9" fill-rule="evenodd" fill-opacity="1" stroke="#000000" stroke-opacity="1" stroke-width="3.2"/>
<circle clip-path="url(#clip802)" cx="477.876" cy="372.007" r="7.2" fill="#009af9" fill-rule="evenodd" fill-opacity="1" stroke="#000000" stroke-opacity="1" stroke-width="3.2"/>
<circle clip-path="url(#clip802)" cx="465.377" cy="472.495" r="7.2" fill="#009af9" fill-rule="evenodd" fill-opacity="1" stroke="#000000" stroke-opacity="1" stroke-width="3.2"/>
<circle clip-path="url(#clip802)" cx="453.379" cy="518.989" r="7.2" fill="#009af9" fill-rule="evenodd" fill-opacity="1" stroke="#000000" stroke-opacity="1" stroke-width="3.2"/>
<circle clip-path="url(#clip802)" cx="557.366" cy="560.484" r="7.2" fill="#009af9" fill-rule="evenodd" fill-opacity="1" stroke="#000000" stroke-opacity="1" stroke-width="3.2"/>
<circle clip-path="url(#clip802)" cx="621.858" cy="536.987" r="7.2" fill="#009af9" fill-rule="evenodd" fill-opacity="1" stroke="#000000" stroke-opacity="1" stroke-width="3.2"/>
<circle clip-path="url(#clip802)" cx="662.852" cy="537.487" r="7.2" fill="#009af9" fill-rule="evenodd" fill-opacity="1" stroke="#000000" stroke-opacity="1" stroke-width="3.2"/>
<circle clip-path="url(#clip802)" cx="685.35" cy="566.483" r="7.2" fill="#009af9" fill-rule="evenodd" fill-opacity="1" stroke="#000000" stroke-opacity="1" stroke-width="3.2"/>
<circle clip-path="url(#clip802)" cx="684.85" cy="586.481" r="7.2" fill="#009af9" fill-rule="evenodd" fill-opacity="1" stroke="#000000" stroke-opacity="1" stroke-width="3.2"/>
<circle clip-path="url(#clip802)" cx="729.344" cy="615.977" r="7.2" fill="#009af9" fill-rule="evenodd" fill-opacity="1" stroke="#000000" stroke-opacity="1" stroke-width="3.2"/>
<circle clip-path="url(#clip802)" cx="785.337" cy="751.46" r="7.2" fill="#009af9" fill-rule="evenodd" fill-opacity="1" stroke="#000000" stroke-opacity="1" stroke-width="3.2"/>
<circle clip-path="url(#clip802)" cx="808.334" cy="746.461" r="7.2" fill="#009af9" fill-rule="evenodd" fill-opacity="1" stroke="#000000" stroke-opacity="1" stroke-width="3.2"/>
<circle clip-path="url(#clip802)" cx="829.832" cy="708.465" r="7.2" fill="#009af9" fill-rule="evenodd" fill-opacity="1" stroke="#000000" stroke-opacity="1" stroke-width="3.2"/>
<circle clip-path="url(#clip802)" cx="873.826" cy="702.966" r="7.2" fill="#009af9" fill-rule="evenodd" fill-opacity="1" stroke="#000000" stroke-opacity="1" stroke-width="3.2"/>
<circle clip-path="url(#clip802)" cx="907.822" cy="533.487" r="7.2" fill="#009af9" fill-rule="evenodd" fill-opacity="1" stroke="#000000" stroke-opacity="1" stroke-width="3.2"/>
<circle clip-path="url(#clip802)" cx="780.338" cy="379.007" r="7.2" fill="#009af9" fill-rule="evenodd" fill-opacity="1" stroke="#000000" stroke-opacity="1" stroke-width="3.2"/>
<circle clip-path="url(#clip802)" cx="780.838" cy="346.011" r="7.2" fill="#009af9" fill-rule="evenodd" fill-opacity="1" stroke="#000000" stroke-opacity="1" stroke-width="3.2"/>
<circle clip-path="url(#clip802)" cx="761.34" cy="306.016" r="7.2" fill="#009af9" fill-rule="evenodd" fill-opacity="1" stroke="#000000" stroke-opacity="1" stroke-width="3.2"/>
<circle clip-path="url(#clip802)" cx="668.852" cy="323.014" r="7.2" fill="#009af9" fill-rule="evenodd" fill-opacity="1" stroke="#000000" stroke-opacity="1" stroke-width="3.2"/>
<circle clip-path="url(#clip802)" cx="593.361" cy="316.514" r="7.2" fill="#009af9" fill-rule="evenodd" fill-opacity="1" stroke="#000000" stroke-opacity="1" stroke-width="3.2"/>
<circle clip-path="url(#clip802)" cx="547.867" cy="394.005" r="7.2" fill="#009af9" fill-rule="evenodd" fill-opacity="1" stroke="#000000" stroke-opacity="1" stroke-width="3.2"/>
<circle clip-path="url(#clip802)" cx="544.867" cy="425.501" r="7.2" fill="#009af9" fill-rule="evenodd" fill-opacity="1" stroke="#000000" stroke-opacity="1" stroke-width="3.2"/>
<circle clip-path="url(#clip802)" cx="408.884" cy="457.997" r="7.2" fill="#009af9" fill-rule="evenodd" fill-opacity="1" stroke="#000000" stroke-opacity="1" stroke-width="3.2"/>
<circle clip-path="url(#clip802)" cx="385.387" cy="424.001" r="7.2" fill="#009af9" fill-rule="evenodd" fill-opacity="1" stroke="#000000" stroke-opacity="1" stroke-width="3.2"/>
<circle clip-path="url(#clip802)" cx="337.893" cy="250.523" r="7.2" fill="#009af9" fill-rule="evenodd" fill-opacity="1" stroke="#000000" stroke-opacity="1" stroke-width="3.2"/>
</svg>
