<?xml version="1.0" encoding="utf-8"?>
<svg xmlns="http://www.w3.org/2000/svg" xmlns:xlink="http://www.w3.org/1999/xlink" width="600" height="400" viewBox="0 0 2400 1600">
<defs>
  <clipPath id="clip770">
    <rect x="0" y="0" width="2400" height="1600"/>
  </clipPath>
</defs>
<path clip-path="url(#clip770)" d="
M0 1600 L2400 1600 L2400 0 L0 0  Z
  " fill="#ffffff" fill-rule="evenodd" fill-opacity="1"/>
<defs>
  <clipPath id="clip771">
    <rect x="480" y="0" width="1681" height="1600"/>
  </clipPath>
</defs>
<path clip-path="url(#clip770)" d="
M264.287 1423.18 L2352.76 1423.18 L2352.76 47.2441 L264.287 47.2441  Z
  " fill="#ffffff" fill-rule="evenodd" fill-opacity="1"/>
<defs>
  <clipPath id="clip772">
    <rect x="264" y="47" width="2089" height="1377"/>
  </clipPath>
</defs>
<polyline clip-path="url(#clip772)" style="stroke:#000000; stroke-linecap:round; stroke-linejoin:round; stroke-width:2; stroke-opacity:0.1; fill:none" points="
  313.884,1423.18 313.884,47.2441 
  "/>
<polyline clip-path="url(#clip772)" style="stroke:#000000; stroke-linecap:round; stroke-linejoin:round; stroke-width:2; stroke-opacity:0.1; fill:none" points="
  814.457,1423.18 814.457,47.2441 
  "/>
<polyline clip-path="url(#clip772)" style="stroke:#000000; stroke-linecap:round; stroke-linejoin:round; stroke-width:2; stroke-opacity:0.1; fill:none" points="
  1315.03,1423.18 1315.03,47.2441 
  "/>
<polyline clip-path="url(#clip772)" style="stroke:#000000; stroke-linecap:round; stroke-linejoin:round; stroke-width:2; stroke-opacity:0.1; fill:none" points="
  1815.6,1423.18 1815.6,47.2441 
  "/>
<polyline clip-path="url(#clip772)" style="stroke:#000000; stroke-linecap:round; stroke-linejoin:round; stroke-width:2; stroke-opacity:0.1; fill:none" points="
  2316.17,1423.18 2316.17,47.2441 
  "/>
<polyline clip-path="url(#clip770)" style="stroke:#000000; stroke-linecap:round; stroke-linejoin:round; stroke-width:4; stroke-opacity:1; fill:none" points="
  264.287,1423.18 2352.76,1423.18 
  "/>
<polyline clip-path="url(#clip770)" style="stroke:#000000; stroke-linecap:round; stroke-linejoin:round; stroke-width:4; stroke-opacity:1; fill:none" points="
  313.884,1423.18 313.884,1404.28 
  "/>
<polyline clip-path="url(#clip770)" style="stroke:#000000; stroke-linecap:round; stroke-linejoin:round; stroke-width:4; stroke-opacity:1; fill:none" points="
  814.457,1423.18 814.457,1404.28 
  "/>
<polyline clip-path="url(#clip770)" style="stroke:#000000; stroke-linecap:round; stroke-linejoin:round; stroke-width:4; stroke-opacity:1; fill:none" points="
  1315.03,1423.18 1315.03,1404.28 
  "/>
<polyline clip-path="url(#clip770)" style="stroke:#000000; stroke-linecap:round; stroke-linejoin:round; stroke-width:4; stroke-opacity:1; fill:none" points="
  1815.6,1423.18 1815.6,1404.28 
  "/>
<polyline clip-path="url(#clip770)" style="stroke:#000000; stroke-linecap:round; stroke-linejoin:round; stroke-width:4; stroke-opacity:1; fill:none" points="
  2316.17,1423.18 2316.17,1404.28 
  "/>
<path clip-path="url(#clip770)" d="M313.884 1454.1 Q310.273 1454.1 308.444 1457.66 Q306.639 1461.2 306.639 1468.33 Q306.639 1475.44 308.444 1479.01 Q310.273 1482.55 313.884 1482.55 Q317.518 1482.55 319.324 1479.01 Q321.153 1475.44 321.153 1468.33 Q321.153 1461.2 319.324 1457.66 Q317.518 1454.1 313.884 1454.1 M313.884 1450.39 Q319.694 1450.39 322.75 1455 Q325.828 1459.58 325.828 1468.33 Q325.828 1477.06 322.75 1481.67 Q319.694 1486.25 313.884 1486.25 Q308.074 1486.25 304.995 1481.67 Q301.94 1477.06 301.94 1468.33 Q301.94 1459.58 304.995 1455 Q308.074 1450.39 313.884 1450.39 Z" fill="#000000" fill-rule="evenodd" fill-opacity="1" /><path clip-path="url(#clip770)" d="M758.982 1481.64 L766.621 1481.64 L766.621 1455.28 L758.311 1456.95 L758.311 1452.69 L766.575 1451.02 L771.251 1451.02 L771.251 1481.64 L778.89 1481.64 L778.89 1485.58 L758.982 1485.58 L758.982 1481.64 Z" fill="#000000" fill-rule="evenodd" fill-opacity="1" /><path clip-path="url(#clip770)" d="M798.334 1454.1 Q794.723 1454.1 792.894 1457.66 Q791.089 1461.2 791.089 1468.33 Q791.089 1475.44 792.894 1479.01 Q794.723 1482.55 798.334 1482.55 Q801.968 1482.55 803.774 1479.01 Q805.602 1475.44 805.602 1468.33 Q805.602 1461.2 803.774 1457.66 Q801.968 1454.1 798.334 1454.1 M798.334 1450.39 Q804.144 1450.39 807.2 1455 Q810.278 1459.58 810.278 1468.33 Q810.278 1477.06 807.2 1481.67 Q804.144 1486.25 798.334 1486.25 Q792.524 1486.25 789.445 1481.67 Q786.39 1477.06 786.39 1468.33 Q786.39 1459.58 789.445 1455 Q792.524 1450.39 798.334 1450.39 Z" fill="#000000" fill-rule="evenodd" fill-opacity="1" /><path clip-path="url(#clip770)" d="M828.496 1454.1 Q824.885 1454.1 823.056 1457.66 Q821.25 1461.2 821.25 1468.33 Q821.25 1475.44 823.056 1479.01 Q824.885 1482.55 828.496 1482.55 Q832.13 1482.55 833.936 1479.01 Q835.764 1475.44 835.764 1468.33 Q835.764 1461.2 833.936 1457.66 Q832.13 1454.1 828.496 1454.1 M828.496 1450.39 Q834.306 1450.39 837.362 1455 Q840.44 1459.58 840.44 1468.33 Q840.44 1477.06 837.362 1481.67 Q834.306 1486.25 828.496 1486.25 Q822.686 1486.25 819.607 1481.67 Q816.551 1477.06 816.551 1468.33 Q816.551 1459.58 819.607 1455 Q822.686 1450.39 828.496 1450.39 Z" fill="#000000" fill-rule="evenodd" fill-opacity="1" /><path clip-path="url(#clip770)" d="M858.658 1454.1 Q855.047 1454.1 853.218 1457.66 Q851.412 1461.2 851.412 1468.33 Q851.412 1475.44 853.218 1479.01 Q855.047 1482.55 858.658 1482.55 Q862.292 1482.55 864.097 1479.01 Q865.926 1475.44 865.926 1468.33 Q865.926 1461.2 864.097 1457.66 Q862.292 1454.1 858.658 1454.1 M858.658 1450.39 Q864.468 1450.39 867.523 1455 Q870.602 1459.58 870.602 1468.33 Q870.602 1477.06 867.523 1481.67 Q864.468 1486.25 858.658 1486.25 Q852.848 1486.25 849.769 1481.67 Q846.713 1477.06 846.713 1468.33 Q846.713 1459.58 849.769 1455 Q852.848 1450.39 858.658 1450.39 Z" fill="#000000" fill-rule="evenodd" fill-opacity="1" /><path clip-path="url(#clip770)" d="M1263.64 1481.64 L1279.96 1481.64 L1279.96 1485.58 L1258.02 1485.58 L1258.02 1481.64 Q1260.68 1478.89 1265.26 1474.26 Q1269.87 1469.61 1271.05 1468.27 Q1273.29 1465.74 1274.17 1464.01 Q1275.08 1462.25 1275.08 1460.56 Q1275.08 1457.8 1273.13 1456.07 Q1271.21 1454.33 1268.11 1454.33 Q1265.91 1454.33 1263.46 1455.09 Q1261.02 1455.86 1258.25 1457.41 L1258.25 1452.69 Q1261.07 1451.55 1263.52 1450.97 Q1265.98 1450.39 1268.02 1450.39 Q1273.39 1450.39 1276.58 1453.08 Q1279.77 1455.77 1279.77 1460.26 Q1279.77 1462.39 1278.96 1464.31 Q1278.18 1466.2 1276.07 1468.8 Q1275.49 1469.47 1272.39 1472.69 Q1269.29 1475.88 1263.64 1481.64 Z" fill="#000000" fill-rule="evenodd" fill-opacity="1" /><path clip-path="url(#clip770)" d="M1299.77 1454.1 Q1296.16 1454.1 1294.33 1457.66 Q1292.53 1461.2 1292.53 1468.33 Q1292.53 1475.44 1294.33 1479.01 Q1296.16 1482.55 1299.77 1482.55 Q1303.41 1482.55 1305.21 1479.01 Q1307.04 1475.44 1307.04 1468.33 Q1307.04 1461.2 1305.21 1457.66 Q1303.41 1454.1 1299.77 1454.1 M1299.77 1450.39 Q1305.58 1450.39 1308.64 1455 Q1311.72 1459.58 1311.72 1468.33 Q1311.72 1477.06 1308.64 1481.67 Q1305.58 1486.25 1299.77 1486.25 Q1293.96 1486.25 1290.89 1481.67 Q1287.83 1477.06 1287.83 1468.33 Q1287.83 1459.58 1290.89 1455 Q1293.96 1450.39 1299.77 1450.39 Z" fill="#000000" fill-rule="evenodd" fill-opacity="1" /><path clip-path="url(#clip770)" d="M1329.94 1454.1 Q1326.33 1454.1 1324.5 1457.66 Q1322.69 1461.2 1322.69 1468.33 Q1322.69 1475.44 1324.5 1479.01 Q1326.33 1482.55 1329.94 1482.55 Q1333.57 1482.55 1335.38 1479.01 Q1337.2 1475.44 1337.2 1468.33 Q1337.2 1461.2 1335.38 1457.66 Q1333.57 1454.1 1329.94 1454.1 M1329.94 1450.39 Q1335.75 1450.39 1338.8 1455 Q1341.88 1459.58 1341.88 1468.33 Q1341.88 1477.06 1338.8 1481.67 Q1335.75 1486.25 1329.94 1486.25 Q1324.13 1486.25 1321.05 1481.67 Q1317.99 1477.06 1317.99 1468.33 Q1317.99 1459.58 1321.05 1455 Q1324.13 1450.39 1329.94 1450.39 Z" fill="#000000" fill-rule="evenodd" fill-opacity="1" /><path clip-path="url(#clip770)" d="M1360.1 1454.1 Q1356.49 1454.1 1354.66 1457.66 Q1352.85 1461.2 1352.85 1468.33 Q1352.85 1475.44 1354.66 1479.01 Q1356.49 1482.55 1360.1 1482.55 Q1363.73 1482.55 1365.54 1479.01 Q1367.37 1475.44 1367.37 1468.33 Q1367.37 1461.2 1365.54 1457.66 Q1363.73 1454.1 1360.1 1454.1 M1360.1 1450.39 Q1365.91 1450.39 1368.96 1455 Q1372.04 1459.58 1372.04 1468.33 Q1372.04 1477.06 1368.96 1481.67 Q1365.91 1486.25 1360.1 1486.25 Q1354.29 1486.25 1351.21 1481.67 Q1348.15 1477.06 1348.15 1468.33 Q1348.15 1459.58 1351.21 1455 Q1354.29 1450.39 1360.1 1450.39 Z" fill="#000000" fill-rule="evenodd" fill-opacity="1" /><path clip-path="url(#clip770)" d="M1774.28 1466.95 Q1777.64 1467.66 1779.51 1469.93 Q1781.41 1472.2 1781.41 1475.53 Q1781.41 1480.65 1777.89 1483.45 Q1774.37 1486.25 1767.89 1486.25 Q1765.72 1486.25 1763.4 1485.81 Q1761.11 1485.39 1758.66 1484.54 L1758.66 1480.02 Q1760.6 1481.16 1762.92 1481.74 Q1765.23 1482.32 1767.75 1482.32 Q1772.15 1482.32 1774.44 1480.58 Q1776.76 1478.84 1776.76 1475.53 Q1776.76 1472.48 1774.61 1470.77 Q1772.48 1469.03 1768.66 1469.03 L1764.63 1469.03 L1764.63 1465.19 L1768.84 1465.19 Q1772.29 1465.19 1774.12 1463.82 Q1775.95 1462.43 1775.95 1459.84 Q1775.95 1457.18 1774.05 1455.77 Q1772.18 1454.33 1768.66 1454.33 Q1766.74 1454.33 1764.54 1454.75 Q1762.34 1455.16 1759.7 1456.04 L1759.7 1451.88 Q1762.36 1451.14 1764.68 1450.77 Q1767.01 1450.39 1769.07 1450.39 Q1774.4 1450.39 1777.5 1452.83 Q1780.6 1455.23 1780.6 1459.35 Q1780.6 1462.22 1778.96 1464.21 Q1777.31 1466.18 1774.28 1466.95 Z" fill="#000000" fill-rule="evenodd" fill-opacity="1" /><path clip-path="url(#clip770)" d="M1800.28 1454.1 Q1796.67 1454.1 1794.84 1457.66 Q1793.03 1461.2 1793.03 1468.33 Q1793.03 1475.44 1794.84 1479.01 Q1796.67 1482.55 1800.28 1482.55 Q1803.91 1482.55 1805.72 1479.01 Q1807.55 1475.44 1807.55 1468.33 Q1807.55 1461.2 1805.72 1457.66 Q1803.91 1454.1 1800.28 1454.1 M1800.28 1450.39 Q1806.09 1450.39 1809.14 1455 Q1812.22 1459.58 1812.22 1468.33 Q1812.22 1477.06 1809.14 1481.67 Q1806.09 1486.25 1800.28 1486.25 Q1794.47 1486.25 1791.39 1481.67 Q1788.33 1477.06 1788.33 1468.33 Q1788.33 1459.58 1791.39 1455 Q1794.47 1450.39 1800.28 1450.39 Z" fill="#000000" fill-rule="evenodd" fill-opacity="1" /><path clip-path="url(#clip770)" d="M1830.44 1454.1 Q1826.83 1454.1 1825 1457.66 Q1823.19 1461.2 1823.19 1468.33 Q1823.19 1475.44 1825 1479.01 Q1826.83 1482.55 1830.44 1482.55 Q1834.07 1482.55 1835.88 1479.01 Q1837.71 1475.44 1837.71 1468.33 Q1837.71 1461.2 1835.88 1457.66 Q1834.07 1454.1 1830.44 1454.1 M1830.44 1450.39 Q1836.25 1450.39 1839.31 1455 Q1842.38 1459.58 1842.38 1468.33 Q1842.38 1477.06 1839.31 1481.67 Q1836.25 1486.25 1830.44 1486.25 Q1824.63 1486.25 1821.55 1481.67 Q1818.5 1477.06 1818.5 1468.33 Q1818.5 1459.58 1821.55 1455 Q1824.63 1450.39 1830.44 1450.39 Z" fill="#000000" fill-rule="evenodd" fill-opacity="1" /><path clip-path="url(#clip770)" d="M1860.6 1454.1 Q1856.99 1454.1 1855.16 1457.66 Q1853.36 1461.2 1853.36 1468.33 Q1853.36 1475.44 1855.16 1479.01 Q1856.99 1482.55 1860.6 1482.55 Q1864.24 1482.55 1866.04 1479.01 Q1867.87 1475.44 1867.87 1468.33 Q1867.87 1461.2 1866.04 1457.66 Q1864.24 1454.1 1860.6 1454.1 M1860.6 1450.39 Q1866.41 1450.39 1869.47 1455 Q1872.55 1459.58 1872.55 1468.33 Q1872.55 1477.06 1869.47 1481.67 Q1866.41 1486.25 1860.6 1486.25 Q1854.79 1486.25 1851.71 1481.67 Q1848.66 1477.06 1848.66 1468.33 Q1848.66 1459.58 1851.71 1455 Q1854.79 1450.39 1860.6 1450.39 Z" fill="#000000" fill-rule="evenodd" fill-opacity="1" /><path clip-path="url(#clip770)" d="M2274.18 1455.09 L2262.38 1473.54 L2274.18 1473.54 L2274.18 1455.09 M2272.96 1451.02 L2278.84 1451.02 L2278.84 1473.54 L2283.77 1473.54 L2283.77 1477.43 L2278.84 1477.43 L2278.84 1485.58 L2274.18 1485.58 L2274.18 1477.43 L2258.58 1477.43 L2258.58 1472.92 L2272.96 1451.02 Z" fill="#000000" fill-rule="evenodd" fill-opacity="1" /><path clip-path="url(#clip770)" d="M2301.5 1454.1 Q2297.89 1454.1 2296.06 1457.66 Q2294.25 1461.2 2294.25 1468.33 Q2294.25 1475.44 2296.06 1479.01 Q2297.89 1482.55 2301.5 1482.55 Q2305.13 1482.55 2306.94 1479.01 Q2308.77 1475.44 2308.77 1468.33 Q2308.77 1461.2 2306.94 1457.66 Q2305.13 1454.1 2301.5 1454.1 M2301.5 1450.39 Q2307.31 1450.39 2310.36 1455 Q2313.44 1459.58 2313.44 1468.33 Q2313.44 1477.06 2310.36 1481.67 Q2307.31 1486.25 2301.5 1486.25 Q2295.69 1486.25 2292.61 1481.67 Q2289.55 1477.06 2289.55 1468.33 Q2289.55 1459.58 2292.61 1455 Q2295.69 1450.39 2301.5 1450.39 Z" fill="#000000" fill-rule="evenodd" fill-opacity="1" /><path clip-path="url(#clip770)" d="M2331.66 1454.1 Q2328.05 1454.1 2326.22 1457.66 Q2324.41 1461.2 2324.41 1468.33 Q2324.41 1475.44 2326.22 1479.01 Q2328.05 1482.55 2331.66 1482.55 Q2335.29 1482.55 2337.1 1479.01 Q2338.93 1475.44 2338.93 1468.33 Q2338.93 1461.2 2337.1 1457.66 Q2335.29 1454.1 2331.66 1454.1 M2331.66 1450.39 Q2337.47 1450.39 2340.53 1455 Q2343.6 1459.58 2343.6 1468.33 Q2343.6 1477.06 2340.53 1481.67 Q2337.47 1486.25 2331.66 1486.25 Q2325.85 1486.25 2322.77 1481.67 Q2319.72 1477.06 2319.72 1468.33 Q2319.72 1459.58 2322.77 1455 Q2325.85 1450.39 2331.66 1450.39 Z" fill="#000000" fill-rule="evenodd" fill-opacity="1" /><path clip-path="url(#clip770)" d="M2361.82 1454.1 Q2358.21 1454.1 2356.38 1457.66 Q2354.58 1461.2 2354.58 1468.33 Q2354.58 1475.44 2356.38 1479.01 Q2358.21 1482.55 2361.82 1482.55 Q2365.46 1482.55 2367.26 1479.01 Q2369.09 1475.44 2369.09 1468.33 Q2369.09 1461.2 2367.26 1457.66 Q2365.46 1454.1 2361.82 1454.1 M2361.82 1450.39 Q2367.63 1450.39 2370.69 1455 Q2373.77 1459.58 2373.77 1468.33 Q2373.77 1477.06 2370.69 1481.67 Q2367.63 1486.25 2361.82 1486.25 Q2356.01 1486.25 2352.93 1481.67 Q2349.88 1477.06 2349.88 1468.33 Q2349.88 1459.58 2352.93 1455 Q2356.01 1450.39 2361.82 1450.39 Z" fill="#000000" fill-rule="evenodd" fill-opacity="1" /><path clip-path="url(#clip770)" d="M1325.14 1532.4 L1312.25 1549.74 L1325.8 1568.04 L1318.9 1568.04 L1308.52 1554.04 L1298.15 1568.04 L1291.24 1568.04 L1305.08 1549.39 L1292.42 1532.4 L1299.32 1532.4 L1308.78 1545.1 L1318.23 1532.4 L1325.14 1532.4 Z" fill="#000000" fill-rule="evenodd" fill-opacity="1" /><polyline clip-path="url(#clip772)" style="stroke:#000000; stroke-linecap:round; stroke-linejoin:round; stroke-width:2; stroke-opacity:0.1; fill:none" points="
  264.287,1234.03 2352.76,1234.03 
  "/>
<polyline clip-path="url(#clip772)" style="stroke:#000000; stroke-linecap:round; stroke-linejoin:round; stroke-width:2; stroke-opacity:0.1; fill:none" points="
  264.287,983.746 2352.76,983.746 
  "/>
<polyline clip-path="url(#clip772)" style="stroke:#000000; stroke-linecap:round; stroke-linejoin:round; stroke-width:2; stroke-opacity:0.1; fill:none" points="
  264.287,733.46 2352.76,733.46 
  "/>
<polyline clip-path="url(#clip772)" style="stroke:#000000; stroke-linecap:round; stroke-linejoin:round; stroke-width:2; stroke-opacity:0.1; fill:none" points="
  264.287,483.174 2352.76,483.174 
  "/>
<polyline clip-path="url(#clip772)" style="stroke:#000000; stroke-linecap:round; stroke-linejoin:round; stroke-width:2; stroke-opacity:0.1; fill:none" points="
  264.287,232.887 2352.76,232.887 
  "/>
<polyline clip-path="url(#clip770)" style="stroke:#000000; stroke-linecap:round; stroke-linejoin:round; stroke-width:4; stroke-opacity:1; fill:none" points="
  264.287,1423.18 264.287,47.2441 
  "/>
<polyline clip-path="url(#clip770)" style="stroke:#000000; stroke-linecap:round; stroke-linejoin:round; stroke-width:4; stroke-opacity:1; fill:none" points="
  264.287,1234.03 283.185,1234.03 
  "/>
<polyline clip-path="url(#clip770)" style="stroke:#000000; stroke-linecap:round; stroke-linejoin:round; stroke-width:4; stroke-opacity:1; fill:none" points="
  264.287,983.746 283.185,983.746 
  "/>
<polyline clip-path="url(#clip770)" style="stroke:#000000; stroke-linecap:round; stroke-linejoin:round; stroke-width:4; stroke-opacity:1; fill:none" points="
  264.287,733.46 283.185,733.46 
  "/>
<polyline clip-path="url(#clip770)" style="stroke:#000000; stroke-linecap:round; stroke-linejoin:round; stroke-width:4; stroke-opacity:1; fill:none" points="
  264.287,483.174 283.185,483.174 
  "/>
<polyline clip-path="url(#clip770)" style="stroke:#000000; stroke-linecap:round; stroke-linejoin:round; stroke-width:4; stroke-opacity:1; fill:none" points="
  264.287,232.887 283.185,232.887 
  "/>
<path clip-path="url(#clip770)" d="M216.343 1219.83 Q212.732 1219.83 210.903 1223.4 Q209.098 1226.94 209.098 1234.07 Q209.098 1241.17 210.903 1244.74 Q212.732 1248.28 216.343 1248.28 Q219.977 1248.28 221.783 1244.74 Q223.611 1241.17 223.611 1234.07 Q223.611 1226.94 221.783 1223.4 Q219.977 1219.83 216.343 1219.83 M216.343 1216.13 Q222.153 1216.13 225.209 1220.73 Q228.287 1225.32 228.287 1234.07 Q228.287 1242.79 225.209 1247.4 Q222.153 1251.98 216.343 1251.98 Q210.533 1251.98 207.454 1247.4 Q204.399 1242.79 204.399 1234.07 Q204.399 1225.32 207.454 1220.73 Q210.533 1216.13 216.343 1216.13 Z" fill="#000000" fill-rule="evenodd" fill-opacity="1" /><path clip-path="url(#clip770)" d="M146.066 966.466 L164.422 966.466 L164.422 970.401 L150.348 970.401 L150.348 978.874 Q151.366 978.526 152.385 978.364 Q153.403 978.179 154.422 978.179 Q160.209 978.179 163.589 981.35 Q166.968 984.522 166.968 989.938 Q166.968 995.517 163.496 998.619 Q160.024 1001.7 153.704 1001.7 Q151.528 1001.7 149.26 1001.33 Q147.015 1000.96 144.607 1000.22 L144.607 995.517 Q146.691 996.651 148.913 997.207 Q151.135 997.762 153.612 997.762 Q157.616 997.762 159.954 995.656 Q162.292 993.549 162.292 989.938 Q162.292 986.327 159.954 984.221 Q157.616 982.114 153.612 982.114 Q151.737 982.114 149.862 982.531 Q148.01 982.948 146.066 983.827 L146.066 966.466 Z" fill="#000000" fill-rule="evenodd" fill-opacity="1" /><path clip-path="url(#clip770)" d="M186.181 969.545 Q182.57 969.545 180.741 973.11 Q178.936 976.651 178.936 983.781 Q178.936 990.887 180.741 994.452 Q182.57 997.994 186.181 997.994 Q189.815 997.994 191.621 994.452 Q193.45 990.887 193.45 983.781 Q193.45 976.651 191.621 973.11 Q189.815 969.545 186.181 969.545 M186.181 965.841 Q191.991 965.841 195.047 970.448 Q198.125 975.031 198.125 983.781 Q198.125 992.508 195.047 997.114 Q191.991 1001.7 186.181 1001.7 Q180.371 1001.7 177.292 997.114 Q174.237 992.508 174.237 983.781 Q174.237 975.031 177.292 970.448 Q180.371 965.841 186.181 965.841 Z" fill="#000000" fill-rule="evenodd" fill-opacity="1" /><path clip-path="url(#clip770)" d="M216.343 969.545 Q212.732 969.545 210.903 973.11 Q209.098 976.651 209.098 983.781 Q209.098 990.887 210.903 994.452 Q212.732 997.994 216.343 997.994 Q219.977 997.994 221.783 994.452 Q223.611 990.887 223.611 983.781 Q223.611 976.651 221.783 973.11 Q219.977 969.545 216.343 969.545 M216.343 965.841 Q222.153 965.841 225.209 970.448 Q228.287 975.031 228.287 983.781 Q228.287 992.508 225.209 997.114 Q222.153 1001.7 216.343 1001.7 Q210.533 1001.7 207.454 997.114 Q204.399 992.508 204.399 983.781 Q204.399 975.031 207.454 970.448 Q210.533 965.841 216.343 965.841 Z" fill="#000000" fill-rule="evenodd" fill-opacity="1" /><path clip-path="url(#clip770)" d="M116.668 746.805 L124.306 746.805 L124.306 720.439 L115.996 722.106 L115.996 717.847 L124.26 716.18 L128.936 716.18 L128.936 746.805 L136.575 746.805 L136.575 750.74 L116.668 750.74 L116.668 746.805 Z" fill="#000000" fill-rule="evenodd" fill-opacity="1" /><path clip-path="url(#clip770)" d="M156.019 719.259 Q152.408 719.259 150.579 722.823 Q148.774 726.365 148.774 733.495 Q148.774 740.601 150.579 744.166 Q152.408 747.708 156.019 747.708 Q159.653 747.708 161.459 744.166 Q163.288 740.601 163.288 733.495 Q163.288 726.365 161.459 722.823 Q159.653 719.259 156.019 719.259 M156.019 715.555 Q161.829 715.555 164.885 720.161 Q167.964 724.745 167.964 733.495 Q167.964 742.221 164.885 746.828 Q161.829 751.411 156.019 751.411 Q150.209 751.411 147.13 746.828 Q144.075 742.221 144.075 733.495 Q144.075 724.745 147.13 720.161 Q150.209 715.555 156.019 715.555 Z" fill="#000000" fill-rule="evenodd" fill-opacity="1" /><path clip-path="url(#clip770)" d="M186.181 719.259 Q182.57 719.259 180.741 722.823 Q178.936 726.365 178.936 733.495 Q178.936 740.601 180.741 744.166 Q182.57 747.708 186.181 747.708 Q189.815 747.708 191.621 744.166 Q193.45 740.601 193.45 733.495 Q193.45 726.365 191.621 722.823 Q189.815 719.259 186.181 719.259 M186.181 715.555 Q191.991 715.555 195.047 720.161 Q198.125 724.745 198.125 733.495 Q198.125 742.221 195.047 746.828 Q191.991 751.411 186.181 751.411 Q180.371 751.411 177.292 746.828 Q174.237 742.221 174.237 733.495 Q174.237 724.745 177.292 720.161 Q180.371 715.555 186.181 715.555 Z" fill="#000000" fill-rule="evenodd" fill-opacity="1" /><path clip-path="url(#clip770)" d="M216.343 719.259 Q212.732 719.259 210.903 722.823 Q209.098 726.365 209.098 733.495 Q209.098 740.601 210.903 744.166 Q212.732 747.708 216.343 747.708 Q219.977 747.708 221.783 744.166 Q223.611 740.601 223.611 733.495 Q223.611 726.365 221.783 722.823 Q219.977 719.259 216.343 719.259 M216.343 715.555 Q222.153 715.555 225.209 720.161 Q228.287 724.745 228.287 733.495 Q228.287 742.221 225.209 746.828 Q222.153 751.411 216.343 751.411 Q210.533 751.411 207.454 746.828 Q204.399 742.221 204.399 733.495 Q204.399 724.745 207.454 720.161 Q210.533 715.555 216.343 715.555 Z" fill="#000000" fill-rule="evenodd" fill-opacity="1" /><path clip-path="url(#clip770)" d="M116.668 496.519 L124.306 496.519 L124.306 470.153 L115.996 471.82 L115.996 467.56 L124.26 465.894 L128.936 465.894 L128.936 496.519 L136.575 496.519 L136.575 500.454 L116.668 500.454 L116.668 496.519 Z" fill="#000000" fill-rule="evenodd" fill-opacity="1" /><path clip-path="url(#clip770)" d="M146.066 465.894 L164.422 465.894 L164.422 469.829 L150.348 469.829 L150.348 478.301 Q151.366 477.954 152.385 477.792 Q153.403 477.607 154.422 477.607 Q160.209 477.607 163.589 480.778 Q166.968 483.949 166.968 489.366 Q166.968 494.944 163.496 498.046 Q160.024 501.125 153.704 501.125 Q151.528 501.125 149.26 500.755 Q147.015 500.384 144.607 499.644 L144.607 494.944 Q146.691 496.079 148.913 496.634 Q151.135 497.19 153.612 497.19 Q157.616 497.19 159.954 495.083 Q162.292 492.977 162.292 489.366 Q162.292 485.755 159.954 483.648 Q157.616 481.542 153.612 481.542 Q151.737 481.542 149.862 481.958 Q148.01 482.375 146.066 483.255 L146.066 465.894 Z" fill="#000000" fill-rule="evenodd" fill-opacity="1" /><path clip-path="url(#clip770)" d="M186.181 468.972 Q182.57 468.972 180.741 472.537 Q178.936 476.079 178.936 483.208 Q178.936 490.315 180.741 493.88 Q182.57 497.421 186.181 497.421 Q189.815 497.421 191.621 493.88 Q193.45 490.315 193.45 483.208 Q193.45 476.079 191.621 472.537 Q189.815 468.972 186.181 468.972 M186.181 465.269 Q191.991 465.269 195.047 469.875 Q198.125 474.458 198.125 483.208 Q198.125 491.935 195.047 496.542 Q191.991 501.125 186.181 501.125 Q180.371 501.125 177.292 496.542 Q174.237 491.935 174.237 483.208 Q174.237 474.458 177.292 469.875 Q180.371 465.269 186.181 465.269 Z" fill="#000000" fill-rule="evenodd" fill-opacity="1" /><path clip-path="url(#clip770)" d="M216.343 468.972 Q212.732 468.972 210.903 472.537 Q209.098 476.079 209.098 483.208 Q209.098 490.315 210.903 493.88 Q212.732 497.421 216.343 497.421 Q219.977 497.421 221.783 493.88 Q223.611 490.315 223.611 483.208 Q223.611 476.079 221.783 472.537 Q219.977 468.972 216.343 468.972 M216.343 465.269 Q222.153 465.269 225.209 469.875 Q228.287 474.458 228.287 483.208 Q228.287 491.935 225.209 496.542 Q222.153 501.125 216.343 501.125 Q210.533 501.125 207.454 496.542 Q204.399 491.935 204.399 483.208 Q204.399 474.458 207.454 469.875 Q210.533 465.269 216.343 465.269 Z" fill="#000000" fill-rule="evenodd" fill-opacity="1" /><path clip-path="url(#clip770)" d="M119.885 246.232 L136.204 246.232 L136.204 250.167 L114.26 250.167 L114.26 246.232 Q116.922 243.478 121.505 238.848 Q126.112 234.195 127.292 232.853 Q129.538 230.33 130.417 228.594 Q131.32 226.834 131.32 225.144 Q131.32 222.39 129.376 220.654 Q127.455 218.918 124.353 218.918 Q122.154 218.918 119.7 219.682 Q117.269 220.445 114.492 221.996 L114.492 217.274 Q117.316 216.14 119.769 215.561 Q122.223 214.982 124.26 214.982 Q129.63 214.982 132.825 217.668 Q136.019 220.353 136.019 224.844 Q136.019 226.973 135.209 228.894 Q134.422 230.793 132.316 233.385 Q131.737 234.056 128.635 237.274 Q125.533 240.468 119.885 246.232 Z" fill="#000000" fill-rule="evenodd" fill-opacity="1" /><path clip-path="url(#clip770)" d="M156.019 218.686 Q152.408 218.686 150.579 222.251 Q148.774 225.793 148.774 232.922 Q148.774 240.029 150.579 243.593 Q152.408 247.135 156.019 247.135 Q159.653 247.135 161.459 243.593 Q163.288 240.029 163.288 232.922 Q163.288 225.793 161.459 222.251 Q159.653 218.686 156.019 218.686 M156.019 214.982 Q161.829 214.982 164.885 219.589 Q167.964 224.172 167.964 232.922 Q167.964 241.649 164.885 246.255 Q161.829 250.839 156.019 250.839 Q150.209 250.839 147.13 246.255 Q144.075 241.649 144.075 232.922 Q144.075 224.172 147.13 219.589 Q150.209 214.982 156.019 214.982 Z" fill="#000000" fill-rule="evenodd" fill-opacity="1" /><path clip-path="url(#clip770)" d="M186.181 218.686 Q182.57 218.686 180.741 222.251 Q178.936 225.793 178.936 232.922 Q178.936 240.029 180.741 243.593 Q182.57 247.135 186.181 247.135 Q189.815 247.135 191.621 243.593 Q193.45 240.029 193.45 232.922 Q193.45 225.793 191.621 222.251 Q189.815 218.686 186.181 218.686 M186.181 214.982 Q191.991 214.982 195.047 219.589 Q198.125 224.172 198.125 232.922 Q198.125 241.649 195.047 246.255 Q191.991 250.839 186.181 250.839 Q180.371 250.839 177.292 246.255 Q174.237 241.649 174.237 232.922 Q174.237 224.172 177.292 219.589 Q180.371 214.982 186.181 214.982 Z" fill="#000000" fill-rule="evenodd" fill-opacity="1" /><path clip-path="url(#clip770)" d="M216.343 218.686 Q212.732 218.686 210.903 222.251 Q209.098 225.793 209.098 232.922 Q209.098 240.029 210.903 243.593 Q212.732 247.135 216.343 247.135 Q219.977 247.135 221.783 243.593 Q223.611 240.029 223.611 232.922 Q223.611 225.793 221.783 222.251 Q219.977 218.686 216.343 218.686 M216.343 214.982 Q222.153 214.982 225.209 219.589 Q228.287 224.172 228.287 232.922 Q228.287 241.649 225.209 246.255 Q222.153 250.839 216.343 250.839 Q210.533 250.839 207.454 246.255 Q204.399 241.649 204.399 232.922 Q204.399 224.172 207.454 219.589 Q210.533 214.982 216.343 214.982 Z" fill="#000000" fill-rule="evenodd" fill-opacity="1" /><path clip-path="url(#clip770)" d="M67.3143 733.525 Q73.68 736.008 75.6216 738.363 Q77.5631 740.718 77.5631 744.665 L77.5631 749.344 L72.6615 749.344 L72.6615 745.906 Q72.6615 743.487 71.5157 742.151 Q70.3699 740.814 66.1048 739.191 L63.4312 738.14 L28.3562 752.559 L28.3562 746.352 L56.238 735.212 L28.3562 724.072 L28.3562 717.865 L67.3143 733.525 Z" fill="#000000" fill-rule="evenodd" fill-opacity="1" /><polyline clip-path="url(#clip772)" style="stroke:#009af9; stroke-linecap:round; stroke-linejoin:round; stroke-width:4; stroke-opacity:1; fill:none" points="
  2293.65,361.535 2271.62,396.575 2157.49,466.655 2070.89,397.576 2002.32,410.09 2007.82,484.175 2075.9,693.915 2194.03,792.528 2272.62,1137.92 2223.57,1149.44 
  2055.38,823.062 1872.17,791.026 1811.1,837.579 1747.02,954.713 1783.56,1065.34 1739.51,1185.98 1574.83,1166.46 1601.86,934.19 1614.87,783.017 1602.36,760.491 
  1525.77,729.956 1556.31,641.855 1608.36,590.296 1673.44,517.213 1788.07,422.104 1796.08,430.614 1858.15,469.158 2039.36,317.985 2291.15,454.141 2253.1,574.278 
  2243.09,772.004 2227.07,784.018 2260.11,900.651 2253.6,934.69 2262.61,1182.97 2135.97,1212.51 2023.84,1162.45 1826.61,996.761 1609.37,1082.86 1586.34,1115.9 
  976.141,1093.87 957.62,971.232 908.064,880.628 733.864,923.678 619.734,897.147 502.099,821.06 503.1,709.432 619.734,541.24 683.307,570.774 685.309,720.946 
  783.421,755.986 806.447,750.98 872.022,707.43 1004.67,763.995 1212.41,752.482 1273.48,890.139 1029.2,1166.96 942.603,1203.5 903.558,1183.98 790.93,1099.88 
  702.328,1037.81 542.646,1066.84 375.454,802.539 394.476,780.514 440.028,613.323 451.041,523.22 463.055,476.666 545.649,398.076 750.383,453.64 778.415,383.059 
  778.916,350.021 940.1,316.984 1026.7,369.043 1011.18,549.249 1208.41,728.955 1363.58,742.971 1404.13,423.606 1613.87,317.985 1679.45,384.06 1675.94,492.184 
  1629.39,493.686 1603.36,395.073 1654.42,320.488 1601.86,248.405 1460.2,327.996 1384.61,329.999 1218.42,377.553 1176.87,412.092 1127.31,407.587 1125.31,317.985 
  938.098,260.419 931.591,259.918 759.394,309.976 412.997,327.996 324.897,739.967 340.414,805.042 323.395,896.647 434.522,1063.34 477.571,1101.38 402.986,1222.02 
  
  "/>
<circle clip-path="url(#clip772)" cx="2293.65" cy="361.535" r="7.2" fill="#009af9" fill-rule="evenodd" fill-opacity="1" stroke="#000000" stroke-opacity="1" stroke-width="3.2"/>
<circle clip-path="url(#clip772)" cx="2271.62" cy="396.575" r="7.2" fill="#009af9" fill-rule="evenodd" fill-opacity="1" stroke="#000000" stroke-opacity="1" stroke-width="3.2"/>
<circle clip-path="url(#clip772)" cx="2157.49" cy="466.655" r="7.2" fill="#009af9" fill-rule="evenodd" fill-opacity="1" stroke="#000000" stroke-opacity="1" stroke-width="3.2"/>
<circle clip-path="url(#clip772)" cx="2070.89" cy="397.576" r="7.2" fill="#009af9" fill-rule="evenodd" fill-opacity="1" stroke="#000000" stroke-opacity="1" stroke-width="3.2"/>
<circle clip-path="url(#clip772)" cx="2002.32" cy="410.09" r="7.2" fill="#009af9" fill-rule="evenodd" fill-opacity="1" stroke="#000000" stroke-opacity="1" stroke-width="3.2"/>
<circle clip-path="url(#clip772)" cx="2007.82" cy="484.175" r="7.2" fill="#009af9" fill-rule="evenodd" fill-opacity="1" stroke="#000000" stroke-opacity="1" stroke-width="3.2"/>
<circle clip-path="url(#clip772)" cx="2075.9" cy="693.915" r="7.2" fill="#009af9" fill-rule="evenodd" fill-opacity="1" stroke="#000000" stroke-opacity="1" stroke-width="3.2"/>
<circle clip-path="url(#clip772)" cx="2194.03" cy="792.528" r="7.2" fill="#009af9" fill-rule="evenodd" fill-opacity="1" stroke="#000000" stroke-opacity="1" stroke-width="3.2"/>
<circle clip-path="url(#clip772)" cx="2272.62" cy="1137.92" r="7.2" fill="#009af9" fill-rule="evenodd" fill-opacity="1" stroke="#000000" stroke-opacity="1" stroke-width="3.2"/>
<circle clip-path="url(#clip772)" cx="2223.57" cy="1149.44" r="7.2" fill="#009af9" fill-rule="evenodd" fill-opacity="1" stroke="#000000" stroke-opacity="1" stroke-width="3.2"/>
<circle clip-path="url(#clip772)" cx="2055.38" cy="823.062" r="7.2" fill="#009af9" fill-rule="evenodd" fill-opacity="1" stroke="#000000" stroke-opacity="1" stroke-width="3.2"/>
<circle clip-path="url(#clip772)" cx="1872.17" cy="791.026" r="7.2" fill="#009af9" fill-rule="evenodd" fill-opacity="1" stroke="#000000" stroke-opacity="1" stroke-width="3.2"/>
<circle clip-path="url(#clip772)" cx="1811.1" cy="837.579" r="7.2" fill="#009af9" fill-rule="evenodd" fill-opacity="1" stroke="#000000" stroke-opacity="1" stroke-width="3.2"/>
<circle clip-path="url(#clip772)" cx="1747.02" cy="954.713" r="7.2" fill="#009af9" fill-rule="evenodd" fill-opacity="1" stroke="#000000" stroke-opacity="1" stroke-width="3.2"/>
<circle clip-path="url(#clip772)" cx="1783.56" cy="1065.34" r="7.2" fill="#009af9" fill-rule="evenodd" fill-opacity="1" stroke="#000000" stroke-opacity="1" stroke-width="3.2"/>
<circle clip-path="url(#clip772)" cx="1739.51" cy="1185.98" r="7.2" fill="#009af9" fill-rule="evenodd" fill-opacity="1" stroke="#000000" stroke-opacity="1" stroke-width="3.2"/>
<circle clip-path="url(#clip772)" cx="1574.83" cy="1166.46" r="7.2" fill="#009af9" fill-rule="evenodd" fill-opacity="1" stroke="#000000" stroke-opacity="1" stroke-width="3.2"/>
<circle clip-path="url(#clip772)" cx="1601.86" cy="934.19" r="7.2" fill="#009af9" fill-rule="evenodd" fill-opacity="1" stroke="#000000" stroke-opacity="1" stroke-width="3.2"/>
<circle clip-path="url(#clip772)" cx="1614.87" cy="783.017" r="7.2" fill="#009af9" fill-rule="evenodd" fill-opacity="1" stroke="#000000" stroke-opacity="1" stroke-width="3.2"/>
<circle clip-path="url(#clip772)" cx="1602.36" cy="760.491" r="7.2" fill="#009af9" fill-rule="evenodd" fill-opacity="1" stroke="#000000" stroke-opacity="1" stroke-width="3.2"/>
<circle clip-path="url(#clip772)" cx="1525.77" cy="729.956" r="7.2" fill="#009af9" fill-rule="evenodd" fill-opacity="1" stroke="#000000" stroke-opacity="1" stroke-width="3.2"/>
<circle clip-path="url(#clip772)" cx="1556.31" cy="641.855" r="7.2" fill="#009af9" fill-rule="evenodd" fill-opacity="1" stroke="#000000" stroke-opacity="1" stroke-width="3.2"/>
<circle clip-path="url(#clip772)" cx="1608.36" cy="590.296" r="7.2" fill="#009af9" fill-rule="evenodd" fill-opacity="1" stroke="#000000" stroke-opacity="1" stroke-width="3.2"/>
<circle clip-path="url(#clip772)" cx="1673.44" cy="517.213" r="7.2" fill="#009af9" fill-rule="evenodd" fill-opacity="1" stroke="#000000" stroke-opacity="1" stroke-width="3.2"/>
<circle clip-path="url(#clip772)" cx="1788.07" cy="422.104" r="7.2" fill="#009af9" fill-rule="evenodd" fill-opacity="1" stroke="#000000" stroke-opacity="1" stroke-width="3.2"/>
<circle clip-path="url(#clip772)" cx="1796.08" cy="430.614" r="7.2" fill="#009af9" fill-rule="evenodd" fill-opacity="1" stroke="#000000" stroke-opacity="1" stroke-width="3.2"/>
<circle clip-path="url(#clip772)" cx="1858.15" cy="469.158" r="7.2" fill="#009af9" fill-rule="evenodd" fill-opacity="1" stroke="#000000" stroke-opacity="1" stroke-width="3.2"/>
<circle clip-path="url(#clip772)" cx="2039.36" cy="317.985" r="7.2" fill="#009af9" fill-rule="evenodd" fill-opacity="1" stroke="#000000" stroke-opacity="1" stroke-width="3.2"/>
<circle clip-path="url(#clip772)" cx="2291.15" cy="454.141" r="7.2" fill="#009af9" fill-rule="evenodd" fill-opacity="1" stroke="#000000" stroke-opacity="1" stroke-width="3.2"/>
<circle clip-path="url(#clip772)" cx="2253.1" cy="574.278" r="7.2" fill="#009af9" fill-rule="evenodd" fill-opacity="1" stroke="#000000" stroke-opacity="1" stroke-width="3.2"/>
<circle clip-path="url(#clip772)" cx="2243.09" cy="772.004" r="7.2" fill="#009af9" fill-rule="evenodd" fill-opacity="1" stroke="#000000" stroke-opacity="1" stroke-width="3.2"/>
<circle clip-path="url(#clip772)" cx="2227.07" cy="784.018" r="7.2" fill="#009af9" fill-rule="evenodd" fill-opacity="1" stroke="#000000" stroke-opacity="1" stroke-width="3.2"/>
<circle clip-path="url(#clip772)" cx="2260.11" cy="900.651" r="7.2" fill="#009af9" fill-rule="evenodd" fill-opacity="1" stroke="#000000" stroke-opacity="1" stroke-width="3.2"/>
<circle clip-path="url(#clip772)" cx="2253.6" cy="934.69" r="7.2" fill="#009af9" fill-rule="evenodd" fill-opacity="1" stroke="#000000" stroke-opacity="1" stroke-width="3.2"/>
<circle clip-path="url(#clip772)" cx="2262.61" cy="1182.97" r="7.2" fill="#009af9" fill-rule="evenodd" fill-opacity="1" stroke="#000000" stroke-opacity="1" stroke-width="3.2"/>
<circle clip-path="url(#clip772)" cx="2135.97" cy="1212.51" r="7.2" fill="#009af9" fill-rule="evenodd" fill-opacity="1" stroke="#000000" stroke-opacity="1" stroke-width="3.2"/>
<circle clip-path="url(#clip772)" cx="2023.84" cy="1162.45" r="7.2" fill="#009af9" fill-rule="evenodd" fill-opacity="1" stroke="#000000" stroke-opacity="1" stroke-width="3.2"/>
<circle clip-path="url(#clip772)" cx="1826.61" cy="996.761" r="7.2" fill="#009af9" fill-rule="evenodd" fill-opacity="1" stroke="#000000" stroke-opacity="1" stroke-width="3.2"/>
<circle clip-path="url(#clip772)" cx="1609.37" cy="1082.86" r="7.2" fill="#009af9" fill-rule="evenodd" fill-opacity="1" stroke="#000000" stroke-opacity="1" stroke-width="3.2"/>
<circle clip-path="url(#clip772)" cx="1586.34" cy="1115.9" r="7.2" fill="#009af9" fill-rule="evenodd" fill-opacity="1" stroke="#000000" stroke-opacity="1" stroke-width="3.2"/>
<circle clip-path="url(#clip772)" cx="976.141" cy="1093.87" r="7.2" fill="#009af9" fill-rule="evenodd" fill-opacity="1" stroke="#000000" stroke-opacity="1" stroke-width="3.2"/>
<circle clip-path="url(#clip772)" cx="957.62" cy="971.232" r="7.2" fill="#009af9" fill-rule="evenodd" fill-opacity="1" stroke="#000000" stroke-opacity="1" stroke-width="3.2"/>
<circle clip-path="url(#clip772)" cx="908.064" cy="880.628" r="7.2" fill="#009af9" fill-rule="evenodd" fill-opacity="1" stroke="#000000" stroke-opacity="1" stroke-width="3.2"/>
<circle clip-path="url(#clip772)" cx="733.864" cy="923.678" r="7.2" fill="#009af9" fill-rule="evenodd" fill-opacity="1" stroke="#000000" stroke-opacity="1" stroke-width="3.2"/>
<circle clip-path="url(#clip772)" cx="619.734" cy="897.147" r="7.2" fill="#009af9" fill-rule="evenodd" fill-opacity="1" stroke="#000000" stroke-opacity="1" stroke-width="3.2"/>
<circle clip-path="url(#clip772)" cx="502.099" cy="821.06" r="7.2" fill="#009af9" fill-rule="evenodd" fill-opacity="1" stroke="#000000" stroke-opacity="1" stroke-width="3.2"/>
<circle clip-path="url(#clip772)" cx="503.1" cy="709.432" r="7.2" fill="#009af9" fill-rule="evenodd" fill-opacity="1" stroke="#000000" stroke-opacity="1" stroke-width="3.2"/>
<circle clip-path="url(#clip772)" cx="619.734" cy="541.24" r="7.2" fill="#009af9" fill-rule="evenodd" fill-opacity="1" stroke="#000000" stroke-opacity="1" stroke-width="3.2"/>
<circle clip-path="url(#clip772)" cx="683.307" cy="570.774" r="7.2" fill="#009af9" fill-rule="evenodd" fill-opacity="1" stroke="#000000" stroke-opacity="1" stroke-width="3.2"/>
<circle clip-path="url(#clip772)" cx="685.309" cy="720.946" r="7.2" fill="#009af9" fill-rule="evenodd" fill-opacity="1" stroke="#000000" stroke-opacity="1" stroke-width="3.2"/>
<circle clip-path="url(#clip772)" cx="783.421" cy="755.986" r="7.2" fill="#009af9" fill-rule="evenodd" fill-opacity="1" stroke="#000000" stroke-opacity="1" stroke-width="3.2"/>
<circle clip-path="url(#clip772)" cx="806.447" cy="750.98" r="7.2" fill="#009af9" fill-rule="evenodd" fill-opacity="1" stroke="#000000" stroke-opacity="1" stroke-width="3.2"/>
<circle clip-path="url(#clip772)" cx="872.022" cy="707.43" r="7.2" fill="#009af9" fill-rule="evenodd" fill-opacity="1" stroke="#000000" stroke-opacity="1" stroke-width="3.2"/>
<circle clip-path="url(#clip772)" cx="1004.67" cy="763.995" r="7.2" fill="#009af9" fill-rule="evenodd" fill-opacity="1" stroke="#000000" stroke-opacity="1" stroke-width="3.2"/>
<circle clip-path="url(#clip772)" cx="1212.41" cy="752.482" r="7.2" fill="#009af9" fill-rule="evenodd" fill-opacity="1" stroke="#000000" stroke-opacity="1" stroke-width="3.2"/>
<circle clip-path="url(#clip772)" cx="1273.48" cy="890.139" r="7.2" fill="#009af9" fill-rule="evenodd" fill-opacity="1" stroke="#000000" stroke-opacity="1" stroke-width="3.2"/>
<circle clip-path="url(#clip772)" cx="1029.2" cy="1166.96" r="7.2" fill="#009af9" fill-rule="evenodd" fill-opacity="1" stroke="#000000" stroke-opacity="1" stroke-width="3.2"/>
<circle clip-path="url(#clip772)" cx="942.603" cy="1203.5" r="7.2" fill="#009af9" fill-rule="evenodd" fill-opacity="1" stroke="#000000" stroke-opacity="1" stroke-width="3.2"/>
<circle clip-path="url(#clip772)" cx="903.558" cy="1183.98" r="7.2" fill="#009af9" fill-rule="evenodd" fill-opacity="1" stroke="#000000" stroke-opacity="1" stroke-width="3.2"/>
<circle clip-path="url(#clip772)" cx="790.93" cy="1099.88" r="7.2" fill="#009af9" fill-rule="evenodd" fill-opacity="1" stroke="#000000" stroke-opacity="1" stroke-width="3.2"/>
<circle clip-path="url(#clip772)" cx="702.328" cy="1037.81" r="7.2" fill="#009af9" fill-rule="evenodd" fill-opacity="1" stroke="#000000" stroke-opacity="1" stroke-width="3.2"/>
<circle clip-path="url(#clip772)" cx="542.646" cy="1066.84" r="7.2" fill="#009af9" fill-rule="evenodd" fill-opacity="1" stroke="#000000" stroke-opacity="1" stroke-width="3.2"/>
<circle clip-path="url(#clip772)" cx="375.454" cy="802.539" r="7.2" fill="#009af9" fill-rule="evenodd" fill-opacity="1" stroke="#000000" stroke-opacity="1" stroke-width="3.2"/>
<circle clip-path="url(#clip772)" cx="394.476" cy="780.514" r="7.2" fill="#009af9" fill-rule="evenodd" fill-opacity="1" stroke="#000000" stroke-opacity="1" stroke-width="3.2"/>
<circle clip-path="url(#clip772)" cx="440.028" cy="613.323" r="7.2" fill="#009af9" fill-rule="evenodd" fill-opacity="1" stroke="#000000" stroke-opacity="1" stroke-width="3.2"/>
<circle clip-path="url(#clip772)" cx="451.041" cy="523.22" r="7.2" fill="#009af9" fill-rule="evenodd" fill-opacity="1" stroke="#000000" stroke-opacity="1" stroke-width="3.2"/>
<circle clip-path="url(#clip772)" cx="463.055" cy="476.666" r="7.2" fill="#009af9" fill-rule="evenodd" fill-opacity="1" stroke="#000000" stroke-opacity="1" stroke-width="3.2"/>
<circle clip-path="url(#clip772)" cx="545.649" cy="398.076" r="7.2" fill="#009af9" fill-rule="evenodd" fill-opacity="1" stroke="#000000" stroke-opacity="1" stroke-width="3.2"/>
<circle clip-path="url(#clip772)" cx="750.383" cy="453.64" r="7.2" fill="#009af9" fill-rule="evenodd" fill-opacity="1" stroke="#000000" stroke-opacity="1" stroke-width="3.2"/>
<circle clip-path="url(#clip772)" cx="778.415" cy="383.059" r="7.2" fill="#009af9" fill-rule="evenodd" fill-opacity="1" stroke="#000000" stroke-opacity="1" stroke-width="3.2"/>
<circle clip-path="url(#clip772)" cx="778.916" cy="350.021" r="7.2" fill="#009af9" fill-rule="evenodd" fill-opacity="1" stroke="#000000" stroke-opacity="1" stroke-width="3.2"/>
<circle clip-path="url(#clip772)" cx="940.1" cy="316.984" r="7.2" fill="#009af9" fill-rule="evenodd" fill-opacity="1" stroke="#000000" stroke-opacity="1" stroke-width="3.2"/>
<circle clip-path="url(#clip772)" cx="1026.7" cy="369.043" r="7.2" fill="#009af9" fill-rule="evenodd" fill-opacity="1" stroke="#000000" stroke-opacity="1" stroke-width="3.2"/>
<circle clip-path="url(#clip772)" cx="1011.18" cy="549.249" r="7.2" fill="#009af9" fill-rule="evenodd" fill-opacity="1" stroke="#000000" stroke-opacity="1" stroke-width="3.2"/>
<circle clip-path="url(#clip772)" cx="1208.41" cy="728.955" r="7.2" fill="#009af9" fill-rule="evenodd" fill-opacity="1" stroke="#000000" stroke-opacity="1" stroke-width="3.2"/>
<circle clip-path="url(#clip772)" cx="1363.58" cy="742.971" r="7.2" fill="#009af9" fill-rule="evenodd" fill-opacity="1" stroke="#000000" stroke-opacity="1" stroke-width="3.2"/>
<circle clip-path="url(#clip772)" cx="1404.13" cy="423.606" r="7.2" fill="#009af9" fill-rule="evenodd" fill-opacity="1" stroke="#000000" stroke-opacity="1" stroke-width="3.2"/>
<circle clip-path="url(#clip772)" cx="1613.87" cy="317.985" r="7.2" fill="#009af9" fill-rule="evenodd" fill-opacity="1" stroke="#000000" stroke-opacity="1" stroke-width="3.2"/>
<circle clip-path="url(#clip772)" cx="1679.45" cy="384.06" r="7.2" fill="#009af9" fill-rule="evenodd" fill-opacity="1" stroke="#000000" stroke-opacity="1" stroke-width="3.2"/>
<circle clip-path="url(#clip772)" cx="1675.94" cy="492.184" r="7.2" fill="#009af9" fill-rule="evenodd" fill-opacity="1" stroke="#000000" stroke-opacity="1" stroke-width="3.2"/>
<circle clip-path="url(#clip772)" cx="1629.39" cy="493.686" r="7.2" fill="#009af9" fill-rule="evenodd" fill-opacity="1" stroke="#000000" stroke-opacity="1" stroke-width="3.2"/>
<circle clip-path="url(#clip772)" cx="1603.36" cy="395.073" r="7.2" fill="#009af9" fill-rule="evenodd" fill-opacity="1" stroke="#000000" stroke-opacity="1" stroke-width="3.2"/>
<circle clip-path="url(#clip772)" cx="1654.42" cy="320.488" r="7.2" fill="#009af9" fill-rule="evenodd" fill-opacity="1" stroke="#000000" stroke-opacity="1" stroke-width="3.2"/>
<circle clip-path="url(#clip772)" cx="1601.86" cy="248.405" r="7.2" fill="#009af9" fill-rule="evenodd" fill-opacity="1" stroke="#000000" stroke-opacity="1" stroke-width="3.2"/>
<circle clip-path="url(#clip772)" cx="1460.2" cy="327.996" r="7.2" fill="#009af9" fill-rule="evenodd" fill-opacity="1" stroke="#000000" stroke-opacity="1" stroke-width="3.2"/>
<circle clip-path="url(#clip772)" cx="1384.61" cy="329.999" r="7.2" fill="#009af9" fill-rule="evenodd" fill-opacity="1" stroke="#000000" stroke-opacity="1" stroke-width="3.2"/>
<circle clip-path="url(#clip772)" cx="1218.42" cy="377.553" r="7.2" fill="#009af9" fill-rule="evenodd" fill-opacity="1" stroke="#000000" stroke-opacity="1" stroke-width="3.2"/>
<circle clip-path="url(#clip772)" cx="1176.87" cy="412.092" r="7.2" fill="#009af9" fill-rule="evenodd" fill-opacity="1" stroke="#000000" stroke-opacity="1" stroke-width="3.2"/>
<circle clip-path="url(#clip772)" cx="1127.31" cy="407.587" r="7.2" fill="#009af9" fill-rule="evenodd" fill-opacity="1" stroke="#000000" stroke-opacity="1" stroke-width="3.2"/>
<circle clip-path="url(#clip772)" cx="1125.31" cy="317.985" r="7.2" fill="#009af9" fill-rule="evenodd" fill-opacity="1" stroke="#000000" stroke-opacity="1" stroke-width="3.2"/>
<circle clip-path="url(#clip772)" cx="938.098" cy="260.419" r="7.2" fill="#009af9" fill-rule="evenodd" fill-opacity="1" stroke="#000000" stroke-opacity="1" stroke-width="3.2"/>
<circle clip-path="url(#clip772)" cx="931.591" cy="259.918" r="7.2" fill="#009af9" fill-rule="evenodd" fill-opacity="1" stroke="#000000" stroke-opacity="1" stroke-width="3.2"/>
<circle clip-path="url(#clip772)" cx="759.394" cy="309.976" r="7.2" fill="#009af9" fill-rule="evenodd" fill-opacity="1" stroke="#000000" stroke-opacity="1" stroke-width="3.2"/>
<circle clip-path="url(#clip772)" cx="412.997" cy="327.996" r="7.2" fill="#009af9" fill-rule="evenodd" fill-opacity="1" stroke="#000000" stroke-opacity="1" stroke-width="3.2"/>
<circle clip-path="url(#clip772)" cx="324.897" cy="739.967" r="7.2" fill="#009af9" fill-rule="evenodd" fill-opacity="1" stroke="#000000" stroke-opacity="1" stroke-width="3.2"/>
<circle clip-path="url(#clip772)" cx="340.414" cy="805.042" r="7.2" fill="#009af9" fill-rule="evenodd" fill-opacity="1" stroke="#000000" stroke-opacity="1" stroke-width="3.2"/>
<circle clip-path="url(#clip772)" cx="323.395" cy="896.647" r="7.2" fill="#009af9" fill-rule="evenodd" fill-opacity="1" stroke="#000000" stroke-opacity="1" stroke-width="3.2"/>
<circle clip-path="url(#clip772)" cx="434.522" cy="1063.34" r="7.2" fill="#009af9" fill-rule="evenodd" fill-opacity="1" stroke="#000000" stroke-opacity="1" stroke-width="3.2"/>
<circle clip-path="url(#clip772)" cx="477.571" cy="1101.38" r="7.2" fill="#009af9" fill-rule="evenodd" fill-opacity="1" stroke="#000000" stroke-opacity="1" stroke-width="3.2"/>
<circle clip-path="url(#clip772)" cx="402.986" cy="1222.02" r="7.2" fill="#009af9" fill-rule="evenodd" fill-opacity="1" stroke="#000000" stroke-opacity="1" stroke-width="3.2"/>
</svg>
