<?xml version="1.0" encoding="utf-8"?>
<svg xmlns="http://www.w3.org/2000/svg" xmlns:xlink="http://www.w3.org/1999/xlink" width="600" height="400" viewBox="0 0 2400 1600">
<defs>
  <clipPath id="clip400">
    <rect x="0" y="0" width="2400" height="1600"/>
  </clipPath>
</defs>
<path clip-path="url(#clip400)" d="
M0 1600 L2400 1600 L2400 0 L0 0  Z
  " fill="#ffffff" fill-rule="evenodd" fill-opacity="1"/>
<defs>
  <clipPath id="clip401">
    <rect x="480" y="0" width="1681" height="1600"/>
  </clipPath>
</defs>
<path clip-path="url(#clip400)" d="
M264.287 1423.18 L2352.76 1423.18 L2352.76 47.2441 L264.287 47.2441  Z
  " fill="#ffffff" fill-rule="evenodd" fill-opacity="1"/>
<defs>
  <clipPath id="clip402">
    <rect x="264" y="47" width="2089" height="1377"/>
  </clipPath>
</defs>
<polyline clip-path="url(#clip402)" style="stroke:#000000; stroke-linecap:round; stroke-linejoin:round; stroke-width:2; stroke-opacity:0.1; fill:none" points="
  316.367,1423.18 316.367,47.2441 
  "/>
<polyline clip-path="url(#clip402)" style="stroke:#000000; stroke-linecap:round; stroke-linejoin:round; stroke-width:2; stroke-opacity:0.1; fill:none" points="
  818.343,1423.18 818.343,47.2441 
  "/>
<polyline clip-path="url(#clip402)" style="stroke:#000000; stroke-linecap:round; stroke-linejoin:round; stroke-width:2; stroke-opacity:0.1; fill:none" points="
  1320.32,1423.18 1320.32,47.2441 
  "/>
<polyline clip-path="url(#clip402)" style="stroke:#000000; stroke-linecap:round; stroke-linejoin:round; stroke-width:2; stroke-opacity:0.1; fill:none" points="
  1822.29,1423.18 1822.29,47.2441 
  "/>
<polyline clip-path="url(#clip402)" style="stroke:#000000; stroke-linecap:round; stroke-linejoin:round; stroke-width:2; stroke-opacity:0.1; fill:none" points="
  2324.27,1423.18 2324.27,47.2441 
  "/>
<polyline clip-path="url(#clip400)" style="stroke:#000000; stroke-linecap:round; stroke-linejoin:round; stroke-width:4; stroke-opacity:1; fill:none" points="
  264.287,1423.18 2352.76,1423.18 
  "/>
<polyline clip-path="url(#clip400)" style="stroke:#000000; stroke-linecap:round; stroke-linejoin:round; stroke-width:4; stroke-opacity:1; fill:none" points="
  316.367,1423.18 316.367,1404.28 
  "/>
<polyline clip-path="url(#clip400)" style="stroke:#000000; stroke-linecap:round; stroke-linejoin:round; stroke-width:4; stroke-opacity:1; fill:none" points="
  818.343,1423.18 818.343,1404.28 
  "/>
<polyline clip-path="url(#clip400)" style="stroke:#000000; stroke-linecap:round; stroke-linejoin:round; stroke-width:4; stroke-opacity:1; fill:none" points="
  1320.32,1423.18 1320.32,1404.28 
  "/>
<polyline clip-path="url(#clip400)" style="stroke:#000000; stroke-linecap:round; stroke-linejoin:round; stroke-width:4; stroke-opacity:1; fill:none" points="
  1822.29,1423.18 1822.29,1404.28 
  "/>
<polyline clip-path="url(#clip400)" style="stroke:#000000; stroke-linecap:round; stroke-linejoin:round; stroke-width:4; stroke-opacity:1; fill:none" points="
  2324.27,1423.18 2324.27,1404.28 
  "/>
<path clip-path="url(#clip400)" d="M316.367 1454.1 Q312.756 1454.1 310.927 1457.66 Q309.122 1461.2 309.122 1468.33 Q309.122 1475.44 310.927 1479.01 Q312.756 1482.55 316.367 1482.55 Q320.002 1482.55 321.807 1479.01 Q323.636 1475.44 323.636 1468.33 Q323.636 1461.2 321.807 1457.66 Q320.002 1454.1 316.367 1454.1 M316.367 1450.39 Q322.177 1450.39 325.233 1455 Q328.312 1459.58 328.312 1468.33 Q328.312 1477.06 325.233 1481.67 Q322.177 1486.25 316.367 1486.25 Q310.557 1486.25 307.478 1481.67 Q304.423 1477.06 304.423 1468.33 Q304.423 1459.58 307.478 1455 Q310.557 1450.39 316.367 1450.39 Z" fill="#000000" fill-rule="evenodd" fill-opacity="1" /><path clip-path="url(#clip400)" d="M762.868 1481.64 L770.507 1481.64 L770.507 1455.28 L762.197 1456.95 L762.197 1452.69 L770.461 1451.02 L775.137 1451.02 L775.137 1481.64 L782.776 1481.64 L782.776 1485.58 L762.868 1485.58 L762.868 1481.64 Z" fill="#000000" fill-rule="evenodd" fill-opacity="1" /><path clip-path="url(#clip400)" d="M802.22 1454.1 Q798.609 1454.1 796.78 1457.66 Q794.975 1461.2 794.975 1468.33 Q794.975 1475.44 796.78 1479.01 Q798.609 1482.55 802.22 1482.55 Q805.854 1482.55 807.66 1479.01 Q809.489 1475.44 809.489 1468.33 Q809.489 1461.2 807.66 1457.66 Q805.854 1454.1 802.22 1454.1 M802.22 1450.39 Q808.03 1450.39 811.086 1455 Q814.164 1459.58 814.164 1468.33 Q814.164 1477.06 811.086 1481.67 Q808.03 1486.25 802.22 1486.25 Q796.41 1486.25 793.331 1481.67 Q790.276 1477.06 790.276 1468.33 Q790.276 1459.58 793.331 1455 Q796.41 1450.39 802.22 1450.39 Z" fill="#000000" fill-rule="evenodd" fill-opacity="1" /><path clip-path="url(#clip400)" d="M832.382 1454.1 Q828.771 1454.1 826.942 1457.66 Q825.137 1461.2 825.137 1468.33 Q825.137 1475.44 826.942 1479.01 Q828.771 1482.55 832.382 1482.55 Q836.016 1482.55 837.822 1479.01 Q839.65 1475.44 839.65 1468.33 Q839.65 1461.2 837.822 1457.66 Q836.016 1454.1 832.382 1454.1 M832.382 1450.39 Q838.192 1450.39 841.248 1455 Q844.326 1459.58 844.326 1468.33 Q844.326 1477.06 841.248 1481.67 Q838.192 1486.25 832.382 1486.25 Q826.572 1486.25 823.493 1481.67 Q820.438 1477.06 820.438 1468.33 Q820.438 1459.58 823.493 1455 Q826.572 1450.39 832.382 1450.39 Z" fill="#000000" fill-rule="evenodd" fill-opacity="1" /><path clip-path="url(#clip400)" d="M862.544 1454.1 Q858.933 1454.1 857.104 1457.66 Q855.298 1461.2 855.298 1468.33 Q855.298 1475.44 857.104 1479.01 Q858.933 1482.55 862.544 1482.55 Q866.178 1482.55 867.984 1479.01 Q869.812 1475.44 869.812 1468.33 Q869.812 1461.2 867.984 1457.66 Q866.178 1454.1 862.544 1454.1 M862.544 1450.39 Q868.354 1450.39 871.409 1455 Q874.488 1459.58 874.488 1468.33 Q874.488 1477.06 871.409 1481.67 Q868.354 1486.25 862.544 1486.25 Q856.734 1486.25 853.655 1481.67 Q850.599 1477.06 850.599 1468.33 Q850.599 1459.58 853.655 1455 Q856.734 1450.39 862.544 1450.39 Z" fill="#000000" fill-rule="evenodd" fill-opacity="1" /><path clip-path="url(#clip400)" d="M1268.93 1481.64 L1285.25 1481.64 L1285.25 1485.58 L1263.3 1485.58 L1263.3 1481.64 Q1265.97 1478.89 1270.55 1474.26 Q1275.16 1469.61 1276.34 1468.27 Q1278.58 1465.74 1279.46 1464.01 Q1280.36 1462.25 1280.36 1460.56 Q1280.36 1457.8 1278.42 1456.07 Q1276.5 1454.33 1273.4 1454.33 Q1271.2 1454.33 1268.74 1455.09 Q1266.31 1455.86 1263.54 1457.41 L1263.54 1452.69 Q1266.36 1451.55 1268.81 1450.97 Q1271.27 1450.39 1273.3 1450.39 Q1278.67 1450.39 1281.87 1453.08 Q1285.06 1455.77 1285.06 1460.26 Q1285.06 1462.39 1284.25 1464.31 Q1283.47 1466.2 1281.36 1468.8 Q1280.78 1469.47 1277.68 1472.69 Q1274.58 1475.88 1268.93 1481.64 Z" fill="#000000" fill-rule="evenodd" fill-opacity="1" /><path clip-path="url(#clip400)" d="M1305.06 1454.1 Q1301.45 1454.1 1299.62 1457.66 Q1297.82 1461.2 1297.82 1468.33 Q1297.82 1475.44 1299.62 1479.01 Q1301.45 1482.55 1305.06 1482.55 Q1308.7 1482.55 1310.5 1479.01 Q1312.33 1475.44 1312.33 1468.33 Q1312.33 1461.2 1310.5 1457.66 Q1308.7 1454.1 1305.06 1454.1 M1305.06 1450.39 Q1310.87 1450.39 1313.93 1455 Q1317.01 1459.58 1317.01 1468.33 Q1317.01 1477.06 1313.93 1481.67 Q1310.87 1486.25 1305.06 1486.25 Q1299.25 1486.25 1296.17 1481.67 Q1293.12 1477.06 1293.12 1468.33 Q1293.12 1459.58 1296.17 1455 Q1299.25 1450.39 1305.06 1450.39 Z" fill="#000000" fill-rule="evenodd" fill-opacity="1" /><path clip-path="url(#clip400)" d="M1335.23 1454.1 Q1331.61 1454.1 1329.79 1457.66 Q1327.98 1461.2 1327.98 1468.33 Q1327.98 1475.44 1329.79 1479.01 Q1331.61 1482.55 1335.23 1482.55 Q1338.86 1482.55 1340.67 1479.01 Q1342.49 1475.44 1342.49 1468.33 Q1342.49 1461.2 1340.67 1457.66 Q1338.86 1454.1 1335.23 1454.1 M1335.23 1450.39 Q1341.04 1450.39 1344.09 1455 Q1347.17 1459.58 1347.17 1468.33 Q1347.17 1477.06 1344.09 1481.67 Q1341.04 1486.25 1335.23 1486.25 Q1329.42 1486.25 1326.34 1481.67 Q1323.28 1477.06 1323.28 1468.33 Q1323.28 1459.58 1326.34 1455 Q1329.42 1450.39 1335.23 1450.39 Z" fill="#000000" fill-rule="evenodd" fill-opacity="1" /><path clip-path="url(#clip400)" d="M1365.39 1454.1 Q1361.78 1454.1 1359.95 1457.66 Q1358.14 1461.2 1358.14 1468.33 Q1358.14 1475.44 1359.95 1479.01 Q1361.78 1482.55 1365.39 1482.55 Q1369.02 1482.55 1370.83 1479.01 Q1372.66 1475.44 1372.66 1468.33 Q1372.66 1461.2 1370.83 1457.66 Q1369.02 1454.1 1365.39 1454.1 M1365.39 1450.39 Q1371.2 1450.39 1374.25 1455 Q1377.33 1459.58 1377.33 1468.33 Q1377.33 1477.06 1374.25 1481.67 Q1371.2 1486.25 1365.39 1486.25 Q1359.58 1486.25 1356.5 1481.67 Q1353.44 1477.06 1353.44 1468.33 Q1353.44 1459.58 1356.5 1455 Q1359.58 1450.39 1365.39 1450.39 Z" fill="#000000" fill-rule="evenodd" fill-opacity="1" /><path clip-path="url(#clip400)" d="M1780.97 1466.95 Q1784.33 1467.66 1786.21 1469.93 Q1788.1 1472.2 1788.1 1475.53 Q1788.1 1480.65 1784.59 1483.45 Q1781.07 1486.25 1774.59 1486.25 Q1772.41 1486.25 1770.09 1485.81 Q1767.8 1485.39 1765.35 1484.54 L1765.35 1480.02 Q1767.29 1481.16 1769.61 1481.74 Q1771.92 1482.32 1774.45 1482.32 Q1778.84 1482.32 1781.14 1480.58 Q1783.45 1478.84 1783.45 1475.53 Q1783.45 1472.48 1781.3 1470.77 Q1779.17 1469.03 1775.35 1469.03 L1771.32 1469.03 L1771.32 1465.19 L1775.53 1465.19 Q1778.98 1465.19 1780.81 1463.82 Q1782.64 1462.43 1782.64 1459.84 Q1782.64 1457.18 1780.74 1455.77 Q1778.87 1454.33 1775.35 1454.33 Q1773.43 1454.33 1771.23 1454.75 Q1769.03 1455.16 1766.39 1456.04 L1766.39 1451.88 Q1769.05 1451.14 1771.37 1450.77 Q1773.71 1450.39 1775.77 1450.39 Q1781.09 1450.39 1784.19 1452.83 Q1787.29 1455.23 1787.29 1459.35 Q1787.29 1462.22 1785.65 1464.21 Q1784.01 1466.18 1780.97 1466.95 Z" fill="#000000" fill-rule="evenodd" fill-opacity="1" /><path clip-path="url(#clip400)" d="M1806.97 1454.1 Q1803.36 1454.1 1801.53 1457.66 Q1799.72 1461.2 1799.72 1468.33 Q1799.72 1475.44 1801.53 1479.01 Q1803.36 1482.55 1806.97 1482.55 Q1810.6 1482.55 1812.41 1479.01 Q1814.24 1475.44 1814.24 1468.33 Q1814.24 1461.2 1812.41 1457.66 Q1810.6 1454.1 1806.97 1454.1 M1806.97 1450.39 Q1812.78 1450.39 1815.84 1455 Q1818.91 1459.58 1818.91 1468.33 Q1818.91 1477.06 1815.84 1481.67 Q1812.78 1486.25 1806.97 1486.25 Q1801.16 1486.25 1798.08 1481.67 Q1795.03 1477.06 1795.03 1468.33 Q1795.03 1459.58 1798.08 1455 Q1801.16 1450.39 1806.97 1450.39 Z" fill="#000000" fill-rule="evenodd" fill-opacity="1" /><path clip-path="url(#clip400)" d="M1837.13 1454.1 Q1833.52 1454.1 1831.69 1457.66 Q1829.89 1461.2 1829.89 1468.33 Q1829.89 1475.44 1831.69 1479.01 Q1833.52 1482.55 1837.13 1482.55 Q1840.77 1482.55 1842.57 1479.01 Q1844.4 1475.44 1844.4 1468.33 Q1844.4 1461.2 1842.57 1457.66 Q1840.77 1454.1 1837.13 1454.1 M1837.13 1450.39 Q1842.94 1450.39 1846 1455 Q1849.08 1459.58 1849.08 1468.33 Q1849.08 1477.06 1846 1481.67 Q1842.94 1486.25 1837.13 1486.25 Q1831.32 1486.25 1828.24 1481.67 Q1825.19 1477.06 1825.19 1468.33 Q1825.19 1459.58 1828.24 1455 Q1831.32 1450.39 1837.13 1450.39 Z" fill="#000000" fill-rule="evenodd" fill-opacity="1" /><path clip-path="url(#clip400)" d="M1867.29 1454.1 Q1863.68 1454.1 1861.85 1457.66 Q1860.05 1461.2 1860.05 1468.33 Q1860.05 1475.44 1861.85 1479.01 Q1863.68 1482.55 1867.29 1482.55 Q1870.93 1482.55 1872.73 1479.01 Q1874.56 1475.44 1874.56 1468.33 Q1874.56 1461.2 1872.73 1457.66 Q1870.93 1454.1 1867.29 1454.1 M1867.29 1450.39 Q1873.1 1450.39 1876.16 1455 Q1879.24 1459.58 1879.24 1468.33 Q1879.24 1477.06 1876.16 1481.67 Q1873.1 1486.25 1867.29 1486.25 Q1861.48 1486.25 1858.4 1481.67 Q1855.35 1477.06 1855.35 1468.33 Q1855.35 1459.58 1858.4 1455 Q1861.48 1450.39 1867.29 1450.39 Z" fill="#000000" fill-rule="evenodd" fill-opacity="1" /><path clip-path="url(#clip400)" d="M2282.28 1455.09 L2270.47 1473.54 L2282.28 1473.54 L2282.28 1455.09 M2281.05 1451.02 L2286.93 1451.02 L2286.93 1473.54 L2291.86 1473.54 L2291.86 1477.43 L2286.93 1477.43 L2286.93 1485.58 L2282.28 1485.58 L2282.28 1477.43 L2266.68 1477.43 L2266.68 1472.92 L2281.05 1451.02 Z" fill="#000000" fill-rule="evenodd" fill-opacity="1" /><path clip-path="url(#clip400)" d="M2309.59 1454.1 Q2305.98 1454.1 2304.15 1457.66 Q2302.35 1461.2 2302.35 1468.33 Q2302.35 1475.44 2304.15 1479.01 Q2305.98 1482.55 2309.59 1482.55 Q2313.23 1482.55 2315.03 1479.01 Q2316.86 1475.44 2316.86 1468.33 Q2316.86 1461.2 2315.03 1457.66 Q2313.23 1454.1 2309.59 1454.1 M2309.59 1450.39 Q2315.4 1450.39 2318.46 1455 Q2321.54 1459.58 2321.54 1468.33 Q2321.54 1477.06 2318.46 1481.67 Q2315.4 1486.25 2309.59 1486.25 Q2303.78 1486.25 2300.7 1481.67 Q2297.65 1477.06 2297.65 1468.33 Q2297.65 1459.58 2300.7 1455 Q2303.78 1450.39 2309.59 1450.39 Z" fill="#000000" fill-rule="evenodd" fill-opacity="1" /><path clip-path="url(#clip400)" d="M2339.75 1454.1 Q2336.14 1454.1 2334.32 1457.66 Q2332.51 1461.2 2332.51 1468.33 Q2332.51 1475.44 2334.32 1479.01 Q2336.14 1482.55 2339.75 1482.55 Q2343.39 1482.55 2345.19 1479.01 Q2347.02 1475.44 2347.02 1468.33 Q2347.02 1461.2 2345.19 1457.66 Q2343.39 1454.1 2339.75 1454.1 M2339.75 1450.39 Q2345.56 1450.39 2348.62 1455 Q2351.7 1459.58 2351.7 1468.33 Q2351.7 1477.06 2348.62 1481.67 Q2345.56 1486.25 2339.75 1486.25 Q2333.94 1486.25 2330.87 1481.67 Q2327.81 1477.06 2327.81 1468.33 Q2327.81 1459.58 2330.87 1455 Q2333.94 1450.39 2339.75 1450.39 Z" fill="#000000" fill-rule="evenodd" fill-opacity="1" /><path clip-path="url(#clip400)" d="M2369.92 1454.1 Q2366.31 1454.1 2364.48 1457.66 Q2362.67 1461.2 2362.67 1468.33 Q2362.67 1475.44 2364.48 1479.01 Q2366.31 1482.55 2369.92 1482.55 Q2373.55 1482.55 2375.36 1479.01 Q2377.19 1475.44 2377.19 1468.33 Q2377.19 1461.2 2375.36 1457.66 Q2373.55 1454.1 2369.92 1454.1 M2369.92 1450.39 Q2375.73 1450.39 2378.78 1455 Q2381.86 1459.58 2381.86 1468.33 Q2381.86 1477.06 2378.78 1481.67 Q2375.73 1486.25 2369.92 1486.25 Q2364.11 1486.25 2361.03 1481.67 Q2357.97 1477.06 2357.97 1468.33 Q2357.97 1459.58 2361.03 1455 Q2364.11 1450.39 2369.92 1450.39 Z" fill="#000000" fill-rule="evenodd" fill-opacity="1" /><path clip-path="url(#clip400)" d="M1325.14 1532.4 L1312.25 1549.74 L1325.8 1568.04 L1318.9 1568.04 L1308.52 1554.04 L1298.15 1568.04 L1291.24 1568.04 L1305.08 1549.39 L1292.42 1532.4 L1299.32 1532.4 L1308.78 1545.1 L1318.23 1532.4 L1325.14 1532.4 Z" fill="#000000" fill-rule="evenodd" fill-opacity="1" /><polyline clip-path="url(#clip402)" style="stroke:#000000; stroke-linecap:round; stroke-linejoin:round; stroke-width:2; stroke-opacity:0.1; fill:none" points="
  264.287,1236.69 2352.76,1236.69 
  "/>
<polyline clip-path="url(#clip402)" style="stroke:#000000; stroke-linecap:round; stroke-linejoin:round; stroke-width:2; stroke-opacity:0.1; fill:none" points="
  264.287,985.698 2352.76,985.698 
  "/>
<polyline clip-path="url(#clip402)" style="stroke:#000000; stroke-linecap:round; stroke-linejoin:round; stroke-width:2; stroke-opacity:0.1; fill:none" points="
  264.287,734.71 2352.76,734.71 
  "/>
<polyline clip-path="url(#clip402)" style="stroke:#000000; stroke-linecap:round; stroke-linejoin:round; stroke-width:2; stroke-opacity:0.1; fill:none" points="
  264.287,483.722 2352.76,483.722 
  "/>
<polyline clip-path="url(#clip402)" style="stroke:#000000; stroke-linecap:round; stroke-linejoin:round; stroke-width:2; stroke-opacity:0.1; fill:none" points="
  264.287,232.735 2352.76,232.735 
  "/>
<polyline clip-path="url(#clip400)" style="stroke:#000000; stroke-linecap:round; stroke-linejoin:round; stroke-width:4; stroke-opacity:1; fill:none" points="
  264.287,1423.18 264.287,47.2441 
  "/>
<polyline clip-path="url(#clip400)" style="stroke:#000000; stroke-linecap:round; stroke-linejoin:round; stroke-width:4; stroke-opacity:1; fill:none" points="
  264.287,1236.69 283.185,1236.69 
  "/>
<polyline clip-path="url(#clip400)" style="stroke:#000000; stroke-linecap:round; stroke-linejoin:round; stroke-width:4; stroke-opacity:1; fill:none" points="
  264.287,985.698 283.185,985.698 
  "/>
<polyline clip-path="url(#clip400)" style="stroke:#000000; stroke-linecap:round; stroke-linejoin:round; stroke-width:4; stroke-opacity:1; fill:none" points="
  264.287,734.71 283.185,734.71 
  "/>
<polyline clip-path="url(#clip400)" style="stroke:#000000; stroke-linecap:round; stroke-linejoin:round; stroke-width:4; stroke-opacity:1; fill:none" points="
  264.287,483.722 283.185,483.722 
  "/>
<polyline clip-path="url(#clip400)" style="stroke:#000000; stroke-linecap:round; stroke-linejoin:round; stroke-width:4; stroke-opacity:1; fill:none" points="
  264.287,232.735 283.185,232.735 
  "/>
<path clip-path="url(#clip400)" d="M216.343 1222.48 Q212.732 1222.48 210.903 1226.05 Q209.098 1229.59 209.098 1236.72 Q209.098 1243.83 210.903 1247.39 Q212.732 1250.93 216.343 1250.93 Q219.977 1250.93 221.783 1247.39 Q223.611 1243.83 223.611 1236.72 Q223.611 1229.59 221.783 1226.05 Q219.977 1222.48 216.343 1222.48 M216.343 1218.78 Q222.153 1218.78 225.209 1223.39 Q228.287 1227.97 228.287 1236.72 Q228.287 1245.45 225.209 1250.05 Q222.153 1254.64 216.343 1254.64 Q210.533 1254.64 207.454 1250.05 Q204.399 1245.45 204.399 1236.72 Q204.399 1227.97 207.454 1223.39 Q210.533 1218.78 216.343 1218.78 Z" fill="#000000" fill-rule="evenodd" fill-opacity="1" /><path clip-path="url(#clip400)" d="M146.066 968.418 L164.422 968.418 L164.422 972.353 L150.348 972.353 L150.348 980.825 Q151.366 980.478 152.385 980.316 Q153.403 980.131 154.422 980.131 Q160.209 980.131 163.589 983.302 Q166.968 986.473 166.968 991.89 Q166.968 997.468 163.496 1000.57 Q160.024 1003.65 153.704 1003.65 Q151.528 1003.65 149.26 1003.28 Q147.015 1002.91 144.607 1002.17 L144.607 997.468 Q146.691 998.603 148.913 999.158 Q151.135 999.714 153.612 999.714 Q157.616 999.714 159.954 997.607 Q162.292 995.501 162.292 991.89 Q162.292 988.279 159.954 986.172 Q157.616 984.066 153.612 984.066 Q151.737 984.066 149.862 984.482 Q148.01 984.899 146.066 985.779 L146.066 968.418 Z" fill="#000000" fill-rule="evenodd" fill-opacity="1" /><path clip-path="url(#clip400)" d="M186.181 971.496 Q182.57 971.496 180.741 975.061 Q178.936 978.603 178.936 985.732 Q178.936 992.839 180.741 996.404 Q182.57 999.945 186.181 999.945 Q189.815 999.945 191.621 996.404 Q193.45 992.839 193.45 985.732 Q193.45 978.603 191.621 975.061 Q189.815 971.496 186.181 971.496 M186.181 967.793 Q191.991 967.793 195.047 972.399 Q198.125 976.982 198.125 985.732 Q198.125 994.459 195.047 999.066 Q191.991 1003.65 186.181 1003.65 Q180.371 1003.65 177.292 999.066 Q174.237 994.459 174.237 985.732 Q174.237 976.982 177.292 972.399 Q180.371 967.793 186.181 967.793 Z" fill="#000000" fill-rule="evenodd" fill-opacity="1" /><path clip-path="url(#clip400)" d="M216.343 971.496 Q212.732 971.496 210.903 975.061 Q209.098 978.603 209.098 985.732 Q209.098 992.839 210.903 996.404 Q212.732 999.945 216.343 999.945 Q219.977 999.945 221.783 996.404 Q223.611 992.839 223.611 985.732 Q223.611 978.603 221.783 975.061 Q219.977 971.496 216.343 971.496 M216.343 967.793 Q222.153 967.793 225.209 972.399 Q228.287 976.982 228.287 985.732 Q228.287 994.459 225.209 999.066 Q222.153 1003.65 216.343 1003.65 Q210.533 1003.65 207.454 999.066 Q204.399 994.459 204.399 985.732 Q204.399 976.982 207.454 972.399 Q210.533 967.793 216.343 967.793 Z" fill="#000000" fill-rule="evenodd" fill-opacity="1" /><path clip-path="url(#clip400)" d="M116.668 748.055 L124.306 748.055 L124.306 721.689 L115.996 723.356 L115.996 719.097 L124.26 717.43 L128.936 717.43 L128.936 748.055 L136.575 748.055 L136.575 751.99 L116.668 751.99 L116.668 748.055 Z" fill="#000000" fill-rule="evenodd" fill-opacity="1" /><path clip-path="url(#clip400)" d="M156.019 720.509 Q152.408 720.509 150.579 724.073 Q148.774 727.615 148.774 734.745 Q148.774 741.851 150.579 745.416 Q152.408 748.958 156.019 748.958 Q159.653 748.958 161.459 745.416 Q163.288 741.851 163.288 734.745 Q163.288 727.615 161.459 724.073 Q159.653 720.509 156.019 720.509 M156.019 716.805 Q161.829 716.805 164.885 721.411 Q167.964 725.995 167.964 734.745 Q167.964 743.472 164.885 748.078 Q161.829 752.661 156.019 752.661 Q150.209 752.661 147.13 748.078 Q144.075 743.472 144.075 734.745 Q144.075 725.995 147.13 721.411 Q150.209 716.805 156.019 716.805 Z" fill="#000000" fill-rule="evenodd" fill-opacity="1" /><path clip-path="url(#clip400)" d="M186.181 720.509 Q182.57 720.509 180.741 724.073 Q178.936 727.615 178.936 734.745 Q178.936 741.851 180.741 745.416 Q182.57 748.958 186.181 748.958 Q189.815 748.958 191.621 745.416 Q193.45 741.851 193.45 734.745 Q193.45 727.615 191.621 724.073 Q189.815 720.509 186.181 720.509 M186.181 716.805 Q191.991 716.805 195.047 721.411 Q198.125 725.995 198.125 734.745 Q198.125 743.472 195.047 748.078 Q191.991 752.661 186.181 752.661 Q180.371 752.661 177.292 748.078 Q174.237 743.472 174.237 734.745 Q174.237 725.995 177.292 721.411 Q180.371 716.805 186.181 716.805 Z" fill="#000000" fill-rule="evenodd" fill-opacity="1" /><path clip-path="url(#clip400)" d="M216.343 720.509 Q212.732 720.509 210.903 724.073 Q209.098 727.615 209.098 734.745 Q209.098 741.851 210.903 745.416 Q212.732 748.958 216.343 748.958 Q219.977 748.958 221.783 745.416 Q223.611 741.851 223.611 734.745 Q223.611 727.615 221.783 724.073 Q219.977 720.509 216.343 720.509 M216.343 716.805 Q222.153 716.805 225.209 721.411 Q228.287 725.995 228.287 734.745 Q228.287 743.472 225.209 748.078 Q222.153 752.661 216.343 752.661 Q210.533 752.661 207.454 748.078 Q204.399 743.472 204.399 734.745 Q204.399 725.995 207.454 721.411 Q210.533 716.805 216.343 716.805 Z" fill="#000000" fill-rule="evenodd" fill-opacity="1" /><path clip-path="url(#clip400)" d="M116.668 497.067 L124.306 497.067 L124.306 470.702 L115.996 472.368 L115.996 468.109 L124.26 466.442 L128.936 466.442 L128.936 497.067 L136.575 497.067 L136.575 501.002 L116.668 501.002 L116.668 497.067 Z" fill="#000000" fill-rule="evenodd" fill-opacity="1" /><path clip-path="url(#clip400)" d="M146.066 466.442 L164.422 466.442 L164.422 470.377 L150.348 470.377 L150.348 478.85 Q151.366 478.502 152.385 478.34 Q153.403 478.155 154.422 478.155 Q160.209 478.155 163.589 481.326 Q166.968 484.498 166.968 489.914 Q166.968 495.493 163.496 498.595 Q160.024 501.674 153.704 501.674 Q151.528 501.674 149.26 501.303 Q147.015 500.933 144.607 500.192 L144.607 495.493 Q146.691 496.627 148.913 497.183 Q151.135 497.738 153.612 497.738 Q157.616 497.738 159.954 495.632 Q162.292 493.525 162.292 489.914 Q162.292 486.303 159.954 484.197 Q157.616 482.09 153.612 482.09 Q151.737 482.09 149.862 482.507 Q148.01 482.924 146.066 483.803 L146.066 466.442 Z" fill="#000000" fill-rule="evenodd" fill-opacity="1" /><path clip-path="url(#clip400)" d="M186.181 469.521 Q182.57 469.521 180.741 473.086 Q178.936 476.627 178.936 483.757 Q178.936 490.863 180.741 494.428 Q182.57 497.97 186.181 497.97 Q189.815 497.97 191.621 494.428 Q193.45 490.863 193.45 483.757 Q193.45 476.627 191.621 473.086 Q189.815 469.521 186.181 469.521 M186.181 465.817 Q191.991 465.817 195.047 470.424 Q198.125 475.007 198.125 483.757 Q198.125 492.484 195.047 497.09 Q191.991 501.674 186.181 501.674 Q180.371 501.674 177.292 497.09 Q174.237 492.484 174.237 483.757 Q174.237 475.007 177.292 470.424 Q180.371 465.817 186.181 465.817 Z" fill="#000000" fill-rule="evenodd" fill-opacity="1" /><path clip-path="url(#clip400)" d="M216.343 469.521 Q212.732 469.521 210.903 473.086 Q209.098 476.627 209.098 483.757 Q209.098 490.863 210.903 494.428 Q212.732 497.97 216.343 497.97 Q219.977 497.97 221.783 494.428 Q223.611 490.863 223.611 483.757 Q223.611 476.627 221.783 473.086 Q219.977 469.521 216.343 469.521 M216.343 465.817 Q222.153 465.817 225.209 470.424 Q228.287 475.007 228.287 483.757 Q228.287 492.484 225.209 497.09 Q222.153 501.674 216.343 501.674 Q210.533 501.674 207.454 497.09 Q204.399 492.484 204.399 483.757 Q204.399 475.007 207.454 470.424 Q210.533 465.817 216.343 465.817 Z" fill="#000000" fill-rule="evenodd" fill-opacity="1" /><path clip-path="url(#clip400)" d="M119.885 246.079 L136.204 246.079 L136.204 250.015 L114.26 250.015 L114.26 246.079 Q116.922 243.325 121.505 238.695 Q126.112 234.042 127.292 232.7 Q129.538 230.177 130.417 228.441 Q131.32 226.681 131.32 224.992 Q131.32 222.237 129.376 220.501 Q127.455 218.765 124.353 218.765 Q122.154 218.765 119.7 219.529 Q117.269 220.293 114.492 221.843 L114.492 217.121 Q117.316 215.987 119.769 215.408 Q122.223 214.83 124.26 214.83 Q129.63 214.83 132.825 217.515 Q136.019 220.2 136.019 224.691 Q136.019 226.82 135.209 228.742 Q134.422 230.64 132.316 233.232 Q131.737 233.904 128.635 237.121 Q125.533 240.316 119.885 246.079 Z" fill="#000000" fill-rule="evenodd" fill-opacity="1" /><path clip-path="url(#clip400)" d="M156.019 218.533 Q152.408 218.533 150.579 222.098 Q148.774 225.64 148.774 232.769 Q148.774 239.876 150.579 243.441 Q152.408 246.982 156.019 246.982 Q159.653 246.982 161.459 243.441 Q163.288 239.876 163.288 232.769 Q163.288 225.64 161.459 222.098 Q159.653 218.533 156.019 218.533 M156.019 214.83 Q161.829 214.83 164.885 219.436 Q167.964 224.019 167.964 232.769 Q167.964 241.496 164.885 246.103 Q161.829 250.686 156.019 250.686 Q150.209 250.686 147.13 246.103 Q144.075 241.496 144.075 232.769 Q144.075 224.019 147.13 219.436 Q150.209 214.83 156.019 214.83 Z" fill="#000000" fill-rule="evenodd" fill-opacity="1" /><path clip-path="url(#clip400)" d="M186.181 218.533 Q182.57 218.533 180.741 222.098 Q178.936 225.64 178.936 232.769 Q178.936 239.876 180.741 243.441 Q182.57 246.982 186.181 246.982 Q189.815 246.982 191.621 243.441 Q193.45 239.876 193.45 232.769 Q193.45 225.64 191.621 222.098 Q189.815 218.533 186.181 218.533 M186.181 214.83 Q191.991 214.83 195.047 219.436 Q198.125 224.019 198.125 232.769 Q198.125 241.496 195.047 246.103 Q191.991 250.686 186.181 250.686 Q180.371 250.686 177.292 246.103 Q174.237 241.496 174.237 232.769 Q174.237 224.019 177.292 219.436 Q180.371 214.83 186.181 214.83 Z" fill="#000000" fill-rule="evenodd" fill-opacity="1" /><path clip-path="url(#clip400)" d="M216.343 218.533 Q212.732 218.533 210.903 222.098 Q209.098 225.64 209.098 232.769 Q209.098 239.876 210.903 243.441 Q212.732 246.982 216.343 246.982 Q219.977 246.982 221.783 243.441 Q223.611 239.876 223.611 232.769 Q223.611 225.64 221.783 222.098 Q219.977 218.533 216.343 218.533 M216.343 214.83 Q222.153 214.83 225.209 219.436 Q228.287 224.019 228.287 232.769 Q228.287 241.496 225.209 246.103 Q222.153 250.686 216.343 250.686 Q210.533 250.686 207.454 246.103 Q204.399 241.496 204.399 232.769 Q204.399 224.019 207.454 219.436 Q210.533 214.83 216.343 214.83 Z" fill="#000000" fill-rule="evenodd" fill-opacity="1" /><path clip-path="url(#clip400)" d="M67.3143 733.525 Q73.68 736.008 75.6216 738.363 Q77.5631 740.718 77.5631 744.665 L77.5631 749.344 L72.6615 749.344 L72.6615 745.906 Q72.6615 743.487 71.5157 742.151 Q70.3699 740.814 66.1048 739.191 L63.4312 738.14 L28.3562 752.559 L28.3562 746.352 L56.238 735.212 L28.3562 724.072 L28.3562 717.865 L67.3143 733.525 Z" fill="#000000" fill-rule="evenodd" fill-opacity="1" /><polyline clip-path="url(#clip402)" style="stroke:#009af9; stroke-linecap:round; stroke-linejoin:round; stroke-width:4; stroke-opacity:1; fill:none" points="
  330.925,1233.67 340.462,1102.66 323.395,1008.79 336.446,1004.77 366.063,967.627 364.557,889.82 426.3,785.911 412.747,732.702 359.537,702.082 355.521,701.58 
  385.64,428.505 478.505,376.3 545.77,430.011 558.319,565.544 515.651,625.781 433.83,675.477 388.652,641.845 369.577,600.683 409.233,462.639 327.411,424.991 
  337.952,254.32 626.588,256.327 670.26,327.106 797.26,398.386 768.647,457.62 910.204,538.438 1000.06,470.671 1085.9,343.169 997.548,280.422 982.489,286.446 
  812.821,234.241 594.462,320.58 602.995,377.805 656.707,434.027 664.236,542.453 686.323,591.647 730.999,621.264 831.896,714.129 752.082,869.741 757.102,877.773 
  867.034,913.915 1091.42,803.481 1153.66,906.386 1024.15,1082.58 779.691,1182.47 723.971,1060.49 818.343,1007.28 833.904,1021.84 847.457,1049.95 798.264,1084.59 
  774.671,1077.56 720.457,1100.15 678.292,1143.32 637.632,1181.47 423.288,1126.25 437.845,943.532 417.264,888.816 515.15,821.05 700.378,818.54 707.406,846.651 
  708.41,899.86 735.015,920.943 861.513,800.971 972.449,752.781 1018.13,684.512 1149.65,455.612 1239,367.264 1402.64,295.984 1476.93,258.335 1597.41,278.414 
  1875,321.584 1868.48,399.39 1871.49,436.537 1861.45,463.141 1788.66,504.303 1739.47,497.778 1577.83,447.58 1537.67,464.647 1436.78,546.971 1442.3,568.054 
  1471.91,670.959 1409.67,745.753 1360.98,729.188 1288.69,533.92 1346.92,503.299 1344.41,419.469 1361.48,356.723 1479.95,270.383 1555.74,314.055 1503.54,408.928 
  1572.31,597.169 1643.09,574.078 1665.18,557.513 1708.35,591.145 1646.6,834.101 1639.57,871.749 1609.46,1141.81 1572.31,1163.4 1431.25,1090.61 1259.08,1207.07 
  1209.38,1191.51 1206.87,1182.97 1254.06,1137.8 1344.91,1027.36 1501.53,915.421 1570.8,906.386 1712.36,996.741 1711.36,1018.33 1810.75,1217.11 1846.39,1236.18 
  2038.64,1197.53 2105.41,897.35 2019.57,844.141 1884.54,1031.88 1817.27,1129.26 1831.83,1141.81 1839.86,1160.39 1871.99,1149.84 1937.75,1045.93 1947.29,1046.94 
  1971.38,990.215 1961.84,835.607 2020.07,720.655 2062.74,723.165 2146.57,725.674 2175.68,693.548 2141.05,647.366 2034.63,613.734 1929.21,692.042 1909.64,702.584 
  1852.91,628.793 1942.27,545.967 2005.01,484.726 2191.75,462.639 2250.48,377.304 2116.45,278.414 2072.78,290.462 2027.6,274.399 1979.91,292.47 2002.5,386.841 
  2098.88,396.881 2174.68,421.477 2221.87,533.418 2227.89,546.469 2188.23,640.339 2236.42,684.01 2241.44,753.283 2225.38,791.935 2226.89,862.212 2293.65,915.421 
  
  "/>
<circle clip-path="url(#clip402)" cx="330.925" cy="1233.67" r="7.2" fill="#009af9" fill-rule="evenodd" fill-opacity="1" stroke="#000000" stroke-opacity="1" stroke-width="3.2"/>
<circle clip-path="url(#clip402)" cx="340.462" cy="1102.66" r="7.2" fill="#009af9" fill-rule="evenodd" fill-opacity="1" stroke="#000000" stroke-opacity="1" stroke-width="3.2"/>
<circle clip-path="url(#clip402)" cx="323.395" cy="1008.79" r="7.2" fill="#009af9" fill-rule="evenodd" fill-opacity="1" stroke="#000000" stroke-opacity="1" stroke-width="3.2"/>
<circle clip-path="url(#clip402)" cx="336.446" cy="1004.77" r="7.2" fill="#009af9" fill-rule="evenodd" fill-opacity="1" stroke="#000000" stroke-opacity="1" stroke-width="3.2"/>
<circle clip-path="url(#clip402)" cx="366.063" cy="967.627" r="7.2" fill="#009af9" fill-rule="evenodd" fill-opacity="1" stroke="#000000" stroke-opacity="1" stroke-width="3.2"/>
<circle clip-path="url(#clip402)" cx="364.557" cy="889.82" r="7.2" fill="#009af9" fill-rule="evenodd" fill-opacity="1" stroke="#000000" stroke-opacity="1" stroke-width="3.2"/>
<circle clip-path="url(#clip402)" cx="426.3" cy="785.911" r="7.2" fill="#009af9" fill-rule="evenodd" fill-opacity="1" stroke="#000000" stroke-opacity="1" stroke-width="3.2"/>
<circle clip-path="url(#clip402)" cx="412.747" cy="732.702" r="7.2" fill="#009af9" fill-rule="evenodd" fill-opacity="1" stroke="#000000" stroke-opacity="1" stroke-width="3.2"/>
<circle clip-path="url(#clip402)" cx="359.537" cy="702.082" r="7.2" fill="#009af9" fill-rule="evenodd" fill-opacity="1" stroke="#000000" stroke-opacity="1" stroke-width="3.2"/>
<circle clip-path="url(#clip402)" cx="355.521" cy="701.58" r="7.2" fill="#009af9" fill-rule="evenodd" fill-opacity="1" stroke="#000000" stroke-opacity="1" stroke-width="3.2"/>
<circle clip-path="url(#clip402)" cx="385.64" cy="428.505" r="7.2" fill="#009af9" fill-rule="evenodd" fill-opacity="1" stroke="#000000" stroke-opacity="1" stroke-width="3.2"/>
<circle clip-path="url(#clip402)" cx="478.505" cy="376.3" r="7.2" fill="#009af9" fill-rule="evenodd" fill-opacity="1" stroke="#000000" stroke-opacity="1" stroke-width="3.2"/>
<circle clip-path="url(#clip402)" cx="545.77" cy="430.011" r="7.2" fill="#009af9" fill-rule="evenodd" fill-opacity="1" stroke="#000000" stroke-opacity="1" stroke-width="3.2"/>
<circle clip-path="url(#clip402)" cx="558.319" cy="565.544" r="7.2" fill="#009af9" fill-rule="evenodd" fill-opacity="1" stroke="#000000" stroke-opacity="1" stroke-width="3.2"/>
<circle clip-path="url(#clip402)" cx="515.651" cy="625.781" r="7.2" fill="#009af9" fill-rule="evenodd" fill-opacity="1" stroke="#000000" stroke-opacity="1" stroke-width="3.2"/>
<circle clip-path="url(#clip402)" cx="433.83" cy="675.477" r="7.2" fill="#009af9" fill-rule="evenodd" fill-opacity="1" stroke="#000000" stroke-opacity="1" stroke-width="3.2"/>
<circle clip-path="url(#clip402)" cx="388.652" cy="641.845" r="7.2" fill="#009af9" fill-rule="evenodd" fill-opacity="1" stroke="#000000" stroke-opacity="1" stroke-width="3.2"/>
<circle clip-path="url(#clip402)" cx="369.577" cy="600.683" r="7.2" fill="#009af9" fill-rule="evenodd" fill-opacity="1" stroke="#000000" stroke-opacity="1" stroke-width="3.2"/>
<circle clip-path="url(#clip402)" cx="409.233" cy="462.639" r="7.2" fill="#009af9" fill-rule="evenodd" fill-opacity="1" stroke="#000000" stroke-opacity="1" stroke-width="3.2"/>
<circle clip-path="url(#clip402)" cx="327.411" cy="424.991" r="7.2" fill="#009af9" fill-rule="evenodd" fill-opacity="1" stroke="#000000" stroke-opacity="1" stroke-width="3.2"/>
<circle clip-path="url(#clip402)" cx="337.952" cy="254.32" r="7.2" fill="#009af9" fill-rule="evenodd" fill-opacity="1" stroke="#000000" stroke-opacity="1" stroke-width="3.2"/>
<circle clip-path="url(#clip402)" cx="626.588" cy="256.327" r="7.2" fill="#009af9" fill-rule="evenodd" fill-opacity="1" stroke="#000000" stroke-opacity="1" stroke-width="3.2"/>
<circle clip-path="url(#clip402)" cx="670.26" cy="327.106" r="7.2" fill="#009af9" fill-rule="evenodd" fill-opacity="1" stroke="#000000" stroke-opacity="1" stroke-width="3.2"/>
<circle clip-path="url(#clip402)" cx="797.26" cy="398.386" r="7.2" fill="#009af9" fill-rule="evenodd" fill-opacity="1" stroke="#000000" stroke-opacity="1" stroke-width="3.2"/>
<circle clip-path="url(#clip402)" cx="768.647" cy="457.62" r="7.2" fill="#009af9" fill-rule="evenodd" fill-opacity="1" stroke="#000000" stroke-opacity="1" stroke-width="3.2"/>
<circle clip-path="url(#clip402)" cx="910.204" cy="538.438" r="7.2" fill="#009af9" fill-rule="evenodd" fill-opacity="1" stroke="#000000" stroke-opacity="1" stroke-width="3.2"/>
<circle clip-path="url(#clip402)" cx="1000.06" cy="470.671" r="7.2" fill="#009af9" fill-rule="evenodd" fill-opacity="1" stroke="#000000" stroke-opacity="1" stroke-width="3.2"/>
<circle clip-path="url(#clip402)" cx="1085.9" cy="343.169" r="7.2" fill="#009af9" fill-rule="evenodd" fill-opacity="1" stroke="#000000" stroke-opacity="1" stroke-width="3.2"/>
<circle clip-path="url(#clip402)" cx="997.548" cy="280.422" r="7.2" fill="#009af9" fill-rule="evenodd" fill-opacity="1" stroke="#000000" stroke-opacity="1" stroke-width="3.2"/>
<circle clip-path="url(#clip402)" cx="982.489" cy="286.446" r="7.2" fill="#009af9" fill-rule="evenodd" fill-opacity="1" stroke="#000000" stroke-opacity="1" stroke-width="3.2"/>
<circle clip-path="url(#clip402)" cx="812.821" cy="234.241" r="7.2" fill="#009af9" fill-rule="evenodd" fill-opacity="1" stroke="#000000" stroke-opacity="1" stroke-width="3.2"/>
<circle clip-path="url(#clip402)" cx="594.462" cy="320.58" r="7.2" fill="#009af9" fill-rule="evenodd" fill-opacity="1" stroke="#000000" stroke-opacity="1" stroke-width="3.2"/>
<circle clip-path="url(#clip402)" cx="602.995" cy="377.805" r="7.2" fill="#009af9" fill-rule="evenodd" fill-opacity="1" stroke="#000000" stroke-opacity="1" stroke-width="3.2"/>
<circle clip-path="url(#clip402)" cx="656.707" cy="434.027" r="7.2" fill="#009af9" fill-rule="evenodd" fill-opacity="1" stroke="#000000" stroke-opacity="1" stroke-width="3.2"/>
<circle clip-path="url(#clip402)" cx="664.236" cy="542.453" r="7.2" fill="#009af9" fill-rule="evenodd" fill-opacity="1" stroke="#000000" stroke-opacity="1" stroke-width="3.2"/>
<circle clip-path="url(#clip402)" cx="686.323" cy="591.647" r="7.2" fill="#009af9" fill-rule="evenodd" fill-opacity="1" stroke="#000000" stroke-opacity="1" stroke-width="3.2"/>
<circle clip-path="url(#clip402)" cx="730.999" cy="621.264" r="7.2" fill="#009af9" fill-rule="evenodd" fill-opacity="1" stroke="#000000" stroke-opacity="1" stroke-width="3.2"/>
<circle clip-path="url(#clip402)" cx="831.896" cy="714.129" r="7.2" fill="#009af9" fill-rule="evenodd" fill-opacity="1" stroke="#000000" stroke-opacity="1" stroke-width="3.2"/>
<circle clip-path="url(#clip402)" cx="752.082" cy="869.741" r="7.2" fill="#009af9" fill-rule="evenodd" fill-opacity="1" stroke="#000000" stroke-opacity="1" stroke-width="3.2"/>
<circle clip-path="url(#clip402)" cx="757.102" cy="877.773" r="7.2" fill="#009af9" fill-rule="evenodd" fill-opacity="1" stroke="#000000" stroke-opacity="1" stroke-width="3.2"/>
<circle clip-path="url(#clip402)" cx="867.034" cy="913.915" r="7.2" fill="#009af9" fill-rule="evenodd" fill-opacity="1" stroke="#000000" stroke-opacity="1" stroke-width="3.2"/>
<circle clip-path="url(#clip402)" cx="1091.42" cy="803.481" r="7.2" fill="#009af9" fill-rule="evenodd" fill-opacity="1" stroke="#000000" stroke-opacity="1" stroke-width="3.2"/>
<circle clip-path="url(#clip402)" cx="1153.66" cy="906.386" r="7.2" fill="#009af9" fill-rule="evenodd" fill-opacity="1" stroke="#000000" stroke-opacity="1" stroke-width="3.2"/>
<circle clip-path="url(#clip402)" cx="1024.15" cy="1082.58" r="7.2" fill="#009af9" fill-rule="evenodd" fill-opacity="1" stroke="#000000" stroke-opacity="1" stroke-width="3.2"/>
<circle clip-path="url(#clip402)" cx="779.691" cy="1182.47" r="7.2" fill="#009af9" fill-rule="evenodd" fill-opacity="1" stroke="#000000" stroke-opacity="1" stroke-width="3.2"/>
<circle clip-path="url(#clip402)" cx="723.971" cy="1060.49" r="7.2" fill="#009af9" fill-rule="evenodd" fill-opacity="1" stroke="#000000" stroke-opacity="1" stroke-width="3.2"/>
<circle clip-path="url(#clip402)" cx="818.343" cy="1007.28" r="7.2" fill="#009af9" fill-rule="evenodd" fill-opacity="1" stroke="#000000" stroke-opacity="1" stroke-width="3.2"/>
<circle clip-path="url(#clip402)" cx="833.904" cy="1021.84" r="7.2" fill="#009af9" fill-rule="evenodd" fill-opacity="1" stroke="#000000" stroke-opacity="1" stroke-width="3.2"/>
<circle clip-path="url(#clip402)" cx="847.457" cy="1049.95" r="7.2" fill="#009af9" fill-rule="evenodd" fill-opacity="1" stroke="#000000" stroke-opacity="1" stroke-width="3.2"/>
<circle clip-path="url(#clip402)" cx="798.264" cy="1084.59" r="7.2" fill="#009af9" fill-rule="evenodd" fill-opacity="1" stroke="#000000" stroke-opacity="1" stroke-width="3.2"/>
<circle clip-path="url(#clip402)" cx="774.671" cy="1077.56" r="7.2" fill="#009af9" fill-rule="evenodd" fill-opacity="1" stroke="#000000" stroke-opacity="1" stroke-width="3.2"/>
<circle clip-path="url(#clip402)" cx="720.457" cy="1100.15" r="7.2" fill="#009af9" fill-rule="evenodd" fill-opacity="1" stroke="#000000" stroke-opacity="1" stroke-width="3.2"/>
<circle clip-path="url(#clip402)" cx="678.292" cy="1143.32" r="7.2" fill="#009af9" fill-rule="evenodd" fill-opacity="1" stroke="#000000" stroke-opacity="1" stroke-width="3.2"/>
<circle clip-path="url(#clip402)" cx="637.632" cy="1181.47" r="7.2" fill="#009af9" fill-rule="evenodd" fill-opacity="1" stroke="#000000" stroke-opacity="1" stroke-width="3.2"/>
<circle clip-path="url(#clip402)" cx="423.288" cy="1126.25" r="7.2" fill="#009af9" fill-rule="evenodd" fill-opacity="1" stroke="#000000" stroke-opacity="1" stroke-width="3.2"/>
<circle clip-path="url(#clip402)" cx="437.845" cy="943.532" r="7.2" fill="#009af9" fill-rule="evenodd" fill-opacity="1" stroke="#000000" stroke-opacity="1" stroke-width="3.2"/>
<circle clip-path="url(#clip402)" cx="417.264" cy="888.816" r="7.2" fill="#009af9" fill-rule="evenodd" fill-opacity="1" stroke="#000000" stroke-opacity="1" stroke-width="3.2"/>
<circle clip-path="url(#clip402)" cx="515.15" cy="821.05" r="7.2" fill="#009af9" fill-rule="evenodd" fill-opacity="1" stroke="#000000" stroke-opacity="1" stroke-width="3.2"/>
<circle clip-path="url(#clip402)" cx="700.378" cy="818.54" r="7.2" fill="#009af9" fill-rule="evenodd" fill-opacity="1" stroke="#000000" stroke-opacity="1" stroke-width="3.2"/>
<circle clip-path="url(#clip402)" cx="707.406" cy="846.651" r="7.2" fill="#009af9" fill-rule="evenodd" fill-opacity="1" stroke="#000000" stroke-opacity="1" stroke-width="3.2"/>
<circle clip-path="url(#clip402)" cx="708.41" cy="899.86" r="7.2" fill="#009af9" fill-rule="evenodd" fill-opacity="1" stroke="#000000" stroke-opacity="1" stroke-width="3.2"/>
<circle clip-path="url(#clip402)" cx="735.015" cy="920.943" r="7.2" fill="#009af9" fill-rule="evenodd" fill-opacity="1" stroke="#000000" stroke-opacity="1" stroke-width="3.2"/>
<circle clip-path="url(#clip402)" cx="861.513" cy="800.971" r="7.2" fill="#009af9" fill-rule="evenodd" fill-opacity="1" stroke="#000000" stroke-opacity="1" stroke-width="3.2"/>
<circle clip-path="url(#clip402)" cx="972.449" cy="752.781" r="7.2" fill="#009af9" fill-rule="evenodd" fill-opacity="1" stroke="#000000" stroke-opacity="1" stroke-width="3.2"/>
<circle clip-path="url(#clip402)" cx="1018.13" cy="684.512" r="7.2" fill="#009af9" fill-rule="evenodd" fill-opacity="1" stroke="#000000" stroke-opacity="1" stroke-width="3.2"/>
<circle clip-path="url(#clip402)" cx="1149.65" cy="455.612" r="7.2" fill="#009af9" fill-rule="evenodd" fill-opacity="1" stroke="#000000" stroke-opacity="1" stroke-width="3.2"/>
<circle clip-path="url(#clip402)" cx="1239" cy="367.264" r="7.2" fill="#009af9" fill-rule="evenodd" fill-opacity="1" stroke="#000000" stroke-opacity="1" stroke-width="3.2"/>
<circle clip-path="url(#clip402)" cx="1402.64" cy="295.984" r="7.2" fill="#009af9" fill-rule="evenodd" fill-opacity="1" stroke="#000000" stroke-opacity="1" stroke-width="3.2"/>
<circle clip-path="url(#clip402)" cx="1476.93" cy="258.335" r="7.2" fill="#009af9" fill-rule="evenodd" fill-opacity="1" stroke="#000000" stroke-opacity="1" stroke-width="3.2"/>
<circle clip-path="url(#clip402)" cx="1597.41" cy="278.414" r="7.2" fill="#009af9" fill-rule="evenodd" fill-opacity="1" stroke="#000000" stroke-opacity="1" stroke-width="3.2"/>
<circle clip-path="url(#clip402)" cx="1875" cy="321.584" r="7.2" fill="#009af9" fill-rule="evenodd" fill-opacity="1" stroke="#000000" stroke-opacity="1" stroke-width="3.2"/>
<circle clip-path="url(#clip402)" cx="1868.48" cy="399.39" r="7.2" fill="#009af9" fill-rule="evenodd" fill-opacity="1" stroke="#000000" stroke-opacity="1" stroke-width="3.2"/>
<circle clip-path="url(#clip402)" cx="1871.49" cy="436.537" r="7.2" fill="#009af9" fill-rule="evenodd" fill-opacity="1" stroke="#000000" stroke-opacity="1" stroke-width="3.2"/>
<circle clip-path="url(#clip402)" cx="1861.45" cy="463.141" r="7.2" fill="#009af9" fill-rule="evenodd" fill-opacity="1" stroke="#000000" stroke-opacity="1" stroke-width="3.2"/>
<circle clip-path="url(#clip402)" cx="1788.66" cy="504.303" r="7.2" fill="#009af9" fill-rule="evenodd" fill-opacity="1" stroke="#000000" stroke-opacity="1" stroke-width="3.2"/>
<circle clip-path="url(#clip402)" cx="1739.47" cy="497.778" r="7.2" fill="#009af9" fill-rule="evenodd" fill-opacity="1" stroke="#000000" stroke-opacity="1" stroke-width="3.2"/>
<circle clip-path="url(#clip402)" cx="1577.83" cy="447.58" r="7.2" fill="#009af9" fill-rule="evenodd" fill-opacity="1" stroke="#000000" stroke-opacity="1" stroke-width="3.2"/>
<circle clip-path="url(#clip402)" cx="1537.67" cy="464.647" r="7.2" fill="#009af9" fill-rule="evenodd" fill-opacity="1" stroke="#000000" stroke-opacity="1" stroke-width="3.2"/>
<circle clip-path="url(#clip402)" cx="1436.78" cy="546.971" r="7.2" fill="#009af9" fill-rule="evenodd" fill-opacity="1" stroke="#000000" stroke-opacity="1" stroke-width="3.2"/>
<circle clip-path="url(#clip402)" cx="1442.3" cy="568.054" r="7.2" fill="#009af9" fill-rule="evenodd" fill-opacity="1" stroke="#000000" stroke-opacity="1" stroke-width="3.2"/>
<circle clip-path="url(#clip402)" cx="1471.91" cy="670.959" r="7.2" fill="#009af9" fill-rule="evenodd" fill-opacity="1" stroke="#000000" stroke-opacity="1" stroke-width="3.2"/>
<circle clip-path="url(#clip402)" cx="1409.67" cy="745.753" r="7.2" fill="#009af9" fill-rule="evenodd" fill-opacity="1" stroke="#000000" stroke-opacity="1" stroke-width="3.2"/>
<circle clip-path="url(#clip402)" cx="1360.98" cy="729.188" r="7.2" fill="#009af9" fill-rule="evenodd" fill-opacity="1" stroke="#000000" stroke-opacity="1" stroke-width="3.2"/>
<circle clip-path="url(#clip402)" cx="1288.69" cy="533.92" r="7.2" fill="#009af9" fill-rule="evenodd" fill-opacity="1" stroke="#000000" stroke-opacity="1" stroke-width="3.2"/>
<circle clip-path="url(#clip402)" cx="1346.92" cy="503.299" r="7.2" fill="#009af9" fill-rule="evenodd" fill-opacity="1" stroke="#000000" stroke-opacity="1" stroke-width="3.2"/>
<circle clip-path="url(#clip402)" cx="1344.41" cy="419.469" r="7.2" fill="#009af9" fill-rule="evenodd" fill-opacity="1" stroke="#000000" stroke-opacity="1" stroke-width="3.2"/>
<circle clip-path="url(#clip402)" cx="1361.48" cy="356.723" r="7.2" fill="#009af9" fill-rule="evenodd" fill-opacity="1" stroke="#000000" stroke-opacity="1" stroke-width="3.2"/>
<circle clip-path="url(#clip402)" cx="1479.95" cy="270.383" r="7.2" fill="#009af9" fill-rule="evenodd" fill-opacity="1" stroke="#000000" stroke-opacity="1" stroke-width="3.2"/>
<circle clip-path="url(#clip402)" cx="1555.74" cy="314.055" r="7.2" fill="#009af9" fill-rule="evenodd" fill-opacity="1" stroke="#000000" stroke-opacity="1" stroke-width="3.2"/>
<circle clip-path="url(#clip402)" cx="1503.54" cy="408.928" r="7.2" fill="#009af9" fill-rule="evenodd" fill-opacity="1" stroke="#000000" stroke-opacity="1" stroke-width="3.2"/>
<circle clip-path="url(#clip402)" cx="1572.31" cy="597.169" r="7.2" fill="#009af9" fill-rule="evenodd" fill-opacity="1" stroke="#000000" stroke-opacity="1" stroke-width="3.2"/>
<circle clip-path="url(#clip402)" cx="1643.09" cy="574.078" r="7.2" fill="#009af9" fill-rule="evenodd" fill-opacity="1" stroke="#000000" stroke-opacity="1" stroke-width="3.2"/>
<circle clip-path="url(#clip402)" cx="1665.18" cy="557.513" r="7.2" fill="#009af9" fill-rule="evenodd" fill-opacity="1" stroke="#000000" stroke-opacity="1" stroke-width="3.2"/>
<circle clip-path="url(#clip402)" cx="1708.35" cy="591.145" r="7.2" fill="#009af9" fill-rule="evenodd" fill-opacity="1" stroke="#000000" stroke-opacity="1" stroke-width="3.2"/>
<circle clip-path="url(#clip402)" cx="1646.6" cy="834.101" r="7.2" fill="#009af9" fill-rule="evenodd" fill-opacity="1" stroke="#000000" stroke-opacity="1" stroke-width="3.2"/>
<circle clip-path="url(#clip402)" cx="1639.57" cy="871.749" r="7.2" fill="#009af9" fill-rule="evenodd" fill-opacity="1" stroke="#000000" stroke-opacity="1" stroke-width="3.2"/>
<circle clip-path="url(#clip402)" cx="1609.46" cy="1141.81" r="7.2" fill="#009af9" fill-rule="evenodd" fill-opacity="1" stroke="#000000" stroke-opacity="1" stroke-width="3.2"/>
<circle clip-path="url(#clip402)" cx="1572.31" cy="1163.4" r="7.2" fill="#009af9" fill-rule="evenodd" fill-opacity="1" stroke="#000000" stroke-opacity="1" stroke-width="3.2"/>
<circle clip-path="url(#clip402)" cx="1431.25" cy="1090.61" r="7.2" fill="#009af9" fill-rule="evenodd" fill-opacity="1" stroke="#000000" stroke-opacity="1" stroke-width="3.2"/>
<circle clip-path="url(#clip402)" cx="1259.08" cy="1207.07" r="7.2" fill="#009af9" fill-rule="evenodd" fill-opacity="1" stroke="#000000" stroke-opacity="1" stroke-width="3.2"/>
<circle clip-path="url(#clip402)" cx="1209.38" cy="1191.51" r="7.2" fill="#009af9" fill-rule="evenodd" fill-opacity="1" stroke="#000000" stroke-opacity="1" stroke-width="3.2"/>
<circle clip-path="url(#clip402)" cx="1206.87" cy="1182.97" r="7.2" fill="#009af9" fill-rule="evenodd" fill-opacity="1" stroke="#000000" stroke-opacity="1" stroke-width="3.2"/>
<circle clip-path="url(#clip402)" cx="1254.06" cy="1137.8" r="7.2" fill="#009af9" fill-rule="evenodd" fill-opacity="1" stroke="#000000" stroke-opacity="1" stroke-width="3.2"/>
<circle clip-path="url(#clip402)" cx="1344.91" cy="1027.36" r="7.2" fill="#009af9" fill-rule="evenodd" fill-opacity="1" stroke="#000000" stroke-opacity="1" stroke-width="3.2"/>
<circle clip-path="url(#clip402)" cx="1501.53" cy="915.421" r="7.2" fill="#009af9" fill-rule="evenodd" fill-opacity="1" stroke="#000000" stroke-opacity="1" stroke-width="3.2"/>
<circle clip-path="url(#clip402)" cx="1570.8" cy="906.386" r="7.2" fill="#009af9" fill-rule="evenodd" fill-opacity="1" stroke="#000000" stroke-opacity="1" stroke-width="3.2"/>
<circle clip-path="url(#clip402)" cx="1712.36" cy="996.741" r="7.2" fill="#009af9" fill-rule="evenodd" fill-opacity="1" stroke="#000000" stroke-opacity="1" stroke-width="3.2"/>
<circle clip-path="url(#clip402)" cx="1711.36" cy="1018.33" r="7.2" fill="#009af9" fill-rule="evenodd" fill-opacity="1" stroke="#000000" stroke-opacity="1" stroke-width="3.2"/>
<circle clip-path="url(#clip402)" cx="1810.75" cy="1217.11" r="7.2" fill="#009af9" fill-rule="evenodd" fill-opacity="1" stroke="#000000" stroke-opacity="1" stroke-width="3.2"/>
<circle clip-path="url(#clip402)" cx="1846.39" cy="1236.18" r="7.2" fill="#009af9" fill-rule="evenodd" fill-opacity="1" stroke="#000000" stroke-opacity="1" stroke-width="3.2"/>
<circle clip-path="url(#clip402)" cx="2038.64" cy="1197.53" r="7.2" fill="#009af9" fill-rule="evenodd" fill-opacity="1" stroke="#000000" stroke-opacity="1" stroke-width="3.2"/>
<circle clip-path="url(#clip402)" cx="2105.41" cy="897.35" r="7.2" fill="#009af9" fill-rule="evenodd" fill-opacity="1" stroke="#000000" stroke-opacity="1" stroke-width="3.2"/>
<circle clip-path="url(#clip402)" cx="2019.57" cy="844.141" r="7.2" fill="#009af9" fill-rule="evenodd" fill-opacity="1" stroke="#000000" stroke-opacity="1" stroke-width="3.2"/>
<circle clip-path="url(#clip402)" cx="1884.54" cy="1031.88" r="7.2" fill="#009af9" fill-rule="evenodd" fill-opacity="1" stroke="#000000" stroke-opacity="1" stroke-width="3.2"/>
<circle clip-path="url(#clip402)" cx="1817.27" cy="1129.26" r="7.2" fill="#009af9" fill-rule="evenodd" fill-opacity="1" stroke="#000000" stroke-opacity="1" stroke-width="3.2"/>
<circle clip-path="url(#clip402)" cx="1831.83" cy="1141.81" r="7.2" fill="#009af9" fill-rule="evenodd" fill-opacity="1" stroke="#000000" stroke-opacity="1" stroke-width="3.2"/>
<circle clip-path="url(#clip402)" cx="1839.86" cy="1160.39" r="7.2" fill="#009af9" fill-rule="evenodd" fill-opacity="1" stroke="#000000" stroke-opacity="1" stroke-width="3.2"/>
<circle clip-path="url(#clip402)" cx="1871.99" cy="1149.84" r="7.2" fill="#009af9" fill-rule="evenodd" fill-opacity="1" stroke="#000000" stroke-opacity="1" stroke-width="3.2"/>
<circle clip-path="url(#clip402)" cx="1937.75" cy="1045.93" r="7.2" fill="#009af9" fill-rule="evenodd" fill-opacity="1" stroke="#000000" stroke-opacity="1" stroke-width="3.2"/>
<circle clip-path="url(#clip402)" cx="1947.29" cy="1046.94" r="7.2" fill="#009af9" fill-rule="evenodd" fill-opacity="1" stroke="#000000" stroke-opacity="1" stroke-width="3.2"/>
<circle clip-path="url(#clip402)" cx="1971.38" cy="990.215" r="7.2" fill="#009af9" fill-rule="evenodd" fill-opacity="1" stroke="#000000" stroke-opacity="1" stroke-width="3.2"/>
<circle clip-path="url(#clip402)" cx="1961.84" cy="835.607" r="7.2" fill="#009af9" fill-rule="evenodd" fill-opacity="1" stroke="#000000" stroke-opacity="1" stroke-width="3.2"/>
<circle clip-path="url(#clip402)" cx="2020.07" cy="720.655" r="7.2" fill="#009af9" fill-rule="evenodd" fill-opacity="1" stroke="#000000" stroke-opacity="1" stroke-width="3.2"/>
<circle clip-path="url(#clip402)" cx="2062.74" cy="723.165" r="7.2" fill="#009af9" fill-rule="evenodd" fill-opacity="1" stroke="#000000" stroke-opacity="1" stroke-width="3.2"/>
<circle clip-path="url(#clip402)" cx="2146.57" cy="725.674" r="7.2" fill="#009af9" fill-rule="evenodd" fill-opacity="1" stroke="#000000" stroke-opacity="1" stroke-width="3.2"/>
<circle clip-path="url(#clip402)" cx="2175.68" cy="693.548" r="7.2" fill="#009af9" fill-rule="evenodd" fill-opacity="1" stroke="#000000" stroke-opacity="1" stroke-width="3.2"/>
<circle clip-path="url(#clip402)" cx="2141.05" cy="647.366" r="7.2" fill="#009af9" fill-rule="evenodd" fill-opacity="1" stroke="#000000" stroke-opacity="1" stroke-width="3.2"/>
<circle clip-path="url(#clip402)" cx="2034.63" cy="613.734" r="7.2" fill="#009af9" fill-rule="evenodd" fill-opacity="1" stroke="#000000" stroke-opacity="1" stroke-width="3.2"/>
<circle clip-path="url(#clip402)" cx="1929.21" cy="692.042" r="7.2" fill="#009af9" fill-rule="evenodd" fill-opacity="1" stroke="#000000" stroke-opacity="1" stroke-width="3.2"/>
<circle clip-path="url(#clip402)" cx="1909.64" cy="702.584" r="7.2" fill="#009af9" fill-rule="evenodd" fill-opacity="1" stroke="#000000" stroke-opacity="1" stroke-width="3.2"/>
<circle clip-path="url(#clip402)" cx="1852.91" cy="628.793" r="7.2" fill="#009af9" fill-rule="evenodd" fill-opacity="1" stroke="#000000" stroke-opacity="1" stroke-width="3.2"/>
<circle clip-path="url(#clip402)" cx="1942.27" cy="545.967" r="7.2" fill="#009af9" fill-rule="evenodd" fill-opacity="1" stroke="#000000" stroke-opacity="1" stroke-width="3.2"/>
<circle clip-path="url(#clip402)" cx="2005.01" cy="484.726" r="7.2" fill="#009af9" fill-rule="evenodd" fill-opacity="1" stroke="#000000" stroke-opacity="1" stroke-width="3.2"/>
<circle clip-path="url(#clip402)" cx="2191.75" cy="462.639" r="7.2" fill="#009af9" fill-rule="evenodd" fill-opacity="1" stroke="#000000" stroke-opacity="1" stroke-width="3.2"/>
<circle clip-path="url(#clip402)" cx="2250.48" cy="377.304" r="7.2" fill="#009af9" fill-rule="evenodd" fill-opacity="1" stroke="#000000" stroke-opacity="1" stroke-width="3.2"/>
<circle clip-path="url(#clip402)" cx="2116.45" cy="278.414" r="7.2" fill="#009af9" fill-rule="evenodd" fill-opacity="1" stroke="#000000" stroke-opacity="1" stroke-width="3.2"/>
<circle clip-path="url(#clip402)" cx="2072.78" cy="290.462" r="7.2" fill="#009af9" fill-rule="evenodd" fill-opacity="1" stroke="#000000" stroke-opacity="1" stroke-width="3.2"/>
<circle clip-path="url(#clip402)" cx="2027.6" cy="274.399" r="7.2" fill="#009af9" fill-rule="evenodd" fill-opacity="1" stroke="#000000" stroke-opacity="1" stroke-width="3.2"/>
<circle clip-path="url(#clip402)" cx="1979.91" cy="292.47" r="7.2" fill="#009af9" fill-rule="evenodd" fill-opacity="1" stroke="#000000" stroke-opacity="1" stroke-width="3.2"/>
<circle clip-path="url(#clip402)" cx="2002.5" cy="386.841" r="7.2" fill="#009af9" fill-rule="evenodd" fill-opacity="1" stroke="#000000" stroke-opacity="1" stroke-width="3.2"/>
<circle clip-path="url(#clip402)" cx="2098.88" cy="396.881" r="7.2" fill="#009af9" fill-rule="evenodd" fill-opacity="1" stroke="#000000" stroke-opacity="1" stroke-width="3.2"/>
<circle clip-path="url(#clip402)" cx="2174.68" cy="421.477" r="7.2" fill="#009af9" fill-rule="evenodd" fill-opacity="1" stroke="#000000" stroke-opacity="1" stroke-width="3.2"/>
<circle clip-path="url(#clip402)" cx="2221.87" cy="533.418" r="7.2" fill="#009af9" fill-rule="evenodd" fill-opacity="1" stroke="#000000" stroke-opacity="1" stroke-width="3.2"/>
<circle clip-path="url(#clip402)" cx="2227.89" cy="546.469" r="7.2" fill="#009af9" fill-rule="evenodd" fill-opacity="1" stroke="#000000" stroke-opacity="1" stroke-width="3.2"/>
<circle clip-path="url(#clip402)" cx="2188.23" cy="640.339" r="7.2" fill="#009af9" fill-rule="evenodd" fill-opacity="1" stroke="#000000" stroke-opacity="1" stroke-width="3.2"/>
<circle clip-path="url(#clip402)" cx="2236.42" cy="684.01" r="7.2" fill="#009af9" fill-rule="evenodd" fill-opacity="1" stroke="#000000" stroke-opacity="1" stroke-width="3.2"/>
<circle clip-path="url(#clip402)" cx="2241.44" cy="753.283" r="7.2" fill="#009af9" fill-rule="evenodd" fill-opacity="1" stroke="#000000" stroke-opacity="1" stroke-width="3.2"/>
<circle clip-path="url(#clip402)" cx="2225.38" cy="791.935" r="7.2" fill="#009af9" fill-rule="evenodd" fill-opacity="1" stroke="#000000" stroke-opacity="1" stroke-width="3.2"/>
<circle clip-path="url(#clip402)" cx="2226.89" cy="862.212" r="7.2" fill="#009af9" fill-rule="evenodd" fill-opacity="1" stroke="#000000" stroke-opacity="1" stroke-width="3.2"/>
<circle clip-path="url(#clip402)" cx="2293.65" cy="915.421" r="7.2" fill="#009af9" fill-rule="evenodd" fill-opacity="1" stroke="#000000" stroke-opacity="1" stroke-width="3.2"/>
</svg>
