<?xml version="1.0" encoding="utf-8"?>
<svg xmlns="http://www.w3.org/2000/svg" xmlns:xlink="http://www.w3.org/1999/xlink" width="600" height="400" viewBox="0 0 2400 1600">
<defs>
  <clipPath id="clip430">
    <rect x="0" y="0" width="2400" height="1600"/>
  </clipPath>
</defs>
<path clip-path="url(#clip430)" d="
M0 1600 L2400 1600 L2400 0 L0 0  Z
  " fill="#ffffff" fill-rule="evenodd" fill-opacity="1"/>
<defs>
  <clipPath id="clip431">
    <rect x="480" y="0" width="1681" height="1600"/>
  </clipPath>
</defs>
<path clip-path="url(#clip430)" d="
M264.287 1423.18 L2352.76 1423.18 L2352.76 47.2441 L264.287 47.2441  Z
  " fill="#ffffff" fill-rule="evenodd" fill-opacity="1"/>
<defs>
  <clipPath id="clip432">
    <rect x="264" y="47" width="2089" height="1377"/>
  </clipPath>
</defs>
<polyline clip-path="url(#clip432)" style="stroke:#000000; stroke-linecap:round; stroke-linejoin:round; stroke-width:2; stroke-opacity:0.1; fill:none" points="
  321.896,1423.18 321.896,47.2441 
  "/>
<polyline clip-path="url(#clip432)" style="stroke:#000000; stroke-linecap:round; stroke-linejoin:round; stroke-width:2; stroke-opacity:0.1; fill:none" points="
  821.58,1423.18 821.58,47.2441 
  "/>
<polyline clip-path="url(#clip432)" style="stroke:#000000; stroke-linecap:round; stroke-linejoin:round; stroke-width:2; stroke-opacity:0.1; fill:none" points="
  1321.26,1423.18 1321.26,47.2441 
  "/>
<polyline clip-path="url(#clip432)" style="stroke:#000000; stroke-linecap:round; stroke-linejoin:round; stroke-width:2; stroke-opacity:0.1; fill:none" points="
  1820.95,1423.18 1820.95,47.2441 
  "/>
<polyline clip-path="url(#clip432)" style="stroke:#000000; stroke-linecap:round; stroke-linejoin:round; stroke-width:2; stroke-opacity:0.1; fill:none" points="
  2320.63,1423.18 2320.63,47.2441 
  "/>
<polyline clip-path="url(#clip430)" style="stroke:#000000; stroke-linecap:round; stroke-linejoin:round; stroke-width:4; stroke-opacity:1; fill:none" points="
  264.287,1423.18 2352.76,1423.18 
  "/>
<polyline clip-path="url(#clip430)" style="stroke:#000000; stroke-linecap:round; stroke-linejoin:round; stroke-width:4; stroke-opacity:1; fill:none" points="
  321.896,1423.18 321.896,1404.28 
  "/>
<polyline clip-path="url(#clip430)" style="stroke:#000000; stroke-linecap:round; stroke-linejoin:round; stroke-width:4; stroke-opacity:1; fill:none" points="
  821.58,1423.18 821.58,1404.28 
  "/>
<polyline clip-path="url(#clip430)" style="stroke:#000000; stroke-linecap:round; stroke-linejoin:round; stroke-width:4; stroke-opacity:1; fill:none" points="
  1321.26,1423.18 1321.26,1404.28 
  "/>
<polyline clip-path="url(#clip430)" style="stroke:#000000; stroke-linecap:round; stroke-linejoin:round; stroke-width:4; stroke-opacity:1; fill:none" points="
  1820.95,1423.18 1820.95,1404.28 
  "/>
<polyline clip-path="url(#clip430)" style="stroke:#000000; stroke-linecap:round; stroke-linejoin:round; stroke-width:4; stroke-opacity:1; fill:none" points="
  2320.63,1423.18 2320.63,1404.28 
  "/>
<path clip-path="url(#clip430)" d="M321.896 1454.1 Q318.285 1454.1 316.456 1457.66 Q314.651 1461.2 314.651 1468.33 Q314.651 1475.44 316.456 1479.01 Q318.285 1482.55 321.896 1482.55 Q325.53 1482.55 327.336 1479.01 Q329.164 1475.44 329.164 1468.33 Q329.164 1461.2 327.336 1457.66 Q325.53 1454.1 321.896 1454.1 M321.896 1450.39 Q327.706 1450.39 330.762 1455 Q333.84 1459.58 333.84 1468.33 Q333.84 1477.06 330.762 1481.67 Q327.706 1486.25 321.896 1486.25 Q316.086 1486.25 313.007 1481.67 Q309.951 1477.06 309.951 1468.33 Q309.951 1459.58 313.007 1455 Q316.086 1450.39 321.896 1450.39 Z" fill="#000000" fill-rule="evenodd" fill-opacity="1" /><path clip-path="url(#clip430)" d="M766.105 1481.64 L773.744 1481.64 L773.744 1455.28 L765.434 1456.95 L765.434 1452.69 L773.698 1451.02 L778.374 1451.02 L778.374 1481.64 L786.013 1481.64 L786.013 1485.58 L766.105 1485.58 L766.105 1481.64 Z" fill="#000000" fill-rule="evenodd" fill-opacity="1" /><path clip-path="url(#clip430)" d="M805.457 1454.1 Q801.846 1454.1 800.017 1457.66 Q798.212 1461.2 798.212 1468.33 Q798.212 1475.44 800.017 1479.01 Q801.846 1482.55 805.457 1482.55 Q809.091 1482.55 810.897 1479.01 Q812.726 1475.44 812.726 1468.33 Q812.726 1461.2 810.897 1457.66 Q809.091 1454.1 805.457 1454.1 M805.457 1450.39 Q811.267 1450.39 814.323 1455 Q817.401 1459.58 817.401 1468.33 Q817.401 1477.06 814.323 1481.67 Q811.267 1486.25 805.457 1486.25 Q799.647 1486.25 796.568 1481.67 Q793.513 1477.06 793.513 1468.33 Q793.513 1459.58 796.568 1455 Q799.647 1450.39 805.457 1450.39 Z" fill="#000000" fill-rule="evenodd" fill-opacity="1" /><path clip-path="url(#clip430)" d="M835.619 1454.1 Q832.008 1454.1 830.179 1457.66 Q828.374 1461.2 828.374 1468.33 Q828.374 1475.44 830.179 1479.01 Q832.008 1482.55 835.619 1482.55 Q839.253 1482.55 841.059 1479.01 Q842.887 1475.44 842.887 1468.33 Q842.887 1461.2 841.059 1457.66 Q839.253 1454.1 835.619 1454.1 M835.619 1450.39 Q841.429 1450.39 844.485 1455 Q847.563 1459.58 847.563 1468.33 Q847.563 1477.06 844.485 1481.67 Q841.429 1486.25 835.619 1486.25 Q829.809 1486.25 826.73 1481.67 Q823.675 1477.06 823.675 1468.33 Q823.675 1459.58 826.73 1455 Q829.809 1450.39 835.619 1450.39 Z" fill="#000000" fill-rule="evenodd" fill-opacity="1" /><path clip-path="url(#clip430)" d="M865.781 1454.1 Q862.17 1454.1 860.341 1457.66 Q858.536 1461.2 858.536 1468.33 Q858.536 1475.44 860.341 1479.01 Q862.17 1482.55 865.781 1482.55 Q869.415 1482.55 871.221 1479.01 Q873.049 1475.44 873.049 1468.33 Q873.049 1461.2 871.221 1457.66 Q869.415 1454.1 865.781 1454.1 M865.781 1450.39 Q871.591 1450.39 874.647 1455 Q877.725 1459.58 877.725 1468.33 Q877.725 1477.06 874.647 1481.67 Q871.591 1486.25 865.781 1486.25 Q859.971 1486.25 856.892 1481.67 Q853.836 1477.06 853.836 1468.33 Q853.836 1459.58 856.892 1455 Q859.971 1450.39 865.781 1450.39 Z" fill="#000000" fill-rule="evenodd" fill-opacity="1" /><path clip-path="url(#clip430)" d="M1269.87 1481.64 L1286.19 1481.64 L1286.19 1485.58 L1264.25 1485.58 L1264.25 1481.64 Q1266.91 1478.89 1271.5 1474.26 Q1276.1 1469.61 1277.28 1468.27 Q1279.53 1465.74 1280.41 1464.01 Q1281.31 1462.25 1281.31 1460.56 Q1281.31 1457.8 1279.37 1456.07 Q1277.44 1454.33 1274.34 1454.33 Q1272.14 1454.33 1269.69 1455.09 Q1267.26 1455.86 1264.48 1457.41 L1264.48 1452.69 Q1267.31 1451.55 1269.76 1450.97 Q1272.21 1450.39 1274.25 1450.39 Q1279.62 1450.39 1282.81 1453.08 Q1286.01 1455.77 1286.01 1460.26 Q1286.01 1462.39 1285.2 1464.31 Q1284.41 1466.2 1282.31 1468.8 Q1281.73 1469.47 1278.62 1472.69 Q1275.52 1475.88 1269.87 1481.64 Z" fill="#000000" fill-rule="evenodd" fill-opacity="1" /><path clip-path="url(#clip430)" d="M1306.01 1454.1 Q1302.4 1454.1 1300.57 1457.66 Q1298.76 1461.2 1298.76 1468.33 Q1298.76 1475.44 1300.57 1479.01 Q1302.4 1482.55 1306.01 1482.55 Q1309.64 1482.55 1311.45 1479.01 Q1313.28 1475.44 1313.28 1468.33 Q1313.28 1461.2 1311.45 1457.66 Q1309.64 1454.1 1306.01 1454.1 M1306.01 1450.39 Q1311.82 1450.39 1314.87 1455 Q1317.95 1459.58 1317.95 1468.33 Q1317.95 1477.06 1314.87 1481.67 Q1311.82 1486.25 1306.01 1486.25 Q1300.2 1486.25 1297.12 1481.67 Q1294.06 1477.06 1294.06 1468.33 Q1294.06 1459.58 1297.12 1455 Q1300.2 1450.39 1306.01 1450.39 Z" fill="#000000" fill-rule="evenodd" fill-opacity="1" /><path clip-path="url(#clip430)" d="M1336.17 1454.1 Q1332.56 1454.1 1330.73 1457.66 Q1328.93 1461.2 1328.93 1468.33 Q1328.93 1475.44 1330.73 1479.01 Q1332.56 1482.55 1336.17 1482.55 Q1339.81 1482.55 1341.61 1479.01 Q1343.44 1475.44 1343.44 1468.33 Q1343.44 1461.2 1341.61 1457.66 Q1339.81 1454.1 1336.17 1454.1 M1336.17 1450.39 Q1341.98 1450.39 1345.04 1455 Q1348.12 1459.58 1348.12 1468.33 Q1348.12 1477.06 1345.04 1481.67 Q1341.98 1486.25 1336.17 1486.25 Q1330.36 1486.25 1327.28 1481.67 Q1324.23 1477.06 1324.23 1468.33 Q1324.23 1459.58 1327.28 1455 Q1330.36 1450.39 1336.17 1450.39 Z" fill="#000000" fill-rule="evenodd" fill-opacity="1" /><path clip-path="url(#clip430)" d="M1366.33 1454.1 Q1362.72 1454.1 1360.89 1457.66 Q1359.09 1461.2 1359.09 1468.33 Q1359.09 1475.44 1360.89 1479.01 Q1362.72 1482.55 1366.33 1482.55 Q1369.97 1482.55 1371.77 1479.01 Q1373.6 1475.44 1373.6 1468.33 Q1373.6 1461.2 1371.77 1457.66 Q1369.97 1454.1 1366.33 1454.1 M1366.33 1450.39 Q1372.14 1450.39 1375.2 1455 Q1378.28 1459.58 1378.28 1468.33 Q1378.28 1477.06 1375.2 1481.67 Q1372.14 1486.25 1366.33 1486.25 Q1360.52 1486.25 1357.44 1481.67 Q1354.39 1477.06 1354.39 1468.33 Q1354.39 1459.58 1357.44 1455 Q1360.52 1450.39 1366.33 1450.39 Z" fill="#000000" fill-rule="evenodd" fill-opacity="1" /><path clip-path="url(#clip430)" d="M1779.63 1466.95 Q1782.98 1467.66 1784.86 1469.93 Q1786.76 1472.2 1786.76 1475.53 Q1786.76 1480.65 1783.24 1483.45 Q1779.72 1486.25 1773.24 1486.25 Q1771.06 1486.25 1768.75 1485.81 Q1766.46 1485.39 1764 1484.54 L1764 1480.02 Q1765.95 1481.16 1768.26 1481.74 Q1770.58 1482.32 1773.1 1482.32 Q1777.5 1482.32 1779.79 1480.58 Q1782.11 1478.84 1782.11 1475.53 Q1782.11 1472.48 1779.95 1470.77 Q1777.82 1469.03 1774 1469.03 L1769.98 1469.03 L1769.98 1465.19 L1774.19 1465.19 Q1777.64 1465.19 1779.47 1463.82 Q1781.29 1462.43 1781.29 1459.84 Q1781.29 1457.18 1779.4 1455.77 Q1777.52 1454.33 1774 1454.33 Q1772.08 1454.33 1769.88 1454.75 Q1767.68 1455.16 1765.04 1456.04 L1765.04 1451.88 Q1767.71 1451.14 1770.02 1450.77 Q1772.36 1450.39 1774.42 1450.39 Q1779.74 1450.39 1782.85 1452.83 Q1785.95 1455.23 1785.95 1459.35 Q1785.95 1462.22 1784.3 1464.21 Q1782.66 1466.18 1779.63 1466.95 Z" fill="#000000" fill-rule="evenodd" fill-opacity="1" /><path clip-path="url(#clip430)" d="M1805.62 1454.1 Q1802.01 1454.1 1800.18 1457.66 Q1798.38 1461.2 1798.38 1468.33 Q1798.38 1475.44 1800.18 1479.01 Q1802.01 1482.55 1805.62 1482.55 Q1809.26 1482.55 1811.06 1479.01 Q1812.89 1475.44 1812.89 1468.33 Q1812.89 1461.2 1811.06 1457.66 Q1809.26 1454.1 1805.62 1454.1 M1805.62 1450.39 Q1811.43 1450.39 1814.49 1455 Q1817.57 1459.58 1817.57 1468.33 Q1817.57 1477.06 1814.49 1481.67 Q1811.43 1486.25 1805.62 1486.25 Q1799.81 1486.25 1796.73 1481.67 Q1793.68 1477.06 1793.68 1468.33 Q1793.68 1459.58 1796.73 1455 Q1799.81 1450.39 1805.62 1450.39 Z" fill="#000000" fill-rule="evenodd" fill-opacity="1" /><path clip-path="url(#clip430)" d="M1835.79 1454.1 Q1832.17 1454.1 1830.35 1457.66 Q1828.54 1461.2 1828.54 1468.33 Q1828.54 1475.44 1830.35 1479.01 Q1832.17 1482.55 1835.79 1482.55 Q1839.42 1482.55 1841.23 1479.01 Q1843.05 1475.44 1843.05 1468.33 Q1843.05 1461.2 1841.23 1457.66 Q1839.42 1454.1 1835.79 1454.1 M1835.79 1450.39 Q1841.6 1450.39 1844.65 1455 Q1847.73 1459.58 1847.73 1468.33 Q1847.73 1477.06 1844.65 1481.67 Q1841.6 1486.25 1835.79 1486.25 Q1829.98 1486.25 1826.9 1481.67 Q1823.84 1477.06 1823.84 1468.33 Q1823.84 1459.58 1826.9 1455 Q1829.98 1450.39 1835.79 1450.39 Z" fill="#000000" fill-rule="evenodd" fill-opacity="1" /><path clip-path="url(#clip430)" d="M1865.95 1454.1 Q1862.34 1454.1 1860.51 1457.66 Q1858.7 1461.2 1858.7 1468.33 Q1858.7 1475.44 1860.51 1479.01 Q1862.34 1482.55 1865.95 1482.55 Q1869.58 1482.55 1871.39 1479.01 Q1873.22 1475.44 1873.22 1468.33 Q1873.22 1461.2 1871.39 1457.66 Q1869.58 1454.1 1865.95 1454.1 M1865.95 1450.39 Q1871.76 1450.39 1874.81 1455 Q1877.89 1459.58 1877.89 1468.33 Q1877.89 1477.06 1874.81 1481.67 Q1871.76 1486.25 1865.95 1486.25 Q1860.14 1486.25 1857.06 1481.67 Q1854 1477.06 1854 1468.33 Q1854 1459.58 1857.06 1455 Q1860.14 1450.39 1865.95 1450.39 Z" fill="#000000" fill-rule="evenodd" fill-opacity="1" /><path clip-path="url(#clip430)" d="M2278.64 1455.09 L2266.84 1473.54 L2278.64 1473.54 L2278.64 1455.09 M2277.41 1451.02 L2283.29 1451.02 L2283.29 1473.54 L2288.22 1473.54 L2288.22 1477.43 L2283.29 1477.43 L2283.29 1485.58 L2278.64 1485.58 L2278.64 1477.43 L2263.04 1477.43 L2263.04 1472.92 L2277.41 1451.02 Z" fill="#000000" fill-rule="evenodd" fill-opacity="1" /><path clip-path="url(#clip430)" d="M2305.96 1454.1 Q2302.34 1454.1 2300.52 1457.66 Q2298.71 1461.2 2298.71 1468.33 Q2298.71 1475.44 2300.52 1479.01 Q2302.34 1482.55 2305.96 1482.55 Q2309.59 1482.55 2311.4 1479.01 Q2313.22 1475.44 2313.22 1468.33 Q2313.22 1461.2 2311.4 1457.66 Q2309.59 1454.1 2305.96 1454.1 M2305.96 1450.39 Q2311.77 1450.39 2314.82 1455 Q2317.9 1459.58 2317.9 1468.33 Q2317.9 1477.06 2314.82 1481.67 Q2311.77 1486.25 2305.96 1486.25 Q2300.15 1486.25 2297.07 1481.67 Q2294.01 1477.06 2294.01 1468.33 Q2294.01 1459.58 2297.07 1455 Q2300.15 1450.39 2305.96 1450.39 Z" fill="#000000" fill-rule="evenodd" fill-opacity="1" /><path clip-path="url(#clip430)" d="M2336.12 1454.1 Q2332.51 1454.1 2330.68 1457.66 Q2328.87 1461.2 2328.87 1468.33 Q2328.87 1475.44 2330.68 1479.01 Q2332.51 1482.55 2336.12 1482.55 Q2339.75 1482.55 2341.56 1479.01 Q2343.39 1475.44 2343.39 1468.33 Q2343.39 1461.2 2341.56 1457.66 Q2339.75 1454.1 2336.12 1454.1 M2336.12 1450.39 Q2341.93 1450.39 2344.98 1455 Q2348.06 1459.58 2348.06 1468.33 Q2348.06 1477.06 2344.98 1481.67 Q2341.93 1486.25 2336.12 1486.25 Q2330.31 1486.25 2327.23 1481.67 Q2324.17 1477.06 2324.17 1468.33 Q2324.17 1459.58 2327.23 1455 Q2330.31 1450.39 2336.12 1450.39 Z" fill="#000000" fill-rule="evenodd" fill-opacity="1" /><path clip-path="url(#clip430)" d="M2366.28 1454.1 Q2362.67 1454.1 2360.84 1457.66 Q2359.03 1461.2 2359.03 1468.33 Q2359.03 1475.44 2360.84 1479.01 Q2362.67 1482.55 2366.28 1482.55 Q2369.91 1482.55 2371.72 1479.01 Q2373.55 1475.44 2373.55 1468.33 Q2373.55 1461.2 2371.72 1457.66 Q2369.91 1454.1 2366.28 1454.1 M2366.28 1450.39 Q2372.09 1450.39 2375.14 1455 Q2378.22 1459.58 2378.22 1468.33 Q2378.22 1477.06 2375.14 1481.67 Q2372.09 1486.25 2366.28 1486.25 Q2360.47 1486.25 2357.39 1481.67 Q2354.33 1477.06 2354.33 1468.33 Q2354.33 1459.58 2357.39 1455 Q2360.47 1450.39 2366.28 1450.39 Z" fill="#000000" fill-rule="evenodd" fill-opacity="1" /><path clip-path="url(#clip430)" d="M1325.14 1532.4 L1312.25 1549.74 L1325.8 1568.04 L1318.9 1568.04 L1308.52 1554.04 L1298.15 1568.04 L1291.24 1568.04 L1305.08 1549.39 L1292.42 1532.4 L1299.32 1532.4 L1308.78 1545.1 L1318.23 1532.4 L1325.14 1532.4 Z" fill="#000000" fill-rule="evenodd" fill-opacity="1" /><polyline clip-path="url(#clip432)" style="stroke:#000000; stroke-linecap:round; stroke-linejoin:round; stroke-width:2; stroke-opacity:0.1; fill:none" points="
  264.287,1239.39 2352.76,1239.39 
  "/>
<polyline clip-path="url(#clip432)" style="stroke:#000000; stroke-linecap:round; stroke-linejoin:round; stroke-width:2; stroke-opacity:0.1; fill:none" points="
  264.287,989.551 2352.76,989.551 
  "/>
<polyline clip-path="url(#clip432)" style="stroke:#000000; stroke-linecap:round; stroke-linejoin:round; stroke-width:2; stroke-opacity:0.1; fill:none" points="
  264.287,739.709 2352.76,739.709 
  "/>
<polyline clip-path="url(#clip432)" style="stroke:#000000; stroke-linecap:round; stroke-linejoin:round; stroke-width:2; stroke-opacity:0.1; fill:none" points="
  264.287,489.867 2352.76,489.867 
  "/>
<polyline clip-path="url(#clip432)" style="stroke:#000000; stroke-linecap:round; stroke-linejoin:round; stroke-width:2; stroke-opacity:0.1; fill:none" points="
  264.287,240.025 2352.76,240.025 
  "/>
<polyline clip-path="url(#clip430)" style="stroke:#000000; stroke-linecap:round; stroke-linejoin:round; stroke-width:4; stroke-opacity:1; fill:none" points="
  264.287,1423.18 264.287,47.2441 
  "/>
<polyline clip-path="url(#clip430)" style="stroke:#000000; stroke-linecap:round; stroke-linejoin:round; stroke-width:4; stroke-opacity:1; fill:none" points="
  264.287,1239.39 283.185,1239.39 
  "/>
<polyline clip-path="url(#clip430)" style="stroke:#000000; stroke-linecap:round; stroke-linejoin:round; stroke-width:4; stroke-opacity:1; fill:none" points="
  264.287,989.551 283.185,989.551 
  "/>
<polyline clip-path="url(#clip430)" style="stroke:#000000; stroke-linecap:round; stroke-linejoin:round; stroke-width:4; stroke-opacity:1; fill:none" points="
  264.287,739.709 283.185,739.709 
  "/>
<polyline clip-path="url(#clip430)" style="stroke:#000000; stroke-linecap:round; stroke-linejoin:round; stroke-width:4; stroke-opacity:1; fill:none" points="
  264.287,489.867 283.185,489.867 
  "/>
<polyline clip-path="url(#clip430)" style="stroke:#000000; stroke-linecap:round; stroke-linejoin:round; stroke-width:4; stroke-opacity:1; fill:none" points="
  264.287,240.025 283.185,240.025 
  "/>
<path clip-path="url(#clip430)" d="M216.343 1225.19 Q212.732 1225.19 210.903 1228.76 Q209.098 1232.3 209.098 1239.43 Q209.098 1246.53 210.903 1250.1 Q212.732 1253.64 216.343 1253.64 Q219.977 1253.64 221.783 1250.1 Q223.611 1246.53 223.611 1239.43 Q223.611 1232.3 221.783 1228.76 Q219.977 1225.19 216.343 1225.19 M216.343 1221.49 Q222.153 1221.49 225.209 1226.09 Q228.287 1230.68 228.287 1239.43 Q228.287 1248.15 225.209 1252.76 Q222.153 1257.34 216.343 1257.34 Q210.533 1257.34 207.454 1252.76 Q204.399 1248.15 204.399 1239.43 Q204.399 1230.68 207.454 1226.09 Q210.533 1221.49 216.343 1221.49 Z" fill="#000000" fill-rule="evenodd" fill-opacity="1" /><path clip-path="url(#clip430)" d="M146.066 972.271 L164.422 972.271 L164.422 976.206 L150.348 976.206 L150.348 984.678 Q151.366 984.331 152.385 984.169 Q153.403 983.984 154.422 983.984 Q160.209 983.984 163.589 987.155 Q166.968 990.327 166.968 995.743 Q166.968 1001.32 163.496 1004.42 Q160.024 1007.5 153.704 1007.5 Q151.528 1007.5 149.26 1007.13 Q147.015 1006.76 144.607 1006.02 L144.607 1001.32 Q146.691 1002.46 148.913 1003.01 Q151.135 1003.57 153.612 1003.57 Q157.616 1003.57 159.954 1001.46 Q162.292 999.354 162.292 995.743 Q162.292 992.132 159.954 990.026 Q157.616 987.919 153.612 987.919 Q151.737 987.919 149.862 988.336 Q148.01 988.752 146.066 989.632 L146.066 972.271 Z" fill="#000000" fill-rule="evenodd" fill-opacity="1" /><path clip-path="url(#clip430)" d="M186.181 975.35 Q182.57 975.35 180.741 978.915 Q178.936 982.456 178.936 989.586 Q178.936 996.692 180.741 1000.26 Q182.57 1003.8 186.181 1003.8 Q189.815 1003.8 191.621 1000.26 Q193.45 996.692 193.45 989.586 Q193.45 982.456 191.621 978.915 Q189.815 975.35 186.181 975.35 M186.181 971.646 Q191.991 971.646 195.047 976.253 Q198.125 980.836 198.125 989.586 Q198.125 998.313 195.047 1002.92 Q191.991 1007.5 186.181 1007.5 Q180.371 1007.5 177.292 1002.92 Q174.237 998.313 174.237 989.586 Q174.237 980.836 177.292 976.253 Q180.371 971.646 186.181 971.646 Z" fill="#000000" fill-rule="evenodd" fill-opacity="1" /><path clip-path="url(#clip430)" d="M216.343 975.35 Q212.732 975.35 210.903 978.915 Q209.098 982.456 209.098 989.586 Q209.098 996.692 210.903 1000.26 Q212.732 1003.8 216.343 1003.8 Q219.977 1003.8 221.783 1000.26 Q223.611 996.692 223.611 989.586 Q223.611 982.456 221.783 978.915 Q219.977 975.35 216.343 975.35 M216.343 971.646 Q222.153 971.646 225.209 976.253 Q228.287 980.836 228.287 989.586 Q228.287 998.313 225.209 1002.92 Q222.153 1007.5 216.343 1007.5 Q210.533 1007.5 207.454 1002.92 Q204.399 998.313 204.399 989.586 Q204.399 980.836 207.454 976.253 Q210.533 971.646 216.343 971.646 Z" fill="#000000" fill-rule="evenodd" fill-opacity="1" /><path clip-path="url(#clip430)" d="M116.668 753.054 L124.306 753.054 L124.306 726.688 L115.996 728.355 L115.996 724.096 L124.26 722.429 L128.936 722.429 L128.936 753.054 L136.575 753.054 L136.575 756.989 L116.668 756.989 L116.668 753.054 Z" fill="#000000" fill-rule="evenodd" fill-opacity="1" /><path clip-path="url(#clip430)" d="M156.019 725.508 Q152.408 725.508 150.579 729.073 Q148.774 732.614 148.774 739.744 Q148.774 746.85 150.579 750.415 Q152.408 753.957 156.019 753.957 Q159.653 753.957 161.459 750.415 Q163.288 746.85 163.288 739.744 Q163.288 732.614 161.459 729.073 Q159.653 725.508 156.019 725.508 M156.019 721.804 Q161.829 721.804 164.885 726.411 Q167.964 730.994 167.964 739.744 Q167.964 748.471 164.885 753.077 Q161.829 757.66 156.019 757.66 Q150.209 757.66 147.13 753.077 Q144.075 748.471 144.075 739.744 Q144.075 730.994 147.13 726.411 Q150.209 721.804 156.019 721.804 Z" fill="#000000" fill-rule="evenodd" fill-opacity="1" /><path clip-path="url(#clip430)" d="M186.181 725.508 Q182.57 725.508 180.741 729.073 Q178.936 732.614 178.936 739.744 Q178.936 746.85 180.741 750.415 Q182.57 753.957 186.181 753.957 Q189.815 753.957 191.621 750.415 Q193.45 746.85 193.45 739.744 Q193.45 732.614 191.621 729.073 Q189.815 725.508 186.181 725.508 M186.181 721.804 Q191.991 721.804 195.047 726.411 Q198.125 730.994 198.125 739.744 Q198.125 748.471 195.047 753.077 Q191.991 757.66 186.181 757.66 Q180.371 757.66 177.292 753.077 Q174.237 748.471 174.237 739.744 Q174.237 730.994 177.292 726.411 Q180.371 721.804 186.181 721.804 Z" fill="#000000" fill-rule="evenodd" fill-opacity="1" /><path clip-path="url(#clip430)" d="M216.343 725.508 Q212.732 725.508 210.903 729.073 Q209.098 732.614 209.098 739.744 Q209.098 746.85 210.903 750.415 Q212.732 753.957 216.343 753.957 Q219.977 753.957 221.783 750.415 Q223.611 746.85 223.611 739.744 Q223.611 732.614 221.783 729.073 Q219.977 725.508 216.343 725.508 M216.343 721.804 Q222.153 721.804 225.209 726.411 Q228.287 730.994 228.287 739.744 Q228.287 748.471 225.209 753.077 Q222.153 757.66 216.343 757.66 Q210.533 757.66 207.454 753.077 Q204.399 748.471 204.399 739.744 Q204.399 730.994 207.454 726.411 Q210.533 721.804 216.343 721.804 Z" fill="#000000" fill-rule="evenodd" fill-opacity="1" /><path clip-path="url(#clip430)" d="M116.668 503.212 L124.306 503.212 L124.306 476.846 L115.996 478.513 L115.996 474.254 L124.26 472.587 L128.936 472.587 L128.936 503.212 L136.575 503.212 L136.575 507.147 L116.668 507.147 L116.668 503.212 Z" fill="#000000" fill-rule="evenodd" fill-opacity="1" /><path clip-path="url(#clip430)" d="M146.066 472.587 L164.422 472.587 L164.422 476.522 L150.348 476.522 L150.348 484.995 Q151.366 484.647 152.385 484.485 Q153.403 484.3 154.422 484.3 Q160.209 484.3 163.589 487.471 Q166.968 490.643 166.968 496.059 Q166.968 501.638 163.496 504.74 Q160.024 507.818 153.704 507.818 Q151.528 507.818 149.26 507.448 Q147.015 507.078 144.607 506.337 L144.607 501.638 Q146.691 502.772 148.913 503.328 Q151.135 503.883 153.612 503.883 Q157.616 503.883 159.954 501.777 Q162.292 499.67 162.292 496.059 Q162.292 492.448 159.954 490.342 Q157.616 488.235 153.612 488.235 Q151.737 488.235 149.862 488.652 Q148.01 489.069 146.066 489.948 L146.066 472.587 Z" fill="#000000" fill-rule="evenodd" fill-opacity="1" /><path clip-path="url(#clip430)" d="M186.181 475.666 Q182.57 475.666 180.741 479.231 Q178.936 482.772 178.936 489.902 Q178.936 497.008 180.741 500.573 Q182.57 504.115 186.181 504.115 Q189.815 504.115 191.621 500.573 Q193.45 497.008 193.45 489.902 Q193.45 482.772 191.621 479.231 Q189.815 475.666 186.181 475.666 M186.181 471.962 Q191.991 471.962 195.047 476.569 Q198.125 481.152 198.125 489.902 Q198.125 498.629 195.047 503.235 Q191.991 507.818 186.181 507.818 Q180.371 507.818 177.292 503.235 Q174.237 498.629 174.237 489.902 Q174.237 481.152 177.292 476.569 Q180.371 471.962 186.181 471.962 Z" fill="#000000" fill-rule="evenodd" fill-opacity="1" /><path clip-path="url(#clip430)" d="M216.343 475.666 Q212.732 475.666 210.903 479.231 Q209.098 482.772 209.098 489.902 Q209.098 497.008 210.903 500.573 Q212.732 504.115 216.343 504.115 Q219.977 504.115 221.783 500.573 Q223.611 497.008 223.611 489.902 Q223.611 482.772 221.783 479.231 Q219.977 475.666 216.343 475.666 M216.343 471.962 Q222.153 471.962 225.209 476.569 Q228.287 481.152 228.287 489.902 Q228.287 498.629 225.209 503.235 Q222.153 507.818 216.343 507.818 Q210.533 507.818 207.454 503.235 Q204.399 498.629 204.399 489.902 Q204.399 481.152 207.454 476.569 Q210.533 471.962 216.343 471.962 Z" fill="#000000" fill-rule="evenodd" fill-opacity="1" /><path clip-path="url(#clip430)" d="M119.885 253.37 L136.204 253.37 L136.204 257.305 L114.26 257.305 L114.26 253.37 Q116.922 250.616 121.505 245.986 Q126.112 241.333 127.292 239.991 Q129.538 237.467 130.417 235.731 Q131.32 233.972 131.32 232.282 Q131.32 229.528 129.376 227.792 Q127.455 226.055 124.353 226.055 Q122.154 226.055 119.7 226.819 Q117.269 227.583 114.492 229.134 L114.492 224.412 Q117.316 223.278 119.769 222.699 Q122.223 222.12 124.26 222.12 Q129.63 222.12 132.825 224.805 Q136.019 227.491 136.019 231.981 Q136.019 234.111 135.209 236.032 Q134.422 237.93 132.316 240.523 Q131.737 241.194 128.635 244.412 Q125.533 247.606 119.885 253.37 Z" fill="#000000" fill-rule="evenodd" fill-opacity="1" /><path clip-path="url(#clip430)" d="M156.019 225.824 Q152.408 225.824 150.579 229.389 Q148.774 232.93 148.774 240.06 Q148.774 247.166 150.579 250.731 Q152.408 254.273 156.019 254.273 Q159.653 254.273 161.459 250.731 Q163.288 247.166 163.288 240.06 Q163.288 232.93 161.459 229.389 Q159.653 225.824 156.019 225.824 M156.019 222.12 Q161.829 222.12 164.885 226.727 Q167.964 231.31 167.964 240.06 Q167.964 248.787 164.885 253.393 Q161.829 257.977 156.019 257.977 Q150.209 257.977 147.13 253.393 Q144.075 248.787 144.075 240.06 Q144.075 231.31 147.13 226.727 Q150.209 222.12 156.019 222.12 Z" fill="#000000" fill-rule="evenodd" fill-opacity="1" /><path clip-path="url(#clip430)" d="M186.181 225.824 Q182.57 225.824 180.741 229.389 Q178.936 232.93 178.936 240.06 Q178.936 247.166 180.741 250.731 Q182.57 254.273 186.181 254.273 Q189.815 254.273 191.621 250.731 Q193.45 247.166 193.45 240.06 Q193.45 232.93 191.621 229.389 Q189.815 225.824 186.181 225.824 M186.181 222.12 Q191.991 222.12 195.047 226.727 Q198.125 231.31 198.125 240.06 Q198.125 248.787 195.047 253.393 Q191.991 257.977 186.181 257.977 Q180.371 257.977 177.292 253.393 Q174.237 248.787 174.237 240.06 Q174.237 231.31 177.292 226.727 Q180.371 222.12 186.181 222.12 Z" fill="#000000" fill-rule="evenodd" fill-opacity="1" /><path clip-path="url(#clip430)" d="M216.343 225.824 Q212.732 225.824 210.903 229.389 Q209.098 232.93 209.098 240.06 Q209.098 247.166 210.903 250.731 Q212.732 254.273 216.343 254.273 Q219.977 254.273 221.783 250.731 Q223.611 247.166 223.611 240.06 Q223.611 232.93 221.783 229.389 Q219.977 225.824 216.343 225.824 M216.343 222.12 Q222.153 222.12 225.209 226.727 Q228.287 231.31 228.287 240.06 Q228.287 248.787 225.209 253.393 Q222.153 257.977 216.343 257.977 Q210.533 257.977 207.454 253.393 Q204.399 248.787 204.399 240.06 Q204.399 231.31 207.454 226.727 Q210.533 222.12 216.343 222.12 Z" fill="#000000" fill-rule="evenodd" fill-opacity="1" /><path clip-path="url(#clip430)" d="M67.3143 733.525 Q73.68 736.008 75.6216 738.363 Q77.5631 740.718 77.5631 744.665 L77.5631 749.344 L72.6615 749.344 L72.6615 745.906 Q72.6615 743.487 71.5157 742.151 Q70.3699 740.814 66.1048 739.191 L63.4312 738.14 L28.3562 752.559 L28.3562 746.352 L56.238 735.212 L28.3562 724.072 L28.3562 717.865 L67.3143 733.525 Z" fill="#000000" fill-rule="evenodd" fill-opacity="1" /><polyline clip-path="url(#clip432)" style="stroke:#009af9; stroke-linecap:round; stroke-linejoin:round; stroke-width:4; stroke-opacity:1; fill:none" points="
  1428.2,251.518 1508.15,268.008 1534.13,314.478 1525.13,366.445 1499.15,455.889 1431.69,450.892 1416.7,450.392 1387.22,523.846 1336.25,646.768 1325.76,658.261 
  1321.26,684.744 1212.33,742.208 1183.85,776.186 1066.42,678.248 953.496,694.738 862.554,459.386 866.551,413.915 687.165,369.443 599.22,363.447 514.774,431.904 
  396.349,425.408 357.373,578.311 439.322,710.228 509.777,730.715 553.749,588.805 603.218,483.371 712.649,508.855 741.131,562.321 727.139,592.302 710.65,598.798 
  635.198,609.292 599.22,679.247 599.72,711.727 696.159,779.684 826.077,739.209 876.045,641.771 1032.95,578.811 1159.87,620.784 1170.86,592.802 1185.85,490.867 
  1205.34,450.892 1218.33,445.395 1335.25,371.942 1346.25,323.472 1318.27,313.978 1214.83,288.994 1169.86,278.001 1144.38,331.467 1137.38,368.944 1132.88,378.438 
  1084.41,433.903 912.522,313.479 802.592,292.492 674.673,277.502 607.215,249.02 518.771,268.008 323.395,331.467 361.871,473.378 410.34,544.832 418.335,634.776 
  442.32,705.231 522.269,749.703 521.27,814.662 470.802,932.087 441.82,930.089 407.342,982.555 345.381,1058.01 352.377,1198.92 453.812,1221.4 495.286,1113.47 
  504.78,1070 555.748,1079.99 551.75,1105.98 515.274,1139.96 515.274,1144.45 460.808,1156.95 422.832,1122.97 511.776,1000.54 532.762,968.564 668.676,963.567 
  712.149,904.605 769.613,887.116 812.086,815.661 820.081,768.691 832.073,758.697 911.023,755.199 928.012,784.681 1017.96,810.165 1123.39,886.616 1085.91,949.077 
  964.489,964.567 923.016,1047.01 957.494,1116.47 1079.92,1106.48 1090.41,1127.46 1302.28,1045.02 1507.15,1175.93 1611.58,1178.93 1636.06,1229.4 1829.44,1185.43 
  1850.93,1161.94 1882.41,1130.96 1966.86,1163.44 2089.78,1176.93 2118.26,1183.93 2203.71,1162.44 2231.19,1165.94 2293.65,1010.04 2289.65,981.556 2288.15,969.564 
  2254.67,891.113 2141.74,890.114 2120.26,982.555 2162.73,1017.03 2235.19,983.055 2268.66,868.628 2279.66,695.737 2258.67,657.261 2279.66,631.278 2272.66,517.849 
  2249.68,503.858 2088.28,683.745 2039.81,789.178 2005.83,844.143 2046.8,921.094 2120.76,1010.04 2072.29,1088.99 1901.9,1056.01 1851.93,1075 1818.45,1107.48 
  1649.06,1175.43 1628.07,1141.95 1617.08,1115.47 1785.47,997.046 1789.97,968.065 1721.01,913.099 1721.51,892.113 1736,852.138 1771.48,779.684 1811.95,765.193 
  1832.44,804.168 1850.93,849.14 1862.92,852.638 1862.92,865.629 1817.45,927.59 1792.97,923.593 1650.06,1059.51 1619.57,1065 1572.6,1063.5 1494.65,1045.52 
  1488.16,978.058 1476.17,922.094 1486.16,869.127 1691.03,689.241 1670.04,629.279 1640.56,620.285 1642.06,605.294 1824.45,477.875 1784.47,351.455 1930.88,267.508 
  1979.35,257.015 2078.28,293.991 2074.29,314.478 2029.32,335.965 1943.37,325.971 1944.87,286.996 2007.33,288.994 2047.3,241.025 2126.25,256.015 2211.7,307.483 
  2213.7,308.982 2237.68,326.471 2223.19,430.405 2158.23,478.874 1986.84,715.225 1887.41,668.254 1849.93,601.796 1890.9,539.336 1930.88,512.853 1877.91,425.408 
  1789.47,455.889 1738,483.871 1691.53,448.393 1565.61,479.874 1477.16,604.794 1432.69,744.706 1354.74,892.612 1235.82,833.65 1230.82,832.65 1204.34,893.612 
  1204.34,900.607 1235.32,1011.54 1127.39,1075.5 1091.91,1062.5 994.47,1035.52 830.074,1073 787.102,983.555 743.629,979.557 638.695,1092.49 595.223,1226.9 
  
  "/>
<circle clip-path="url(#clip432)" cx="1428.2" cy="251.518" r="7.2" fill="#009af9" fill-rule="evenodd" fill-opacity="1" stroke="#000000" stroke-opacity="1" stroke-width="3.2"/>
<circle clip-path="url(#clip432)" cx="1508.15" cy="268.008" r="7.2" fill="#009af9" fill-rule="evenodd" fill-opacity="1" stroke="#000000" stroke-opacity="1" stroke-width="3.2"/>
<circle clip-path="url(#clip432)" cx="1534.13" cy="314.478" r="7.2" fill="#009af9" fill-rule="evenodd" fill-opacity="1" stroke="#000000" stroke-opacity="1" stroke-width="3.2"/>
<circle clip-path="url(#clip432)" cx="1525.13" cy="366.445" r="7.2" fill="#009af9" fill-rule="evenodd" fill-opacity="1" stroke="#000000" stroke-opacity="1" stroke-width="3.2"/>
<circle clip-path="url(#clip432)" cx="1499.15" cy="455.889" r="7.2" fill="#009af9" fill-rule="evenodd" fill-opacity="1" stroke="#000000" stroke-opacity="1" stroke-width="3.2"/>
<circle clip-path="url(#clip432)" cx="1431.69" cy="450.892" r="7.2" fill="#009af9" fill-rule="evenodd" fill-opacity="1" stroke="#000000" stroke-opacity="1" stroke-width="3.2"/>
<circle clip-path="url(#clip432)" cx="1416.7" cy="450.392" r="7.2" fill="#009af9" fill-rule="evenodd" fill-opacity="1" stroke="#000000" stroke-opacity="1" stroke-width="3.2"/>
<circle clip-path="url(#clip432)" cx="1387.22" cy="523.846" r="7.2" fill="#009af9" fill-rule="evenodd" fill-opacity="1" stroke="#000000" stroke-opacity="1" stroke-width="3.2"/>
<circle clip-path="url(#clip432)" cx="1336.25" cy="646.768" r="7.2" fill="#009af9" fill-rule="evenodd" fill-opacity="1" stroke="#000000" stroke-opacity="1" stroke-width="3.2"/>
<circle clip-path="url(#clip432)" cx="1325.76" cy="658.261" r="7.2" fill="#009af9" fill-rule="evenodd" fill-opacity="1" stroke="#000000" stroke-opacity="1" stroke-width="3.2"/>
<circle clip-path="url(#clip432)" cx="1321.26" cy="684.744" r="7.2" fill="#009af9" fill-rule="evenodd" fill-opacity="1" stroke="#000000" stroke-opacity="1" stroke-width="3.2"/>
<circle clip-path="url(#clip432)" cx="1212.33" cy="742.208" r="7.2" fill="#009af9" fill-rule="evenodd" fill-opacity="1" stroke="#000000" stroke-opacity="1" stroke-width="3.2"/>
<circle clip-path="url(#clip432)" cx="1183.85" cy="776.186" r="7.2" fill="#009af9" fill-rule="evenodd" fill-opacity="1" stroke="#000000" stroke-opacity="1" stroke-width="3.2"/>
<circle clip-path="url(#clip432)" cx="1066.42" cy="678.248" r="7.2" fill="#009af9" fill-rule="evenodd" fill-opacity="1" stroke="#000000" stroke-opacity="1" stroke-width="3.2"/>
<circle clip-path="url(#clip432)" cx="953.496" cy="694.738" r="7.2" fill="#009af9" fill-rule="evenodd" fill-opacity="1" stroke="#000000" stroke-opacity="1" stroke-width="3.2"/>
<circle clip-path="url(#clip432)" cx="862.554" cy="459.386" r="7.2" fill="#009af9" fill-rule="evenodd" fill-opacity="1" stroke="#000000" stroke-opacity="1" stroke-width="3.2"/>
<circle clip-path="url(#clip432)" cx="866.551" cy="413.915" r="7.2" fill="#009af9" fill-rule="evenodd" fill-opacity="1" stroke="#000000" stroke-opacity="1" stroke-width="3.2"/>
<circle clip-path="url(#clip432)" cx="687.165" cy="369.443" r="7.2" fill="#009af9" fill-rule="evenodd" fill-opacity="1" stroke="#000000" stroke-opacity="1" stroke-width="3.2"/>
<circle clip-path="url(#clip432)" cx="599.22" cy="363.447" r="7.2" fill="#009af9" fill-rule="evenodd" fill-opacity="1" stroke="#000000" stroke-opacity="1" stroke-width="3.2"/>
<circle clip-path="url(#clip432)" cx="514.774" cy="431.904" r="7.2" fill="#009af9" fill-rule="evenodd" fill-opacity="1" stroke="#000000" stroke-opacity="1" stroke-width="3.2"/>
<circle clip-path="url(#clip432)" cx="396.349" cy="425.408" r="7.2" fill="#009af9" fill-rule="evenodd" fill-opacity="1" stroke="#000000" stroke-opacity="1" stroke-width="3.2"/>
<circle clip-path="url(#clip432)" cx="357.373" cy="578.311" r="7.2" fill="#009af9" fill-rule="evenodd" fill-opacity="1" stroke="#000000" stroke-opacity="1" stroke-width="3.2"/>
<circle clip-path="url(#clip432)" cx="439.322" cy="710.228" r="7.2" fill="#009af9" fill-rule="evenodd" fill-opacity="1" stroke="#000000" stroke-opacity="1" stroke-width="3.2"/>
<circle clip-path="url(#clip432)" cx="509.777" cy="730.715" r="7.2" fill="#009af9" fill-rule="evenodd" fill-opacity="1" stroke="#000000" stroke-opacity="1" stroke-width="3.2"/>
<circle clip-path="url(#clip432)" cx="553.749" cy="588.805" r="7.2" fill="#009af9" fill-rule="evenodd" fill-opacity="1" stroke="#000000" stroke-opacity="1" stroke-width="3.2"/>
<circle clip-path="url(#clip432)" cx="603.218" cy="483.371" r="7.2" fill="#009af9" fill-rule="evenodd" fill-opacity="1" stroke="#000000" stroke-opacity="1" stroke-width="3.2"/>
<circle clip-path="url(#clip432)" cx="712.649" cy="508.855" r="7.2" fill="#009af9" fill-rule="evenodd" fill-opacity="1" stroke="#000000" stroke-opacity="1" stroke-width="3.2"/>
<circle clip-path="url(#clip432)" cx="741.131" cy="562.321" r="7.2" fill="#009af9" fill-rule="evenodd" fill-opacity="1" stroke="#000000" stroke-opacity="1" stroke-width="3.2"/>
<circle clip-path="url(#clip432)" cx="727.139" cy="592.302" r="7.2" fill="#009af9" fill-rule="evenodd" fill-opacity="1" stroke="#000000" stroke-opacity="1" stroke-width="3.2"/>
<circle clip-path="url(#clip432)" cx="710.65" cy="598.798" r="7.2" fill="#009af9" fill-rule="evenodd" fill-opacity="1" stroke="#000000" stroke-opacity="1" stroke-width="3.2"/>
<circle clip-path="url(#clip432)" cx="635.198" cy="609.292" r="7.2" fill="#009af9" fill-rule="evenodd" fill-opacity="1" stroke="#000000" stroke-opacity="1" stroke-width="3.2"/>
<circle clip-path="url(#clip432)" cx="599.22" cy="679.247" r="7.2" fill="#009af9" fill-rule="evenodd" fill-opacity="1" stroke="#000000" stroke-opacity="1" stroke-width="3.2"/>
<circle clip-path="url(#clip432)" cx="599.72" cy="711.727" r="7.2" fill="#009af9" fill-rule="evenodd" fill-opacity="1" stroke="#000000" stroke-opacity="1" stroke-width="3.2"/>
<circle clip-path="url(#clip432)" cx="696.159" cy="779.684" r="7.2" fill="#009af9" fill-rule="evenodd" fill-opacity="1" stroke="#000000" stroke-opacity="1" stroke-width="3.2"/>
<circle clip-path="url(#clip432)" cx="826.077" cy="739.209" r="7.2" fill="#009af9" fill-rule="evenodd" fill-opacity="1" stroke="#000000" stroke-opacity="1" stroke-width="3.2"/>
<circle clip-path="url(#clip432)" cx="876.045" cy="641.771" r="7.2" fill="#009af9" fill-rule="evenodd" fill-opacity="1" stroke="#000000" stroke-opacity="1" stroke-width="3.2"/>
<circle clip-path="url(#clip432)" cx="1032.95" cy="578.811" r="7.2" fill="#009af9" fill-rule="evenodd" fill-opacity="1" stroke="#000000" stroke-opacity="1" stroke-width="3.2"/>
<circle clip-path="url(#clip432)" cx="1159.87" cy="620.784" r="7.2" fill="#009af9" fill-rule="evenodd" fill-opacity="1" stroke="#000000" stroke-opacity="1" stroke-width="3.2"/>
<circle clip-path="url(#clip432)" cx="1170.86" cy="592.802" r="7.2" fill="#009af9" fill-rule="evenodd" fill-opacity="1" stroke="#000000" stroke-opacity="1" stroke-width="3.2"/>
<circle clip-path="url(#clip432)" cx="1185.85" cy="490.867" r="7.2" fill="#009af9" fill-rule="evenodd" fill-opacity="1" stroke="#000000" stroke-opacity="1" stroke-width="3.2"/>
<circle clip-path="url(#clip432)" cx="1205.34" cy="450.892" r="7.2" fill="#009af9" fill-rule="evenodd" fill-opacity="1" stroke="#000000" stroke-opacity="1" stroke-width="3.2"/>
<circle clip-path="url(#clip432)" cx="1218.33" cy="445.395" r="7.2" fill="#009af9" fill-rule="evenodd" fill-opacity="1" stroke="#000000" stroke-opacity="1" stroke-width="3.2"/>
<circle clip-path="url(#clip432)" cx="1335.25" cy="371.942" r="7.2" fill="#009af9" fill-rule="evenodd" fill-opacity="1" stroke="#000000" stroke-opacity="1" stroke-width="3.2"/>
<circle clip-path="url(#clip432)" cx="1346.25" cy="323.472" r="7.2" fill="#009af9" fill-rule="evenodd" fill-opacity="1" stroke="#000000" stroke-opacity="1" stroke-width="3.2"/>
<circle clip-path="url(#clip432)" cx="1318.27" cy="313.978" r="7.2" fill="#009af9" fill-rule="evenodd" fill-opacity="1" stroke="#000000" stroke-opacity="1" stroke-width="3.2"/>
<circle clip-path="url(#clip432)" cx="1214.83" cy="288.994" r="7.2" fill="#009af9" fill-rule="evenodd" fill-opacity="1" stroke="#000000" stroke-opacity="1" stroke-width="3.2"/>
<circle clip-path="url(#clip432)" cx="1169.86" cy="278.001" r="7.2" fill="#009af9" fill-rule="evenodd" fill-opacity="1" stroke="#000000" stroke-opacity="1" stroke-width="3.2"/>
<circle clip-path="url(#clip432)" cx="1144.38" cy="331.467" r="7.2" fill="#009af9" fill-rule="evenodd" fill-opacity="1" stroke="#000000" stroke-opacity="1" stroke-width="3.2"/>
<circle clip-path="url(#clip432)" cx="1137.38" cy="368.944" r="7.2" fill="#009af9" fill-rule="evenodd" fill-opacity="1" stroke="#000000" stroke-opacity="1" stroke-width="3.2"/>
<circle clip-path="url(#clip432)" cx="1132.88" cy="378.438" r="7.2" fill="#009af9" fill-rule="evenodd" fill-opacity="1" stroke="#000000" stroke-opacity="1" stroke-width="3.2"/>
<circle clip-path="url(#clip432)" cx="1084.41" cy="433.903" r="7.2" fill="#009af9" fill-rule="evenodd" fill-opacity="1" stroke="#000000" stroke-opacity="1" stroke-width="3.2"/>
<circle clip-path="url(#clip432)" cx="912.522" cy="313.479" r="7.2" fill="#009af9" fill-rule="evenodd" fill-opacity="1" stroke="#000000" stroke-opacity="1" stroke-width="3.2"/>
<circle clip-path="url(#clip432)" cx="802.592" cy="292.492" r="7.2" fill="#009af9" fill-rule="evenodd" fill-opacity="1" stroke="#000000" stroke-opacity="1" stroke-width="3.2"/>
<circle clip-path="url(#clip432)" cx="674.673" cy="277.502" r="7.2" fill="#009af9" fill-rule="evenodd" fill-opacity="1" stroke="#000000" stroke-opacity="1" stroke-width="3.2"/>
<circle clip-path="url(#clip432)" cx="607.215" cy="249.02" r="7.2" fill="#009af9" fill-rule="evenodd" fill-opacity="1" stroke="#000000" stroke-opacity="1" stroke-width="3.2"/>
<circle clip-path="url(#clip432)" cx="518.771" cy="268.008" r="7.2" fill="#009af9" fill-rule="evenodd" fill-opacity="1" stroke="#000000" stroke-opacity="1" stroke-width="3.2"/>
<circle clip-path="url(#clip432)" cx="323.395" cy="331.467" r="7.2" fill="#009af9" fill-rule="evenodd" fill-opacity="1" stroke="#000000" stroke-opacity="1" stroke-width="3.2"/>
<circle clip-path="url(#clip432)" cx="361.871" cy="473.378" r="7.2" fill="#009af9" fill-rule="evenodd" fill-opacity="1" stroke="#000000" stroke-opacity="1" stroke-width="3.2"/>
<circle clip-path="url(#clip432)" cx="410.34" cy="544.832" r="7.2" fill="#009af9" fill-rule="evenodd" fill-opacity="1" stroke="#000000" stroke-opacity="1" stroke-width="3.2"/>
<circle clip-path="url(#clip432)" cx="418.335" cy="634.776" r="7.2" fill="#009af9" fill-rule="evenodd" fill-opacity="1" stroke="#000000" stroke-opacity="1" stroke-width="3.2"/>
<circle clip-path="url(#clip432)" cx="442.32" cy="705.231" r="7.2" fill="#009af9" fill-rule="evenodd" fill-opacity="1" stroke="#000000" stroke-opacity="1" stroke-width="3.2"/>
<circle clip-path="url(#clip432)" cx="522.269" cy="749.703" r="7.2" fill="#009af9" fill-rule="evenodd" fill-opacity="1" stroke="#000000" stroke-opacity="1" stroke-width="3.2"/>
<circle clip-path="url(#clip432)" cx="521.27" cy="814.662" r="7.2" fill="#009af9" fill-rule="evenodd" fill-opacity="1" stroke="#000000" stroke-opacity="1" stroke-width="3.2"/>
<circle clip-path="url(#clip432)" cx="470.802" cy="932.087" r="7.2" fill="#009af9" fill-rule="evenodd" fill-opacity="1" stroke="#000000" stroke-opacity="1" stroke-width="3.2"/>
<circle clip-path="url(#clip432)" cx="441.82" cy="930.089" r="7.2" fill="#009af9" fill-rule="evenodd" fill-opacity="1" stroke="#000000" stroke-opacity="1" stroke-width="3.2"/>
<circle clip-path="url(#clip432)" cx="407.342" cy="982.555" r="7.2" fill="#009af9" fill-rule="evenodd" fill-opacity="1" stroke="#000000" stroke-opacity="1" stroke-width="3.2"/>
<circle clip-path="url(#clip432)" cx="345.381" cy="1058.01" r="7.2" fill="#009af9" fill-rule="evenodd" fill-opacity="1" stroke="#000000" stroke-opacity="1" stroke-width="3.2"/>
<circle clip-path="url(#clip432)" cx="352.377" cy="1198.92" r="7.2" fill="#009af9" fill-rule="evenodd" fill-opacity="1" stroke="#000000" stroke-opacity="1" stroke-width="3.2"/>
<circle clip-path="url(#clip432)" cx="453.812" cy="1221.4" r="7.2" fill="#009af9" fill-rule="evenodd" fill-opacity="1" stroke="#000000" stroke-opacity="1" stroke-width="3.2"/>
<circle clip-path="url(#clip432)" cx="495.286" cy="1113.47" r="7.2" fill="#009af9" fill-rule="evenodd" fill-opacity="1" stroke="#000000" stroke-opacity="1" stroke-width="3.2"/>
<circle clip-path="url(#clip432)" cx="504.78" cy="1070" r="7.2" fill="#009af9" fill-rule="evenodd" fill-opacity="1" stroke="#000000" stroke-opacity="1" stroke-width="3.2"/>
<circle clip-path="url(#clip432)" cx="555.748" cy="1079.99" r="7.2" fill="#009af9" fill-rule="evenodd" fill-opacity="1" stroke="#000000" stroke-opacity="1" stroke-width="3.2"/>
<circle clip-path="url(#clip432)" cx="551.75" cy="1105.98" r="7.2" fill="#009af9" fill-rule="evenodd" fill-opacity="1" stroke="#000000" stroke-opacity="1" stroke-width="3.2"/>
<circle clip-path="url(#clip432)" cx="515.274" cy="1139.96" r="7.2" fill="#009af9" fill-rule="evenodd" fill-opacity="1" stroke="#000000" stroke-opacity="1" stroke-width="3.2"/>
<circle clip-path="url(#clip432)" cx="515.274" cy="1144.45" r="7.2" fill="#009af9" fill-rule="evenodd" fill-opacity="1" stroke="#000000" stroke-opacity="1" stroke-width="3.2"/>
<circle clip-path="url(#clip432)" cx="460.808" cy="1156.95" r="7.2" fill="#009af9" fill-rule="evenodd" fill-opacity="1" stroke="#000000" stroke-opacity="1" stroke-width="3.2"/>
<circle clip-path="url(#clip432)" cx="422.832" cy="1122.97" r="7.2" fill="#009af9" fill-rule="evenodd" fill-opacity="1" stroke="#000000" stroke-opacity="1" stroke-width="3.2"/>
<circle clip-path="url(#clip432)" cx="511.776" cy="1000.54" r="7.2" fill="#009af9" fill-rule="evenodd" fill-opacity="1" stroke="#000000" stroke-opacity="1" stroke-width="3.2"/>
<circle clip-path="url(#clip432)" cx="532.762" cy="968.564" r="7.2" fill="#009af9" fill-rule="evenodd" fill-opacity="1" stroke="#000000" stroke-opacity="1" stroke-width="3.2"/>
<circle clip-path="url(#clip432)" cx="668.676" cy="963.567" r="7.2" fill="#009af9" fill-rule="evenodd" fill-opacity="1" stroke="#000000" stroke-opacity="1" stroke-width="3.2"/>
<circle clip-path="url(#clip432)" cx="712.149" cy="904.605" r="7.2" fill="#009af9" fill-rule="evenodd" fill-opacity="1" stroke="#000000" stroke-opacity="1" stroke-width="3.2"/>
<circle clip-path="url(#clip432)" cx="769.613" cy="887.116" r="7.2" fill="#009af9" fill-rule="evenodd" fill-opacity="1" stroke="#000000" stroke-opacity="1" stroke-width="3.2"/>
<circle clip-path="url(#clip432)" cx="812.086" cy="815.661" r="7.2" fill="#009af9" fill-rule="evenodd" fill-opacity="1" stroke="#000000" stroke-opacity="1" stroke-width="3.2"/>
<circle clip-path="url(#clip432)" cx="820.081" cy="768.691" r="7.2" fill="#009af9" fill-rule="evenodd" fill-opacity="1" stroke="#000000" stroke-opacity="1" stroke-width="3.2"/>
<circle clip-path="url(#clip432)" cx="832.073" cy="758.697" r="7.2" fill="#009af9" fill-rule="evenodd" fill-opacity="1" stroke="#000000" stroke-opacity="1" stroke-width="3.2"/>
<circle clip-path="url(#clip432)" cx="911.023" cy="755.199" r="7.2" fill="#009af9" fill-rule="evenodd" fill-opacity="1" stroke="#000000" stroke-opacity="1" stroke-width="3.2"/>
<circle clip-path="url(#clip432)" cx="928.012" cy="784.681" r="7.2" fill="#009af9" fill-rule="evenodd" fill-opacity="1" stroke="#000000" stroke-opacity="1" stroke-width="3.2"/>
<circle clip-path="url(#clip432)" cx="1017.96" cy="810.165" r="7.2" fill="#009af9" fill-rule="evenodd" fill-opacity="1" stroke="#000000" stroke-opacity="1" stroke-width="3.2"/>
<circle clip-path="url(#clip432)" cx="1123.39" cy="886.616" r="7.2" fill="#009af9" fill-rule="evenodd" fill-opacity="1" stroke="#000000" stroke-opacity="1" stroke-width="3.2"/>
<circle clip-path="url(#clip432)" cx="1085.91" cy="949.077" r="7.2" fill="#009af9" fill-rule="evenodd" fill-opacity="1" stroke="#000000" stroke-opacity="1" stroke-width="3.2"/>
<circle clip-path="url(#clip432)" cx="964.489" cy="964.567" r="7.2" fill="#009af9" fill-rule="evenodd" fill-opacity="1" stroke="#000000" stroke-opacity="1" stroke-width="3.2"/>
<circle clip-path="url(#clip432)" cx="923.016" cy="1047.01" r="7.2" fill="#009af9" fill-rule="evenodd" fill-opacity="1" stroke="#000000" stroke-opacity="1" stroke-width="3.2"/>
<circle clip-path="url(#clip432)" cx="957.494" cy="1116.47" r="7.2" fill="#009af9" fill-rule="evenodd" fill-opacity="1" stroke="#000000" stroke-opacity="1" stroke-width="3.2"/>
<circle clip-path="url(#clip432)" cx="1079.92" cy="1106.48" r="7.2" fill="#009af9" fill-rule="evenodd" fill-opacity="1" stroke="#000000" stroke-opacity="1" stroke-width="3.2"/>
<circle clip-path="url(#clip432)" cx="1090.41" cy="1127.46" r="7.2" fill="#009af9" fill-rule="evenodd" fill-opacity="1" stroke="#000000" stroke-opacity="1" stroke-width="3.2"/>
<circle clip-path="url(#clip432)" cx="1302.28" cy="1045.02" r="7.2" fill="#009af9" fill-rule="evenodd" fill-opacity="1" stroke="#000000" stroke-opacity="1" stroke-width="3.2"/>
<circle clip-path="url(#clip432)" cx="1507.15" cy="1175.93" r="7.2" fill="#009af9" fill-rule="evenodd" fill-opacity="1" stroke="#000000" stroke-opacity="1" stroke-width="3.2"/>
<circle clip-path="url(#clip432)" cx="1611.58" cy="1178.93" r="7.2" fill="#009af9" fill-rule="evenodd" fill-opacity="1" stroke="#000000" stroke-opacity="1" stroke-width="3.2"/>
<circle clip-path="url(#clip432)" cx="1636.06" cy="1229.4" r="7.2" fill="#009af9" fill-rule="evenodd" fill-opacity="1" stroke="#000000" stroke-opacity="1" stroke-width="3.2"/>
<circle clip-path="url(#clip432)" cx="1829.44" cy="1185.43" r="7.2" fill="#009af9" fill-rule="evenodd" fill-opacity="1" stroke="#000000" stroke-opacity="1" stroke-width="3.2"/>
<circle clip-path="url(#clip432)" cx="1850.93" cy="1161.94" r="7.2" fill="#009af9" fill-rule="evenodd" fill-opacity="1" stroke="#000000" stroke-opacity="1" stroke-width="3.2"/>
<circle clip-path="url(#clip432)" cx="1882.41" cy="1130.96" r="7.2" fill="#009af9" fill-rule="evenodd" fill-opacity="1" stroke="#000000" stroke-opacity="1" stroke-width="3.2"/>
<circle clip-path="url(#clip432)" cx="1966.86" cy="1163.44" r="7.2" fill="#009af9" fill-rule="evenodd" fill-opacity="1" stroke="#000000" stroke-opacity="1" stroke-width="3.2"/>
<circle clip-path="url(#clip432)" cx="2089.78" cy="1176.93" r="7.2" fill="#009af9" fill-rule="evenodd" fill-opacity="1" stroke="#000000" stroke-opacity="1" stroke-width="3.2"/>
<circle clip-path="url(#clip432)" cx="2118.26" cy="1183.93" r="7.2" fill="#009af9" fill-rule="evenodd" fill-opacity="1" stroke="#000000" stroke-opacity="1" stroke-width="3.2"/>
<circle clip-path="url(#clip432)" cx="2203.71" cy="1162.44" r="7.2" fill="#009af9" fill-rule="evenodd" fill-opacity="1" stroke="#000000" stroke-opacity="1" stroke-width="3.2"/>
<circle clip-path="url(#clip432)" cx="2231.19" cy="1165.94" r="7.2" fill="#009af9" fill-rule="evenodd" fill-opacity="1" stroke="#000000" stroke-opacity="1" stroke-width="3.2"/>
<circle clip-path="url(#clip432)" cx="2293.65" cy="1010.04" r="7.2" fill="#009af9" fill-rule="evenodd" fill-opacity="1" stroke="#000000" stroke-opacity="1" stroke-width="3.2"/>
<circle clip-path="url(#clip432)" cx="2289.65" cy="981.556" r="7.2" fill="#009af9" fill-rule="evenodd" fill-opacity="1" stroke="#000000" stroke-opacity="1" stroke-width="3.2"/>
<circle clip-path="url(#clip432)" cx="2288.15" cy="969.564" r="7.2" fill="#009af9" fill-rule="evenodd" fill-opacity="1" stroke="#000000" stroke-opacity="1" stroke-width="3.2"/>
<circle clip-path="url(#clip432)" cx="2254.67" cy="891.113" r="7.2" fill="#009af9" fill-rule="evenodd" fill-opacity="1" stroke="#000000" stroke-opacity="1" stroke-width="3.2"/>
<circle clip-path="url(#clip432)" cx="2141.74" cy="890.114" r="7.2" fill="#009af9" fill-rule="evenodd" fill-opacity="1" stroke="#000000" stroke-opacity="1" stroke-width="3.2"/>
<circle clip-path="url(#clip432)" cx="2120.26" cy="982.555" r="7.2" fill="#009af9" fill-rule="evenodd" fill-opacity="1" stroke="#000000" stroke-opacity="1" stroke-width="3.2"/>
<circle clip-path="url(#clip432)" cx="2162.73" cy="1017.03" r="7.2" fill="#009af9" fill-rule="evenodd" fill-opacity="1" stroke="#000000" stroke-opacity="1" stroke-width="3.2"/>
<circle clip-path="url(#clip432)" cx="2235.19" cy="983.055" r="7.2" fill="#009af9" fill-rule="evenodd" fill-opacity="1" stroke="#000000" stroke-opacity="1" stroke-width="3.2"/>
<circle clip-path="url(#clip432)" cx="2268.66" cy="868.628" r="7.2" fill="#009af9" fill-rule="evenodd" fill-opacity="1" stroke="#000000" stroke-opacity="1" stroke-width="3.2"/>
<circle clip-path="url(#clip432)" cx="2279.66" cy="695.737" r="7.2" fill="#009af9" fill-rule="evenodd" fill-opacity="1" stroke="#000000" stroke-opacity="1" stroke-width="3.2"/>
<circle clip-path="url(#clip432)" cx="2258.67" cy="657.261" r="7.2" fill="#009af9" fill-rule="evenodd" fill-opacity="1" stroke="#000000" stroke-opacity="1" stroke-width="3.2"/>
<circle clip-path="url(#clip432)" cx="2279.66" cy="631.278" r="7.2" fill="#009af9" fill-rule="evenodd" fill-opacity="1" stroke="#000000" stroke-opacity="1" stroke-width="3.2"/>
<circle clip-path="url(#clip432)" cx="2272.66" cy="517.849" r="7.2" fill="#009af9" fill-rule="evenodd" fill-opacity="1" stroke="#000000" stroke-opacity="1" stroke-width="3.2"/>
<circle clip-path="url(#clip432)" cx="2249.68" cy="503.858" r="7.2" fill="#009af9" fill-rule="evenodd" fill-opacity="1" stroke="#000000" stroke-opacity="1" stroke-width="3.2"/>
<circle clip-path="url(#clip432)" cx="2088.28" cy="683.745" r="7.2" fill="#009af9" fill-rule="evenodd" fill-opacity="1" stroke="#000000" stroke-opacity="1" stroke-width="3.2"/>
<circle clip-path="url(#clip432)" cx="2039.81" cy="789.178" r="7.2" fill="#009af9" fill-rule="evenodd" fill-opacity="1" stroke="#000000" stroke-opacity="1" stroke-width="3.2"/>
<circle clip-path="url(#clip432)" cx="2005.83" cy="844.143" r="7.2" fill="#009af9" fill-rule="evenodd" fill-opacity="1" stroke="#000000" stroke-opacity="1" stroke-width="3.2"/>
<circle clip-path="url(#clip432)" cx="2046.8" cy="921.094" r="7.2" fill="#009af9" fill-rule="evenodd" fill-opacity="1" stroke="#000000" stroke-opacity="1" stroke-width="3.2"/>
<circle clip-path="url(#clip432)" cx="2120.76" cy="1010.04" r="7.2" fill="#009af9" fill-rule="evenodd" fill-opacity="1" stroke="#000000" stroke-opacity="1" stroke-width="3.2"/>
<circle clip-path="url(#clip432)" cx="2072.29" cy="1088.99" r="7.2" fill="#009af9" fill-rule="evenodd" fill-opacity="1" stroke="#000000" stroke-opacity="1" stroke-width="3.2"/>
<circle clip-path="url(#clip432)" cx="1901.9" cy="1056.01" r="7.2" fill="#009af9" fill-rule="evenodd" fill-opacity="1" stroke="#000000" stroke-opacity="1" stroke-width="3.2"/>
<circle clip-path="url(#clip432)" cx="1851.93" cy="1075" r="7.2" fill="#009af9" fill-rule="evenodd" fill-opacity="1" stroke="#000000" stroke-opacity="1" stroke-width="3.2"/>
<circle clip-path="url(#clip432)" cx="1818.45" cy="1107.48" r="7.2" fill="#009af9" fill-rule="evenodd" fill-opacity="1" stroke="#000000" stroke-opacity="1" stroke-width="3.2"/>
<circle clip-path="url(#clip432)" cx="1649.06" cy="1175.43" r="7.2" fill="#009af9" fill-rule="evenodd" fill-opacity="1" stroke="#000000" stroke-opacity="1" stroke-width="3.2"/>
<circle clip-path="url(#clip432)" cx="1628.07" cy="1141.95" r="7.2" fill="#009af9" fill-rule="evenodd" fill-opacity="1" stroke="#000000" stroke-opacity="1" stroke-width="3.2"/>
<circle clip-path="url(#clip432)" cx="1617.08" cy="1115.47" r="7.2" fill="#009af9" fill-rule="evenodd" fill-opacity="1" stroke="#000000" stroke-opacity="1" stroke-width="3.2"/>
<circle clip-path="url(#clip432)" cx="1785.47" cy="997.046" r="7.2" fill="#009af9" fill-rule="evenodd" fill-opacity="1" stroke="#000000" stroke-opacity="1" stroke-width="3.2"/>
<circle clip-path="url(#clip432)" cx="1789.97" cy="968.065" r="7.2" fill="#009af9" fill-rule="evenodd" fill-opacity="1" stroke="#000000" stroke-opacity="1" stroke-width="3.2"/>
<circle clip-path="url(#clip432)" cx="1721.01" cy="913.099" r="7.2" fill="#009af9" fill-rule="evenodd" fill-opacity="1" stroke="#000000" stroke-opacity="1" stroke-width="3.2"/>
<circle clip-path="url(#clip432)" cx="1721.51" cy="892.113" r="7.2" fill="#009af9" fill-rule="evenodd" fill-opacity="1" stroke="#000000" stroke-opacity="1" stroke-width="3.2"/>
<circle clip-path="url(#clip432)" cx="1736" cy="852.138" r="7.2" fill="#009af9" fill-rule="evenodd" fill-opacity="1" stroke="#000000" stroke-opacity="1" stroke-width="3.2"/>
<circle clip-path="url(#clip432)" cx="1771.48" cy="779.684" r="7.2" fill="#009af9" fill-rule="evenodd" fill-opacity="1" stroke="#000000" stroke-opacity="1" stroke-width="3.2"/>
<circle clip-path="url(#clip432)" cx="1811.95" cy="765.193" r="7.2" fill="#009af9" fill-rule="evenodd" fill-opacity="1" stroke="#000000" stroke-opacity="1" stroke-width="3.2"/>
<circle clip-path="url(#clip432)" cx="1832.44" cy="804.168" r="7.2" fill="#009af9" fill-rule="evenodd" fill-opacity="1" stroke="#000000" stroke-opacity="1" stroke-width="3.2"/>
<circle clip-path="url(#clip432)" cx="1850.93" cy="849.14" r="7.2" fill="#009af9" fill-rule="evenodd" fill-opacity="1" stroke="#000000" stroke-opacity="1" stroke-width="3.2"/>
<circle clip-path="url(#clip432)" cx="1862.92" cy="852.638" r="7.2" fill="#009af9" fill-rule="evenodd" fill-opacity="1" stroke="#000000" stroke-opacity="1" stroke-width="3.2"/>
<circle clip-path="url(#clip432)" cx="1862.92" cy="865.629" r="7.2" fill="#009af9" fill-rule="evenodd" fill-opacity="1" stroke="#000000" stroke-opacity="1" stroke-width="3.2"/>
<circle clip-path="url(#clip432)" cx="1817.45" cy="927.59" r="7.2" fill="#009af9" fill-rule="evenodd" fill-opacity="1" stroke="#000000" stroke-opacity="1" stroke-width="3.2"/>
<circle clip-path="url(#clip432)" cx="1792.97" cy="923.593" r="7.2" fill="#009af9" fill-rule="evenodd" fill-opacity="1" stroke="#000000" stroke-opacity="1" stroke-width="3.2"/>
<circle clip-path="url(#clip432)" cx="1650.06" cy="1059.51" r="7.2" fill="#009af9" fill-rule="evenodd" fill-opacity="1" stroke="#000000" stroke-opacity="1" stroke-width="3.2"/>
<circle clip-path="url(#clip432)" cx="1619.57" cy="1065" r="7.2" fill="#009af9" fill-rule="evenodd" fill-opacity="1" stroke="#000000" stroke-opacity="1" stroke-width="3.2"/>
<circle clip-path="url(#clip432)" cx="1572.6" cy="1063.5" r="7.2" fill="#009af9" fill-rule="evenodd" fill-opacity="1" stroke="#000000" stroke-opacity="1" stroke-width="3.2"/>
<circle clip-path="url(#clip432)" cx="1494.65" cy="1045.52" r="7.2" fill="#009af9" fill-rule="evenodd" fill-opacity="1" stroke="#000000" stroke-opacity="1" stroke-width="3.2"/>
<circle clip-path="url(#clip432)" cx="1488.16" cy="978.058" r="7.2" fill="#009af9" fill-rule="evenodd" fill-opacity="1" stroke="#000000" stroke-opacity="1" stroke-width="3.2"/>
<circle clip-path="url(#clip432)" cx="1476.17" cy="922.094" r="7.2" fill="#009af9" fill-rule="evenodd" fill-opacity="1" stroke="#000000" stroke-opacity="1" stroke-width="3.2"/>
<circle clip-path="url(#clip432)" cx="1486.16" cy="869.127" r="7.2" fill="#009af9" fill-rule="evenodd" fill-opacity="1" stroke="#000000" stroke-opacity="1" stroke-width="3.2"/>
<circle clip-path="url(#clip432)" cx="1691.03" cy="689.241" r="7.2" fill="#009af9" fill-rule="evenodd" fill-opacity="1" stroke="#000000" stroke-opacity="1" stroke-width="3.2"/>
<circle clip-path="url(#clip432)" cx="1670.04" cy="629.279" r="7.2" fill="#009af9" fill-rule="evenodd" fill-opacity="1" stroke="#000000" stroke-opacity="1" stroke-width="3.2"/>
<circle clip-path="url(#clip432)" cx="1640.56" cy="620.285" r="7.2" fill="#009af9" fill-rule="evenodd" fill-opacity="1" stroke="#000000" stroke-opacity="1" stroke-width="3.2"/>
<circle clip-path="url(#clip432)" cx="1642.06" cy="605.294" r="7.2" fill="#009af9" fill-rule="evenodd" fill-opacity="1" stroke="#000000" stroke-opacity="1" stroke-width="3.2"/>
<circle clip-path="url(#clip432)" cx="1824.45" cy="477.875" r="7.2" fill="#009af9" fill-rule="evenodd" fill-opacity="1" stroke="#000000" stroke-opacity="1" stroke-width="3.2"/>
<circle clip-path="url(#clip432)" cx="1784.47" cy="351.455" r="7.2" fill="#009af9" fill-rule="evenodd" fill-opacity="1" stroke="#000000" stroke-opacity="1" stroke-width="3.2"/>
<circle clip-path="url(#clip432)" cx="1930.88" cy="267.508" r="7.2" fill="#009af9" fill-rule="evenodd" fill-opacity="1" stroke="#000000" stroke-opacity="1" stroke-width="3.2"/>
<circle clip-path="url(#clip432)" cx="1979.35" cy="257.015" r="7.2" fill="#009af9" fill-rule="evenodd" fill-opacity="1" stroke="#000000" stroke-opacity="1" stroke-width="3.2"/>
<circle clip-path="url(#clip432)" cx="2078.28" cy="293.991" r="7.2" fill="#009af9" fill-rule="evenodd" fill-opacity="1" stroke="#000000" stroke-opacity="1" stroke-width="3.2"/>
<circle clip-path="url(#clip432)" cx="2074.29" cy="314.478" r="7.2" fill="#009af9" fill-rule="evenodd" fill-opacity="1" stroke="#000000" stroke-opacity="1" stroke-width="3.2"/>
<circle clip-path="url(#clip432)" cx="2029.32" cy="335.965" r="7.2" fill="#009af9" fill-rule="evenodd" fill-opacity="1" stroke="#000000" stroke-opacity="1" stroke-width="3.2"/>
<circle clip-path="url(#clip432)" cx="1943.37" cy="325.971" r="7.2" fill="#009af9" fill-rule="evenodd" fill-opacity="1" stroke="#000000" stroke-opacity="1" stroke-width="3.2"/>
<circle clip-path="url(#clip432)" cx="1944.87" cy="286.996" r="7.2" fill="#009af9" fill-rule="evenodd" fill-opacity="1" stroke="#000000" stroke-opacity="1" stroke-width="3.2"/>
<circle clip-path="url(#clip432)" cx="2007.33" cy="288.994" r="7.2" fill="#009af9" fill-rule="evenodd" fill-opacity="1" stroke="#000000" stroke-opacity="1" stroke-width="3.2"/>
<circle clip-path="url(#clip432)" cx="2047.3" cy="241.025" r="7.2" fill="#009af9" fill-rule="evenodd" fill-opacity="1" stroke="#000000" stroke-opacity="1" stroke-width="3.2"/>
<circle clip-path="url(#clip432)" cx="2126.25" cy="256.015" r="7.2" fill="#009af9" fill-rule="evenodd" fill-opacity="1" stroke="#000000" stroke-opacity="1" stroke-width="3.2"/>
<circle clip-path="url(#clip432)" cx="2211.7" cy="307.483" r="7.2" fill="#009af9" fill-rule="evenodd" fill-opacity="1" stroke="#000000" stroke-opacity="1" stroke-width="3.2"/>
<circle clip-path="url(#clip432)" cx="2213.7" cy="308.982" r="7.2" fill="#009af9" fill-rule="evenodd" fill-opacity="1" stroke="#000000" stroke-opacity="1" stroke-width="3.2"/>
<circle clip-path="url(#clip432)" cx="2237.68" cy="326.471" r="7.2" fill="#009af9" fill-rule="evenodd" fill-opacity="1" stroke="#000000" stroke-opacity="1" stroke-width="3.2"/>
<circle clip-path="url(#clip432)" cx="2223.19" cy="430.405" r="7.2" fill="#009af9" fill-rule="evenodd" fill-opacity="1" stroke="#000000" stroke-opacity="1" stroke-width="3.2"/>
<circle clip-path="url(#clip432)" cx="2158.23" cy="478.874" r="7.2" fill="#009af9" fill-rule="evenodd" fill-opacity="1" stroke="#000000" stroke-opacity="1" stroke-width="3.2"/>
<circle clip-path="url(#clip432)" cx="1986.84" cy="715.225" r="7.2" fill="#009af9" fill-rule="evenodd" fill-opacity="1" stroke="#000000" stroke-opacity="1" stroke-width="3.2"/>
<circle clip-path="url(#clip432)" cx="1887.41" cy="668.254" r="7.2" fill="#009af9" fill-rule="evenodd" fill-opacity="1" stroke="#000000" stroke-opacity="1" stroke-width="3.2"/>
<circle clip-path="url(#clip432)" cx="1849.93" cy="601.796" r="7.2" fill="#009af9" fill-rule="evenodd" fill-opacity="1" stroke="#000000" stroke-opacity="1" stroke-width="3.2"/>
<circle clip-path="url(#clip432)" cx="1890.9" cy="539.336" r="7.2" fill="#009af9" fill-rule="evenodd" fill-opacity="1" stroke="#000000" stroke-opacity="1" stroke-width="3.2"/>
<circle clip-path="url(#clip432)" cx="1930.88" cy="512.853" r="7.2" fill="#009af9" fill-rule="evenodd" fill-opacity="1" stroke="#000000" stroke-opacity="1" stroke-width="3.2"/>
<circle clip-path="url(#clip432)" cx="1877.91" cy="425.408" r="7.2" fill="#009af9" fill-rule="evenodd" fill-opacity="1" stroke="#000000" stroke-opacity="1" stroke-width="3.2"/>
<circle clip-path="url(#clip432)" cx="1789.47" cy="455.889" r="7.2" fill="#009af9" fill-rule="evenodd" fill-opacity="1" stroke="#000000" stroke-opacity="1" stroke-width="3.2"/>
<circle clip-path="url(#clip432)" cx="1738" cy="483.871" r="7.2" fill="#009af9" fill-rule="evenodd" fill-opacity="1" stroke="#000000" stroke-opacity="1" stroke-width="3.2"/>
<circle clip-path="url(#clip432)" cx="1691.53" cy="448.393" r="7.2" fill="#009af9" fill-rule="evenodd" fill-opacity="1" stroke="#000000" stroke-opacity="1" stroke-width="3.2"/>
<circle clip-path="url(#clip432)" cx="1565.61" cy="479.874" r="7.2" fill="#009af9" fill-rule="evenodd" fill-opacity="1" stroke="#000000" stroke-opacity="1" stroke-width="3.2"/>
<circle clip-path="url(#clip432)" cx="1477.16" cy="604.794" r="7.2" fill="#009af9" fill-rule="evenodd" fill-opacity="1" stroke="#000000" stroke-opacity="1" stroke-width="3.2"/>
<circle clip-path="url(#clip432)" cx="1432.69" cy="744.706" r="7.2" fill="#009af9" fill-rule="evenodd" fill-opacity="1" stroke="#000000" stroke-opacity="1" stroke-width="3.2"/>
<circle clip-path="url(#clip432)" cx="1354.74" cy="892.612" r="7.2" fill="#009af9" fill-rule="evenodd" fill-opacity="1" stroke="#000000" stroke-opacity="1" stroke-width="3.2"/>
<circle clip-path="url(#clip432)" cx="1235.82" cy="833.65" r="7.2" fill="#009af9" fill-rule="evenodd" fill-opacity="1" stroke="#000000" stroke-opacity="1" stroke-width="3.2"/>
<circle clip-path="url(#clip432)" cx="1230.82" cy="832.65" r="7.2" fill="#009af9" fill-rule="evenodd" fill-opacity="1" stroke="#000000" stroke-opacity="1" stroke-width="3.2"/>
<circle clip-path="url(#clip432)" cx="1204.34" cy="893.612" r="7.2" fill="#009af9" fill-rule="evenodd" fill-opacity="1" stroke="#000000" stroke-opacity="1" stroke-width="3.2"/>
<circle clip-path="url(#clip432)" cx="1204.34" cy="900.607" r="7.2" fill="#009af9" fill-rule="evenodd" fill-opacity="1" stroke="#000000" stroke-opacity="1" stroke-width="3.2"/>
<circle clip-path="url(#clip432)" cx="1235.32" cy="1011.54" r="7.2" fill="#009af9" fill-rule="evenodd" fill-opacity="1" stroke="#000000" stroke-opacity="1" stroke-width="3.2"/>
<circle clip-path="url(#clip432)" cx="1127.39" cy="1075.5" r="7.2" fill="#009af9" fill-rule="evenodd" fill-opacity="1" stroke="#000000" stroke-opacity="1" stroke-width="3.2"/>
<circle clip-path="url(#clip432)" cx="1091.91" cy="1062.5" r="7.2" fill="#009af9" fill-rule="evenodd" fill-opacity="1" stroke="#000000" stroke-opacity="1" stroke-width="3.2"/>
<circle clip-path="url(#clip432)" cx="994.47" cy="1035.52" r="7.2" fill="#009af9" fill-rule="evenodd" fill-opacity="1" stroke="#000000" stroke-opacity="1" stroke-width="3.2"/>
<circle clip-path="url(#clip432)" cx="830.074" cy="1073" r="7.2" fill="#009af9" fill-rule="evenodd" fill-opacity="1" stroke="#000000" stroke-opacity="1" stroke-width="3.2"/>
<circle clip-path="url(#clip432)" cx="787.102" cy="983.555" r="7.2" fill="#009af9" fill-rule="evenodd" fill-opacity="1" stroke="#000000" stroke-opacity="1" stroke-width="3.2"/>
<circle clip-path="url(#clip432)" cx="743.629" cy="979.557" r="7.2" fill="#009af9" fill-rule="evenodd" fill-opacity="1" stroke="#000000" stroke-opacity="1" stroke-width="3.2"/>
<circle clip-path="url(#clip432)" cx="638.695" cy="1092.49" r="7.2" fill="#009af9" fill-rule="evenodd" fill-opacity="1" stroke="#000000" stroke-opacity="1" stroke-width="3.2"/>
<circle clip-path="url(#clip432)" cx="595.223" cy="1226.9" r="7.2" fill="#009af9" fill-rule="evenodd" fill-opacity="1" stroke="#000000" stroke-opacity="1" stroke-width="3.2"/>
</svg>
