<?xml version="1.0" encoding="utf-8"?>
<svg xmlns="http://www.w3.org/2000/svg" xmlns:xlink="http://www.w3.org/1999/xlink" width="600" height="400" viewBox="0 0 2400 1600">
<defs>
  <clipPath id="clip370">
    <rect x="0" y="0" width="2400" height="1600"/>
  </clipPath>
</defs>
<path clip-path="url(#clip370)" d="
M0 1600 L2400 1600 L2400 0 L0 0  Z
  " fill="#ffffff" fill-rule="evenodd" fill-opacity="1"/>
<defs>
  <clipPath id="clip371">
    <rect x="480" y="0" width="1681" height="1600"/>
  </clipPath>
</defs>
<path clip-path="url(#clip370)" d="
M264.287 1423.18 L2352.76 1423.18 L2352.76 47.2441 L264.287 47.2441  Z
  " fill="#ffffff" fill-rule="evenodd" fill-opacity="1"/>
<defs>
  <clipPath id="clip372">
    <rect x="264" y="47" width="2089" height="1377"/>
  </clipPath>
</defs>
<polyline clip-path="url(#clip372)" style="stroke:#000000; stroke-linecap:round; stroke-linejoin:round; stroke-width:2; stroke-opacity:0.1; fill:none" points="
  321.893,1423.18 321.893,47.2441 
  "/>
<polyline clip-path="url(#clip372)" style="stroke:#000000; stroke-linecap:round; stroke-linejoin:round; stroke-width:2; stroke-opacity:0.1; fill:none" points="
  822.593,1423.18 822.593,47.2441 
  "/>
<polyline clip-path="url(#clip372)" style="stroke:#000000; stroke-linecap:round; stroke-linejoin:round; stroke-width:2; stroke-opacity:0.1; fill:none" points="
  1323.29,1423.18 1323.29,47.2441 
  "/>
<polyline clip-path="url(#clip372)" style="stroke:#000000; stroke-linecap:round; stroke-linejoin:round; stroke-width:2; stroke-opacity:0.1; fill:none" points="
  1823.99,1423.18 1823.99,47.2441 
  "/>
<polyline clip-path="url(#clip372)" style="stroke:#000000; stroke-linecap:round; stroke-linejoin:round; stroke-width:2; stroke-opacity:0.1; fill:none" points="
  2324.69,1423.18 2324.69,47.2441 
  "/>
<polyline clip-path="url(#clip370)" style="stroke:#000000; stroke-linecap:round; stroke-linejoin:round; stroke-width:4; stroke-opacity:1; fill:none" points="
  264.287,1423.18 2352.76,1423.18 
  "/>
<polyline clip-path="url(#clip370)" style="stroke:#000000; stroke-linecap:round; stroke-linejoin:round; stroke-width:4; stroke-opacity:1; fill:none" points="
  321.893,1423.18 321.893,1404.28 
  "/>
<polyline clip-path="url(#clip370)" style="stroke:#000000; stroke-linecap:round; stroke-linejoin:round; stroke-width:4; stroke-opacity:1; fill:none" points="
  822.593,1423.18 822.593,1404.28 
  "/>
<polyline clip-path="url(#clip370)" style="stroke:#000000; stroke-linecap:round; stroke-linejoin:round; stroke-width:4; stroke-opacity:1; fill:none" points="
  1323.29,1423.18 1323.29,1404.28 
  "/>
<polyline clip-path="url(#clip370)" style="stroke:#000000; stroke-linecap:round; stroke-linejoin:round; stroke-width:4; stroke-opacity:1; fill:none" points="
  1823.99,1423.18 1823.99,1404.28 
  "/>
<polyline clip-path="url(#clip370)" style="stroke:#000000; stroke-linecap:round; stroke-linejoin:round; stroke-width:4; stroke-opacity:1; fill:none" points="
  2324.69,1423.18 2324.69,1404.28 
  "/>
<path clip-path="url(#clip370)" d="M321.893 1454.1 Q318.282 1454.1 316.453 1457.66 Q314.647 1461.2 314.647 1468.33 Q314.647 1475.44 316.453 1479.01 Q318.282 1482.55 321.893 1482.55 Q325.527 1482.55 327.333 1479.01 Q329.161 1475.44 329.161 1468.33 Q329.161 1461.2 327.333 1457.66 Q325.527 1454.1 321.893 1454.1 M321.893 1450.39 Q327.703 1450.39 330.759 1455 Q333.837 1459.58 333.837 1468.33 Q333.837 1477.06 330.759 1481.67 Q327.703 1486.25 321.893 1486.25 Q316.083 1486.25 313.004 1481.67 Q309.948 1477.06 309.948 1468.33 Q309.948 1459.58 313.004 1455 Q316.083 1450.39 321.893 1450.39 Z" fill="#000000" fill-rule="evenodd" fill-opacity="1" /><path clip-path="url(#clip370)" d="M767.118 1481.64 L774.757 1481.64 L774.757 1455.28 L766.447 1456.95 L766.447 1452.69 L774.711 1451.02 L779.387 1451.02 L779.387 1481.64 L787.026 1481.64 L787.026 1485.58 L767.118 1485.58 L767.118 1481.64 Z" fill="#000000" fill-rule="evenodd" fill-opacity="1" /><path clip-path="url(#clip370)" d="M806.47 1454.1 Q802.859 1454.1 801.03 1457.66 Q799.225 1461.2 799.225 1468.33 Q799.225 1475.44 801.03 1479.01 Q802.859 1482.55 806.47 1482.55 Q810.104 1482.55 811.91 1479.01 Q813.738 1475.44 813.738 1468.33 Q813.738 1461.2 811.91 1457.66 Q810.104 1454.1 806.47 1454.1 M806.47 1450.39 Q812.28 1450.39 815.336 1455 Q818.414 1459.58 818.414 1468.33 Q818.414 1477.06 815.336 1481.67 Q812.28 1486.25 806.47 1486.25 Q800.66 1486.25 797.581 1481.67 Q794.526 1477.06 794.526 1468.33 Q794.526 1459.58 797.581 1455 Q800.66 1450.39 806.47 1450.39 Z" fill="#000000" fill-rule="evenodd" fill-opacity="1" /><path clip-path="url(#clip370)" d="M836.632 1454.1 Q833.021 1454.1 831.192 1457.66 Q829.386 1461.2 829.386 1468.33 Q829.386 1475.44 831.192 1479.01 Q833.021 1482.55 836.632 1482.55 Q840.266 1482.55 842.072 1479.01 Q843.9 1475.44 843.9 1468.33 Q843.9 1461.2 842.072 1457.66 Q840.266 1454.1 836.632 1454.1 M836.632 1450.39 Q842.442 1450.39 845.498 1455 Q848.576 1459.58 848.576 1468.33 Q848.576 1477.06 845.498 1481.67 Q842.442 1486.25 836.632 1486.25 Q830.822 1486.25 827.743 1481.67 Q824.687 1477.06 824.687 1468.33 Q824.687 1459.58 827.743 1455 Q830.822 1450.39 836.632 1450.39 Z" fill="#000000" fill-rule="evenodd" fill-opacity="1" /><path clip-path="url(#clip370)" d="M866.794 1454.1 Q863.183 1454.1 861.354 1457.66 Q859.548 1461.2 859.548 1468.33 Q859.548 1475.44 861.354 1479.01 Q863.183 1482.55 866.794 1482.55 Q870.428 1482.55 872.233 1479.01 Q874.062 1475.44 874.062 1468.33 Q874.062 1461.2 872.233 1457.66 Q870.428 1454.1 866.794 1454.1 M866.794 1450.39 Q872.604 1450.39 875.659 1455 Q878.738 1459.58 878.738 1468.33 Q878.738 1477.06 875.659 1481.67 Q872.604 1486.25 866.794 1486.25 Q860.984 1486.25 857.905 1481.67 Q854.849 1477.06 854.849 1468.33 Q854.849 1459.58 857.905 1455 Q860.984 1450.39 866.794 1450.39 Z" fill="#000000" fill-rule="evenodd" fill-opacity="1" /><path clip-path="url(#clip370)" d="M1271.9 1481.64 L1288.22 1481.64 L1288.22 1485.58 L1266.28 1485.58 L1266.28 1481.64 Q1268.94 1478.89 1273.52 1474.26 Q1278.13 1469.61 1279.31 1468.27 Q1281.56 1465.74 1282.44 1464.01 Q1283.34 1462.25 1283.34 1460.56 Q1283.34 1457.8 1281.39 1456.07 Q1279.47 1454.33 1276.37 1454.33 Q1274.17 1454.33 1271.72 1455.09 Q1269.29 1455.86 1266.51 1457.41 L1266.51 1452.69 Q1269.33 1451.55 1271.79 1450.97 Q1274.24 1450.39 1276.28 1450.39 Q1281.65 1450.39 1284.84 1453.08 Q1288.04 1455.77 1288.04 1460.26 Q1288.04 1462.39 1287.23 1464.31 Q1286.44 1466.2 1284.33 1468.8 Q1283.76 1469.47 1280.65 1472.69 Q1277.55 1475.88 1271.9 1481.64 Z" fill="#000000" fill-rule="evenodd" fill-opacity="1" /><path clip-path="url(#clip370)" d="M1308.04 1454.1 Q1304.43 1454.1 1302.6 1457.66 Q1300.79 1461.2 1300.79 1468.33 Q1300.79 1475.44 1302.6 1479.01 Q1304.43 1482.55 1308.04 1482.55 Q1311.67 1482.55 1313.48 1479.01 Q1315.31 1475.44 1315.31 1468.33 Q1315.31 1461.2 1313.48 1457.66 Q1311.67 1454.1 1308.04 1454.1 M1308.04 1450.39 Q1313.85 1450.39 1316.9 1455 Q1319.98 1459.58 1319.98 1468.33 Q1319.98 1477.06 1316.9 1481.67 Q1313.85 1486.25 1308.04 1486.25 Q1302.23 1486.25 1299.15 1481.67 Q1296.09 1477.06 1296.09 1468.33 Q1296.09 1459.58 1299.15 1455 Q1302.23 1450.39 1308.04 1450.39 Z" fill="#000000" fill-rule="evenodd" fill-opacity="1" /><path clip-path="url(#clip370)" d="M1338.2 1454.1 Q1334.59 1454.1 1332.76 1457.66 Q1330.95 1461.2 1330.95 1468.33 Q1330.95 1475.44 1332.76 1479.01 Q1334.59 1482.55 1338.2 1482.55 Q1341.83 1482.55 1343.64 1479.01 Q1345.47 1475.44 1345.47 1468.33 Q1345.47 1461.2 1343.64 1457.66 Q1341.83 1454.1 1338.2 1454.1 M1338.2 1450.39 Q1344.01 1450.39 1347.07 1455 Q1350.14 1459.58 1350.14 1468.33 Q1350.14 1477.06 1347.07 1481.67 Q1344.01 1486.25 1338.2 1486.25 Q1332.39 1486.25 1329.31 1481.67 Q1326.26 1477.06 1326.26 1468.33 Q1326.26 1459.58 1329.31 1455 Q1332.39 1450.39 1338.2 1450.39 Z" fill="#000000" fill-rule="evenodd" fill-opacity="1" /><path clip-path="url(#clip370)" d="M1368.36 1454.1 Q1364.75 1454.1 1362.92 1457.66 Q1361.12 1461.2 1361.12 1468.33 Q1361.12 1475.44 1362.92 1479.01 Q1364.75 1482.55 1368.36 1482.55 Q1372 1482.55 1373.8 1479.01 Q1375.63 1475.44 1375.63 1468.33 Q1375.63 1461.2 1373.8 1457.66 Q1372 1454.1 1368.36 1454.1 M1368.36 1450.39 Q1374.17 1450.39 1377.23 1455 Q1380.31 1459.58 1380.31 1468.33 Q1380.31 1477.06 1377.23 1481.67 Q1374.17 1486.25 1368.36 1486.25 Q1362.55 1486.25 1359.47 1481.67 Q1356.42 1477.06 1356.42 1468.33 Q1356.42 1459.58 1359.47 1455 Q1362.55 1450.39 1368.36 1450.39 Z" fill="#000000" fill-rule="evenodd" fill-opacity="1" /><path clip-path="url(#clip370)" d="M1782.67 1466.95 Q1786.03 1467.66 1787.9 1469.93 Q1789.8 1472.2 1789.8 1475.53 Q1789.8 1480.65 1786.28 1483.45 Q1782.77 1486.25 1776.28 1486.25 Q1774.11 1486.25 1771.79 1485.81 Q1769.5 1485.39 1767.05 1484.54 L1767.05 1480.02 Q1768.99 1481.16 1771.31 1481.74 Q1773.62 1482.32 1776.15 1482.32 Q1780.54 1482.32 1782.83 1480.58 Q1785.15 1478.84 1785.15 1475.53 Q1785.15 1472.48 1783 1470.77 Q1780.87 1469.03 1777.05 1469.03 L1773.02 1469.03 L1773.02 1465.19 L1777.23 1465.19 Q1780.68 1465.19 1782.51 1463.82 Q1784.34 1462.43 1784.34 1459.84 Q1784.34 1457.18 1782.44 1455.77 Q1780.57 1454.33 1777.05 1454.33 Q1775.13 1454.33 1772.93 1454.75 Q1770.73 1455.16 1768.09 1456.04 L1768.09 1451.88 Q1770.75 1451.14 1773.07 1450.77 Q1775.4 1450.39 1777.46 1450.39 Q1782.79 1450.39 1785.89 1452.83 Q1788.99 1455.23 1788.99 1459.35 Q1788.99 1462.22 1787.35 1464.21 Q1785.71 1466.18 1782.67 1466.95 Z" fill="#000000" fill-rule="evenodd" fill-opacity="1" /><path clip-path="url(#clip370)" d="M1808.67 1454.1 Q1805.06 1454.1 1803.23 1457.66 Q1801.42 1461.2 1801.42 1468.33 Q1801.42 1475.44 1803.23 1479.01 Q1805.06 1482.55 1808.67 1482.55 Q1812.3 1482.55 1814.11 1479.01 Q1815.94 1475.44 1815.94 1468.33 Q1815.94 1461.2 1814.11 1457.66 Q1812.3 1454.1 1808.67 1454.1 M1808.67 1450.39 Q1814.48 1450.39 1817.53 1455 Q1820.61 1459.58 1820.61 1468.33 Q1820.61 1477.06 1817.53 1481.67 Q1814.48 1486.25 1808.67 1486.25 Q1802.86 1486.25 1799.78 1481.67 Q1796.72 1477.06 1796.72 1468.33 Q1796.72 1459.58 1799.78 1455 Q1802.86 1450.39 1808.67 1450.39 Z" fill="#000000" fill-rule="evenodd" fill-opacity="1" /><path clip-path="url(#clip370)" d="M1838.83 1454.1 Q1835.22 1454.1 1833.39 1457.66 Q1831.58 1461.2 1831.58 1468.33 Q1831.58 1475.44 1833.39 1479.01 Q1835.22 1482.55 1838.83 1482.55 Q1842.46 1482.55 1844.27 1479.01 Q1846.1 1475.44 1846.1 1468.33 Q1846.1 1461.2 1844.27 1457.66 Q1842.46 1454.1 1838.83 1454.1 M1838.83 1450.39 Q1844.64 1450.39 1847.7 1455 Q1850.77 1459.58 1850.77 1468.33 Q1850.77 1477.06 1847.7 1481.67 Q1844.64 1486.25 1838.83 1486.25 Q1833.02 1486.25 1829.94 1481.67 Q1826.89 1477.06 1826.89 1468.33 Q1826.89 1459.58 1829.94 1455 Q1833.02 1450.39 1838.83 1450.39 Z" fill="#000000" fill-rule="evenodd" fill-opacity="1" /><path clip-path="url(#clip370)" d="M1868.99 1454.1 Q1865.38 1454.1 1863.55 1457.66 Q1861.75 1461.2 1861.75 1468.33 Q1861.75 1475.44 1863.55 1479.01 Q1865.38 1482.55 1868.99 1482.55 Q1872.63 1482.55 1874.43 1479.01 Q1876.26 1475.44 1876.26 1468.33 Q1876.26 1461.2 1874.43 1457.66 Q1872.63 1454.1 1868.99 1454.1 M1868.99 1450.39 Q1874.8 1450.39 1877.86 1455 Q1880.94 1459.58 1880.94 1468.33 Q1880.94 1477.06 1877.86 1481.67 Q1874.8 1486.25 1868.99 1486.25 Q1863.18 1486.25 1860.1 1481.67 Q1857.05 1477.06 1857.05 1468.33 Q1857.05 1459.58 1860.1 1455 Q1863.18 1450.39 1868.99 1450.39 Z" fill="#000000" fill-rule="evenodd" fill-opacity="1" /><path clip-path="url(#clip370)" d="M2282.7 1455.09 L2270.9 1473.54 L2282.7 1473.54 L2282.7 1455.09 M2281.47 1451.02 L2287.35 1451.02 L2287.35 1473.54 L2292.28 1473.54 L2292.28 1477.43 L2287.35 1477.43 L2287.35 1485.58 L2282.7 1485.58 L2282.7 1477.43 L2267.1 1477.43 L2267.1 1472.92 L2281.47 1451.02 Z" fill="#000000" fill-rule="evenodd" fill-opacity="1" /><path clip-path="url(#clip370)" d="M2310.02 1454.1 Q2306.4 1454.1 2304.58 1457.66 Q2302.77 1461.2 2302.77 1468.33 Q2302.77 1475.44 2304.58 1479.01 Q2306.4 1482.55 2310.02 1482.55 Q2313.65 1482.55 2315.46 1479.01 Q2317.28 1475.44 2317.28 1468.33 Q2317.28 1461.2 2315.46 1457.66 Q2313.65 1454.1 2310.02 1454.1 M2310.02 1450.39 Q2315.83 1450.39 2318.88 1455 Q2321.96 1459.58 2321.96 1468.33 Q2321.96 1477.06 2318.88 1481.67 Q2315.83 1486.25 2310.02 1486.25 Q2304.21 1486.25 2301.13 1481.67 Q2298.07 1477.06 2298.07 1468.33 Q2298.07 1459.58 2301.13 1455 Q2304.21 1450.39 2310.02 1450.39 Z" fill="#000000" fill-rule="evenodd" fill-opacity="1" /><path clip-path="url(#clip370)" d="M2340.18 1454.1 Q2336.57 1454.1 2334.74 1457.66 Q2332.93 1461.2 2332.93 1468.33 Q2332.93 1475.44 2334.74 1479.01 Q2336.57 1482.55 2340.18 1482.55 Q2343.81 1482.55 2345.62 1479.01 Q2347.45 1475.44 2347.45 1468.33 Q2347.45 1461.2 2345.62 1457.66 Q2343.81 1454.1 2340.18 1454.1 M2340.18 1450.39 Q2345.99 1450.39 2349.04 1455 Q2352.12 1459.58 2352.12 1468.33 Q2352.12 1477.06 2349.04 1481.67 Q2345.99 1486.25 2340.18 1486.25 Q2334.37 1486.25 2331.29 1481.67 Q2328.23 1477.06 2328.23 1468.33 Q2328.23 1459.58 2331.29 1455 Q2334.37 1450.39 2340.18 1450.39 Z" fill="#000000" fill-rule="evenodd" fill-opacity="1" /><path clip-path="url(#clip370)" d="M2370.34 1454.1 Q2366.73 1454.1 2364.9 1457.66 Q2363.09 1461.2 2363.09 1468.33 Q2363.09 1475.44 2364.9 1479.01 Q2366.73 1482.55 2370.34 1482.55 Q2373.97 1482.55 2375.78 1479.01 Q2377.61 1475.44 2377.61 1468.33 Q2377.61 1461.2 2375.78 1457.66 Q2373.97 1454.1 2370.34 1454.1 M2370.34 1450.39 Q2376.15 1450.39 2379.21 1455 Q2382.28 1459.58 2382.28 1468.33 Q2382.28 1477.06 2379.21 1481.67 Q2376.15 1486.25 2370.34 1486.25 Q2364.53 1486.25 2361.45 1481.67 Q2358.4 1477.06 2358.4 1468.33 Q2358.4 1459.58 2361.45 1455 Q2364.53 1450.39 2370.34 1450.39 Z" fill="#000000" fill-rule="evenodd" fill-opacity="1" /><path clip-path="url(#clip370)" d="M1325.14 1532.4 L1312.25 1549.74 L1325.8 1568.04 L1318.9 1568.04 L1308.52 1554.04 L1298.15 1568.04 L1291.24 1568.04 L1305.08 1549.39 L1292.42 1532.4 L1299.32 1532.4 L1308.78 1545.1 L1318.23 1532.4 L1325.14 1532.4 Z" fill="#000000" fill-rule="evenodd" fill-opacity="1" /><polyline clip-path="url(#clip372)" style="stroke:#000000; stroke-linecap:round; stroke-linejoin:round; stroke-width:2; stroke-opacity:0.1; fill:none" points="
  264.287,1240.42 2352.76,1240.42 
  "/>
<polyline clip-path="url(#clip372)" style="stroke:#000000; stroke-linecap:round; stroke-linejoin:round; stroke-width:2; stroke-opacity:0.1; fill:none" points="
  264.287,990.068 2352.76,990.068 
  "/>
<polyline clip-path="url(#clip372)" style="stroke:#000000; stroke-linecap:round; stroke-linejoin:round; stroke-width:2; stroke-opacity:0.1; fill:none" points="
  264.287,739.718 2352.76,739.718 
  "/>
<polyline clip-path="url(#clip372)" style="stroke:#000000; stroke-linecap:round; stroke-linejoin:round; stroke-width:2; stroke-opacity:0.1; fill:none" points="
  264.287,489.368 2352.76,489.368 
  "/>
<polyline clip-path="url(#clip372)" style="stroke:#000000; stroke-linecap:round; stroke-linejoin:round; stroke-width:2; stroke-opacity:0.1; fill:none" points="
  264.287,239.019 2352.76,239.019 
  "/>
<polyline clip-path="url(#clip370)" style="stroke:#000000; stroke-linecap:round; stroke-linejoin:round; stroke-width:4; stroke-opacity:1; fill:none" points="
  264.287,1423.18 264.287,47.2441 
  "/>
<polyline clip-path="url(#clip370)" style="stroke:#000000; stroke-linecap:round; stroke-linejoin:round; stroke-width:4; stroke-opacity:1; fill:none" points="
  264.287,1240.42 283.185,1240.42 
  "/>
<polyline clip-path="url(#clip370)" style="stroke:#000000; stroke-linecap:round; stroke-linejoin:round; stroke-width:4; stroke-opacity:1; fill:none" points="
  264.287,990.068 283.185,990.068 
  "/>
<polyline clip-path="url(#clip370)" style="stroke:#000000; stroke-linecap:round; stroke-linejoin:round; stroke-width:4; stroke-opacity:1; fill:none" points="
  264.287,739.718 283.185,739.718 
  "/>
<polyline clip-path="url(#clip370)" style="stroke:#000000; stroke-linecap:round; stroke-linejoin:round; stroke-width:4; stroke-opacity:1; fill:none" points="
  264.287,489.368 283.185,489.368 
  "/>
<polyline clip-path="url(#clip370)" style="stroke:#000000; stroke-linecap:round; stroke-linejoin:round; stroke-width:4; stroke-opacity:1; fill:none" points="
  264.287,239.019 283.185,239.019 
  "/>
<path clip-path="url(#clip370)" d="M216.343 1226.22 Q212.732 1226.22 210.903 1229.78 Q209.098 1233.32 209.098 1240.45 Q209.098 1247.56 210.903 1251.12 Q212.732 1254.67 216.343 1254.67 Q219.977 1254.67 221.783 1251.12 Q223.611 1247.56 223.611 1240.45 Q223.611 1233.32 221.783 1229.78 Q219.977 1226.22 216.343 1226.22 M216.343 1222.51 Q222.153 1222.51 225.209 1227.12 Q228.287 1231.7 228.287 1240.45 Q228.287 1249.18 225.209 1253.79 Q222.153 1258.37 216.343 1258.37 Q210.533 1258.37 207.454 1253.79 Q204.399 1249.18 204.399 1240.45 Q204.399 1231.7 207.454 1227.12 Q210.533 1222.51 216.343 1222.51 Z" fill="#000000" fill-rule="evenodd" fill-opacity="1" /><path clip-path="url(#clip370)" d="M146.066 972.788 L164.422 972.788 L164.422 976.723 L150.348 976.723 L150.348 985.195 Q151.366 984.848 152.385 984.686 Q153.403 984.501 154.422 984.501 Q160.209 984.501 163.589 987.672 Q166.968 990.844 166.968 996.26 Q166.968 1001.84 163.496 1004.94 Q160.024 1008.02 153.704 1008.02 Q151.528 1008.02 149.26 1007.65 Q147.015 1007.28 144.607 1006.54 L144.607 1001.84 Q146.691 1002.97 148.913 1003.53 Q151.135 1004.08 153.612 1004.08 Q157.616 1004.08 159.954 1001.98 Q162.292 999.871 162.292 996.26 Q162.292 992.649 159.954 990.543 Q157.616 988.436 153.612 988.436 Q151.737 988.436 149.862 988.853 Q148.01 989.27 146.066 990.149 L146.066 972.788 Z" fill="#000000" fill-rule="evenodd" fill-opacity="1" /><path clip-path="url(#clip370)" d="M186.181 975.867 Q182.57 975.867 180.741 979.432 Q178.936 982.973 178.936 990.103 Q178.936 997.209 180.741 1000.77 Q182.57 1004.32 186.181 1004.32 Q189.815 1004.32 191.621 1000.77 Q193.45 997.209 193.45 990.103 Q193.45 982.973 191.621 979.432 Q189.815 975.867 186.181 975.867 M186.181 972.163 Q191.991 972.163 195.047 976.77 Q198.125 981.353 198.125 990.103 Q198.125 998.83 195.047 1003.44 Q191.991 1008.02 186.181 1008.02 Q180.371 1008.02 177.292 1003.44 Q174.237 998.83 174.237 990.103 Q174.237 981.353 177.292 976.77 Q180.371 972.163 186.181 972.163 Z" fill="#000000" fill-rule="evenodd" fill-opacity="1" /><path clip-path="url(#clip370)" d="M216.343 975.867 Q212.732 975.867 210.903 979.432 Q209.098 982.973 209.098 990.103 Q209.098 997.209 210.903 1000.77 Q212.732 1004.32 216.343 1004.32 Q219.977 1004.32 221.783 1000.77 Q223.611 997.209 223.611 990.103 Q223.611 982.973 221.783 979.432 Q219.977 975.867 216.343 975.867 M216.343 972.163 Q222.153 972.163 225.209 976.77 Q228.287 981.353 228.287 990.103 Q228.287 998.83 225.209 1003.44 Q222.153 1008.02 216.343 1008.02 Q210.533 1008.02 207.454 1003.44 Q204.399 998.83 204.399 990.103 Q204.399 981.353 207.454 976.77 Q210.533 972.163 216.343 972.163 Z" fill="#000000" fill-rule="evenodd" fill-opacity="1" /><path clip-path="url(#clip370)" d="M116.668 753.063 L124.306 753.063 L124.306 726.698 L115.996 728.364 L115.996 724.105 L124.26 722.438 L128.936 722.438 L128.936 753.063 L136.575 753.063 L136.575 756.998 L116.668 756.998 L116.668 753.063 Z" fill="#000000" fill-rule="evenodd" fill-opacity="1" /><path clip-path="url(#clip370)" d="M156.019 725.517 Q152.408 725.517 150.579 729.082 Q148.774 732.623 148.774 739.753 Q148.774 746.859 150.579 750.424 Q152.408 753.966 156.019 753.966 Q159.653 753.966 161.459 750.424 Q163.288 746.859 163.288 739.753 Q163.288 732.623 161.459 729.082 Q159.653 725.517 156.019 725.517 M156.019 721.813 Q161.829 721.813 164.885 726.42 Q167.964 731.003 167.964 739.753 Q167.964 748.48 164.885 753.086 Q161.829 757.67 156.019 757.67 Q150.209 757.67 147.13 753.086 Q144.075 748.48 144.075 739.753 Q144.075 731.003 147.13 726.42 Q150.209 721.813 156.019 721.813 Z" fill="#000000" fill-rule="evenodd" fill-opacity="1" /><path clip-path="url(#clip370)" d="M186.181 725.517 Q182.57 725.517 180.741 729.082 Q178.936 732.623 178.936 739.753 Q178.936 746.859 180.741 750.424 Q182.57 753.966 186.181 753.966 Q189.815 753.966 191.621 750.424 Q193.45 746.859 193.45 739.753 Q193.45 732.623 191.621 729.082 Q189.815 725.517 186.181 725.517 M186.181 721.813 Q191.991 721.813 195.047 726.42 Q198.125 731.003 198.125 739.753 Q198.125 748.48 195.047 753.086 Q191.991 757.67 186.181 757.67 Q180.371 757.67 177.292 753.086 Q174.237 748.48 174.237 739.753 Q174.237 731.003 177.292 726.42 Q180.371 721.813 186.181 721.813 Z" fill="#000000" fill-rule="evenodd" fill-opacity="1" /><path clip-path="url(#clip370)" d="M216.343 725.517 Q212.732 725.517 210.903 729.082 Q209.098 732.623 209.098 739.753 Q209.098 746.859 210.903 750.424 Q212.732 753.966 216.343 753.966 Q219.977 753.966 221.783 750.424 Q223.611 746.859 223.611 739.753 Q223.611 732.623 221.783 729.082 Q219.977 725.517 216.343 725.517 M216.343 721.813 Q222.153 721.813 225.209 726.42 Q228.287 731.003 228.287 739.753 Q228.287 748.48 225.209 753.086 Q222.153 757.67 216.343 757.67 Q210.533 757.67 207.454 753.086 Q204.399 748.48 204.399 739.753 Q204.399 731.003 207.454 726.42 Q210.533 721.813 216.343 721.813 Z" fill="#000000" fill-rule="evenodd" fill-opacity="1" /><path clip-path="url(#clip370)" d="M116.668 502.713 L124.306 502.713 L124.306 476.348 L115.996 478.014 L115.996 473.755 L124.26 472.088 L128.936 472.088 L128.936 502.713 L136.575 502.713 L136.575 506.648 L116.668 506.648 L116.668 502.713 Z" fill="#000000" fill-rule="evenodd" fill-opacity="1" /><path clip-path="url(#clip370)" d="M146.066 472.088 L164.422 472.088 L164.422 476.024 L150.348 476.024 L150.348 484.496 Q151.366 484.149 152.385 483.986 Q153.403 483.801 154.422 483.801 Q160.209 483.801 163.589 486.973 Q166.968 490.144 166.968 495.561 Q166.968 501.139 163.496 504.241 Q160.024 507.32 153.704 507.32 Q151.528 507.32 149.26 506.949 Q147.015 506.579 144.607 505.838 L144.607 501.139 Q146.691 502.273 148.913 502.829 Q151.135 503.385 153.612 503.385 Q157.616 503.385 159.954 501.278 Q162.292 499.172 162.292 495.561 Q162.292 491.949 159.954 489.843 Q157.616 487.736 153.612 487.736 Q151.737 487.736 149.862 488.153 Q148.01 488.57 146.066 489.449 L146.066 472.088 Z" fill="#000000" fill-rule="evenodd" fill-opacity="1" /><path clip-path="url(#clip370)" d="M186.181 475.167 Q182.57 475.167 180.741 478.732 Q178.936 482.274 178.936 489.403 Q178.936 496.51 180.741 500.074 Q182.57 503.616 186.181 503.616 Q189.815 503.616 191.621 500.074 Q193.45 496.51 193.45 489.403 Q193.45 482.274 191.621 478.732 Q189.815 475.167 186.181 475.167 M186.181 471.463 Q191.991 471.463 195.047 476.07 Q198.125 480.653 198.125 489.403 Q198.125 498.13 195.047 502.736 Q191.991 507.32 186.181 507.32 Q180.371 507.32 177.292 502.736 Q174.237 498.13 174.237 489.403 Q174.237 480.653 177.292 476.07 Q180.371 471.463 186.181 471.463 Z" fill="#000000" fill-rule="evenodd" fill-opacity="1" /><path clip-path="url(#clip370)" d="M216.343 475.167 Q212.732 475.167 210.903 478.732 Q209.098 482.274 209.098 489.403 Q209.098 496.51 210.903 500.074 Q212.732 503.616 216.343 503.616 Q219.977 503.616 221.783 500.074 Q223.611 496.51 223.611 489.403 Q223.611 482.274 221.783 478.732 Q219.977 475.167 216.343 475.167 M216.343 471.463 Q222.153 471.463 225.209 476.07 Q228.287 480.653 228.287 489.403 Q228.287 498.13 225.209 502.736 Q222.153 507.32 216.343 507.32 Q210.533 507.32 207.454 502.736 Q204.399 498.13 204.399 489.403 Q204.399 480.653 207.454 476.07 Q210.533 471.463 216.343 471.463 Z" fill="#000000" fill-rule="evenodd" fill-opacity="1" /><path clip-path="url(#clip370)" d="M119.885 252.363 L136.204 252.363 L136.204 256.299 L114.26 256.299 L114.26 252.363 Q116.922 249.609 121.505 244.979 Q126.112 240.326 127.292 238.984 Q129.538 236.461 130.417 234.725 Q131.32 232.965 131.32 231.276 Q131.32 228.521 129.376 226.785 Q127.455 225.049 124.353 225.049 Q122.154 225.049 119.7 225.813 Q117.269 226.576 114.492 228.127 L114.492 223.405 Q117.316 222.271 119.769 221.692 Q122.223 221.114 124.26 221.114 Q129.63 221.114 132.825 223.799 Q136.019 226.484 136.019 230.975 Q136.019 233.104 135.209 235.026 Q134.422 236.924 132.316 239.516 Q131.737 240.188 128.635 243.405 Q125.533 246.6 119.885 252.363 Z" fill="#000000" fill-rule="evenodd" fill-opacity="1" /><path clip-path="url(#clip370)" d="M156.019 224.817 Q152.408 224.817 150.579 228.382 Q148.774 231.924 148.774 239.053 Q148.774 246.16 150.579 249.725 Q152.408 253.266 156.019 253.266 Q159.653 253.266 161.459 249.725 Q163.288 246.16 163.288 239.053 Q163.288 231.924 161.459 228.382 Q159.653 224.817 156.019 224.817 M156.019 221.114 Q161.829 221.114 164.885 225.72 Q167.964 230.303 167.964 239.053 Q167.964 247.78 164.885 252.387 Q161.829 256.97 156.019 256.97 Q150.209 256.97 147.13 252.387 Q144.075 247.78 144.075 239.053 Q144.075 230.303 147.13 225.72 Q150.209 221.114 156.019 221.114 Z" fill="#000000" fill-rule="evenodd" fill-opacity="1" /><path clip-path="url(#clip370)" d="M186.181 224.817 Q182.57 224.817 180.741 228.382 Q178.936 231.924 178.936 239.053 Q178.936 246.16 180.741 249.725 Q182.57 253.266 186.181 253.266 Q189.815 253.266 191.621 249.725 Q193.45 246.16 193.45 239.053 Q193.45 231.924 191.621 228.382 Q189.815 224.817 186.181 224.817 M186.181 221.114 Q191.991 221.114 195.047 225.72 Q198.125 230.303 198.125 239.053 Q198.125 247.78 195.047 252.387 Q191.991 256.97 186.181 256.97 Q180.371 256.97 177.292 252.387 Q174.237 247.78 174.237 239.053 Q174.237 230.303 177.292 225.72 Q180.371 221.114 186.181 221.114 Z" fill="#000000" fill-rule="evenodd" fill-opacity="1" /><path clip-path="url(#clip370)" d="M216.343 224.817 Q212.732 224.817 210.903 228.382 Q209.098 231.924 209.098 239.053 Q209.098 246.16 210.903 249.725 Q212.732 253.266 216.343 253.266 Q219.977 253.266 221.783 249.725 Q223.611 246.16 223.611 239.053 Q223.611 231.924 221.783 228.382 Q219.977 224.817 216.343 224.817 M216.343 221.114 Q222.153 221.114 225.209 225.72 Q228.287 230.303 228.287 239.053 Q228.287 247.78 225.209 252.387 Q222.153 256.97 216.343 256.97 Q210.533 256.97 207.454 252.387 Q204.399 247.78 204.399 239.053 Q204.399 230.303 207.454 225.72 Q210.533 221.114 216.343 221.114 Z" fill="#000000" fill-rule="evenodd" fill-opacity="1" /><path clip-path="url(#clip370)" d="M67.3143 733.525 Q73.68 736.008 75.6216 738.363 Q77.5631 740.718 77.5631 744.665 L77.5631 749.344 L72.6615 749.344 L72.6615 745.906 Q72.6615 743.487 71.5157 742.151 Q70.3699 740.814 66.1048 739.191 L63.4312 738.14 L28.3562 752.559 L28.3562 746.352 L56.238 735.212 L28.3562 724.072 L28.3562 717.865 L67.3143 733.525 Z" fill="#000000" fill-rule="evenodd" fill-opacity="1" /><polyline clip-path="url(#clip372)" style="stroke:#009af9; stroke-linecap:round; stroke-linejoin:round; stroke-width:4; stroke-opacity:1; fill:none" points="
  352.436,1199.86 515.664,1145.29 512.159,1001.08 533.188,969.039 669.378,964.032 744.483,980.054 770.52,887.425 696.917,779.774 741.98,561.97 713.44,508.395 
  410.517,544.445 418.528,634.571 521.672,814.823 471.101,932.488 407.512,983.058 495.636,1114.24 556.22,1080.69 965.793,965.033 929.242,784.781 1067.94,678.132 
  1034.39,578.493 1085.96,433.29 803.566,291.592 675.387,276.571 323.395,330.647 357.443,577.992 510.156,730.706 600.282,711.679 635.832,609.036 603.787,482.859 
  687.904,368.7 867.656,413.262 913.72,312.621 1171.58,277.072 1220.15,444.806 1187.6,490.37 1338.31,646.588 1327.8,658.104 1323.29,684.641 1214.14,742.222 
  1237.67,833.85 1129.02,1076.19 1081.45,1107.23 1091.97,1128.26 1509.55,1176.83 1630.72,1142.78 1788.44,997.579 1792.95,968.538 1723.85,913.461 1724.35,892.432 
  1738.87,852.376 1672.78,629.064 1643.24,620.051 1644.74,605.03 1568.13,479.354 1418.93,449.813 1389.38,523.416 1479.51,604.529 1488.52,869.399 1478.51,922.474 
  1575.14,1064.17 1638.73,1230.4 1832.5,1186.34 1854.03,1162.81 1885.58,1131.77 1970.2,1164.31 2121.91,1184.84 2235.07,1166.82 2293.65,982.057 2272.62,868.899 
  2283.63,695.657 2262.6,657.103 2276.62,517.408 2253.59,503.388 2241.58,325.64 2215.54,306.613 2081.85,293.094 2077.85,313.623 2032.78,335.153 1946.66,325.139 
  1881.07,424.778 1792.45,455.321 1694.31,447.81 1527.58,365.696 1536.59,313.623 1982.71,256.042 2050.81,240.02 2129.92,255.041 2161.96,478.353 1934.15,512.401 
  1894.09,538.938 1853.03,601.525 1890.59,668.118 2043.3,789.288 2009.25,844.365 1866.05,852.876 1866.05,865.895 1905.11,1056.66 2166.47,1017.61 2239.07,983.559 
  
  "/>
<circle clip-path="url(#clip372)" cx="352.436" cy="1199.86" r="7.2" fill="#009af9" fill-rule="evenodd" fill-opacity="1" stroke="#000000" stroke-opacity="1" stroke-width="3.2"/>
<circle clip-path="url(#clip372)" cx="515.664" cy="1145.29" r="7.2" fill="#009af9" fill-rule="evenodd" fill-opacity="1" stroke="#000000" stroke-opacity="1" stroke-width="3.2"/>
<circle clip-path="url(#clip372)" cx="512.159" cy="1001.08" r="7.2" fill="#009af9" fill-rule="evenodd" fill-opacity="1" stroke="#000000" stroke-opacity="1" stroke-width="3.2"/>
<circle clip-path="url(#clip372)" cx="533.188" cy="969.039" r="7.2" fill="#009af9" fill-rule="evenodd" fill-opacity="1" stroke="#000000" stroke-opacity="1" stroke-width="3.2"/>
<circle clip-path="url(#clip372)" cx="669.378" cy="964.032" r="7.2" fill="#009af9" fill-rule="evenodd" fill-opacity="1" stroke="#000000" stroke-opacity="1" stroke-width="3.2"/>
<circle clip-path="url(#clip372)" cx="744.483" cy="980.054" r="7.2" fill="#009af9" fill-rule="evenodd" fill-opacity="1" stroke="#000000" stroke-opacity="1" stroke-width="3.2"/>
<circle clip-path="url(#clip372)" cx="770.52" cy="887.425" r="7.2" fill="#009af9" fill-rule="evenodd" fill-opacity="1" stroke="#000000" stroke-opacity="1" stroke-width="3.2"/>
<circle clip-path="url(#clip372)" cx="696.917" cy="779.774" r="7.2" fill="#009af9" fill-rule="evenodd" fill-opacity="1" stroke="#000000" stroke-opacity="1" stroke-width="3.2"/>
<circle clip-path="url(#clip372)" cx="741.98" cy="561.97" r="7.2" fill="#009af9" fill-rule="evenodd" fill-opacity="1" stroke="#000000" stroke-opacity="1" stroke-width="3.2"/>
<circle clip-path="url(#clip372)" cx="713.44" cy="508.395" r="7.2" fill="#009af9" fill-rule="evenodd" fill-opacity="1" stroke="#000000" stroke-opacity="1" stroke-width="3.2"/>
<circle clip-path="url(#clip372)" cx="410.517" cy="544.445" r="7.2" fill="#009af9" fill-rule="evenodd" fill-opacity="1" stroke="#000000" stroke-opacity="1" stroke-width="3.2"/>
<circle clip-path="url(#clip372)" cx="418.528" cy="634.571" r="7.2" fill="#009af9" fill-rule="evenodd" fill-opacity="1" stroke="#000000" stroke-opacity="1" stroke-width="3.2"/>
<circle clip-path="url(#clip372)" cx="521.672" cy="814.823" r="7.2" fill="#009af9" fill-rule="evenodd" fill-opacity="1" stroke="#000000" stroke-opacity="1" stroke-width="3.2"/>
<circle clip-path="url(#clip372)" cx="471.101" cy="932.488" r="7.2" fill="#009af9" fill-rule="evenodd" fill-opacity="1" stroke="#000000" stroke-opacity="1" stroke-width="3.2"/>
<circle clip-path="url(#clip372)" cx="407.512" cy="983.058" r="7.2" fill="#009af9" fill-rule="evenodd" fill-opacity="1" stroke="#000000" stroke-opacity="1" stroke-width="3.2"/>
<circle clip-path="url(#clip372)" cx="495.636" cy="1114.24" r="7.2" fill="#009af9" fill-rule="evenodd" fill-opacity="1" stroke="#000000" stroke-opacity="1" stroke-width="3.2"/>
<circle clip-path="url(#clip372)" cx="556.22" cy="1080.69" r="7.2" fill="#009af9" fill-rule="evenodd" fill-opacity="1" stroke="#000000" stroke-opacity="1" stroke-width="3.2"/>
<circle clip-path="url(#clip372)" cx="965.793" cy="965.033" r="7.2" fill="#009af9" fill-rule="evenodd" fill-opacity="1" stroke="#000000" stroke-opacity="1" stroke-width="3.2"/>
<circle clip-path="url(#clip372)" cx="929.242" cy="784.781" r="7.2" fill="#009af9" fill-rule="evenodd" fill-opacity="1" stroke="#000000" stroke-opacity="1" stroke-width="3.2"/>
<circle clip-path="url(#clip372)" cx="1067.94" cy="678.132" r="7.2" fill="#009af9" fill-rule="evenodd" fill-opacity="1" stroke="#000000" stroke-opacity="1" stroke-width="3.2"/>
<circle clip-path="url(#clip372)" cx="1034.39" cy="578.493" r="7.2" fill="#009af9" fill-rule="evenodd" fill-opacity="1" stroke="#000000" stroke-opacity="1" stroke-width="3.2"/>
<circle clip-path="url(#clip372)" cx="1085.96" cy="433.29" r="7.2" fill="#009af9" fill-rule="evenodd" fill-opacity="1" stroke="#000000" stroke-opacity="1" stroke-width="3.2"/>
<circle clip-path="url(#clip372)" cx="803.566" cy="291.592" r="7.2" fill="#009af9" fill-rule="evenodd" fill-opacity="1" stroke="#000000" stroke-opacity="1" stroke-width="3.2"/>
<circle clip-path="url(#clip372)" cx="675.387" cy="276.571" r="7.2" fill="#009af9" fill-rule="evenodd" fill-opacity="1" stroke="#000000" stroke-opacity="1" stroke-width="3.2"/>
<circle clip-path="url(#clip372)" cx="323.395" cy="330.647" r="7.2" fill="#009af9" fill-rule="evenodd" fill-opacity="1" stroke="#000000" stroke-opacity="1" stroke-width="3.2"/>
<circle clip-path="url(#clip372)" cx="357.443" cy="577.992" r="7.2" fill="#009af9" fill-rule="evenodd" fill-opacity="1" stroke="#000000" stroke-opacity="1" stroke-width="3.2"/>
<circle clip-path="url(#clip372)" cx="510.156" cy="730.706" r="7.2" fill="#009af9" fill-rule="evenodd" fill-opacity="1" stroke="#000000" stroke-opacity="1" stroke-width="3.2"/>
<circle clip-path="url(#clip372)" cx="600.282" cy="711.679" r="7.2" fill="#009af9" fill-rule="evenodd" fill-opacity="1" stroke="#000000" stroke-opacity="1" stroke-width="3.2"/>
<circle clip-path="url(#clip372)" cx="635.832" cy="609.036" r="7.2" fill="#009af9" fill-rule="evenodd" fill-opacity="1" stroke="#000000" stroke-opacity="1" stroke-width="3.2"/>
<circle clip-path="url(#clip372)" cx="603.787" cy="482.859" r="7.2" fill="#009af9" fill-rule="evenodd" fill-opacity="1" stroke="#000000" stroke-opacity="1" stroke-width="3.2"/>
<circle clip-path="url(#clip372)" cx="687.904" cy="368.7" r="7.2" fill="#009af9" fill-rule="evenodd" fill-opacity="1" stroke="#000000" stroke-opacity="1" stroke-width="3.2"/>
<circle clip-path="url(#clip372)" cx="867.656" cy="413.262" r="7.2" fill="#009af9" fill-rule="evenodd" fill-opacity="1" stroke="#000000" stroke-opacity="1" stroke-width="3.2"/>
<circle clip-path="url(#clip372)" cx="913.72" cy="312.621" r="7.2" fill="#009af9" fill-rule="evenodd" fill-opacity="1" stroke="#000000" stroke-opacity="1" stroke-width="3.2"/>
<circle clip-path="url(#clip372)" cx="1171.58" cy="277.072" r="7.2" fill="#009af9" fill-rule="evenodd" fill-opacity="1" stroke="#000000" stroke-opacity="1" stroke-width="3.2"/>
<circle clip-path="url(#clip372)" cx="1220.15" cy="444.806" r="7.2" fill="#009af9" fill-rule="evenodd" fill-opacity="1" stroke="#000000" stroke-opacity="1" stroke-width="3.2"/>
<circle clip-path="url(#clip372)" cx="1187.6" cy="490.37" r="7.2" fill="#009af9" fill-rule="evenodd" fill-opacity="1" stroke="#000000" stroke-opacity="1" stroke-width="3.2"/>
<circle clip-path="url(#clip372)" cx="1338.31" cy="646.588" r="7.2" fill="#009af9" fill-rule="evenodd" fill-opacity="1" stroke="#000000" stroke-opacity="1" stroke-width="3.2"/>
<circle clip-path="url(#clip372)" cx="1327.8" cy="658.104" r="7.2" fill="#009af9" fill-rule="evenodd" fill-opacity="1" stroke="#000000" stroke-opacity="1" stroke-width="3.2"/>
<circle clip-path="url(#clip372)" cx="1323.29" cy="684.641" r="7.2" fill="#009af9" fill-rule="evenodd" fill-opacity="1" stroke="#000000" stroke-opacity="1" stroke-width="3.2"/>
<circle clip-path="url(#clip372)" cx="1214.14" cy="742.222" r="7.2" fill="#009af9" fill-rule="evenodd" fill-opacity="1" stroke="#000000" stroke-opacity="1" stroke-width="3.2"/>
<circle clip-path="url(#clip372)" cx="1237.67" cy="833.85" r="7.2" fill="#009af9" fill-rule="evenodd" fill-opacity="1" stroke="#000000" stroke-opacity="1" stroke-width="3.2"/>
<circle clip-path="url(#clip372)" cx="1129.02" cy="1076.19" r="7.2" fill="#009af9" fill-rule="evenodd" fill-opacity="1" stroke="#000000" stroke-opacity="1" stroke-width="3.2"/>
<circle clip-path="url(#clip372)" cx="1081.45" cy="1107.23" r="7.2" fill="#009af9" fill-rule="evenodd" fill-opacity="1" stroke="#000000" stroke-opacity="1" stroke-width="3.2"/>
<circle clip-path="url(#clip372)" cx="1091.97" cy="1128.26" r="7.2" fill="#009af9" fill-rule="evenodd" fill-opacity="1" stroke="#000000" stroke-opacity="1" stroke-width="3.2"/>
<circle clip-path="url(#clip372)" cx="1509.55" cy="1176.83" r="7.2" fill="#009af9" fill-rule="evenodd" fill-opacity="1" stroke="#000000" stroke-opacity="1" stroke-width="3.2"/>
<circle clip-path="url(#clip372)" cx="1630.72" cy="1142.78" r="7.2" fill="#009af9" fill-rule="evenodd" fill-opacity="1" stroke="#000000" stroke-opacity="1" stroke-width="3.2"/>
<circle clip-path="url(#clip372)" cx="1788.44" cy="997.579" r="7.2" fill="#009af9" fill-rule="evenodd" fill-opacity="1" stroke="#000000" stroke-opacity="1" stroke-width="3.2"/>
<circle clip-path="url(#clip372)" cx="1792.95" cy="968.538" r="7.2" fill="#009af9" fill-rule="evenodd" fill-opacity="1" stroke="#000000" stroke-opacity="1" stroke-width="3.2"/>
<circle clip-path="url(#clip372)" cx="1723.85" cy="913.461" r="7.2" fill="#009af9" fill-rule="evenodd" fill-opacity="1" stroke="#000000" stroke-opacity="1" stroke-width="3.2"/>
<circle clip-path="url(#clip372)" cx="1724.35" cy="892.432" r="7.2" fill="#009af9" fill-rule="evenodd" fill-opacity="1" stroke="#000000" stroke-opacity="1" stroke-width="3.2"/>
<circle clip-path="url(#clip372)" cx="1738.87" cy="852.376" r="7.2" fill="#009af9" fill-rule="evenodd" fill-opacity="1" stroke="#000000" stroke-opacity="1" stroke-width="3.2"/>
<circle clip-path="url(#clip372)" cx="1672.78" cy="629.064" r="7.2" fill="#009af9" fill-rule="evenodd" fill-opacity="1" stroke="#000000" stroke-opacity="1" stroke-width="3.2"/>
<circle clip-path="url(#clip372)" cx="1643.24" cy="620.051" r="7.2" fill="#009af9" fill-rule="evenodd" fill-opacity="1" stroke="#000000" stroke-opacity="1" stroke-width="3.2"/>
<circle clip-path="url(#clip372)" cx="1644.74" cy="605.03" r="7.2" fill="#009af9" fill-rule="evenodd" fill-opacity="1" stroke="#000000" stroke-opacity="1" stroke-width="3.2"/>
<circle clip-path="url(#clip372)" cx="1568.13" cy="479.354" r="7.2" fill="#009af9" fill-rule="evenodd" fill-opacity="1" stroke="#000000" stroke-opacity="1" stroke-width="3.2"/>
<circle clip-path="url(#clip372)" cx="1418.93" cy="449.813" r="7.2" fill="#009af9" fill-rule="evenodd" fill-opacity="1" stroke="#000000" stroke-opacity="1" stroke-width="3.2"/>
<circle clip-path="url(#clip372)" cx="1389.38" cy="523.416" r="7.2" fill="#009af9" fill-rule="evenodd" fill-opacity="1" stroke="#000000" stroke-opacity="1" stroke-width="3.2"/>
<circle clip-path="url(#clip372)" cx="1479.51" cy="604.529" r="7.2" fill="#009af9" fill-rule="evenodd" fill-opacity="1" stroke="#000000" stroke-opacity="1" stroke-width="3.2"/>
<circle clip-path="url(#clip372)" cx="1488.52" cy="869.399" r="7.2" fill="#009af9" fill-rule="evenodd" fill-opacity="1" stroke="#000000" stroke-opacity="1" stroke-width="3.2"/>
<circle clip-path="url(#clip372)" cx="1478.51" cy="922.474" r="7.2" fill="#009af9" fill-rule="evenodd" fill-opacity="1" stroke="#000000" stroke-opacity="1" stroke-width="3.2"/>
<circle clip-path="url(#clip372)" cx="1575.14" cy="1064.17" r="7.2" fill="#009af9" fill-rule="evenodd" fill-opacity="1" stroke="#000000" stroke-opacity="1" stroke-width="3.2"/>
<circle clip-path="url(#clip372)" cx="1638.73" cy="1230.4" r="7.2" fill="#009af9" fill-rule="evenodd" fill-opacity="1" stroke="#000000" stroke-opacity="1" stroke-width="3.2"/>
<circle clip-path="url(#clip372)" cx="1832.5" cy="1186.34" r="7.2" fill="#009af9" fill-rule="evenodd" fill-opacity="1" stroke="#000000" stroke-opacity="1" stroke-width="3.2"/>
<circle clip-path="url(#clip372)" cx="1854.03" cy="1162.81" r="7.2" fill="#009af9" fill-rule="evenodd" fill-opacity="1" stroke="#000000" stroke-opacity="1" stroke-width="3.2"/>
<circle clip-path="url(#clip372)" cx="1885.58" cy="1131.77" r="7.2" fill="#009af9" fill-rule="evenodd" fill-opacity="1" stroke="#000000" stroke-opacity="1" stroke-width="3.2"/>
<circle clip-path="url(#clip372)" cx="1970.2" cy="1164.31" r="7.2" fill="#009af9" fill-rule="evenodd" fill-opacity="1" stroke="#000000" stroke-opacity="1" stroke-width="3.2"/>
<circle clip-path="url(#clip372)" cx="2121.91" cy="1184.84" r="7.2" fill="#009af9" fill-rule="evenodd" fill-opacity="1" stroke="#000000" stroke-opacity="1" stroke-width="3.2"/>
<circle clip-path="url(#clip372)" cx="2235.07" cy="1166.82" r="7.2" fill="#009af9" fill-rule="evenodd" fill-opacity="1" stroke="#000000" stroke-opacity="1" stroke-width="3.2"/>
<circle clip-path="url(#clip372)" cx="2293.65" cy="982.057" r="7.2" fill="#009af9" fill-rule="evenodd" fill-opacity="1" stroke="#000000" stroke-opacity="1" stroke-width="3.2"/>
<circle clip-path="url(#clip372)" cx="2272.62" cy="868.899" r="7.2" fill="#009af9" fill-rule="evenodd" fill-opacity="1" stroke="#000000" stroke-opacity="1" stroke-width="3.2"/>
<circle clip-path="url(#clip372)" cx="2283.63" cy="695.657" r="7.2" fill="#009af9" fill-rule="evenodd" fill-opacity="1" stroke="#000000" stroke-opacity="1" stroke-width="3.2"/>
<circle clip-path="url(#clip372)" cx="2262.6" cy="657.103" r="7.2" fill="#009af9" fill-rule="evenodd" fill-opacity="1" stroke="#000000" stroke-opacity="1" stroke-width="3.2"/>
<circle clip-path="url(#clip372)" cx="2276.62" cy="517.408" r="7.2" fill="#009af9" fill-rule="evenodd" fill-opacity="1" stroke="#000000" stroke-opacity="1" stroke-width="3.2"/>
<circle clip-path="url(#clip372)" cx="2253.59" cy="503.388" r="7.2" fill="#009af9" fill-rule="evenodd" fill-opacity="1" stroke="#000000" stroke-opacity="1" stroke-width="3.2"/>
<circle clip-path="url(#clip372)" cx="2241.58" cy="325.64" r="7.2" fill="#009af9" fill-rule="evenodd" fill-opacity="1" stroke="#000000" stroke-opacity="1" stroke-width="3.2"/>
<circle clip-path="url(#clip372)" cx="2215.54" cy="306.613" r="7.2" fill="#009af9" fill-rule="evenodd" fill-opacity="1" stroke="#000000" stroke-opacity="1" stroke-width="3.2"/>
<circle clip-path="url(#clip372)" cx="2081.85" cy="293.094" r="7.2" fill="#009af9" fill-rule="evenodd" fill-opacity="1" stroke="#000000" stroke-opacity="1" stroke-width="3.2"/>
<circle clip-path="url(#clip372)" cx="2077.85" cy="313.623" r="7.2" fill="#009af9" fill-rule="evenodd" fill-opacity="1" stroke="#000000" stroke-opacity="1" stroke-width="3.2"/>
<circle clip-path="url(#clip372)" cx="2032.78" cy="335.153" r="7.2" fill="#009af9" fill-rule="evenodd" fill-opacity="1" stroke="#000000" stroke-opacity="1" stroke-width="3.2"/>
<circle clip-path="url(#clip372)" cx="1946.66" cy="325.139" r="7.2" fill="#009af9" fill-rule="evenodd" fill-opacity="1" stroke="#000000" stroke-opacity="1" stroke-width="3.2"/>
<circle clip-path="url(#clip372)" cx="1881.07" cy="424.778" r="7.2" fill="#009af9" fill-rule="evenodd" fill-opacity="1" stroke="#000000" stroke-opacity="1" stroke-width="3.2"/>
<circle clip-path="url(#clip372)" cx="1792.45" cy="455.321" r="7.2" fill="#009af9" fill-rule="evenodd" fill-opacity="1" stroke="#000000" stroke-opacity="1" stroke-width="3.2"/>
<circle clip-path="url(#clip372)" cx="1694.31" cy="447.81" r="7.2" fill="#009af9" fill-rule="evenodd" fill-opacity="1" stroke="#000000" stroke-opacity="1" stroke-width="3.2"/>
<circle clip-path="url(#clip372)" cx="1527.58" cy="365.696" r="7.2" fill="#009af9" fill-rule="evenodd" fill-opacity="1" stroke="#000000" stroke-opacity="1" stroke-width="3.2"/>
<circle clip-path="url(#clip372)" cx="1536.59" cy="313.623" r="7.2" fill="#009af9" fill-rule="evenodd" fill-opacity="1" stroke="#000000" stroke-opacity="1" stroke-width="3.2"/>
<circle clip-path="url(#clip372)" cx="1982.71" cy="256.042" r="7.2" fill="#009af9" fill-rule="evenodd" fill-opacity="1" stroke="#000000" stroke-opacity="1" stroke-width="3.2"/>
<circle clip-path="url(#clip372)" cx="2050.81" cy="240.02" r="7.2" fill="#009af9" fill-rule="evenodd" fill-opacity="1" stroke="#000000" stroke-opacity="1" stroke-width="3.2"/>
<circle clip-path="url(#clip372)" cx="2129.92" cy="255.041" r="7.2" fill="#009af9" fill-rule="evenodd" fill-opacity="1" stroke="#000000" stroke-opacity="1" stroke-width="3.2"/>
<circle clip-path="url(#clip372)" cx="2161.96" cy="478.353" r="7.2" fill="#009af9" fill-rule="evenodd" fill-opacity="1" stroke="#000000" stroke-opacity="1" stroke-width="3.2"/>
<circle clip-path="url(#clip372)" cx="1934.15" cy="512.401" r="7.2" fill="#009af9" fill-rule="evenodd" fill-opacity="1" stroke="#000000" stroke-opacity="1" stroke-width="3.2"/>
<circle clip-path="url(#clip372)" cx="1894.09" cy="538.938" r="7.2" fill="#009af9" fill-rule="evenodd" fill-opacity="1" stroke="#000000" stroke-opacity="1" stroke-width="3.2"/>
<circle clip-path="url(#clip372)" cx="1853.03" cy="601.525" r="7.2" fill="#009af9" fill-rule="evenodd" fill-opacity="1" stroke="#000000" stroke-opacity="1" stroke-width="3.2"/>
<circle clip-path="url(#clip372)" cx="1890.59" cy="668.118" r="7.2" fill="#009af9" fill-rule="evenodd" fill-opacity="1" stroke="#000000" stroke-opacity="1" stroke-width="3.2"/>
<circle clip-path="url(#clip372)" cx="2043.3" cy="789.288" r="7.2" fill="#009af9" fill-rule="evenodd" fill-opacity="1" stroke="#000000" stroke-opacity="1" stroke-width="3.2"/>
<circle clip-path="url(#clip372)" cx="2009.25" cy="844.365" r="7.2" fill="#009af9" fill-rule="evenodd" fill-opacity="1" stroke="#000000" stroke-opacity="1" stroke-width="3.2"/>
<circle clip-path="url(#clip372)" cx="1866.05" cy="852.876" r="7.2" fill="#009af9" fill-rule="evenodd" fill-opacity="1" stroke="#000000" stroke-opacity="1" stroke-width="3.2"/>
<circle clip-path="url(#clip372)" cx="1866.05" cy="865.895" r="7.2" fill="#009af9" fill-rule="evenodd" fill-opacity="1" stroke="#000000" stroke-opacity="1" stroke-width="3.2"/>
<circle clip-path="url(#clip372)" cx="1905.11" cy="1056.66" r="7.2" fill="#009af9" fill-rule="evenodd" fill-opacity="1" stroke="#000000" stroke-opacity="1" stroke-width="3.2"/>
<circle clip-path="url(#clip372)" cx="2166.47" cy="1017.61" r="7.2" fill="#009af9" fill-rule="evenodd" fill-opacity="1" stroke="#000000" stroke-opacity="1" stroke-width="3.2"/>
<circle clip-path="url(#clip372)" cx="2239.07" cy="983.559" r="7.2" fill="#009af9" fill-rule="evenodd" fill-opacity="1" stroke="#000000" stroke-opacity="1" stroke-width="3.2"/>
</svg>
