<?xml version="1.0" encoding="utf-8"?>
<svg xmlns="http://www.w3.org/2000/svg" xmlns:xlink="http://www.w3.org/1999/xlink" width="600" height="400" viewBox="0 0 2400 1600">
<defs>
  <clipPath id="clip290">
    <rect x="0" y="0" width="2400" height="1600"/>
  </clipPath>
</defs>
<path clip-path="url(#clip290)" d="
M0 1600 L2400 1600 L2400 0 L0 0  Z
  " fill="#ffffff" fill-rule="evenodd" fill-opacity="1"/>
<defs>
  <clipPath id="clip291">
    <rect x="480" y="0" width="1681" height="1600"/>
  </clipPath>
</defs>
<path clip-path="url(#clip290)" d="
M272.297 1423.18 L2352.76 1423.18 L2352.76 47.2441 L272.297 47.2441  Z
  " fill="#ffffff" fill-rule="evenodd" fill-opacity="1"/>
<defs>
  <clipPath id="clip292">
    <rect x="272" y="47" width="2081" height="1377"/>
  </clipPath>
</defs>
<polyline clip-path="url(#clip292)" style="stroke:#000000; stroke-linecap:round; stroke-linejoin:round; stroke-width:2; stroke-opacity:0.1; fill:none" points="
  334.336,1423.18 334.336,47.2441 
  "/>
<polyline clip-path="url(#clip292)" style="stroke:#000000; stroke-linecap:round; stroke-linejoin:round; stroke-width:2; stroke-opacity:0.1; fill:none" points="
  715.874,1423.18 715.874,47.2441 
  "/>
<polyline clip-path="url(#clip292)" style="stroke:#000000; stroke-linecap:round; stroke-linejoin:round; stroke-width:2; stroke-opacity:0.1; fill:none" points="
  1097.41,1423.18 1097.41,47.2441 
  "/>
<polyline clip-path="url(#clip292)" style="stroke:#000000; stroke-linecap:round; stroke-linejoin:round; stroke-width:2; stroke-opacity:0.1; fill:none" points="
  1478.95,1423.18 1478.95,47.2441 
  "/>
<polyline clip-path="url(#clip292)" style="stroke:#000000; stroke-linecap:round; stroke-linejoin:round; stroke-width:2; stroke-opacity:0.1; fill:none" points="
  1860.49,1423.18 1860.49,47.2441 
  "/>
<polyline clip-path="url(#clip292)" style="stroke:#000000; stroke-linecap:round; stroke-linejoin:round; stroke-width:2; stroke-opacity:0.1; fill:none" points="
  2242.03,1423.18 2242.03,47.2441 
  "/>
<polyline clip-path="url(#clip290)" style="stroke:#000000; stroke-linecap:round; stroke-linejoin:round; stroke-width:4; stroke-opacity:1; fill:none" points="
  272.297,1423.18 2352.76,1423.18 
  "/>
<polyline clip-path="url(#clip290)" style="stroke:#000000; stroke-linecap:round; stroke-linejoin:round; stroke-width:4; stroke-opacity:1; fill:none" points="
  334.336,1423.18 334.336,1404.28 
  "/>
<polyline clip-path="url(#clip290)" style="stroke:#000000; stroke-linecap:round; stroke-linejoin:round; stroke-width:4; stroke-opacity:1; fill:none" points="
  715.874,1423.18 715.874,1404.28 
  "/>
<polyline clip-path="url(#clip290)" style="stroke:#000000; stroke-linecap:round; stroke-linejoin:round; stroke-width:4; stroke-opacity:1; fill:none" points="
  1097.41,1423.18 1097.41,1404.28 
  "/>
<polyline clip-path="url(#clip290)" style="stroke:#000000; stroke-linecap:round; stroke-linejoin:round; stroke-width:4; stroke-opacity:1; fill:none" points="
  1478.95,1423.18 1478.95,1404.28 
  "/>
<polyline clip-path="url(#clip290)" style="stroke:#000000; stroke-linecap:round; stroke-linejoin:round; stroke-width:4; stroke-opacity:1; fill:none" points="
  1860.49,1423.18 1860.49,1404.28 
  "/>
<polyline clip-path="url(#clip290)" style="stroke:#000000; stroke-linecap:round; stroke-linejoin:round; stroke-width:4; stroke-opacity:1; fill:none" points="
  2242.03,1423.18 2242.03,1404.28 
  "/>
<path clip-path="url(#clip290)" d="M273.318 1468.75 L302.993 1468.75 L302.993 1472.69 L273.318 1472.69 L273.318 1468.75 Z" fill="#000000" fill-rule="evenodd" fill-opacity="1" /><path clip-path="url(#clip290)" d="M327.253 1466.95 Q330.609 1467.66 332.484 1469.93 Q334.382 1472.2 334.382 1475.53 Q334.382 1480.65 330.864 1483.45 Q327.345 1486.25 320.864 1486.25 Q318.688 1486.25 316.373 1485.81 Q314.081 1485.39 311.628 1484.54 L311.628 1480.02 Q313.572 1481.16 315.887 1481.74 Q318.202 1482.32 320.725 1482.32 Q325.123 1482.32 327.415 1480.58 Q329.729 1478.84 329.729 1475.53 Q329.729 1472.48 327.577 1470.77 Q325.447 1469.03 321.628 1469.03 L317.6 1469.03 L317.6 1465.19 L321.813 1465.19 Q325.262 1465.19 327.09 1463.82 Q328.919 1462.43 328.919 1459.84 Q328.919 1457.18 327.021 1455.77 Q325.146 1454.33 321.628 1454.33 Q319.706 1454.33 317.507 1454.75 Q315.308 1455.16 312.669 1456.04 L312.669 1451.88 Q315.331 1451.14 317.646 1450.77 Q319.984 1450.39 322.044 1450.39 Q327.368 1450.39 330.47 1452.83 Q333.572 1455.23 333.572 1459.35 Q333.572 1462.22 331.928 1464.21 Q330.285 1466.18 327.253 1466.95 Z" fill="#000000" fill-rule="evenodd" fill-opacity="1" /><path clip-path="url(#clip290)" d="M353.248 1454.1 Q349.637 1454.1 347.808 1457.66 Q346.002 1461.2 346.002 1468.33 Q346.002 1475.44 347.808 1479.01 Q349.637 1482.55 353.248 1482.55 Q356.882 1482.55 358.688 1479.01 Q360.516 1475.44 360.516 1468.33 Q360.516 1461.2 358.688 1457.66 Q356.882 1454.1 353.248 1454.1 M353.248 1450.39 Q359.058 1450.39 362.113 1455 Q365.192 1459.58 365.192 1468.33 Q365.192 1477.06 362.113 1481.67 Q359.058 1486.25 353.248 1486.25 Q347.438 1486.25 344.359 1481.67 Q341.303 1477.06 341.303 1468.33 Q341.303 1459.58 344.359 1455 Q347.438 1450.39 353.248 1450.39 Z" fill="#000000" fill-rule="evenodd" fill-opacity="1" /><path clip-path="url(#clip290)" d="M383.41 1454.1 Q379.799 1454.1 377.97 1457.66 Q376.164 1461.2 376.164 1468.33 Q376.164 1475.44 377.97 1479.01 Q379.799 1482.55 383.41 1482.55 Q387.044 1482.55 388.849 1479.01 Q390.678 1475.44 390.678 1468.33 Q390.678 1461.2 388.849 1457.66 Q387.044 1454.1 383.41 1454.1 M383.41 1450.39 Q389.22 1450.39 392.275 1455 Q395.354 1459.58 395.354 1468.33 Q395.354 1477.06 392.275 1481.67 Q389.22 1486.25 383.41 1486.25 Q377.599 1486.25 374.521 1481.67 Q371.465 1477.06 371.465 1468.33 Q371.465 1459.58 374.521 1455 Q377.599 1450.39 383.41 1450.39 Z" fill="#000000" fill-rule="evenodd" fill-opacity="1" /><path clip-path="url(#clip290)" d="M654.856 1468.75 L684.532 1468.75 L684.532 1472.69 L654.856 1472.69 L654.856 1468.75 Z" fill="#000000" fill-rule="evenodd" fill-opacity="1" /><path clip-path="url(#clip290)" d="M698.652 1481.64 L714.972 1481.64 L714.972 1485.58 L693.027 1485.58 L693.027 1481.64 Q695.689 1478.89 700.273 1474.26 Q704.879 1469.61 706.06 1468.27 Q708.305 1465.74 709.185 1464.01 Q710.087 1462.25 710.087 1460.56 Q710.087 1457.8 708.143 1456.07 Q706.222 1454.33 703.12 1454.33 Q700.921 1454.33 698.467 1455.09 Q696.037 1455.86 693.259 1457.41 L693.259 1452.69 Q696.083 1451.55 698.537 1450.97 Q700.99 1450.39 703.027 1450.39 Q708.398 1450.39 711.592 1453.08 Q714.786 1455.77 714.786 1460.26 Q714.786 1462.39 713.976 1464.31 Q713.189 1466.2 711.083 1468.8 Q710.504 1469.47 707.402 1472.69 Q704.3 1475.88 698.652 1481.64 Z" fill="#000000" fill-rule="evenodd" fill-opacity="1" /><path clip-path="url(#clip290)" d="M734.786 1454.1 Q731.175 1454.1 729.347 1457.66 Q727.541 1461.2 727.541 1468.33 Q727.541 1475.44 729.347 1479.01 Q731.175 1482.55 734.786 1482.55 Q738.421 1482.55 740.226 1479.01 Q742.055 1475.44 742.055 1468.33 Q742.055 1461.2 740.226 1457.66 Q738.421 1454.1 734.786 1454.1 M734.786 1450.39 Q740.596 1450.39 743.652 1455 Q746.731 1459.58 746.731 1468.33 Q746.731 1477.06 743.652 1481.67 Q740.596 1486.25 734.786 1486.25 Q728.976 1486.25 725.897 1481.67 Q722.842 1477.06 722.842 1468.33 Q722.842 1459.58 725.897 1455 Q728.976 1450.39 734.786 1450.39 Z" fill="#000000" fill-rule="evenodd" fill-opacity="1" /><path clip-path="url(#clip290)" d="M764.948 1454.1 Q761.337 1454.1 759.508 1457.66 Q757.703 1461.2 757.703 1468.33 Q757.703 1475.44 759.508 1479.01 Q761.337 1482.55 764.948 1482.55 Q768.582 1482.55 770.388 1479.01 Q772.217 1475.44 772.217 1468.33 Q772.217 1461.2 770.388 1457.66 Q768.582 1454.1 764.948 1454.1 M764.948 1450.39 Q770.758 1450.39 773.814 1455 Q776.893 1459.58 776.893 1468.33 Q776.893 1477.06 773.814 1481.67 Q770.758 1486.25 764.948 1486.25 Q759.138 1486.25 756.059 1481.67 Q753.004 1477.06 753.004 1468.33 Q753.004 1459.58 756.059 1455 Q759.138 1450.39 764.948 1450.39 Z" fill="#000000" fill-rule="evenodd" fill-opacity="1" /><path clip-path="url(#clip290)" d="M1036.39 1468.75 L1066.07 1468.75 L1066.07 1472.69 L1036.39 1472.69 L1036.39 1468.75 Z" fill="#000000" fill-rule="evenodd" fill-opacity="1" /><path clip-path="url(#clip290)" d="M1076.97 1481.64 L1084.61 1481.64 L1084.61 1455.28 L1076.3 1456.95 L1076.3 1452.69 L1084.57 1451.02 L1089.24 1451.02 L1089.24 1481.64 L1096.88 1481.64 L1096.88 1485.58 L1076.97 1485.58 L1076.97 1481.64 Z" fill="#000000" fill-rule="evenodd" fill-opacity="1" /><path clip-path="url(#clip290)" d="M1116.32 1454.1 Q1112.71 1454.1 1110.89 1457.66 Q1109.08 1461.2 1109.08 1468.33 Q1109.08 1475.44 1110.89 1479.01 Q1112.71 1482.55 1116.32 1482.55 Q1119.96 1482.55 1121.76 1479.01 Q1123.59 1475.44 1123.59 1468.33 Q1123.59 1461.2 1121.76 1457.66 Q1119.96 1454.1 1116.32 1454.1 M1116.32 1450.39 Q1122.14 1450.39 1125.19 1455 Q1128.27 1459.58 1128.27 1468.33 Q1128.27 1477.06 1125.19 1481.67 Q1122.14 1486.25 1116.32 1486.25 Q1110.51 1486.25 1107.44 1481.67 Q1104.38 1477.06 1104.38 1468.33 Q1104.38 1459.58 1107.44 1455 Q1110.51 1450.39 1116.32 1450.39 Z" fill="#000000" fill-rule="evenodd" fill-opacity="1" /><path clip-path="url(#clip290)" d="M1146.49 1454.1 Q1142.88 1454.1 1141.05 1457.66 Q1139.24 1461.2 1139.24 1468.33 Q1139.24 1475.44 1141.05 1479.01 Q1142.88 1482.55 1146.49 1482.55 Q1150.12 1482.55 1151.93 1479.01 Q1153.76 1475.44 1153.76 1468.33 Q1153.76 1461.2 1151.93 1457.66 Q1150.12 1454.1 1146.49 1454.1 M1146.49 1450.39 Q1152.3 1450.39 1155.35 1455 Q1158.43 1459.58 1158.43 1468.33 Q1158.43 1477.06 1155.35 1481.67 Q1152.3 1486.25 1146.49 1486.25 Q1140.68 1486.25 1137.6 1481.67 Q1134.54 1477.06 1134.54 1468.33 Q1134.54 1459.58 1137.6 1455 Q1140.68 1450.39 1146.49 1450.39 Z" fill="#000000" fill-rule="evenodd" fill-opacity="1" /><path clip-path="url(#clip290)" d="M1478.95 1454.1 Q1475.34 1454.1 1473.51 1457.66 Q1471.71 1461.2 1471.71 1468.33 Q1471.71 1475.44 1473.51 1479.01 Q1475.34 1482.55 1478.95 1482.55 Q1482.59 1482.55 1484.39 1479.01 Q1486.22 1475.44 1486.22 1468.33 Q1486.22 1461.2 1484.39 1457.66 Q1482.59 1454.1 1478.95 1454.1 M1478.95 1450.39 Q1484.76 1450.39 1487.82 1455 Q1490.9 1459.58 1490.9 1468.33 Q1490.9 1477.06 1487.82 1481.67 Q1484.76 1486.25 1478.95 1486.25 Q1473.14 1486.25 1470.06 1481.67 Q1467.01 1477.06 1467.01 1468.33 Q1467.01 1459.58 1470.06 1455 Q1473.14 1450.39 1478.95 1450.39 Z" fill="#000000" fill-rule="evenodd" fill-opacity="1" /><path clip-path="url(#clip290)" d="M1820.1 1481.64 L1827.74 1481.64 L1827.74 1455.28 L1819.43 1456.95 L1819.43 1452.69 L1827.69 1451.02 L1832.37 1451.02 L1832.37 1481.64 L1840 1481.64 L1840 1485.58 L1820.1 1485.58 L1820.1 1481.64 Z" fill="#000000" fill-rule="evenodd" fill-opacity="1" /><path clip-path="url(#clip290)" d="M1859.45 1454.1 Q1855.84 1454.1 1854.01 1457.66 Q1852.2 1461.2 1852.2 1468.33 Q1852.2 1475.44 1854.01 1479.01 Q1855.84 1482.55 1859.45 1482.55 Q1863.08 1482.55 1864.89 1479.01 Q1866.72 1475.44 1866.72 1468.33 Q1866.72 1461.2 1864.89 1457.66 Q1863.08 1454.1 1859.45 1454.1 M1859.45 1450.39 Q1865.26 1450.39 1868.31 1455 Q1871.39 1459.58 1871.39 1468.33 Q1871.39 1477.06 1868.31 1481.67 Q1865.26 1486.25 1859.45 1486.25 Q1853.64 1486.25 1850.56 1481.67 Q1847.5 1477.06 1847.5 1468.33 Q1847.5 1459.58 1850.56 1455 Q1853.64 1450.39 1859.45 1450.39 Z" fill="#000000" fill-rule="evenodd" fill-opacity="1" /><path clip-path="url(#clip290)" d="M1889.61 1454.1 Q1886 1454.1 1884.17 1457.66 Q1882.36 1461.2 1882.36 1468.33 Q1882.36 1475.44 1884.17 1479.01 Q1886 1482.55 1889.61 1482.55 Q1893.24 1482.55 1895.05 1479.01 Q1896.88 1475.44 1896.88 1468.33 Q1896.88 1461.2 1895.05 1457.66 Q1893.24 1454.1 1889.61 1454.1 M1889.61 1450.39 Q1895.42 1450.39 1898.48 1455 Q1901.55 1459.58 1901.55 1468.33 Q1901.55 1477.06 1898.48 1481.67 Q1895.42 1486.25 1889.61 1486.25 Q1883.8 1486.25 1880.72 1481.67 Q1877.67 1477.06 1877.67 1468.33 Q1877.67 1459.58 1880.72 1455 Q1883.8 1450.39 1889.61 1450.39 Z" fill="#000000" fill-rule="evenodd" fill-opacity="1" /><path clip-path="url(#clip290)" d="M2205.72 1481.64 L2222.04 1481.64 L2222.04 1485.58 L2200.1 1485.58 L2200.1 1481.64 Q2202.76 1478.89 2207.34 1474.26 Q2211.95 1469.61 2213.13 1468.27 Q2215.37 1465.74 2216.25 1464.01 Q2217.16 1462.25 2217.16 1460.56 Q2217.16 1457.8 2215.21 1456.07 Q2213.29 1454.33 2210.19 1454.33 Q2207.99 1454.33 2205.54 1455.09 Q2203.11 1455.86 2200.33 1457.41 L2200.33 1452.69 Q2203.15 1451.55 2205.61 1450.97 Q2208.06 1450.39 2210.1 1450.39 Q2215.47 1450.39 2218.66 1453.08 Q2221.86 1455.77 2221.86 1460.26 Q2221.86 1462.39 2221.04 1464.31 Q2220.26 1466.2 2218.15 1468.8 Q2217.57 1469.47 2214.47 1472.69 Q2211.37 1475.88 2205.72 1481.64 Z" fill="#000000" fill-rule="evenodd" fill-opacity="1" /><path clip-path="url(#clip290)" d="M2241.86 1454.1 Q2238.24 1454.1 2236.42 1457.66 Q2234.61 1461.2 2234.61 1468.33 Q2234.61 1475.44 2236.42 1479.01 Q2238.24 1482.55 2241.86 1482.55 Q2245.49 1482.55 2247.29 1479.01 Q2249.12 1475.44 2249.12 1468.33 Q2249.12 1461.2 2247.29 1457.66 Q2245.49 1454.1 2241.86 1454.1 M2241.86 1450.39 Q2247.67 1450.39 2250.72 1455 Q2253.8 1459.58 2253.8 1468.33 Q2253.8 1477.06 2250.72 1481.67 Q2247.67 1486.25 2241.86 1486.25 Q2236.04 1486.25 2232.97 1481.67 Q2229.91 1477.06 2229.91 1468.33 Q2229.91 1459.58 2232.97 1455 Q2236.04 1450.39 2241.86 1450.39 Z" fill="#000000" fill-rule="evenodd" fill-opacity="1" /><path clip-path="url(#clip290)" d="M2272.02 1454.1 Q2268.41 1454.1 2266.58 1457.66 Q2264.77 1461.2 2264.77 1468.33 Q2264.77 1475.44 2266.58 1479.01 Q2268.41 1482.55 2272.02 1482.55 Q2275.65 1482.55 2277.46 1479.01 Q2279.29 1475.44 2279.29 1468.33 Q2279.29 1461.2 2277.46 1457.66 Q2275.65 1454.1 2272.02 1454.1 M2272.02 1450.39 Q2277.83 1450.39 2280.88 1455 Q2283.96 1459.58 2283.96 1468.33 Q2283.96 1477.06 2280.88 1481.67 Q2277.83 1486.25 2272.02 1486.25 Q2266.21 1486.25 2263.13 1481.67 Q2260.07 1477.06 2260.07 1468.33 Q2260.07 1459.58 2263.13 1455 Q2266.21 1450.39 2272.02 1450.39 Z" fill="#000000" fill-rule="evenodd" fill-opacity="1" /><path clip-path="url(#clip290)" d="M1329.14 1532.4 L1316.25 1549.74 L1329.81 1568.04 L1322.9 1568.04 L1312.53 1554.04 L1302.15 1568.04 L1295.24 1568.04 L1309.09 1549.39 L1296.42 1532.4 L1303.33 1532.4 L1312.78 1545.1 L1322.23 1532.4 L1329.14 1532.4 Z" fill="#000000" fill-rule="evenodd" fill-opacity="1" /><polyline clip-path="url(#clip292)" style="stroke:#000000; stroke-linecap:round; stroke-linejoin:round; stroke-width:2; stroke-opacity:0.1; fill:none" points="
  272.297,1365 2352.76,1365 
  "/>
<polyline clip-path="url(#clip292)" style="stroke:#000000; stroke-linecap:round; stroke-linejoin:round; stroke-width:2; stroke-opacity:0.1; fill:none" points="
  272.297,1174.23 2352.76,1174.23 
  "/>
<polyline clip-path="url(#clip292)" style="stroke:#000000; stroke-linecap:round; stroke-linejoin:round; stroke-width:2; stroke-opacity:0.1; fill:none" points="
  272.297,983.464 2352.76,983.464 
  "/>
<polyline clip-path="url(#clip292)" style="stroke:#000000; stroke-linecap:round; stroke-linejoin:round; stroke-width:2; stroke-opacity:0.1; fill:none" points="
  272.297,792.695 2352.76,792.695 
  "/>
<polyline clip-path="url(#clip292)" style="stroke:#000000; stroke-linecap:round; stroke-linejoin:round; stroke-width:2; stroke-opacity:0.1; fill:none" points="
  272.297,601.925 2352.76,601.925 
  "/>
<polyline clip-path="url(#clip292)" style="stroke:#000000; stroke-linecap:round; stroke-linejoin:round; stroke-width:2; stroke-opacity:0.1; fill:none" points="
  272.297,411.156 2352.76,411.156 
  "/>
<polyline clip-path="url(#clip292)" style="stroke:#000000; stroke-linecap:round; stroke-linejoin:round; stroke-width:2; stroke-opacity:0.1; fill:none" points="
  272.297,220.387 2352.76,220.387 
  "/>
<polyline clip-path="url(#clip290)" style="stroke:#000000; stroke-linecap:round; stroke-linejoin:round; stroke-width:4; stroke-opacity:1; fill:none" points="
  272.297,1423.18 272.297,47.2441 
  "/>
<polyline clip-path="url(#clip290)" style="stroke:#000000; stroke-linecap:round; stroke-linejoin:round; stroke-width:4; stroke-opacity:1; fill:none" points="
  272.297,1365 291.194,1365 
  "/>
<polyline clip-path="url(#clip290)" style="stroke:#000000; stroke-linecap:round; stroke-linejoin:round; stroke-width:4; stroke-opacity:1; fill:none" points="
  272.297,1174.23 291.194,1174.23 
  "/>
<polyline clip-path="url(#clip290)" style="stroke:#000000; stroke-linecap:round; stroke-linejoin:round; stroke-width:4; stroke-opacity:1; fill:none" points="
  272.297,983.464 291.194,983.464 
  "/>
<polyline clip-path="url(#clip290)" style="stroke:#000000; stroke-linecap:round; stroke-linejoin:round; stroke-width:4; stroke-opacity:1; fill:none" points="
  272.297,792.695 291.194,792.695 
  "/>
<polyline clip-path="url(#clip290)" style="stroke:#000000; stroke-linecap:round; stroke-linejoin:round; stroke-width:4; stroke-opacity:1; fill:none" points="
  272.297,601.925 291.194,601.925 
  "/>
<polyline clip-path="url(#clip290)" style="stroke:#000000; stroke-linecap:round; stroke-linejoin:round; stroke-width:4; stroke-opacity:1; fill:none" points="
  272.297,411.156 291.194,411.156 
  "/>
<polyline clip-path="url(#clip290)" style="stroke:#000000; stroke-linecap:round; stroke-linejoin:round; stroke-width:4; stroke-opacity:1; fill:none" points="
  272.297,220.387 291.194,220.387 
  "/>
<path clip-path="url(#clip290)" d="M114.26 1365.45 L143.936 1365.45 L143.936 1369.39 L114.26 1369.39 L114.26 1365.45 Z" fill="#000000" fill-rule="evenodd" fill-opacity="1" /><path clip-path="url(#clip290)" d="M154.839 1378.35 L162.477 1378.35 L162.477 1351.98 L154.167 1353.65 L154.167 1349.39 L162.431 1347.72 L167.107 1347.72 L167.107 1378.35 L174.746 1378.35 L174.746 1382.28 L154.839 1382.28 L154.839 1378.35 Z" fill="#000000" fill-rule="evenodd" fill-opacity="1" /><path clip-path="url(#clip290)" d="M184.237 1347.72 L202.593 1347.72 L202.593 1351.66 L188.519 1351.66 L188.519 1360.13 Q189.538 1359.78 190.556 1359.62 Q191.575 1359.44 192.593 1359.44 Q198.38 1359.44 201.76 1362.61 Q205.139 1365.78 205.139 1371.19 Q205.139 1376.77 201.667 1379.88 Q198.195 1382.95 191.875 1382.95 Q189.7 1382.95 187.431 1382.58 Q185.186 1382.21 182.778 1381.47 L182.778 1376.77 Q184.862 1377.91 187.084 1378.46 Q189.306 1379.02 191.783 1379.02 Q195.787 1379.02 198.125 1376.91 Q200.463 1374.81 200.463 1371.19 Q200.463 1367.58 198.125 1365.48 Q195.787 1363.37 191.783 1363.37 Q189.908 1363.37 188.033 1363.79 Q186.181 1364.2 184.237 1365.08 L184.237 1347.72 Z" fill="#000000" fill-rule="evenodd" fill-opacity="1" /><path clip-path="url(#clip290)" d="M224.352 1350.8 Q220.741 1350.8 218.912 1354.37 Q217.107 1357.91 217.107 1365.04 Q217.107 1372.14 218.912 1375.71 Q220.741 1379.25 224.352 1379.25 Q227.986 1379.25 229.792 1375.71 Q231.621 1372.14 231.621 1365.04 Q231.621 1357.91 229.792 1354.37 Q227.986 1350.8 224.352 1350.8 M224.352 1347.1 Q230.162 1347.1 233.218 1351.7 Q236.297 1356.29 236.297 1365.04 Q236.297 1373.76 233.218 1378.37 Q230.162 1382.95 224.352 1382.95 Q218.542 1382.95 215.463 1378.37 Q212.408 1373.76 212.408 1365.04 Q212.408 1356.29 215.463 1351.7 Q218.542 1347.1 224.352 1347.1 Z" fill="#000000" fill-rule="evenodd" fill-opacity="1" /><path clip-path="url(#clip290)" d="M114.26 1174.68 L143.936 1174.68 L143.936 1178.62 L114.26 1178.62 L114.26 1174.68 Z" fill="#000000" fill-rule="evenodd" fill-opacity="1" /><path clip-path="url(#clip290)" d="M154.839 1187.58 L162.477 1187.58 L162.477 1161.21 L154.167 1162.88 L154.167 1158.62 L162.431 1156.95 L167.107 1156.95 L167.107 1187.58 L174.746 1187.58 L174.746 1191.51 L154.839 1191.51 L154.839 1187.58 Z" fill="#000000" fill-rule="evenodd" fill-opacity="1" /><path clip-path="url(#clip290)" d="M194.19 1160.03 Q190.579 1160.03 188.75 1163.6 Q186.945 1167.14 186.945 1174.27 Q186.945 1181.37 188.75 1184.94 Q190.579 1188.48 194.19 1188.48 Q197.825 1188.48 199.63 1184.94 Q201.459 1181.37 201.459 1174.27 Q201.459 1167.14 199.63 1163.6 Q197.825 1160.03 194.19 1160.03 M194.19 1156.33 Q200 1156.33 203.056 1160.93 Q206.135 1165.52 206.135 1174.27 Q206.135 1182.99 203.056 1187.6 Q200 1192.18 194.19 1192.18 Q188.38 1192.18 185.301 1187.6 Q182.246 1182.99 182.246 1174.27 Q182.246 1165.52 185.301 1160.93 Q188.38 1156.33 194.19 1156.33 Z" fill="#000000" fill-rule="evenodd" fill-opacity="1" /><path clip-path="url(#clip290)" d="M224.352 1160.03 Q220.741 1160.03 218.912 1163.6 Q217.107 1167.14 217.107 1174.27 Q217.107 1181.37 218.912 1184.94 Q220.741 1188.48 224.352 1188.48 Q227.986 1188.48 229.792 1184.94 Q231.621 1181.37 231.621 1174.27 Q231.621 1167.14 229.792 1163.6 Q227.986 1160.03 224.352 1160.03 M224.352 1156.33 Q230.162 1156.33 233.218 1160.93 Q236.297 1165.52 236.297 1174.27 Q236.297 1182.99 233.218 1187.6 Q230.162 1192.18 224.352 1192.18 Q218.542 1192.18 215.463 1187.6 Q212.408 1182.99 212.408 1174.27 Q212.408 1165.52 215.463 1160.93 Q218.542 1156.33 224.352 1156.33 Z" fill="#000000" fill-rule="evenodd" fill-opacity="1" /><path clip-path="url(#clip290)" d="M144.422 983.915 L174.098 983.915 L174.098 987.85 L144.422 987.85 L144.422 983.915 Z" fill="#000000" fill-rule="evenodd" fill-opacity="1" /><path clip-path="url(#clip290)" d="M184.237 966.184 L202.593 966.184 L202.593 970.119 L188.519 970.119 L188.519 978.591 Q189.538 978.244 190.556 978.082 Q191.575 977.897 192.593 977.897 Q198.38 977.897 201.76 981.068 Q205.139 984.239 205.139 989.656 Q205.139 995.235 201.667 998.337 Q198.195 1001.42 191.875 1001.42 Q189.7 1001.42 187.431 1001.04 Q185.186 1000.67 182.778 999.934 L182.778 995.235 Q184.862 996.369 187.084 996.924 Q189.306 997.48 191.783 997.48 Q195.787 997.48 198.125 995.374 Q200.463 993.267 200.463 989.656 Q200.463 986.045 198.125 983.938 Q195.787 981.832 191.783 981.832 Q189.908 981.832 188.033 982.249 Q186.181 982.665 184.237 983.545 L184.237 966.184 Z" fill="#000000" fill-rule="evenodd" fill-opacity="1" /><path clip-path="url(#clip290)" d="M224.352 969.263 Q220.741 969.263 218.912 972.827 Q217.107 976.369 217.107 983.499 Q217.107 990.605 218.912 994.17 Q220.741 997.712 224.352 997.712 Q227.986 997.712 229.792 994.17 Q231.621 990.605 231.621 983.499 Q231.621 976.369 229.792 972.827 Q227.986 969.263 224.352 969.263 M224.352 965.559 Q230.162 965.559 233.218 970.165 Q236.297 974.749 236.297 983.499 Q236.297 992.225 233.218 996.832 Q230.162 1001.42 224.352 1001.42 Q218.542 1001.42 215.463 996.832 Q212.408 992.225 212.408 983.499 Q212.408 974.749 215.463 970.165 Q218.542 965.559 224.352 965.559 Z" fill="#000000" fill-rule="evenodd" fill-opacity="1" /><path clip-path="url(#clip290)" d="M224.352 778.493 Q220.741 778.493 218.912 782.058 Q217.107 785.6 217.107 792.729 Q217.107 799.836 218.912 803.401 Q220.741 806.942 224.352 806.942 Q227.986 806.942 229.792 803.401 Q231.621 799.836 231.621 792.729 Q231.621 785.6 229.792 782.058 Q227.986 778.493 224.352 778.493 M224.352 774.79 Q230.162 774.79 233.218 779.396 Q236.297 783.979 236.297 792.729 Q236.297 801.456 233.218 806.063 Q230.162 810.646 224.352 810.646 Q218.542 810.646 215.463 806.063 Q212.408 801.456 212.408 792.729 Q212.408 783.979 215.463 779.396 Q218.542 774.79 224.352 774.79 Z" fill="#000000" fill-rule="evenodd" fill-opacity="1" /><path clip-path="url(#clip290)" d="M184.237 584.645 L202.593 584.645 L202.593 588.581 L188.519 588.581 L188.519 597.053 Q189.538 596.705 190.556 596.543 Q191.575 596.358 192.593 596.358 Q198.38 596.358 201.76 599.53 Q205.139 602.701 205.139 608.117 Q205.139 613.696 201.667 616.798 Q198.195 619.877 191.875 619.877 Q189.7 619.877 187.431 619.506 Q185.186 619.136 182.778 618.395 L182.778 613.696 Q184.862 614.83 187.084 615.386 Q189.306 615.941 191.783 615.941 Q195.787 615.941 198.125 613.835 Q200.463 611.729 200.463 608.117 Q200.463 604.506 198.125 602.4 Q195.787 600.293 191.783 600.293 Q189.908 600.293 188.033 600.71 Q186.181 601.127 184.237 602.006 L184.237 584.645 Z" fill="#000000" fill-rule="evenodd" fill-opacity="1" /><path clip-path="url(#clip290)" d="M224.352 587.724 Q220.741 587.724 218.912 591.289 Q217.107 594.83 217.107 601.96 Q217.107 609.067 218.912 612.631 Q220.741 616.173 224.352 616.173 Q227.986 616.173 229.792 612.631 Q231.621 609.067 231.621 601.96 Q231.621 594.83 229.792 591.289 Q227.986 587.724 224.352 587.724 M224.352 584.02 Q230.162 584.02 233.218 588.627 Q236.297 593.21 236.297 601.96 Q236.297 610.687 233.218 615.293 Q230.162 619.877 224.352 619.877 Q218.542 619.877 215.463 615.293 Q212.408 610.687 212.408 601.96 Q212.408 593.21 215.463 588.627 Q218.542 584.02 224.352 584.02 Z" fill="#000000" fill-rule="evenodd" fill-opacity="1" /><path clip-path="url(#clip290)" d="M154.839 424.501 L162.477 424.501 L162.477 398.135 L154.167 399.802 L154.167 395.543 L162.431 393.876 L167.107 393.876 L167.107 424.501 L174.746 424.501 L174.746 428.436 L154.839 428.436 L154.839 424.501 Z" fill="#000000" fill-rule="evenodd" fill-opacity="1" /><path clip-path="url(#clip290)" d="M194.19 396.955 Q190.579 396.955 188.75 400.52 Q186.945 404.061 186.945 411.191 Q186.945 418.297 188.75 421.862 Q190.579 425.404 194.19 425.404 Q197.825 425.404 199.63 421.862 Q201.459 418.297 201.459 411.191 Q201.459 404.061 199.63 400.52 Q197.825 396.955 194.19 396.955 M194.19 393.251 Q200 393.251 203.056 397.858 Q206.135 402.441 206.135 411.191 Q206.135 419.918 203.056 424.524 Q200 429.107 194.19 429.107 Q188.38 429.107 185.301 424.524 Q182.246 419.918 182.246 411.191 Q182.246 402.441 185.301 397.858 Q188.38 393.251 194.19 393.251 Z" fill="#000000" fill-rule="evenodd" fill-opacity="1" /><path clip-path="url(#clip290)" d="M224.352 396.955 Q220.741 396.955 218.912 400.52 Q217.107 404.061 217.107 411.191 Q217.107 418.297 218.912 421.862 Q220.741 425.404 224.352 425.404 Q227.986 425.404 229.792 421.862 Q231.621 418.297 231.621 411.191 Q231.621 404.061 229.792 400.52 Q227.986 396.955 224.352 396.955 M224.352 393.251 Q230.162 393.251 233.218 397.858 Q236.297 402.441 236.297 411.191 Q236.297 419.918 233.218 424.524 Q230.162 429.107 224.352 429.107 Q218.542 429.107 215.463 424.524 Q212.408 419.918 212.408 411.191 Q212.408 402.441 215.463 397.858 Q218.542 393.251 224.352 393.251 Z" fill="#000000" fill-rule="evenodd" fill-opacity="1" /><path clip-path="url(#clip290)" d="M154.839 233.732 L162.477 233.732 L162.477 207.366 L154.167 209.033 L154.167 204.773 L162.431 203.107 L167.107 203.107 L167.107 233.732 L174.746 233.732 L174.746 237.667 L154.839 237.667 L154.839 233.732 Z" fill="#000000" fill-rule="evenodd" fill-opacity="1" /><path clip-path="url(#clip290)" d="M184.237 203.107 L202.593 203.107 L202.593 207.042 L188.519 207.042 L188.519 215.514 Q189.538 215.167 190.556 215.005 Q191.575 214.82 192.593 214.82 Q198.38 214.82 201.76 217.991 Q205.139 221.162 205.139 226.579 Q205.139 232.158 201.667 235.259 Q198.195 238.338 191.875 238.338 Q189.7 238.338 187.431 237.968 Q185.186 237.597 182.778 236.857 L182.778 232.158 Q184.862 233.292 187.084 233.847 Q189.306 234.403 191.783 234.403 Q195.787 234.403 198.125 232.296 Q200.463 230.19 200.463 226.579 Q200.463 222.968 198.125 220.861 Q195.787 218.755 191.783 218.755 Q189.908 218.755 188.033 219.172 Q186.181 219.588 184.237 220.468 L184.237 203.107 Z" fill="#000000" fill-rule="evenodd" fill-opacity="1" /><path clip-path="url(#clip290)" d="M224.352 206.185 Q220.741 206.185 218.912 209.75 Q217.107 213.292 217.107 220.422 Q217.107 227.528 218.912 231.093 Q220.741 234.634 224.352 234.634 Q227.986 234.634 229.792 231.093 Q231.621 227.528 231.621 220.422 Q231.621 213.292 229.792 209.75 Q227.986 206.185 224.352 206.185 M224.352 202.482 Q230.162 202.482 233.218 207.088 Q236.297 211.672 236.297 220.422 Q236.297 229.148 233.218 233.755 Q230.162 238.338 224.352 238.338 Q218.542 238.338 215.463 233.755 Q212.408 229.148 212.408 220.422 Q212.408 211.672 215.463 207.088 Q218.542 202.482 224.352 202.482 Z" fill="#000000" fill-rule="evenodd" fill-opacity="1" /><path clip-path="url(#clip290)" d="M67.3143 733.525 Q73.68 736.008 75.6216 738.363 Q77.5631 740.718 77.5631 744.665 L77.5631 749.344 L72.6615 749.344 L72.6615 745.906 Q72.6615 743.487 71.5157 742.151 Q70.3699 740.814 66.1048 739.191 L63.4312 738.14 L28.3562 752.559 L28.3562 746.352 L56.238 735.212 L28.3562 724.072 L28.3562 717.865 L67.3143 733.525 Z" fill="#000000" fill-rule="evenodd" fill-opacity="1" /><polyline clip-path="url(#clip292)" style="stroke:#009af9; stroke-linecap:round; stroke-linejoin:round; stroke-width:4; stroke-opacity:1; fill:none" points="
  1639.72,1022.84 1840.61,1048.66 2031.54,958.573 2063.2,870.379 2010.99,791.805 1866.21,664.939 1673.57,770.681 1415.15,841.11 1398.94,814.202 1589.27,568.732 
  1606.31,410.541 1556.07,197.444 1066.93,86.1857 1024.82,149.979 891.045,353.839 642.815,397.095 561.85,573.592 565.495,638.45 563.838,759.61 635.18,918.078 
  747.478,900.901 955.032,869.563 1102.14,1104.68 1162.79,1190.16 986.368,1384.24 
  "/>
<circle clip-path="url(#clip292)" cx="1639.72" cy="1022.84" r="7.2" fill="#009af9" fill-rule="evenodd" fill-opacity="1" stroke="#000000" stroke-opacity="1" stroke-width="3.2"/>
<circle clip-path="url(#clip292)" cx="1840.61" cy="1048.66" r="7.2" fill="#009af9" fill-rule="evenodd" fill-opacity="1" stroke="#000000" stroke-opacity="1" stroke-width="3.2"/>
<circle clip-path="url(#clip292)" cx="2031.54" cy="958.573" r="7.2" fill="#009af9" fill-rule="evenodd" fill-opacity="1" stroke="#000000" stroke-opacity="1" stroke-width="3.2"/>
<circle clip-path="url(#clip292)" cx="2063.2" cy="870.379" r="7.2" fill="#009af9" fill-rule="evenodd" fill-opacity="1" stroke="#000000" stroke-opacity="1" stroke-width="3.2"/>
<circle clip-path="url(#clip292)" cx="2010.99" cy="791.805" r="7.2" fill="#009af9" fill-rule="evenodd" fill-opacity="1" stroke="#000000" stroke-opacity="1" stroke-width="3.2"/>
<circle clip-path="url(#clip292)" cx="1866.21" cy="664.939" r="7.2" fill="#009af9" fill-rule="evenodd" fill-opacity="1" stroke="#000000" stroke-opacity="1" stroke-width="3.2"/>
<circle clip-path="url(#clip292)" cx="1673.57" cy="770.681" r="7.2" fill="#009af9" fill-rule="evenodd" fill-opacity="1" stroke="#000000" stroke-opacity="1" stroke-width="3.2"/>
<circle clip-path="url(#clip292)" cx="1415.15" cy="841.11" r="7.2" fill="#009af9" fill-rule="evenodd" fill-opacity="1" stroke="#000000" stroke-opacity="1" stroke-width="3.2"/>
<circle clip-path="url(#clip292)" cx="1398.94" cy="814.202" r="7.2" fill="#009af9" fill-rule="evenodd" fill-opacity="1" stroke="#000000" stroke-opacity="1" stroke-width="3.2"/>
<circle clip-path="url(#clip292)" cx="1589.27" cy="568.732" r="7.2" fill="#009af9" fill-rule="evenodd" fill-opacity="1" stroke="#000000" stroke-opacity="1" stroke-width="3.2"/>
<circle clip-path="url(#clip292)" cx="1606.31" cy="410.541" r="7.2" fill="#009af9" fill-rule="evenodd" fill-opacity="1" stroke="#000000" stroke-opacity="1" stroke-width="3.2"/>
<circle clip-path="url(#clip292)" cx="1556.07" cy="197.444" r="7.2" fill="#009af9" fill-rule="evenodd" fill-opacity="1" stroke="#000000" stroke-opacity="1" stroke-width="3.2"/>
<circle clip-path="url(#clip292)" cx="1066.93" cy="86.1857" r="7.2" fill="#009af9" fill-rule="evenodd" fill-opacity="1" stroke="#000000" stroke-opacity="1" stroke-width="3.2"/>
<circle clip-path="url(#clip292)" cx="1024.82" cy="149.979" r="7.2" fill="#009af9" fill-rule="evenodd" fill-opacity="1" stroke="#000000" stroke-opacity="1" stroke-width="3.2"/>
<circle clip-path="url(#clip292)" cx="891.045" cy="353.839" r="7.2" fill="#009af9" fill-rule="evenodd" fill-opacity="1" stroke="#000000" stroke-opacity="1" stroke-width="3.2"/>
<circle clip-path="url(#clip292)" cx="642.815" cy="397.095" r="7.2" fill="#009af9" fill-rule="evenodd" fill-opacity="1" stroke="#000000" stroke-opacity="1" stroke-width="3.2"/>
<circle clip-path="url(#clip292)" cx="561.85" cy="573.592" r="7.2" fill="#009af9" fill-rule="evenodd" fill-opacity="1" stroke="#000000" stroke-opacity="1" stroke-width="3.2"/>
<circle clip-path="url(#clip292)" cx="565.495" cy="638.45" r="7.2" fill="#009af9" fill-rule="evenodd" fill-opacity="1" stroke="#000000" stroke-opacity="1" stroke-width="3.2"/>
<circle clip-path="url(#clip292)" cx="563.838" cy="759.61" r="7.2" fill="#009af9" fill-rule="evenodd" fill-opacity="1" stroke="#000000" stroke-opacity="1" stroke-width="3.2"/>
<circle clip-path="url(#clip292)" cx="635.18" cy="918.078" r="7.2" fill="#009af9" fill-rule="evenodd" fill-opacity="1" stroke="#000000" stroke-opacity="1" stroke-width="3.2"/>
<circle clip-path="url(#clip292)" cx="747.478" cy="900.901" r="7.2" fill="#009af9" fill-rule="evenodd" fill-opacity="1" stroke="#000000" stroke-opacity="1" stroke-width="3.2"/>
<circle clip-path="url(#clip292)" cx="955.032" cy="869.563" r="7.2" fill="#009af9" fill-rule="evenodd" fill-opacity="1" stroke="#000000" stroke-opacity="1" stroke-width="3.2"/>
<circle clip-path="url(#clip292)" cx="1102.14" cy="1104.68" r="7.2" fill="#009af9" fill-rule="evenodd" fill-opacity="1" stroke="#000000" stroke-opacity="1" stroke-width="3.2"/>
<circle clip-path="url(#clip292)" cx="1162.79" cy="1190.16" r="7.2" fill="#009af9" fill-rule="evenodd" fill-opacity="1" stroke="#000000" stroke-opacity="1" stroke-width="3.2"/>
<circle clip-path="url(#clip292)" cx="986.368" cy="1384.24" r="7.2" fill="#009af9" fill-rule="evenodd" fill-opacity="1" stroke="#000000" stroke-opacity="1" stroke-width="3.2"/>
</svg>
