<?xml version="1.0" encoding="utf-8"?>
<svg xmlns="http://www.w3.org/2000/svg" xmlns:xlink="http://www.w3.org/1999/xlink" width="600" height="400" viewBox="0 0 2400 1600">
<defs>
  <clipPath id="clip380">
    <rect x="0" y="0" width="2400" height="1600"/>
  </clipPath>
</defs>
<path clip-path="url(#clip380)" d="
M0 1600 L2400 1600 L2400 0 L0 0  Z
  " fill="#ffffff" fill-rule="evenodd" fill-opacity="1"/>
<defs>
  <clipPath id="clip381">
    <rect x="480" y="0" width="1681" height="1600"/>
  </clipPath>
</defs>
<path clip-path="url(#clip380)" d="
M272.297 1423.18 L2352.76 1423.18 L2352.76 47.2441 L272.297 47.2441  Z
  " fill="#ffffff" fill-rule="evenodd" fill-opacity="1"/>
<defs>
  <clipPath id="clip382">
    <rect x="272" y="47" width="2081" height="1377"/>
  </clipPath>
</defs>
<polyline clip-path="url(#clip382)" style="stroke:#000000; stroke-linecap:round; stroke-linejoin:round; stroke-width:2; stroke-opacity:0.1; fill:none" points="
  293.23,1423.18 293.23,47.2441 
  "/>
<polyline clip-path="url(#clip382)" style="stroke:#000000; stroke-linecap:round; stroke-linejoin:round; stroke-width:2; stroke-opacity:0.1; fill:none" points="
  627.506,1423.18 627.506,47.2441 
  "/>
<polyline clip-path="url(#clip382)" style="stroke:#000000; stroke-linecap:round; stroke-linejoin:round; stroke-width:2; stroke-opacity:0.1; fill:none" points="
  961.781,1423.18 961.781,47.2441 
  "/>
<polyline clip-path="url(#clip382)" style="stroke:#000000; stroke-linecap:round; stroke-linejoin:round; stroke-width:2; stroke-opacity:0.1; fill:none" points="
  1296.06,1423.18 1296.06,47.2441 
  "/>
<polyline clip-path="url(#clip382)" style="stroke:#000000; stroke-linecap:round; stroke-linejoin:round; stroke-width:2; stroke-opacity:0.1; fill:none" points="
  1630.33,1423.18 1630.33,47.2441 
  "/>
<polyline clip-path="url(#clip382)" style="stroke:#000000; stroke-linecap:round; stroke-linejoin:round; stroke-width:2; stroke-opacity:0.1; fill:none" points="
  1964.61,1423.18 1964.61,47.2441 
  "/>
<polyline clip-path="url(#clip382)" style="stroke:#000000; stroke-linecap:round; stroke-linejoin:round; stroke-width:2; stroke-opacity:0.1; fill:none" points="
  2298.88,1423.18 2298.88,47.2441 
  "/>
<polyline clip-path="url(#clip380)" style="stroke:#000000; stroke-linecap:round; stroke-linejoin:round; stroke-width:4; stroke-opacity:1; fill:none" points="
  272.297,1423.18 2352.76,1423.18 
  "/>
<polyline clip-path="url(#clip380)" style="stroke:#000000; stroke-linecap:round; stroke-linejoin:round; stroke-width:4; stroke-opacity:1; fill:none" points="
  293.23,1423.18 293.23,1404.28 
  "/>
<polyline clip-path="url(#clip380)" style="stroke:#000000; stroke-linecap:round; stroke-linejoin:round; stroke-width:4; stroke-opacity:1; fill:none" points="
  627.506,1423.18 627.506,1404.28 
  "/>
<polyline clip-path="url(#clip380)" style="stroke:#000000; stroke-linecap:round; stroke-linejoin:round; stroke-width:4; stroke-opacity:1; fill:none" points="
  961.781,1423.18 961.781,1404.28 
  "/>
<polyline clip-path="url(#clip380)" style="stroke:#000000; stroke-linecap:round; stroke-linejoin:round; stroke-width:4; stroke-opacity:1; fill:none" points="
  1296.06,1423.18 1296.06,1404.28 
  "/>
<polyline clip-path="url(#clip380)" style="stroke:#000000; stroke-linecap:round; stroke-linejoin:round; stroke-width:4; stroke-opacity:1; fill:none" points="
  1630.33,1423.18 1630.33,1404.28 
  "/>
<polyline clip-path="url(#clip380)" style="stroke:#000000; stroke-linecap:round; stroke-linejoin:round; stroke-width:4; stroke-opacity:1; fill:none" points="
  1964.61,1423.18 1964.61,1404.28 
  "/>
<polyline clip-path="url(#clip380)" style="stroke:#000000; stroke-linecap:round; stroke-linejoin:round; stroke-width:4; stroke-opacity:1; fill:none" points="
  2298.88,1423.18 2298.88,1404.28 
  "/>
<path clip-path="url(#clip380)" d="M232.212 1468.75 L261.888 1468.75 L261.888 1472.69 L232.212 1472.69 L232.212 1468.75 Z" fill="#000000" fill-rule="evenodd" fill-opacity="1" /><path clip-path="url(#clip380)" d="M286.147 1466.95 Q289.503 1467.66 291.378 1469.93 Q293.276 1472.2 293.276 1475.53 Q293.276 1480.65 289.758 1483.45 Q286.239 1486.25 279.758 1486.25 Q277.582 1486.25 275.267 1485.81 Q272.976 1485.39 270.522 1484.54 L270.522 1480.02 Q272.466 1481.16 274.781 1481.74 Q277.096 1482.32 279.619 1482.32 Q284.017 1482.32 286.309 1480.58 Q288.624 1478.84 288.624 1475.53 Q288.624 1472.48 286.471 1470.77 Q284.341 1469.03 280.522 1469.03 L276.494 1469.03 L276.494 1465.19 L280.707 1465.19 Q284.156 1465.19 285.985 1463.82 Q287.814 1462.43 287.814 1459.84 Q287.814 1457.18 285.915 1455.77 Q284.04 1454.33 280.522 1454.33 Q278.601 1454.33 276.402 1454.75 Q274.202 1455.16 271.564 1456.04 L271.564 1451.88 Q274.226 1451.14 276.54 1450.77 Q278.878 1450.39 280.939 1450.39 Q286.263 1450.39 289.364 1452.83 Q292.466 1455.23 292.466 1459.35 Q292.466 1462.22 290.823 1464.21 Q289.179 1466.18 286.147 1466.95 Z" fill="#000000" fill-rule="evenodd" fill-opacity="1" /><path clip-path="url(#clip380)" d="M312.142 1454.1 Q308.531 1454.1 306.702 1457.66 Q304.897 1461.2 304.897 1468.33 Q304.897 1475.44 306.702 1479.01 Q308.531 1482.55 312.142 1482.55 Q315.776 1482.55 317.582 1479.01 Q319.411 1475.44 319.411 1468.33 Q319.411 1461.2 317.582 1457.66 Q315.776 1454.1 312.142 1454.1 M312.142 1450.39 Q317.952 1450.39 321.008 1455 Q324.086 1459.58 324.086 1468.33 Q324.086 1477.06 321.008 1481.67 Q317.952 1486.25 312.142 1486.25 Q306.332 1486.25 303.253 1481.67 Q300.198 1477.06 300.198 1468.33 Q300.198 1459.58 303.253 1455 Q306.332 1450.39 312.142 1450.39 Z" fill="#000000" fill-rule="evenodd" fill-opacity="1" /><path clip-path="url(#clip380)" d="M342.304 1454.1 Q338.693 1454.1 336.864 1457.66 Q335.059 1461.2 335.059 1468.33 Q335.059 1475.44 336.864 1479.01 Q338.693 1482.55 342.304 1482.55 Q345.938 1482.55 347.744 1479.01 Q349.572 1475.44 349.572 1468.33 Q349.572 1461.2 347.744 1457.66 Q345.938 1454.1 342.304 1454.1 M342.304 1450.39 Q348.114 1450.39 351.17 1455 Q354.248 1459.58 354.248 1468.33 Q354.248 1477.06 351.17 1481.67 Q348.114 1486.25 342.304 1486.25 Q336.494 1486.25 333.415 1481.67 Q330.36 1477.06 330.36 1468.33 Q330.36 1459.58 333.415 1455 Q336.494 1450.39 342.304 1450.39 Z" fill="#000000" fill-rule="evenodd" fill-opacity="1" /><path clip-path="url(#clip380)" d="M566.488 1468.75 L596.163 1468.75 L596.163 1472.69 L566.488 1472.69 L566.488 1468.75 Z" fill="#000000" fill-rule="evenodd" fill-opacity="1" /><path clip-path="url(#clip380)" d="M610.284 1481.64 L626.603 1481.64 L626.603 1485.58 L604.659 1485.58 L604.659 1481.64 Q607.321 1478.89 611.904 1474.26 Q616.511 1469.61 617.691 1468.27 Q619.936 1465.74 620.816 1464.01 Q621.719 1462.25 621.719 1460.56 Q621.719 1457.8 619.774 1456.07 Q617.853 1454.33 614.751 1454.33 Q612.552 1454.33 610.099 1455.09 Q607.668 1455.86 604.89 1457.41 L604.89 1452.69 Q607.714 1451.55 610.168 1450.97 Q612.622 1450.39 614.659 1450.39 Q620.029 1450.39 623.223 1453.08 Q626.418 1455.77 626.418 1460.26 Q626.418 1462.39 625.608 1464.31 Q624.821 1466.2 622.714 1468.8 Q622.135 1469.47 619.034 1472.69 Q615.932 1475.88 610.284 1481.64 Z" fill="#000000" fill-rule="evenodd" fill-opacity="1" /><path clip-path="url(#clip380)" d="M646.418 1454.1 Q642.807 1454.1 640.978 1457.66 Q639.172 1461.2 639.172 1468.33 Q639.172 1475.44 640.978 1479.01 Q642.807 1482.55 646.418 1482.55 Q650.052 1482.55 651.858 1479.01 Q653.686 1475.44 653.686 1468.33 Q653.686 1461.2 651.858 1457.66 Q650.052 1454.1 646.418 1454.1 M646.418 1450.39 Q652.228 1450.39 655.283 1455 Q658.362 1459.58 658.362 1468.33 Q658.362 1477.06 655.283 1481.67 Q652.228 1486.25 646.418 1486.25 Q640.608 1486.25 637.529 1481.67 Q634.473 1477.06 634.473 1468.33 Q634.473 1459.58 637.529 1455 Q640.608 1450.39 646.418 1450.39 Z" fill="#000000" fill-rule="evenodd" fill-opacity="1" /><path clip-path="url(#clip380)" d="M676.58 1454.1 Q672.969 1454.1 671.14 1457.66 Q669.334 1461.2 669.334 1468.33 Q669.334 1475.44 671.14 1479.01 Q672.969 1482.55 676.58 1482.55 Q680.214 1482.55 682.019 1479.01 Q683.848 1475.44 683.848 1468.33 Q683.848 1461.2 682.019 1457.66 Q680.214 1454.1 676.58 1454.1 M676.58 1450.39 Q682.39 1450.39 685.445 1455 Q688.524 1459.58 688.524 1468.33 Q688.524 1477.06 685.445 1481.67 Q682.39 1486.25 676.58 1486.25 Q670.769 1486.25 667.691 1481.67 Q664.635 1477.06 664.635 1468.33 Q664.635 1459.58 667.691 1455 Q670.769 1450.39 676.58 1450.39 Z" fill="#000000" fill-rule="evenodd" fill-opacity="1" /><path clip-path="url(#clip380)" d="M900.763 1468.75 L930.439 1468.75 L930.439 1472.69 L900.763 1472.69 L900.763 1468.75 Z" fill="#000000" fill-rule="evenodd" fill-opacity="1" /><path clip-path="url(#clip380)" d="M941.342 1481.64 L948.981 1481.64 L948.981 1455.28 L940.67 1456.95 L940.67 1452.69 L948.934 1451.02 L953.61 1451.02 L953.61 1481.64 L961.249 1481.64 L961.249 1485.58 L941.342 1485.58 L941.342 1481.64 Z" fill="#000000" fill-rule="evenodd" fill-opacity="1" /><path clip-path="url(#clip380)" d="M980.693 1454.1 Q977.082 1454.1 975.254 1457.66 Q973.448 1461.2 973.448 1468.33 Q973.448 1475.44 975.254 1479.01 Q977.082 1482.55 980.693 1482.55 Q984.328 1482.55 986.133 1479.01 Q987.962 1475.44 987.962 1468.33 Q987.962 1461.2 986.133 1457.66 Q984.328 1454.1 980.693 1454.1 M980.693 1450.39 Q986.504 1450.39 989.559 1455 Q992.638 1459.58 992.638 1468.33 Q992.638 1477.06 989.559 1481.67 Q986.504 1486.25 980.693 1486.25 Q974.883 1486.25 971.805 1481.67 Q968.749 1477.06 968.749 1468.33 Q968.749 1459.58 971.805 1455 Q974.883 1450.39 980.693 1450.39 Z" fill="#000000" fill-rule="evenodd" fill-opacity="1" /><path clip-path="url(#clip380)" d="M1010.86 1454.1 Q1007.24 1454.1 1005.42 1457.66 Q1003.61 1461.2 1003.61 1468.33 Q1003.61 1475.44 1005.42 1479.01 Q1007.24 1482.55 1010.86 1482.55 Q1014.49 1482.55 1016.3 1479.01 Q1018.12 1475.44 1018.12 1468.33 Q1018.12 1461.2 1016.3 1457.66 Q1014.49 1454.1 1010.86 1454.1 M1010.86 1450.39 Q1016.67 1450.39 1019.72 1455 Q1022.8 1459.58 1022.8 1468.33 Q1022.8 1477.06 1019.72 1481.67 Q1016.67 1486.25 1010.86 1486.25 Q1005.05 1486.25 1001.97 1481.67 Q998.911 1477.06 998.911 1468.33 Q998.911 1459.58 1001.97 1455 Q1005.05 1450.39 1010.86 1450.39 Z" fill="#000000" fill-rule="evenodd" fill-opacity="1" /><path clip-path="url(#clip380)" d="M1296.06 1454.1 Q1292.45 1454.1 1290.62 1457.66 Q1288.81 1461.2 1288.81 1468.33 Q1288.81 1475.44 1290.62 1479.01 Q1292.45 1482.55 1296.06 1482.55 Q1299.69 1482.55 1301.5 1479.01 Q1303.33 1475.44 1303.33 1468.33 Q1303.33 1461.2 1301.5 1457.66 Q1299.69 1454.1 1296.06 1454.1 M1296.06 1450.39 Q1301.87 1450.39 1304.92 1455 Q1308 1459.58 1308 1468.33 Q1308 1477.06 1304.92 1481.67 Q1301.87 1486.25 1296.06 1486.25 Q1290.25 1486.25 1287.17 1481.67 Q1284.11 1477.06 1284.11 1468.33 Q1284.11 1459.58 1287.17 1455 Q1290.25 1450.39 1296.06 1450.39 Z" fill="#000000" fill-rule="evenodd" fill-opacity="1" /><path clip-path="url(#clip380)" d="M1589.94 1481.64 L1597.58 1481.64 L1597.58 1455.28 L1589.27 1456.95 L1589.27 1452.69 L1597.53 1451.02 L1602.21 1451.02 L1602.21 1481.64 L1609.85 1481.64 L1609.85 1485.58 L1589.94 1485.58 L1589.94 1481.64 Z" fill="#000000" fill-rule="evenodd" fill-opacity="1" /><path clip-path="url(#clip380)" d="M1629.29 1454.1 Q1625.68 1454.1 1623.85 1457.66 Q1622.05 1461.2 1622.05 1468.33 Q1622.05 1475.44 1623.85 1479.01 Q1625.68 1482.55 1629.29 1482.55 Q1632.93 1482.55 1634.73 1479.01 Q1636.56 1475.44 1636.56 1468.33 Q1636.56 1461.2 1634.73 1457.66 Q1632.93 1454.1 1629.29 1454.1 M1629.29 1450.39 Q1635.1 1450.39 1638.16 1455 Q1641.24 1459.58 1641.24 1468.33 Q1641.24 1477.06 1638.16 1481.67 Q1635.1 1486.25 1629.29 1486.25 Q1623.48 1486.25 1620.4 1481.67 Q1617.35 1477.06 1617.35 1468.33 Q1617.35 1459.58 1620.4 1455 Q1623.48 1450.39 1629.29 1450.39 Z" fill="#000000" fill-rule="evenodd" fill-opacity="1" /><path clip-path="url(#clip380)" d="M1659.45 1454.1 Q1655.84 1454.1 1654.01 1457.66 Q1652.21 1461.2 1652.21 1468.33 Q1652.21 1475.44 1654.01 1479.01 Q1655.84 1482.55 1659.45 1482.55 Q1663.09 1482.55 1664.89 1479.01 Q1666.72 1475.44 1666.72 1468.33 Q1666.72 1461.2 1664.89 1457.66 Q1663.09 1454.1 1659.45 1454.1 M1659.45 1450.39 Q1665.26 1450.39 1668.32 1455 Q1671.4 1459.58 1671.4 1468.33 Q1671.4 1477.06 1668.32 1481.67 Q1665.26 1486.25 1659.45 1486.25 Q1653.64 1486.25 1650.56 1481.67 Q1647.51 1477.06 1647.51 1468.33 Q1647.51 1459.58 1650.56 1455 Q1653.64 1450.39 1659.45 1450.39 Z" fill="#000000" fill-rule="evenodd" fill-opacity="1" /><path clip-path="url(#clip380)" d="M1928.3 1481.64 L1944.62 1481.64 L1944.62 1485.58 L1922.68 1485.58 L1922.68 1481.64 Q1925.34 1478.89 1929.92 1474.26 Q1934.53 1469.61 1935.71 1468.27 Q1937.95 1465.74 1938.83 1464.01 Q1939.74 1462.25 1939.74 1460.56 Q1939.74 1457.8 1937.79 1456.07 Q1935.87 1454.33 1932.77 1454.33 Q1930.57 1454.33 1928.12 1455.09 Q1925.69 1455.86 1922.91 1457.41 L1922.91 1452.69 Q1925.73 1451.55 1928.19 1450.97 Q1930.64 1450.39 1932.68 1450.39 Q1938.05 1450.39 1941.24 1453.08 Q1944.43 1455.77 1944.43 1460.26 Q1944.43 1462.39 1943.62 1464.31 Q1942.84 1466.2 1940.73 1468.8 Q1940.15 1469.47 1937.05 1472.69 Q1933.95 1475.88 1928.3 1481.64 Z" fill="#000000" fill-rule="evenodd" fill-opacity="1" /><path clip-path="url(#clip380)" d="M1964.43 1454.1 Q1960.82 1454.1 1959 1457.66 Q1957.19 1461.2 1957.19 1468.33 Q1957.19 1475.44 1959 1479.01 Q1960.82 1482.55 1964.43 1482.55 Q1968.07 1482.55 1969.87 1479.01 Q1971.7 1475.44 1971.7 1468.33 Q1971.7 1461.2 1969.87 1457.66 Q1968.07 1454.1 1964.43 1454.1 M1964.43 1450.39 Q1970.24 1450.39 1973.3 1455 Q1976.38 1459.58 1976.38 1468.33 Q1976.38 1477.06 1973.3 1481.67 Q1970.24 1486.25 1964.43 1486.25 Q1958.62 1486.25 1955.55 1481.67 Q1952.49 1477.06 1952.49 1468.33 Q1952.49 1459.58 1955.55 1455 Q1958.62 1450.39 1964.43 1450.39 Z" fill="#000000" fill-rule="evenodd" fill-opacity="1" /><path clip-path="url(#clip380)" d="M1994.6 1454.1 Q1990.99 1454.1 1989.16 1457.66 Q1987.35 1461.2 1987.35 1468.33 Q1987.35 1475.44 1989.16 1479.01 Q1990.99 1482.55 1994.6 1482.55 Q1998.23 1482.55 2000.04 1479.01 Q2001.87 1475.44 2001.87 1468.33 Q2001.87 1461.2 2000.04 1457.66 Q1998.23 1454.1 1994.6 1454.1 M1994.6 1450.39 Q2000.41 1450.39 2003.46 1455 Q2006.54 1459.58 2006.54 1468.33 Q2006.54 1477.06 2003.46 1481.67 Q2000.41 1486.25 1994.6 1486.25 Q1988.79 1486.25 1985.71 1481.67 Q1982.65 1477.06 1982.65 1468.33 Q1982.65 1459.58 1985.71 1455 Q1988.79 1450.39 1994.6 1450.39 Z" fill="#000000" fill-rule="evenodd" fill-opacity="1" /><path clip-path="url(#clip380)" d="M2272.65 1466.95 Q2276 1467.66 2277.88 1469.93 Q2279.78 1472.2 2279.78 1475.53 Q2279.78 1480.65 2276.26 1483.45 Q2272.74 1486.25 2266.26 1486.25 Q2264.08 1486.25 2261.77 1485.81 Q2259.47 1485.39 2257.02 1484.54 L2257.02 1480.02 Q2258.97 1481.16 2261.28 1481.74 Q2263.59 1482.32 2266.12 1482.32 Q2270.52 1482.32 2272.81 1480.58 Q2275.12 1478.84 2275.12 1475.53 Q2275.12 1472.48 2272.97 1470.77 Q2270.84 1469.03 2267.02 1469.03 L2262.99 1469.03 L2262.99 1465.19 L2267.21 1465.19 Q2270.66 1465.19 2272.48 1463.82 Q2274.31 1462.43 2274.31 1459.84 Q2274.31 1457.18 2272.41 1455.77 Q2270.54 1454.33 2267.02 1454.33 Q2265.1 1454.33 2262.9 1454.75 Q2260.7 1455.16 2258.06 1456.04 L2258.06 1451.88 Q2260.72 1451.14 2263.04 1450.77 Q2265.38 1450.39 2267.44 1450.39 Q2272.76 1450.39 2275.86 1452.83 Q2278.97 1455.23 2278.97 1459.35 Q2278.97 1462.22 2277.32 1464.21 Q2275.68 1466.18 2272.65 1466.95 Z" fill="#000000" fill-rule="evenodd" fill-opacity="1" /><path clip-path="url(#clip380)" d="M2298.64 1454.1 Q2295.03 1454.1 2293.2 1457.66 Q2291.4 1461.2 2291.4 1468.33 Q2291.4 1475.44 2293.2 1479.01 Q2295.03 1482.55 2298.64 1482.55 Q2302.28 1482.55 2304.08 1479.01 Q2305.91 1475.44 2305.91 1468.33 Q2305.91 1461.2 2304.08 1457.66 Q2302.28 1454.1 2298.64 1454.1 M2298.64 1450.39 Q2304.45 1450.39 2307.51 1455 Q2310.59 1459.58 2310.59 1468.33 Q2310.59 1477.06 2307.51 1481.67 Q2304.45 1486.25 2298.64 1486.25 Q2292.83 1486.25 2289.75 1481.67 Q2286.7 1477.06 2286.7 1468.33 Q2286.7 1459.58 2289.75 1455 Q2292.83 1450.39 2298.64 1450.39 Z" fill="#000000" fill-rule="evenodd" fill-opacity="1" /><path clip-path="url(#clip380)" d="M2328.8 1454.1 Q2325.19 1454.1 2323.36 1457.66 Q2321.56 1461.2 2321.56 1468.33 Q2321.56 1475.44 2323.36 1479.01 Q2325.19 1482.55 2328.8 1482.55 Q2332.44 1482.55 2334.24 1479.01 Q2336.07 1475.44 2336.07 1468.33 Q2336.07 1461.2 2334.24 1457.66 Q2332.44 1454.1 2328.8 1454.1 M2328.8 1450.39 Q2334.61 1450.39 2337.67 1455 Q2340.75 1459.58 2340.75 1468.33 Q2340.75 1477.06 2337.67 1481.67 Q2334.61 1486.25 2328.8 1486.25 Q2322.99 1486.25 2319.91 1481.67 Q2316.86 1477.06 2316.86 1468.33 Q2316.86 1459.58 2319.91 1455 Q2322.99 1450.39 2328.8 1450.39 Z" fill="#000000" fill-rule="evenodd" fill-opacity="1" /><path clip-path="url(#clip380)" d="M1329.14 1532.4 L1316.25 1549.74 L1329.81 1568.04 L1322.9 1568.04 L1312.53 1554.04 L1302.15 1568.04 L1295.24 1568.04 L1309.09 1549.39 L1296.42 1532.4 L1303.33 1532.4 L1312.78 1545.1 L1322.23 1532.4 L1329.14 1532.4 Z" fill="#000000" fill-rule="evenodd" fill-opacity="1" /><polyline clip-path="url(#clip382)" style="stroke:#000000; stroke-linecap:round; stroke-linejoin:round; stroke-width:2; stroke-opacity:0.1; fill:none" points="
  272.297,1408.9 2352.76,1408.9 
  "/>
<polyline clip-path="url(#clip382)" style="stroke:#000000; stroke-linecap:round; stroke-linejoin:round; stroke-width:2; stroke-opacity:0.1; fill:none" points="
  272.297,1074.62 2352.76,1074.62 
  "/>
<polyline clip-path="url(#clip382)" style="stroke:#000000; stroke-linecap:round; stroke-linejoin:round; stroke-width:2; stroke-opacity:0.1; fill:none" points="
  272.297,740.347 2352.76,740.347 
  "/>
<polyline clip-path="url(#clip382)" style="stroke:#000000; stroke-linecap:round; stroke-linejoin:round; stroke-width:2; stroke-opacity:0.1; fill:none" points="
  272.297,406.071 2352.76,406.071 
  "/>
<polyline clip-path="url(#clip382)" style="stroke:#000000; stroke-linecap:round; stroke-linejoin:round; stroke-width:2; stroke-opacity:0.1; fill:none" points="
  272.297,71.7954 2352.76,71.7954 
  "/>
<polyline clip-path="url(#clip380)" style="stroke:#000000; stroke-linecap:round; stroke-linejoin:round; stroke-width:4; stroke-opacity:1; fill:none" points="
  272.297,1423.18 272.297,47.2441 
  "/>
<polyline clip-path="url(#clip380)" style="stroke:#000000; stroke-linecap:round; stroke-linejoin:round; stroke-width:4; stroke-opacity:1; fill:none" points="
  272.297,1408.9 291.194,1408.9 
  "/>
<polyline clip-path="url(#clip380)" style="stroke:#000000; stroke-linecap:round; stroke-linejoin:round; stroke-width:4; stroke-opacity:1; fill:none" points="
  272.297,1074.62 291.194,1074.62 
  "/>
<polyline clip-path="url(#clip380)" style="stroke:#000000; stroke-linecap:round; stroke-linejoin:round; stroke-width:4; stroke-opacity:1; fill:none" points="
  272.297,740.347 291.194,740.347 
  "/>
<polyline clip-path="url(#clip380)" style="stroke:#000000; stroke-linecap:round; stroke-linejoin:round; stroke-width:4; stroke-opacity:1; fill:none" points="
  272.297,406.071 291.194,406.071 
  "/>
<polyline clip-path="url(#clip380)" style="stroke:#000000; stroke-linecap:round; stroke-linejoin:round; stroke-width:4; stroke-opacity:1; fill:none" points="
  272.297,71.7954 291.194,71.7954 
  "/>
<path clip-path="url(#clip380)" d="M114.26 1409.35 L143.936 1409.35 L143.936 1413.28 L114.26 1413.28 L114.26 1409.35 Z" fill="#000000" fill-rule="evenodd" fill-opacity="1" /><path clip-path="url(#clip380)" d="M158.056 1422.24 L174.376 1422.24 L174.376 1426.18 L152.431 1426.18 L152.431 1422.24 Q155.093 1419.49 159.677 1414.86 Q164.283 1410.21 165.464 1408.86 Q167.709 1406.34 168.589 1404.6 Q169.491 1402.84 169.491 1401.15 Q169.491 1398.4 167.547 1396.66 Q165.626 1394.93 162.524 1394.93 Q160.325 1394.93 157.871 1395.69 Q155.44 1396.46 152.663 1398.01 L152.663 1393.28 Q155.487 1392.15 157.94 1391.57 Q160.394 1390.99 162.431 1390.99 Q167.802 1390.99 170.996 1393.68 Q174.19 1396.36 174.19 1400.85 Q174.19 1402.98 173.38 1404.9 Q172.593 1406.8 170.487 1409.4 Q169.908 1410.07 166.806 1413.28 Q163.704 1416.48 158.056 1422.24 Z" fill="#000000" fill-rule="evenodd" fill-opacity="1" /><path clip-path="url(#clip380)" d="M194.19 1394.7 Q190.579 1394.7 188.75 1398.26 Q186.945 1401.8 186.945 1408.93 Q186.945 1416.04 188.75 1419.6 Q190.579 1423.15 194.19 1423.15 Q197.825 1423.15 199.63 1419.6 Q201.459 1416.04 201.459 1408.93 Q201.459 1401.8 199.63 1398.26 Q197.825 1394.7 194.19 1394.7 M194.19 1390.99 Q200 1390.99 203.056 1395.6 Q206.135 1400.18 206.135 1408.93 Q206.135 1417.66 203.056 1422.27 Q200 1426.85 194.19 1426.85 Q188.38 1426.85 185.301 1422.27 Q182.246 1417.66 182.246 1408.93 Q182.246 1400.18 185.301 1395.6 Q188.38 1390.99 194.19 1390.99 Z" fill="#000000" fill-rule="evenodd" fill-opacity="1" /><path clip-path="url(#clip380)" d="M224.352 1394.7 Q220.741 1394.7 218.912 1398.26 Q217.107 1401.8 217.107 1408.93 Q217.107 1416.04 218.912 1419.6 Q220.741 1423.15 224.352 1423.15 Q227.986 1423.15 229.792 1419.6 Q231.621 1416.04 231.621 1408.93 Q231.621 1401.8 229.792 1398.26 Q227.986 1394.7 224.352 1394.7 M224.352 1390.99 Q230.162 1390.99 233.218 1395.6 Q236.297 1400.18 236.297 1408.93 Q236.297 1417.66 233.218 1422.27 Q230.162 1426.85 224.352 1426.85 Q218.542 1426.85 215.463 1422.27 Q212.408 1417.66 212.408 1408.93 Q212.408 1400.18 215.463 1395.6 Q218.542 1390.99 224.352 1390.99 Z" fill="#000000" fill-rule="evenodd" fill-opacity="1" /><path clip-path="url(#clip380)" d="M114.26 1075.07 L143.936 1075.07 L143.936 1079.01 L114.26 1079.01 L114.26 1075.07 Z" fill="#000000" fill-rule="evenodd" fill-opacity="1" /><path clip-path="url(#clip380)" d="M154.839 1087.97 L162.477 1087.97 L162.477 1061.6 L154.167 1063.27 L154.167 1059.01 L162.431 1057.34 L167.107 1057.34 L167.107 1087.97 L174.746 1087.97 L174.746 1091.9 L154.839 1091.9 L154.839 1087.97 Z" fill="#000000" fill-rule="evenodd" fill-opacity="1" /><path clip-path="url(#clip380)" d="M194.19 1060.42 Q190.579 1060.42 188.75 1063.99 Q186.945 1067.53 186.945 1074.66 Q186.945 1081.76 188.75 1085.33 Q190.579 1088.87 194.19 1088.87 Q197.825 1088.87 199.63 1085.33 Q201.459 1081.76 201.459 1074.66 Q201.459 1067.53 199.63 1063.99 Q197.825 1060.42 194.19 1060.42 M194.19 1056.72 Q200 1056.72 203.056 1061.32 Q206.135 1065.91 206.135 1074.66 Q206.135 1083.38 203.056 1087.99 Q200 1092.57 194.19 1092.57 Q188.38 1092.57 185.301 1087.99 Q182.246 1083.38 182.246 1074.66 Q182.246 1065.91 185.301 1061.32 Q188.38 1056.72 194.19 1056.72 Z" fill="#000000" fill-rule="evenodd" fill-opacity="1" /><path clip-path="url(#clip380)" d="M224.352 1060.42 Q220.741 1060.42 218.912 1063.99 Q217.107 1067.53 217.107 1074.66 Q217.107 1081.76 218.912 1085.33 Q220.741 1088.87 224.352 1088.87 Q227.986 1088.87 229.792 1085.33 Q231.621 1081.76 231.621 1074.66 Q231.621 1067.53 229.792 1063.99 Q227.986 1060.42 224.352 1060.42 M224.352 1056.72 Q230.162 1056.72 233.218 1061.32 Q236.297 1065.91 236.297 1074.66 Q236.297 1083.38 233.218 1087.99 Q230.162 1092.57 224.352 1092.57 Q218.542 1092.57 215.463 1087.99 Q212.408 1083.38 212.408 1074.66 Q212.408 1065.91 215.463 1061.32 Q218.542 1056.72 224.352 1056.72 Z" fill="#000000" fill-rule="evenodd" fill-opacity="1" /><path clip-path="url(#clip380)" d="M224.352 726.145 Q220.741 726.145 218.912 729.71 Q217.107 733.252 217.107 740.381 Q217.107 747.488 218.912 751.053 Q220.741 754.594 224.352 754.594 Q227.986 754.594 229.792 751.053 Q231.621 747.488 231.621 740.381 Q231.621 733.252 229.792 729.71 Q227.986 726.145 224.352 726.145 M224.352 722.442 Q230.162 722.442 233.218 727.048 Q236.297 731.631 236.297 740.381 Q236.297 749.108 233.218 753.715 Q230.162 758.298 224.352 758.298 Q218.542 758.298 215.463 753.715 Q212.408 749.108 212.408 740.381 Q212.408 731.631 215.463 727.048 Q218.542 722.442 224.352 722.442 Z" fill="#000000" fill-rule="evenodd" fill-opacity="1" /><path clip-path="url(#clip380)" d="M154.839 419.416 L162.477 419.416 L162.477 393.05 L154.167 394.717 L154.167 390.458 L162.431 388.791 L167.107 388.791 L167.107 419.416 L174.746 419.416 L174.746 423.351 L154.839 423.351 L154.839 419.416 Z" fill="#000000" fill-rule="evenodd" fill-opacity="1" /><path clip-path="url(#clip380)" d="M194.19 391.87 Q190.579 391.87 188.75 395.435 Q186.945 398.976 186.945 406.106 Q186.945 413.212 188.75 416.777 Q190.579 420.319 194.19 420.319 Q197.825 420.319 199.63 416.777 Q201.459 413.212 201.459 406.106 Q201.459 398.976 199.63 395.435 Q197.825 391.87 194.19 391.87 M194.19 388.166 Q200 388.166 203.056 392.772 Q206.135 397.356 206.135 406.106 Q206.135 414.833 203.056 419.439 Q200 424.022 194.19 424.022 Q188.38 424.022 185.301 419.439 Q182.246 414.833 182.246 406.106 Q182.246 397.356 185.301 392.772 Q188.38 388.166 194.19 388.166 Z" fill="#000000" fill-rule="evenodd" fill-opacity="1" /><path clip-path="url(#clip380)" d="M224.352 391.87 Q220.741 391.87 218.912 395.435 Q217.107 398.976 217.107 406.106 Q217.107 413.212 218.912 416.777 Q220.741 420.319 224.352 420.319 Q227.986 420.319 229.792 416.777 Q231.621 413.212 231.621 406.106 Q231.621 398.976 229.792 395.435 Q227.986 391.87 224.352 391.87 M224.352 388.166 Q230.162 388.166 233.218 392.772 Q236.297 397.356 236.297 406.106 Q236.297 414.833 233.218 419.439 Q230.162 424.022 224.352 424.022 Q218.542 424.022 215.463 419.439 Q212.408 414.833 212.408 406.106 Q212.408 397.356 215.463 392.772 Q218.542 388.166 224.352 388.166 Z" fill="#000000" fill-rule="evenodd" fill-opacity="1" /><path clip-path="url(#clip380)" d="M158.056 85.1402 L174.376 85.1402 L174.376 89.0754 L152.431 89.0754 L152.431 85.1402 Q155.093 82.3856 159.677 77.756 Q164.283 73.1032 165.464 71.7607 Q167.709 69.2375 168.589 67.5014 Q169.491 65.7422 169.491 64.0524 Q169.491 61.2978 167.547 59.5616 Q165.626 57.8255 162.524 57.8255 Q160.325 57.8255 157.871 58.5894 Q155.44 59.3533 152.663 60.9042 L152.663 56.182 Q155.487 55.0478 157.94 54.4691 Q160.394 53.8904 162.431 53.8904 Q167.802 53.8904 170.996 56.5756 Q174.19 59.2607 174.19 63.7514 Q174.19 65.8811 173.38 67.8023 Q172.593 69.7005 170.487 72.2931 Q169.908 72.9644 166.806 76.1819 Q163.704 79.3764 158.056 85.1402 Z" fill="#000000" fill-rule="evenodd" fill-opacity="1" /><path clip-path="url(#clip380)" d="M194.19 57.5941 Q190.579 57.5941 188.75 61.1589 Q186.945 64.7005 186.945 71.8301 Q186.945 78.9365 188.75 82.5013 Q190.579 86.043 194.19 86.043 Q197.825 86.043 199.63 82.5013 Q201.459 78.9365 201.459 71.8301 Q201.459 64.7005 199.63 61.1589 Q197.825 57.5941 194.19 57.5941 M194.19 53.8904 Q200 53.8904 203.056 58.4968 Q206.135 63.0801 206.135 71.8301 Q206.135 80.5569 203.056 85.1634 Q200 89.7467 194.19 89.7467 Q188.38 89.7467 185.301 85.1634 Q182.246 80.5569 182.246 71.8301 Q182.246 63.0801 185.301 58.4968 Q188.38 53.8904 194.19 53.8904 Z" fill="#000000" fill-rule="evenodd" fill-opacity="1" /><path clip-path="url(#clip380)" d="M224.352 57.5941 Q220.741 57.5941 218.912 61.1589 Q217.107 64.7005 217.107 71.8301 Q217.107 78.9365 218.912 82.5013 Q220.741 86.043 224.352 86.043 Q227.986 86.043 229.792 82.5013 Q231.621 78.9365 231.621 71.8301 Q231.621 64.7005 229.792 61.1589 Q227.986 57.5941 224.352 57.5941 M224.352 53.8904 Q230.162 53.8904 233.218 58.4968 Q236.297 63.0801 236.297 71.8301 Q236.297 80.5569 233.218 85.1634 Q230.162 89.7467 224.352 89.7467 Q218.542 89.7467 215.463 85.1634 Q212.408 80.5569 212.408 71.8301 Q212.408 63.0801 215.463 58.4968 Q218.542 53.8904 224.352 53.8904 Z" fill="#000000" fill-rule="evenodd" fill-opacity="1" /><path clip-path="url(#clip380)" d="M67.3143 733.525 Q73.68 736.008 75.6216 738.363 Q77.5631 740.718 77.5631 744.665 L77.5631 749.344 L72.6615 749.344 L72.6615 745.906 Q72.6615 743.487 71.5157 742.151 Q70.3699 740.814 66.1048 739.191 L63.4312 738.14 L28.3562 752.559 L28.3562 746.352 L56.238 735.212 L28.3562 724.072 L28.3562 717.865 L67.3143 733.525 Z" fill="#000000" fill-rule="evenodd" fill-opacity="1" /><polyline clip-path="url(#clip382)" style="stroke:#009af9; stroke-linecap:round; stroke-linejoin:round; stroke-width:4; stroke-opacity:1; fill:none" points="
  690.32,1384.24 618.05,1080.31 719.839,1035.51 787.522,1054.05 849.027,1119.1 775.751,1202.15 663.824,1205.25 477.217,1111.55 569.735,885.144 589.301,647.517 
  601.883,468.212 675.477,439.016 664.068,391.745 576.984,336.74 552.319,175.309 492.962,140.874 397.728,261.408 336.491,360.61 346.283,381.827 466.487,472.484 
  537.961,731.459 680.68,721.168 723.259,655.23 803.458,541.091 872.968,382.789 1105.81,431.138 1202.75,578.802 1153.31,614.393 1134.42,709.956 1140.94,786.329 
  1138.06,964.258 1238.04,1159.04 1412.92,1097.5 1526.41,1014.87 1652.39,1099.47 1720.27,1010.22 1749.94,783.981 1768.83,760.48 1727.35,641.061 1546.39,470.966 
  1474.68,320.218 1479.13,225.382 1409.98,112.807 1252.5,156.374 893.634,170.108 844.835,295.944 769.829,316.484 624.928,246.484 622.541,221.301 651.971,156.959 
  784.18,112.519 914.494,103.166 1013.17,244.895 1324.95,286.041 1351.46,392.63 1432.77,479.103 1478.41,501.115 1484.55,500.943 1488.45,525.015 1481.36,530.658 
  1306.59,649.745 1281.23,629.485 1234.83,647.566 1264.03,798.901 1295.39,813.646 1453.2,843.595 1481.75,891.071 1592.96,883.532 1693.81,1008.45 1872.31,917.958 
  1826.06,804.709 1929.13,755.273 2097.04,813.701 2288.56,654.065 2202.95,263.923 2037.51,117.788 1866.04,201.595 1864.29,224.692 1791.15,327.321 1719.92,363.527 
  1698.44,352.956 1630.48,201.176 1616.79,127.692 1733.47,86.1857 2022.17,191.149 2020.4,217.826 1993.33,283.664 1840.67,347.687 1826.69,531.027 1891.73,616.558 
  1983.72,823.837 2046.84,856.67 2153.39,896.09 2219.58,905.642 2225.7,1053.8 2217.97,1172.95 2084.37,1221.16 2023.44,1372.99 1604.59,1228.96 1496.04,1311 
  
  "/>
<circle clip-path="url(#clip382)" cx="690.32" cy="1384.24" r="7.2" fill="#009af9" fill-rule="evenodd" fill-opacity="1" stroke="#000000" stroke-opacity="1" stroke-width="3.2"/>
<circle clip-path="url(#clip382)" cx="618.05" cy="1080.31" r="7.2" fill="#009af9" fill-rule="evenodd" fill-opacity="1" stroke="#000000" stroke-opacity="1" stroke-width="3.2"/>
<circle clip-path="url(#clip382)" cx="719.839" cy="1035.51" r="7.2" fill="#009af9" fill-rule="evenodd" fill-opacity="1" stroke="#000000" stroke-opacity="1" stroke-width="3.2"/>
<circle clip-path="url(#clip382)" cx="787.522" cy="1054.05" r="7.2" fill="#009af9" fill-rule="evenodd" fill-opacity="1" stroke="#000000" stroke-opacity="1" stroke-width="3.2"/>
<circle clip-path="url(#clip382)" cx="849.027" cy="1119.1" r="7.2" fill="#009af9" fill-rule="evenodd" fill-opacity="1" stroke="#000000" stroke-opacity="1" stroke-width="3.2"/>
<circle clip-path="url(#clip382)" cx="775.751" cy="1202.15" r="7.2" fill="#009af9" fill-rule="evenodd" fill-opacity="1" stroke="#000000" stroke-opacity="1" stroke-width="3.2"/>
<circle clip-path="url(#clip382)" cx="663.824" cy="1205.25" r="7.2" fill="#009af9" fill-rule="evenodd" fill-opacity="1" stroke="#000000" stroke-opacity="1" stroke-width="3.2"/>
<circle clip-path="url(#clip382)" cx="477.217" cy="1111.55" r="7.2" fill="#009af9" fill-rule="evenodd" fill-opacity="1" stroke="#000000" stroke-opacity="1" stroke-width="3.2"/>
<circle clip-path="url(#clip382)" cx="569.735" cy="885.144" r="7.2" fill="#009af9" fill-rule="evenodd" fill-opacity="1" stroke="#000000" stroke-opacity="1" stroke-width="3.2"/>
<circle clip-path="url(#clip382)" cx="589.301" cy="647.517" r="7.2" fill="#009af9" fill-rule="evenodd" fill-opacity="1" stroke="#000000" stroke-opacity="1" stroke-width="3.2"/>
<circle clip-path="url(#clip382)" cx="601.883" cy="468.212" r="7.2" fill="#009af9" fill-rule="evenodd" fill-opacity="1" stroke="#000000" stroke-opacity="1" stroke-width="3.2"/>
<circle clip-path="url(#clip382)" cx="675.477" cy="439.016" r="7.2" fill="#009af9" fill-rule="evenodd" fill-opacity="1" stroke="#000000" stroke-opacity="1" stroke-width="3.2"/>
<circle clip-path="url(#clip382)" cx="664.068" cy="391.745" r="7.2" fill="#009af9" fill-rule="evenodd" fill-opacity="1" stroke="#000000" stroke-opacity="1" stroke-width="3.2"/>
<circle clip-path="url(#clip382)" cx="576.984" cy="336.74" r="7.2" fill="#009af9" fill-rule="evenodd" fill-opacity="1" stroke="#000000" stroke-opacity="1" stroke-width="3.2"/>
<circle clip-path="url(#clip382)" cx="552.319" cy="175.309" r="7.2" fill="#009af9" fill-rule="evenodd" fill-opacity="1" stroke="#000000" stroke-opacity="1" stroke-width="3.2"/>
<circle clip-path="url(#clip382)" cx="492.962" cy="140.874" r="7.2" fill="#009af9" fill-rule="evenodd" fill-opacity="1" stroke="#000000" stroke-opacity="1" stroke-width="3.2"/>
<circle clip-path="url(#clip382)" cx="397.728" cy="261.408" r="7.2" fill="#009af9" fill-rule="evenodd" fill-opacity="1" stroke="#000000" stroke-opacity="1" stroke-width="3.2"/>
<circle clip-path="url(#clip382)" cx="336.491" cy="360.61" r="7.2" fill="#009af9" fill-rule="evenodd" fill-opacity="1" stroke="#000000" stroke-opacity="1" stroke-width="3.2"/>
<circle clip-path="url(#clip382)" cx="346.283" cy="381.827" r="7.2" fill="#009af9" fill-rule="evenodd" fill-opacity="1" stroke="#000000" stroke-opacity="1" stroke-width="3.2"/>
<circle clip-path="url(#clip382)" cx="466.487" cy="472.484" r="7.2" fill="#009af9" fill-rule="evenodd" fill-opacity="1" stroke="#000000" stroke-opacity="1" stroke-width="3.2"/>
<circle clip-path="url(#clip382)" cx="537.961" cy="731.459" r="7.2" fill="#009af9" fill-rule="evenodd" fill-opacity="1" stroke="#000000" stroke-opacity="1" stroke-width="3.2"/>
<circle clip-path="url(#clip382)" cx="680.68" cy="721.168" r="7.2" fill="#009af9" fill-rule="evenodd" fill-opacity="1" stroke="#000000" stroke-opacity="1" stroke-width="3.2"/>
<circle clip-path="url(#clip382)" cx="723.259" cy="655.23" r="7.2" fill="#009af9" fill-rule="evenodd" fill-opacity="1" stroke="#000000" stroke-opacity="1" stroke-width="3.2"/>
<circle clip-path="url(#clip382)" cx="803.458" cy="541.091" r="7.2" fill="#009af9" fill-rule="evenodd" fill-opacity="1" stroke="#000000" stroke-opacity="1" stroke-width="3.2"/>
<circle clip-path="url(#clip382)" cx="872.968" cy="382.789" r="7.2" fill="#009af9" fill-rule="evenodd" fill-opacity="1" stroke="#000000" stroke-opacity="1" stroke-width="3.2"/>
<circle clip-path="url(#clip382)" cx="1105.81" cy="431.138" r="7.2" fill="#009af9" fill-rule="evenodd" fill-opacity="1" stroke="#000000" stroke-opacity="1" stroke-width="3.2"/>
<circle clip-path="url(#clip382)" cx="1202.75" cy="578.802" r="7.2" fill="#009af9" fill-rule="evenodd" fill-opacity="1" stroke="#000000" stroke-opacity="1" stroke-width="3.2"/>
<circle clip-path="url(#clip382)" cx="1153.31" cy="614.393" r="7.2" fill="#009af9" fill-rule="evenodd" fill-opacity="1" stroke="#000000" stroke-opacity="1" stroke-width="3.2"/>
<circle clip-path="url(#clip382)" cx="1134.42" cy="709.956" r="7.2" fill="#009af9" fill-rule="evenodd" fill-opacity="1" stroke="#000000" stroke-opacity="1" stroke-width="3.2"/>
<circle clip-path="url(#clip382)" cx="1140.94" cy="786.329" r="7.2" fill="#009af9" fill-rule="evenodd" fill-opacity="1" stroke="#000000" stroke-opacity="1" stroke-width="3.2"/>
<circle clip-path="url(#clip382)" cx="1138.06" cy="964.258" r="7.2" fill="#009af9" fill-rule="evenodd" fill-opacity="1" stroke="#000000" stroke-opacity="1" stroke-width="3.2"/>
<circle clip-path="url(#clip382)" cx="1238.04" cy="1159.04" r="7.2" fill="#009af9" fill-rule="evenodd" fill-opacity="1" stroke="#000000" stroke-opacity="1" stroke-width="3.2"/>
<circle clip-path="url(#clip382)" cx="1412.92" cy="1097.5" r="7.2" fill="#009af9" fill-rule="evenodd" fill-opacity="1" stroke="#000000" stroke-opacity="1" stroke-width="3.2"/>
<circle clip-path="url(#clip382)" cx="1526.41" cy="1014.87" r="7.2" fill="#009af9" fill-rule="evenodd" fill-opacity="1" stroke="#000000" stroke-opacity="1" stroke-width="3.2"/>
<circle clip-path="url(#clip382)" cx="1652.39" cy="1099.47" r="7.2" fill="#009af9" fill-rule="evenodd" fill-opacity="1" stroke="#000000" stroke-opacity="1" stroke-width="3.2"/>
<circle clip-path="url(#clip382)" cx="1720.27" cy="1010.22" r="7.2" fill="#009af9" fill-rule="evenodd" fill-opacity="1" stroke="#000000" stroke-opacity="1" stroke-width="3.2"/>
<circle clip-path="url(#clip382)" cx="1749.94" cy="783.981" r="7.2" fill="#009af9" fill-rule="evenodd" fill-opacity="1" stroke="#000000" stroke-opacity="1" stroke-width="3.2"/>
<circle clip-path="url(#clip382)" cx="1768.83" cy="760.48" r="7.2" fill="#009af9" fill-rule="evenodd" fill-opacity="1" stroke="#000000" stroke-opacity="1" stroke-width="3.2"/>
<circle clip-path="url(#clip382)" cx="1727.35" cy="641.061" r="7.2" fill="#009af9" fill-rule="evenodd" fill-opacity="1" stroke="#000000" stroke-opacity="1" stroke-width="3.2"/>
<circle clip-path="url(#clip382)" cx="1546.39" cy="470.966" r="7.2" fill="#009af9" fill-rule="evenodd" fill-opacity="1" stroke="#000000" stroke-opacity="1" stroke-width="3.2"/>
<circle clip-path="url(#clip382)" cx="1474.68" cy="320.218" r="7.2" fill="#009af9" fill-rule="evenodd" fill-opacity="1" stroke="#000000" stroke-opacity="1" stroke-width="3.2"/>
<circle clip-path="url(#clip382)" cx="1479.13" cy="225.382" r="7.2" fill="#009af9" fill-rule="evenodd" fill-opacity="1" stroke="#000000" stroke-opacity="1" stroke-width="3.2"/>
<circle clip-path="url(#clip382)" cx="1409.98" cy="112.807" r="7.2" fill="#009af9" fill-rule="evenodd" fill-opacity="1" stroke="#000000" stroke-opacity="1" stroke-width="3.2"/>
<circle clip-path="url(#clip382)" cx="1252.5" cy="156.374" r="7.2" fill="#009af9" fill-rule="evenodd" fill-opacity="1" stroke="#000000" stroke-opacity="1" stroke-width="3.2"/>
<circle clip-path="url(#clip382)" cx="893.634" cy="170.108" r="7.2" fill="#009af9" fill-rule="evenodd" fill-opacity="1" stroke="#000000" stroke-opacity="1" stroke-width="3.2"/>
<circle clip-path="url(#clip382)" cx="844.835" cy="295.944" r="7.2" fill="#009af9" fill-rule="evenodd" fill-opacity="1" stroke="#000000" stroke-opacity="1" stroke-width="3.2"/>
<circle clip-path="url(#clip382)" cx="769.829" cy="316.484" r="7.2" fill="#009af9" fill-rule="evenodd" fill-opacity="1" stroke="#000000" stroke-opacity="1" stroke-width="3.2"/>
<circle clip-path="url(#clip382)" cx="624.928" cy="246.484" r="7.2" fill="#009af9" fill-rule="evenodd" fill-opacity="1" stroke="#000000" stroke-opacity="1" stroke-width="3.2"/>
<circle clip-path="url(#clip382)" cx="622.541" cy="221.301" r="7.2" fill="#009af9" fill-rule="evenodd" fill-opacity="1" stroke="#000000" stroke-opacity="1" stroke-width="3.2"/>
<circle clip-path="url(#clip382)" cx="651.971" cy="156.959" r="7.2" fill="#009af9" fill-rule="evenodd" fill-opacity="1" stroke="#000000" stroke-opacity="1" stroke-width="3.2"/>
<circle clip-path="url(#clip382)" cx="784.18" cy="112.519" r="7.2" fill="#009af9" fill-rule="evenodd" fill-opacity="1" stroke="#000000" stroke-opacity="1" stroke-width="3.2"/>
<circle clip-path="url(#clip382)" cx="914.494" cy="103.166" r="7.2" fill="#009af9" fill-rule="evenodd" fill-opacity="1" stroke="#000000" stroke-opacity="1" stroke-width="3.2"/>
<circle clip-path="url(#clip382)" cx="1013.17" cy="244.895" r="7.2" fill="#009af9" fill-rule="evenodd" fill-opacity="1" stroke="#000000" stroke-opacity="1" stroke-width="3.2"/>
<circle clip-path="url(#clip382)" cx="1324.95" cy="286.041" r="7.2" fill="#009af9" fill-rule="evenodd" fill-opacity="1" stroke="#000000" stroke-opacity="1" stroke-width="3.2"/>
<circle clip-path="url(#clip382)" cx="1351.46" cy="392.63" r="7.2" fill="#009af9" fill-rule="evenodd" fill-opacity="1" stroke="#000000" stroke-opacity="1" stroke-width="3.2"/>
<circle clip-path="url(#clip382)" cx="1432.77" cy="479.103" r="7.2" fill="#009af9" fill-rule="evenodd" fill-opacity="1" stroke="#000000" stroke-opacity="1" stroke-width="3.2"/>
<circle clip-path="url(#clip382)" cx="1478.41" cy="501.115" r="7.2" fill="#009af9" fill-rule="evenodd" fill-opacity="1" stroke="#000000" stroke-opacity="1" stroke-width="3.2"/>
<circle clip-path="url(#clip382)" cx="1484.55" cy="500.943" r="7.2" fill="#009af9" fill-rule="evenodd" fill-opacity="1" stroke="#000000" stroke-opacity="1" stroke-width="3.2"/>
<circle clip-path="url(#clip382)" cx="1488.45" cy="525.015" r="7.2" fill="#009af9" fill-rule="evenodd" fill-opacity="1" stroke="#000000" stroke-opacity="1" stroke-width="3.2"/>
<circle clip-path="url(#clip382)" cx="1481.36" cy="530.658" r="7.2" fill="#009af9" fill-rule="evenodd" fill-opacity="1" stroke="#000000" stroke-opacity="1" stroke-width="3.2"/>
<circle clip-path="url(#clip382)" cx="1306.59" cy="649.745" r="7.2" fill="#009af9" fill-rule="evenodd" fill-opacity="1" stroke="#000000" stroke-opacity="1" stroke-width="3.2"/>
<circle clip-path="url(#clip382)" cx="1281.23" cy="629.485" r="7.2" fill="#009af9" fill-rule="evenodd" fill-opacity="1" stroke="#000000" stroke-opacity="1" stroke-width="3.2"/>
<circle clip-path="url(#clip382)" cx="1234.83" cy="647.566" r="7.2" fill="#009af9" fill-rule="evenodd" fill-opacity="1" stroke="#000000" stroke-opacity="1" stroke-width="3.2"/>
<circle clip-path="url(#clip382)" cx="1264.03" cy="798.901" r="7.2" fill="#009af9" fill-rule="evenodd" fill-opacity="1" stroke="#000000" stroke-opacity="1" stroke-width="3.2"/>
<circle clip-path="url(#clip382)" cx="1295.39" cy="813.646" r="7.2" fill="#009af9" fill-rule="evenodd" fill-opacity="1" stroke="#000000" stroke-opacity="1" stroke-width="3.2"/>
<circle clip-path="url(#clip382)" cx="1453.2" cy="843.595" r="7.2" fill="#009af9" fill-rule="evenodd" fill-opacity="1" stroke="#000000" stroke-opacity="1" stroke-width="3.2"/>
<circle clip-path="url(#clip382)" cx="1481.75" cy="891.071" r="7.2" fill="#009af9" fill-rule="evenodd" fill-opacity="1" stroke="#000000" stroke-opacity="1" stroke-width="3.2"/>
<circle clip-path="url(#clip382)" cx="1592.96" cy="883.532" r="7.2" fill="#009af9" fill-rule="evenodd" fill-opacity="1" stroke="#000000" stroke-opacity="1" stroke-width="3.2"/>
<circle clip-path="url(#clip382)" cx="1693.81" cy="1008.45" r="7.2" fill="#009af9" fill-rule="evenodd" fill-opacity="1" stroke="#000000" stroke-opacity="1" stroke-width="3.2"/>
<circle clip-path="url(#clip382)" cx="1872.31" cy="917.958" r="7.2" fill="#009af9" fill-rule="evenodd" fill-opacity="1" stroke="#000000" stroke-opacity="1" stroke-width="3.2"/>
<circle clip-path="url(#clip382)" cx="1826.06" cy="804.709" r="7.2" fill="#009af9" fill-rule="evenodd" fill-opacity="1" stroke="#000000" stroke-opacity="1" stroke-width="3.2"/>
<circle clip-path="url(#clip382)" cx="1929.13" cy="755.273" r="7.2" fill="#009af9" fill-rule="evenodd" fill-opacity="1" stroke="#000000" stroke-opacity="1" stroke-width="3.2"/>
<circle clip-path="url(#clip382)" cx="2097.04" cy="813.701" r="7.2" fill="#009af9" fill-rule="evenodd" fill-opacity="1" stroke="#000000" stroke-opacity="1" stroke-width="3.2"/>
<circle clip-path="url(#clip382)" cx="2288.56" cy="654.065" r="7.2" fill="#009af9" fill-rule="evenodd" fill-opacity="1" stroke="#000000" stroke-opacity="1" stroke-width="3.2"/>
<circle clip-path="url(#clip382)" cx="2202.95" cy="263.923" r="7.2" fill="#009af9" fill-rule="evenodd" fill-opacity="1" stroke="#000000" stroke-opacity="1" stroke-width="3.2"/>
<circle clip-path="url(#clip382)" cx="2037.51" cy="117.788" r="7.2" fill="#009af9" fill-rule="evenodd" fill-opacity="1" stroke="#000000" stroke-opacity="1" stroke-width="3.2"/>
<circle clip-path="url(#clip382)" cx="1866.04" cy="201.595" r="7.2" fill="#009af9" fill-rule="evenodd" fill-opacity="1" stroke="#000000" stroke-opacity="1" stroke-width="3.2"/>
<circle clip-path="url(#clip382)" cx="1864.29" cy="224.692" r="7.2" fill="#009af9" fill-rule="evenodd" fill-opacity="1" stroke="#000000" stroke-opacity="1" stroke-width="3.2"/>
<circle clip-path="url(#clip382)" cx="1791.15" cy="327.321" r="7.2" fill="#009af9" fill-rule="evenodd" fill-opacity="1" stroke="#000000" stroke-opacity="1" stroke-width="3.2"/>
<circle clip-path="url(#clip382)" cx="1719.92" cy="363.527" r="7.2" fill="#009af9" fill-rule="evenodd" fill-opacity="1" stroke="#000000" stroke-opacity="1" stroke-width="3.2"/>
<circle clip-path="url(#clip382)" cx="1698.44" cy="352.956" r="7.2" fill="#009af9" fill-rule="evenodd" fill-opacity="1" stroke="#000000" stroke-opacity="1" stroke-width="3.2"/>
<circle clip-path="url(#clip382)" cx="1630.48" cy="201.176" r="7.2" fill="#009af9" fill-rule="evenodd" fill-opacity="1" stroke="#000000" stroke-opacity="1" stroke-width="3.2"/>
<circle clip-path="url(#clip382)" cx="1616.79" cy="127.692" r="7.2" fill="#009af9" fill-rule="evenodd" fill-opacity="1" stroke="#000000" stroke-opacity="1" stroke-width="3.2"/>
<circle clip-path="url(#clip382)" cx="1733.47" cy="86.1857" r="7.2" fill="#009af9" fill-rule="evenodd" fill-opacity="1" stroke="#000000" stroke-opacity="1" stroke-width="3.2"/>
<circle clip-path="url(#clip382)" cx="2022.17" cy="191.149" r="7.2" fill="#009af9" fill-rule="evenodd" fill-opacity="1" stroke="#000000" stroke-opacity="1" stroke-width="3.2"/>
<circle clip-path="url(#clip382)" cx="2020.4" cy="217.826" r="7.2" fill="#009af9" fill-rule="evenodd" fill-opacity="1" stroke="#000000" stroke-opacity="1" stroke-width="3.2"/>
<circle clip-path="url(#clip382)" cx="1993.33" cy="283.664" r="7.2" fill="#009af9" fill-rule="evenodd" fill-opacity="1" stroke="#000000" stroke-opacity="1" stroke-width="3.2"/>
<circle clip-path="url(#clip382)" cx="1840.67" cy="347.687" r="7.2" fill="#009af9" fill-rule="evenodd" fill-opacity="1" stroke="#000000" stroke-opacity="1" stroke-width="3.2"/>
<circle clip-path="url(#clip382)" cx="1826.69" cy="531.027" r="7.2" fill="#009af9" fill-rule="evenodd" fill-opacity="1" stroke="#000000" stroke-opacity="1" stroke-width="3.2"/>
<circle clip-path="url(#clip382)" cx="1891.73" cy="616.558" r="7.2" fill="#009af9" fill-rule="evenodd" fill-opacity="1" stroke="#000000" stroke-opacity="1" stroke-width="3.2"/>
<circle clip-path="url(#clip382)" cx="1983.72" cy="823.837" r="7.2" fill="#009af9" fill-rule="evenodd" fill-opacity="1" stroke="#000000" stroke-opacity="1" stroke-width="3.2"/>
<circle clip-path="url(#clip382)" cx="2046.84" cy="856.67" r="7.2" fill="#009af9" fill-rule="evenodd" fill-opacity="1" stroke="#000000" stroke-opacity="1" stroke-width="3.2"/>
<circle clip-path="url(#clip382)" cx="2153.39" cy="896.09" r="7.2" fill="#009af9" fill-rule="evenodd" fill-opacity="1" stroke="#000000" stroke-opacity="1" stroke-width="3.2"/>
<circle clip-path="url(#clip382)" cx="2219.58" cy="905.642" r="7.2" fill="#009af9" fill-rule="evenodd" fill-opacity="1" stroke="#000000" stroke-opacity="1" stroke-width="3.2"/>
<circle clip-path="url(#clip382)" cx="2225.7" cy="1053.8" r="7.2" fill="#009af9" fill-rule="evenodd" fill-opacity="1" stroke="#000000" stroke-opacity="1" stroke-width="3.2"/>
<circle clip-path="url(#clip382)" cx="2217.97" cy="1172.95" r="7.2" fill="#009af9" fill-rule="evenodd" fill-opacity="1" stroke="#000000" stroke-opacity="1" stroke-width="3.2"/>
<circle clip-path="url(#clip382)" cx="2084.37" cy="1221.16" r="7.2" fill="#009af9" fill-rule="evenodd" fill-opacity="1" stroke="#000000" stroke-opacity="1" stroke-width="3.2"/>
<circle clip-path="url(#clip382)" cx="2023.44" cy="1372.99" r="7.2" fill="#009af9" fill-rule="evenodd" fill-opacity="1" stroke="#000000" stroke-opacity="1" stroke-width="3.2"/>
<circle clip-path="url(#clip382)" cx="1604.59" cy="1228.96" r="7.2" fill="#009af9" fill-rule="evenodd" fill-opacity="1" stroke="#000000" stroke-opacity="1" stroke-width="3.2"/>
<circle clip-path="url(#clip382)" cx="1496.04" cy="1311" r="7.2" fill="#009af9" fill-rule="evenodd" fill-opacity="1" stroke="#000000" stroke-opacity="1" stroke-width="3.2"/>
</svg>
