<?xml version="1.0" encoding="utf-8"?>
<svg xmlns="http://www.w3.org/2000/svg" xmlns:xlink="http://www.w3.org/1999/xlink" width="600" height="400" viewBox="0 0 2400 1600">
<defs>
  <clipPath id="clip350">
    <rect x="0" y="0" width="2400" height="1600"/>
  </clipPath>
</defs>
<path clip-path="url(#clip350)" d="
M0 1600 L2400 1600 L2400 0 L0 0  Z
  " fill="#ffffff" fill-rule="evenodd" fill-opacity="1"/>
<defs>
  <clipPath id="clip351">
    <rect x="480" y="0" width="1681" height="1600"/>
  </clipPath>
</defs>
<path clip-path="url(#clip350)" d="
M272.297 1423.18 L2352.76 1423.18 L2352.76 47.2441 L272.297 47.2441  Z
  " fill="#ffffff" fill-rule="evenodd" fill-opacity="1"/>
<defs>
  <clipPath id="clip352">
    <rect x="272" y="47" width="2081" height="1377"/>
  </clipPath>
</defs>
<polyline clip-path="url(#clip352)" style="stroke:#000000; stroke-linecap:round; stroke-linejoin:round; stroke-width:2; stroke-opacity:0.1; fill:none" points="
  327.15,1423.18 327.15,47.2441 
  "/>
<polyline clip-path="url(#clip352)" style="stroke:#000000; stroke-linecap:round; stroke-linejoin:round; stroke-width:2; stroke-opacity:0.1; fill:none" points="
  658.11,1423.18 658.11,47.2441 
  "/>
<polyline clip-path="url(#clip352)" style="stroke:#000000; stroke-linecap:round; stroke-linejoin:round; stroke-width:2; stroke-opacity:0.1; fill:none" points="
  989.07,1423.18 989.07,47.2441 
  "/>
<polyline clip-path="url(#clip352)" style="stroke:#000000; stroke-linecap:round; stroke-linejoin:round; stroke-width:2; stroke-opacity:0.1; fill:none" points="
  1320.03,1423.18 1320.03,47.2441 
  "/>
<polyline clip-path="url(#clip352)" style="stroke:#000000; stroke-linecap:round; stroke-linejoin:round; stroke-width:2; stroke-opacity:0.1; fill:none" points="
  1650.99,1423.18 1650.99,47.2441 
  "/>
<polyline clip-path="url(#clip352)" style="stroke:#000000; stroke-linecap:round; stroke-linejoin:round; stroke-width:2; stroke-opacity:0.1; fill:none" points="
  1981.95,1423.18 1981.95,47.2441 
  "/>
<polyline clip-path="url(#clip352)" style="stroke:#000000; stroke-linecap:round; stroke-linejoin:round; stroke-width:2; stroke-opacity:0.1; fill:none" points="
  2312.91,1423.18 2312.91,47.2441 
  "/>
<polyline clip-path="url(#clip350)" style="stroke:#000000; stroke-linecap:round; stroke-linejoin:round; stroke-width:4; stroke-opacity:1; fill:none" points="
  272.297,1423.18 2352.76,1423.18 
  "/>
<polyline clip-path="url(#clip350)" style="stroke:#000000; stroke-linecap:round; stroke-linejoin:round; stroke-width:4; stroke-opacity:1; fill:none" points="
  327.15,1423.18 327.15,1404.28 
  "/>
<polyline clip-path="url(#clip350)" style="stroke:#000000; stroke-linecap:round; stroke-linejoin:round; stroke-width:4; stroke-opacity:1; fill:none" points="
  658.11,1423.18 658.11,1404.28 
  "/>
<polyline clip-path="url(#clip350)" style="stroke:#000000; stroke-linecap:round; stroke-linejoin:round; stroke-width:4; stroke-opacity:1; fill:none" points="
  989.07,1423.18 989.07,1404.28 
  "/>
<polyline clip-path="url(#clip350)" style="stroke:#000000; stroke-linecap:round; stroke-linejoin:round; stroke-width:4; stroke-opacity:1; fill:none" points="
  1320.03,1423.18 1320.03,1404.28 
  "/>
<polyline clip-path="url(#clip350)" style="stroke:#000000; stroke-linecap:round; stroke-linejoin:round; stroke-width:4; stroke-opacity:1; fill:none" points="
  1650.99,1423.18 1650.99,1404.28 
  "/>
<polyline clip-path="url(#clip350)" style="stroke:#000000; stroke-linecap:round; stroke-linejoin:round; stroke-width:4; stroke-opacity:1; fill:none" points="
  1981.95,1423.18 1981.95,1404.28 
  "/>
<polyline clip-path="url(#clip350)" style="stroke:#000000; stroke-linecap:round; stroke-linejoin:round; stroke-width:4; stroke-opacity:1; fill:none" points="
  2312.91,1423.18 2312.91,1404.28 
  "/>
<path clip-path="url(#clip350)" d="M266.132 1468.75 L295.807 1468.75 L295.807 1472.69 L266.132 1472.69 L266.132 1468.75 Z" fill="#000000" fill-rule="evenodd" fill-opacity="1" /><path clip-path="url(#clip350)" d="M320.067 1466.95 Q323.423 1467.66 325.298 1469.93 Q327.196 1472.2 327.196 1475.53 Q327.196 1480.65 323.678 1483.45 Q320.159 1486.25 313.678 1486.25 Q311.502 1486.25 309.187 1485.81 Q306.895 1485.39 304.442 1484.54 L304.442 1480.02 Q306.386 1481.16 308.701 1481.74 Q311.016 1482.32 313.539 1482.32 Q317.937 1482.32 320.229 1480.58 Q322.543 1478.84 322.543 1475.53 Q322.543 1472.48 320.391 1470.77 Q318.261 1469.03 314.442 1469.03 L310.414 1469.03 L310.414 1465.19 L314.627 1465.19 Q318.076 1465.19 319.905 1463.82 Q321.733 1462.43 321.733 1459.84 Q321.733 1457.18 319.835 1455.77 Q317.96 1454.33 314.442 1454.33 Q312.52 1454.33 310.321 1454.75 Q308.122 1455.16 305.483 1456.04 L305.483 1451.88 Q308.145 1451.14 310.46 1450.77 Q312.798 1450.39 314.858 1450.39 Q320.182 1450.39 323.284 1452.83 Q326.386 1455.23 326.386 1459.35 Q326.386 1462.22 324.742 1464.21 Q323.099 1466.18 320.067 1466.95 Z" fill="#000000" fill-rule="evenodd" fill-opacity="1" /><path clip-path="url(#clip350)" d="M346.062 1454.1 Q342.451 1454.1 340.622 1457.66 Q338.816 1461.2 338.816 1468.33 Q338.816 1475.44 340.622 1479.01 Q342.451 1482.55 346.062 1482.55 Q349.696 1482.55 351.502 1479.01 Q353.33 1475.44 353.33 1468.33 Q353.33 1461.2 351.502 1457.66 Q349.696 1454.1 346.062 1454.1 M346.062 1450.39 Q351.872 1450.39 354.927 1455 Q358.006 1459.58 358.006 1468.33 Q358.006 1477.06 354.927 1481.67 Q351.872 1486.25 346.062 1486.25 Q340.252 1486.25 337.173 1481.67 Q334.117 1477.06 334.117 1468.33 Q334.117 1459.58 337.173 1455 Q340.252 1450.39 346.062 1450.39 Z" fill="#000000" fill-rule="evenodd" fill-opacity="1" /><path clip-path="url(#clip350)" d="M376.224 1454.1 Q372.613 1454.1 370.784 1457.66 Q368.978 1461.2 368.978 1468.33 Q368.978 1475.44 370.784 1479.01 Q372.613 1482.55 376.224 1482.55 Q379.858 1482.55 381.663 1479.01 Q383.492 1475.44 383.492 1468.33 Q383.492 1461.2 381.663 1457.66 Q379.858 1454.1 376.224 1454.1 M376.224 1450.39 Q382.034 1450.39 385.089 1455 Q388.168 1459.58 388.168 1468.33 Q388.168 1477.06 385.089 1481.67 Q382.034 1486.25 376.224 1486.25 Q370.413 1486.25 367.335 1481.67 Q364.279 1477.06 364.279 1468.33 Q364.279 1459.58 367.335 1455 Q370.413 1450.39 376.224 1450.39 Z" fill="#000000" fill-rule="evenodd" fill-opacity="1" /><path clip-path="url(#clip350)" d="M597.092 1468.75 L626.767 1468.75 L626.767 1472.69 L597.092 1472.69 L597.092 1468.75 Z" fill="#000000" fill-rule="evenodd" fill-opacity="1" /><path clip-path="url(#clip350)" d="M640.888 1481.64 L657.207 1481.64 L657.207 1485.58 L635.263 1485.58 L635.263 1481.64 Q637.925 1478.89 642.508 1474.26 Q647.115 1469.61 648.295 1468.27 Q650.541 1465.74 651.42 1464.01 Q652.323 1462.25 652.323 1460.56 Q652.323 1457.8 650.378 1456.07 Q648.457 1454.33 645.355 1454.33 Q643.156 1454.33 640.703 1455.09 Q638.272 1455.86 635.494 1457.41 L635.494 1452.69 Q638.318 1451.55 640.772 1450.97 Q643.226 1450.39 645.263 1450.39 Q650.633 1450.39 653.828 1453.08 Q657.022 1455.77 657.022 1460.26 Q657.022 1462.39 656.212 1464.31 Q655.425 1466.2 653.318 1468.8 Q652.74 1469.47 649.638 1472.69 Q646.536 1475.88 640.888 1481.64 Z" fill="#000000" fill-rule="evenodd" fill-opacity="1" /><path clip-path="url(#clip350)" d="M677.022 1454.1 Q673.411 1454.1 671.582 1457.66 Q669.777 1461.2 669.777 1468.33 Q669.777 1475.44 671.582 1479.01 Q673.411 1482.55 677.022 1482.55 Q680.656 1482.55 682.462 1479.01 Q684.29 1475.44 684.29 1468.33 Q684.29 1461.2 682.462 1457.66 Q680.656 1454.1 677.022 1454.1 M677.022 1450.39 Q682.832 1450.39 685.888 1455 Q688.966 1459.58 688.966 1468.33 Q688.966 1477.06 685.888 1481.67 Q682.832 1486.25 677.022 1486.25 Q671.212 1486.25 668.133 1481.67 Q665.077 1477.06 665.077 1468.33 Q665.077 1459.58 668.133 1455 Q671.212 1450.39 677.022 1450.39 Z" fill="#000000" fill-rule="evenodd" fill-opacity="1" /><path clip-path="url(#clip350)" d="M707.184 1454.1 Q703.573 1454.1 701.744 1457.66 Q699.938 1461.2 699.938 1468.33 Q699.938 1475.44 701.744 1479.01 Q703.573 1482.55 707.184 1482.55 Q710.818 1482.55 712.624 1479.01 Q714.452 1475.44 714.452 1468.33 Q714.452 1461.2 712.624 1457.66 Q710.818 1454.1 707.184 1454.1 M707.184 1450.39 Q712.994 1450.39 716.049 1455 Q719.128 1459.58 719.128 1468.33 Q719.128 1477.06 716.049 1481.67 Q712.994 1486.25 707.184 1486.25 Q701.374 1486.25 698.295 1481.67 Q695.239 1477.06 695.239 1468.33 Q695.239 1459.58 698.295 1455 Q701.374 1450.39 707.184 1450.39 Z" fill="#000000" fill-rule="evenodd" fill-opacity="1" /><path clip-path="url(#clip350)" d="M928.052 1468.75 L957.728 1468.75 L957.728 1472.69 L928.052 1472.69 L928.052 1468.75 Z" fill="#000000" fill-rule="evenodd" fill-opacity="1" /><path clip-path="url(#clip350)" d="M968.63 1481.64 L976.269 1481.64 L976.269 1455.28 L967.959 1456.95 L967.959 1452.69 L976.223 1451.02 L980.899 1451.02 L980.899 1481.64 L988.538 1481.64 L988.538 1485.58 L968.63 1485.58 L968.63 1481.64 Z" fill="#000000" fill-rule="evenodd" fill-opacity="1" /><path clip-path="url(#clip350)" d="M1007.98 1454.1 Q1004.37 1454.1 1002.54 1457.66 Q1000.74 1461.2 1000.74 1468.33 Q1000.74 1475.44 1002.54 1479.01 Q1004.37 1482.55 1007.98 1482.55 Q1011.62 1482.55 1013.42 1479.01 Q1015.25 1475.44 1015.25 1468.33 Q1015.25 1461.2 1013.42 1457.66 Q1011.62 1454.1 1007.98 1454.1 M1007.98 1450.39 Q1013.79 1450.39 1016.85 1455 Q1019.93 1459.58 1019.93 1468.33 Q1019.93 1477.06 1016.85 1481.67 Q1013.79 1486.25 1007.98 1486.25 Q1002.17 1486.25 999.093 1481.67 Q996.038 1477.06 996.038 1468.33 Q996.038 1459.58 999.093 1455 Q1002.17 1450.39 1007.98 1450.39 Z" fill="#000000" fill-rule="evenodd" fill-opacity="1" /><path clip-path="url(#clip350)" d="M1038.14 1454.1 Q1034.53 1454.1 1032.7 1457.66 Q1030.9 1461.2 1030.9 1468.33 Q1030.9 1475.44 1032.7 1479.01 Q1034.53 1482.55 1038.14 1482.55 Q1041.78 1482.55 1043.58 1479.01 Q1045.41 1475.44 1045.41 1468.33 Q1045.41 1461.2 1043.58 1457.66 Q1041.78 1454.1 1038.14 1454.1 M1038.14 1450.39 Q1043.95 1450.39 1047.01 1455 Q1050.09 1459.58 1050.09 1468.33 Q1050.09 1477.06 1047.01 1481.67 Q1043.95 1486.25 1038.14 1486.25 Q1032.33 1486.25 1029.25 1481.67 Q1026.2 1477.06 1026.2 1468.33 Q1026.2 1459.58 1029.25 1455 Q1032.33 1450.39 1038.14 1450.39 Z" fill="#000000" fill-rule="evenodd" fill-opacity="1" /><path clip-path="url(#clip350)" d="M1320.03 1454.1 Q1316.42 1454.1 1314.59 1457.66 Q1312.78 1461.2 1312.78 1468.33 Q1312.78 1475.44 1314.59 1479.01 Q1316.42 1482.55 1320.03 1482.55 Q1323.66 1482.55 1325.47 1479.01 Q1327.3 1475.44 1327.3 1468.33 Q1327.3 1461.2 1325.47 1457.66 Q1323.66 1454.1 1320.03 1454.1 M1320.03 1450.39 Q1325.84 1450.39 1328.9 1455 Q1331.97 1459.58 1331.97 1468.33 Q1331.97 1477.06 1328.9 1481.67 Q1325.84 1486.25 1320.03 1486.25 Q1314.22 1486.25 1311.14 1481.67 Q1308.09 1477.06 1308.09 1468.33 Q1308.09 1459.58 1311.14 1455 Q1314.22 1450.39 1320.03 1450.39 Z" fill="#000000" fill-rule="evenodd" fill-opacity="1" /><path clip-path="url(#clip350)" d="M1610.6 1481.64 L1618.24 1481.64 L1618.24 1455.28 L1609.93 1456.95 L1609.93 1452.69 L1618.19 1451.02 L1622.87 1451.02 L1622.87 1481.64 L1630.5 1481.64 L1630.5 1485.58 L1610.6 1485.58 L1610.6 1481.64 Z" fill="#000000" fill-rule="evenodd" fill-opacity="1" /><path clip-path="url(#clip350)" d="M1649.95 1454.1 Q1646.34 1454.1 1644.51 1457.66 Q1642.7 1461.2 1642.7 1468.33 Q1642.7 1475.44 1644.51 1479.01 Q1646.34 1482.55 1649.95 1482.55 Q1653.58 1482.55 1655.39 1479.01 Q1657.22 1475.44 1657.22 1468.33 Q1657.22 1461.2 1655.39 1457.66 Q1653.58 1454.1 1649.95 1454.1 M1649.95 1450.39 Q1655.76 1450.39 1658.81 1455 Q1661.89 1459.58 1661.89 1468.33 Q1661.89 1477.06 1658.81 1481.67 Q1655.76 1486.25 1649.95 1486.25 Q1644.14 1486.25 1641.06 1481.67 Q1638 1477.06 1638 1468.33 Q1638 1459.58 1641.06 1455 Q1644.14 1450.39 1649.95 1450.39 Z" fill="#000000" fill-rule="evenodd" fill-opacity="1" /><path clip-path="url(#clip350)" d="M1680.11 1454.1 Q1676.5 1454.1 1674.67 1457.66 Q1672.87 1461.2 1672.87 1468.33 Q1672.87 1475.44 1674.67 1479.01 Q1676.5 1482.55 1680.11 1482.55 Q1683.74 1482.55 1685.55 1479.01 Q1687.38 1475.44 1687.38 1468.33 Q1687.38 1461.2 1685.55 1457.66 Q1683.74 1454.1 1680.11 1454.1 M1680.11 1450.39 Q1685.92 1450.39 1688.98 1455 Q1692.05 1459.58 1692.05 1468.33 Q1692.05 1477.06 1688.98 1481.67 Q1685.92 1486.25 1680.11 1486.25 Q1674.3 1486.25 1671.22 1481.67 Q1668.17 1477.06 1668.17 1468.33 Q1668.17 1459.58 1671.22 1455 Q1674.3 1450.39 1680.11 1450.39 Z" fill="#000000" fill-rule="evenodd" fill-opacity="1" /><path clip-path="url(#clip350)" d="M1945.64 1481.64 L1961.96 1481.64 L1961.96 1485.58 L1940.02 1485.58 L1940.02 1481.64 Q1942.68 1478.89 1947.26 1474.26 Q1951.87 1469.61 1953.05 1468.27 Q1955.3 1465.74 1956.17 1464.01 Q1957.08 1462.25 1957.08 1460.56 Q1957.08 1457.8 1955.13 1456.07 Q1953.21 1454.33 1950.11 1454.33 Q1947.91 1454.33 1945.46 1455.09 Q1943.03 1455.86 1940.25 1457.41 L1940.25 1452.69 Q1943.07 1451.55 1945.53 1450.97 Q1947.98 1450.39 1950.02 1450.39 Q1955.39 1450.39 1958.58 1453.08 Q1961.78 1455.77 1961.78 1460.26 Q1961.78 1462.39 1960.97 1464.31 Q1960.18 1466.2 1958.07 1468.8 Q1957.49 1469.47 1954.39 1472.69 Q1951.29 1475.88 1945.64 1481.64 Z" fill="#000000" fill-rule="evenodd" fill-opacity="1" /><path clip-path="url(#clip350)" d="M1981.78 1454.1 Q1978.17 1454.1 1976.34 1457.66 Q1974.53 1461.2 1974.53 1468.33 Q1974.53 1475.44 1976.34 1479.01 Q1978.17 1482.55 1981.78 1482.55 Q1985.41 1482.55 1987.22 1479.01 Q1989.05 1475.44 1989.05 1468.33 Q1989.05 1461.2 1987.22 1457.66 Q1985.41 1454.1 1981.78 1454.1 M1981.78 1450.39 Q1987.59 1450.39 1990.64 1455 Q1993.72 1459.58 1993.72 1468.33 Q1993.72 1477.06 1990.64 1481.67 Q1987.59 1486.25 1981.78 1486.25 Q1975.97 1486.25 1972.89 1481.67 Q1969.83 1477.06 1969.83 1468.33 Q1969.83 1459.58 1972.89 1455 Q1975.97 1450.39 1981.78 1450.39 Z" fill="#000000" fill-rule="evenodd" fill-opacity="1" /><path clip-path="url(#clip350)" d="M2011.94 1454.1 Q2008.33 1454.1 2006.5 1457.66 Q2004.69 1461.2 2004.69 1468.33 Q2004.69 1475.44 2006.5 1479.01 Q2008.33 1482.55 2011.94 1482.55 Q2015.57 1482.55 2017.38 1479.01 Q2019.21 1475.44 2019.21 1468.33 Q2019.21 1461.2 2017.38 1457.66 Q2015.57 1454.1 2011.94 1454.1 M2011.94 1450.39 Q2017.75 1450.39 2020.8 1455 Q2023.88 1459.58 2023.88 1468.33 Q2023.88 1477.06 2020.8 1481.67 Q2017.75 1486.25 2011.94 1486.25 Q2006.13 1486.25 2003.05 1481.67 Q1999.99 1477.06 1999.99 1468.33 Q1999.99 1459.58 2003.05 1455 Q2006.13 1450.39 2011.94 1450.39 Z" fill="#000000" fill-rule="evenodd" fill-opacity="1" /><path clip-path="url(#clip350)" d="M2286.67 1466.95 Q2290.03 1467.66 2291.9 1469.93 Q2293.8 1472.2 2293.8 1475.53 Q2293.8 1480.65 2290.28 1483.45 Q2286.76 1486.25 2280.28 1486.25 Q2278.11 1486.25 2275.79 1485.81 Q2273.5 1485.39 2271.05 1484.54 L2271.05 1480.02 Q2272.99 1481.16 2275.31 1481.74 Q2277.62 1482.32 2280.14 1482.32 Q2284.54 1482.32 2286.83 1480.58 Q2289.15 1478.84 2289.15 1475.53 Q2289.15 1472.48 2287 1470.77 Q2284.87 1469.03 2281.05 1469.03 L2277.02 1469.03 L2277.02 1465.19 L2281.23 1465.19 Q2284.68 1465.19 2286.51 1463.82 Q2288.34 1462.43 2288.34 1459.84 Q2288.34 1457.18 2286.44 1455.77 Q2284.57 1454.33 2281.05 1454.33 Q2279.13 1454.33 2276.93 1454.75 Q2274.73 1455.16 2272.09 1456.04 L2272.09 1451.88 Q2274.75 1451.14 2277.07 1450.77 Q2279.4 1450.39 2281.46 1450.39 Q2286.79 1450.39 2289.89 1452.83 Q2292.99 1455.23 2292.99 1459.35 Q2292.99 1462.22 2291.35 1464.21 Q2289.7 1466.18 2286.67 1466.95 Z" fill="#000000" fill-rule="evenodd" fill-opacity="1" /><path clip-path="url(#clip350)" d="M2312.67 1454.1 Q2309.06 1454.1 2307.23 1457.66 Q2305.42 1461.2 2305.42 1468.33 Q2305.42 1475.44 2307.23 1479.01 Q2309.06 1482.55 2312.67 1482.55 Q2316.3 1482.55 2318.11 1479.01 Q2319.94 1475.44 2319.94 1468.33 Q2319.94 1461.2 2318.11 1457.66 Q2316.3 1454.1 2312.67 1454.1 M2312.67 1450.39 Q2318.48 1450.39 2321.53 1455 Q2324.61 1459.58 2324.61 1468.33 Q2324.61 1477.06 2321.53 1481.67 Q2318.48 1486.25 2312.67 1486.25 Q2306.86 1486.25 2303.78 1481.67 Q2300.72 1477.06 2300.72 1468.33 Q2300.72 1459.58 2303.78 1455 Q2306.86 1450.39 2312.67 1450.39 Z" fill="#000000" fill-rule="evenodd" fill-opacity="1" /><path clip-path="url(#clip350)" d="M2342.83 1454.1 Q2339.22 1454.1 2337.39 1457.66 Q2335.58 1461.2 2335.58 1468.33 Q2335.58 1475.44 2337.39 1479.01 Q2339.22 1482.55 2342.83 1482.55 Q2346.46 1482.55 2348.27 1479.01 Q2350.1 1475.44 2350.1 1468.33 Q2350.1 1461.2 2348.27 1457.66 Q2346.46 1454.1 2342.83 1454.1 M2342.83 1450.39 Q2348.64 1450.39 2351.69 1455 Q2354.77 1459.58 2354.77 1468.33 Q2354.77 1477.06 2351.69 1481.67 Q2348.64 1486.25 2342.83 1486.25 Q2337.02 1486.25 2333.94 1481.67 Q2330.88 1477.06 2330.88 1468.33 Q2330.88 1459.58 2333.94 1455 Q2337.02 1450.39 2342.83 1450.39 Z" fill="#000000" fill-rule="evenodd" fill-opacity="1" /><path clip-path="url(#clip350)" d="M1329.14 1532.4 L1316.25 1549.74 L1329.81 1568.04 L1322.9 1568.04 L1312.53 1554.04 L1302.15 1568.04 L1295.24 1568.04 L1309.09 1549.39 L1296.42 1532.4 L1303.33 1532.4 L1312.78 1545.1 L1322.23 1532.4 L1329.14 1532.4 Z" fill="#000000" fill-rule="evenodd" fill-opacity="1" /><polyline clip-path="url(#clip352)" style="stroke:#000000; stroke-linecap:round; stroke-linejoin:round; stroke-width:2; stroke-opacity:0.1; fill:none" points="
  272.297,1406.14 2352.76,1406.14 
  "/>
<polyline clip-path="url(#clip352)" style="stroke:#000000; stroke-linecap:round; stroke-linejoin:round; stroke-width:2; stroke-opacity:0.1; fill:none" points="
  272.297,1075.18 2352.76,1075.18 
  "/>
<polyline clip-path="url(#clip352)" style="stroke:#000000; stroke-linecap:round; stroke-linejoin:round; stroke-width:2; stroke-opacity:0.1; fill:none" points="
  272.297,744.224 2352.76,744.224 
  "/>
<polyline clip-path="url(#clip352)" style="stroke:#000000; stroke-linecap:round; stroke-linejoin:round; stroke-width:2; stroke-opacity:0.1; fill:none" points="
  272.297,413.263 2352.76,413.263 
  "/>
<polyline clip-path="url(#clip352)" style="stroke:#000000; stroke-linecap:round; stroke-linejoin:round; stroke-width:2; stroke-opacity:0.1; fill:none" points="
  272.297,82.3034 2352.76,82.3034 
  "/>
<polyline clip-path="url(#clip350)" style="stroke:#000000; stroke-linecap:round; stroke-linejoin:round; stroke-width:4; stroke-opacity:1; fill:none" points="
  272.297,1423.18 272.297,47.2441 
  "/>
<polyline clip-path="url(#clip350)" style="stroke:#000000; stroke-linecap:round; stroke-linejoin:round; stroke-width:4; stroke-opacity:1; fill:none" points="
  272.297,1406.14 291.194,1406.14 
  "/>
<polyline clip-path="url(#clip350)" style="stroke:#000000; stroke-linecap:round; stroke-linejoin:round; stroke-width:4; stroke-opacity:1; fill:none" points="
  272.297,1075.18 291.194,1075.18 
  "/>
<polyline clip-path="url(#clip350)" style="stroke:#000000; stroke-linecap:round; stroke-linejoin:round; stroke-width:4; stroke-opacity:1; fill:none" points="
  272.297,744.224 291.194,744.224 
  "/>
<polyline clip-path="url(#clip350)" style="stroke:#000000; stroke-linecap:round; stroke-linejoin:round; stroke-width:4; stroke-opacity:1; fill:none" points="
  272.297,413.263 291.194,413.263 
  "/>
<polyline clip-path="url(#clip350)" style="stroke:#000000; stroke-linecap:round; stroke-linejoin:round; stroke-width:4; stroke-opacity:1; fill:none" points="
  272.297,82.3034 291.194,82.3034 
  "/>
<path clip-path="url(#clip350)" d="M114.26 1406.6 L143.936 1406.6 L143.936 1410.53 L114.26 1410.53 L114.26 1406.6 Z" fill="#000000" fill-rule="evenodd" fill-opacity="1" /><path clip-path="url(#clip350)" d="M158.056 1419.49 L174.376 1419.49 L174.376 1423.42 L152.431 1423.42 L152.431 1419.49 Q155.093 1416.73 159.677 1412.1 Q164.283 1407.45 165.464 1406.11 Q167.709 1403.59 168.589 1401.85 Q169.491 1400.09 169.491 1398.4 Q169.491 1395.65 167.547 1393.91 Q165.626 1392.17 162.524 1392.17 Q160.325 1392.17 157.871 1392.94 Q155.44 1393.7 152.663 1395.25 L152.663 1390.53 Q155.487 1389.4 157.94 1388.82 Q160.394 1388.24 162.431 1388.24 Q167.802 1388.24 170.996 1390.92 Q174.19 1393.61 174.19 1398.1 Q174.19 1400.23 173.38 1402.15 Q172.593 1404.05 170.487 1406.64 Q169.908 1407.31 166.806 1410.53 Q163.704 1413.72 158.056 1419.49 Z" fill="#000000" fill-rule="evenodd" fill-opacity="1" /><path clip-path="url(#clip350)" d="M194.19 1391.94 Q190.579 1391.94 188.75 1395.51 Q186.945 1399.05 186.945 1406.18 Q186.945 1413.28 188.75 1416.85 Q190.579 1420.39 194.19 1420.39 Q197.825 1420.39 199.63 1416.85 Q201.459 1413.28 201.459 1406.18 Q201.459 1399.05 199.63 1395.51 Q197.825 1391.94 194.19 1391.94 M194.19 1388.24 Q200 1388.24 203.056 1392.85 Q206.135 1397.43 206.135 1406.18 Q206.135 1414.91 203.056 1419.51 Q200 1424.09 194.19 1424.09 Q188.38 1424.09 185.301 1419.51 Q182.246 1414.91 182.246 1406.18 Q182.246 1397.43 185.301 1392.85 Q188.38 1388.24 194.19 1388.24 Z" fill="#000000" fill-rule="evenodd" fill-opacity="1" /><path clip-path="url(#clip350)" d="M224.352 1391.94 Q220.741 1391.94 218.912 1395.51 Q217.107 1399.05 217.107 1406.18 Q217.107 1413.28 218.912 1416.85 Q220.741 1420.39 224.352 1420.39 Q227.986 1420.39 229.792 1416.85 Q231.621 1413.28 231.621 1406.18 Q231.621 1399.05 229.792 1395.51 Q227.986 1391.94 224.352 1391.94 M224.352 1388.24 Q230.162 1388.24 233.218 1392.85 Q236.297 1397.43 236.297 1406.18 Q236.297 1414.91 233.218 1419.51 Q230.162 1424.09 224.352 1424.09 Q218.542 1424.09 215.463 1419.51 Q212.408 1414.91 212.408 1406.18 Q212.408 1397.43 215.463 1392.85 Q218.542 1388.24 224.352 1388.24 Z" fill="#000000" fill-rule="evenodd" fill-opacity="1" /><path clip-path="url(#clip350)" d="M114.26 1075.63 L143.936 1075.63 L143.936 1079.57 L114.26 1079.57 L114.26 1075.63 Z" fill="#000000" fill-rule="evenodd" fill-opacity="1" /><path clip-path="url(#clip350)" d="M154.839 1088.53 L162.477 1088.53 L162.477 1062.16 L154.167 1063.83 L154.167 1059.57 L162.431 1057.9 L167.107 1057.9 L167.107 1088.53 L174.746 1088.53 L174.746 1092.46 L154.839 1092.46 L154.839 1088.53 Z" fill="#000000" fill-rule="evenodd" fill-opacity="1" /><path clip-path="url(#clip350)" d="M194.19 1060.98 Q190.579 1060.98 188.75 1064.55 Q186.945 1068.09 186.945 1075.22 Q186.945 1082.32 188.75 1085.89 Q190.579 1089.43 194.19 1089.43 Q197.825 1089.43 199.63 1085.89 Q201.459 1082.32 201.459 1075.22 Q201.459 1068.09 199.63 1064.55 Q197.825 1060.98 194.19 1060.98 M194.19 1057.28 Q200 1057.28 203.056 1061.89 Q206.135 1066.47 206.135 1075.22 Q206.135 1083.95 203.056 1088.55 Q200 1093.13 194.19 1093.13 Q188.38 1093.13 185.301 1088.55 Q182.246 1083.95 182.246 1075.22 Q182.246 1066.47 185.301 1061.89 Q188.38 1057.28 194.19 1057.28 Z" fill="#000000" fill-rule="evenodd" fill-opacity="1" /><path clip-path="url(#clip350)" d="M224.352 1060.98 Q220.741 1060.98 218.912 1064.55 Q217.107 1068.09 217.107 1075.22 Q217.107 1082.32 218.912 1085.89 Q220.741 1089.43 224.352 1089.43 Q227.986 1089.43 229.792 1085.89 Q231.621 1082.32 231.621 1075.22 Q231.621 1068.09 229.792 1064.55 Q227.986 1060.98 224.352 1060.98 M224.352 1057.28 Q230.162 1057.28 233.218 1061.89 Q236.297 1066.47 236.297 1075.22 Q236.297 1083.95 233.218 1088.55 Q230.162 1093.13 224.352 1093.13 Q218.542 1093.13 215.463 1088.55 Q212.408 1083.95 212.408 1075.22 Q212.408 1066.47 215.463 1061.89 Q218.542 1057.28 224.352 1057.28 Z" fill="#000000" fill-rule="evenodd" fill-opacity="1" /><path clip-path="url(#clip350)" d="M224.352 730.022 Q220.741 730.022 218.912 733.587 Q217.107 737.129 217.107 744.258 Q217.107 751.365 218.912 754.929 Q220.741 758.471 224.352 758.471 Q227.986 758.471 229.792 754.929 Q231.621 751.365 231.621 744.258 Q231.621 737.129 229.792 733.587 Q227.986 730.022 224.352 730.022 M224.352 726.319 Q230.162 726.319 233.218 730.925 Q236.297 735.508 236.297 744.258 Q236.297 752.985 233.218 757.592 Q230.162 762.175 224.352 762.175 Q218.542 762.175 215.463 757.592 Q212.408 752.985 212.408 744.258 Q212.408 735.508 215.463 730.925 Q218.542 726.319 224.352 726.319 Z" fill="#000000" fill-rule="evenodd" fill-opacity="1" /><path clip-path="url(#clip350)" d="M154.839 426.608 L162.477 426.608 L162.477 400.243 L154.167 401.909 L154.167 397.65 L162.431 395.983 L167.107 395.983 L167.107 426.608 L174.746 426.608 L174.746 430.543 L154.839 430.543 L154.839 426.608 Z" fill="#000000" fill-rule="evenodd" fill-opacity="1" /><path clip-path="url(#clip350)" d="M194.19 399.062 Q190.579 399.062 188.75 402.627 Q186.945 406.169 186.945 413.298 Q186.945 420.405 188.75 423.969 Q190.579 427.511 194.19 427.511 Q197.825 427.511 199.63 423.969 Q201.459 420.405 201.459 413.298 Q201.459 406.169 199.63 402.627 Q197.825 399.062 194.19 399.062 M194.19 395.358 Q200 395.358 203.056 399.965 Q206.135 404.548 206.135 413.298 Q206.135 422.025 203.056 426.631 Q200 431.215 194.19 431.215 Q188.38 431.215 185.301 426.631 Q182.246 422.025 182.246 413.298 Q182.246 404.548 185.301 399.965 Q188.38 395.358 194.19 395.358 Z" fill="#000000" fill-rule="evenodd" fill-opacity="1" /><path clip-path="url(#clip350)" d="M224.352 399.062 Q220.741 399.062 218.912 402.627 Q217.107 406.169 217.107 413.298 Q217.107 420.405 218.912 423.969 Q220.741 427.511 224.352 427.511 Q227.986 427.511 229.792 423.969 Q231.621 420.405 231.621 413.298 Q231.621 406.169 229.792 402.627 Q227.986 399.062 224.352 399.062 M224.352 395.358 Q230.162 395.358 233.218 399.965 Q236.297 404.548 236.297 413.298 Q236.297 422.025 233.218 426.631 Q230.162 431.215 224.352 431.215 Q218.542 431.215 215.463 426.631 Q212.408 422.025 212.408 413.298 Q212.408 404.548 215.463 399.965 Q218.542 395.358 224.352 395.358 Z" fill="#000000" fill-rule="evenodd" fill-opacity="1" /><path clip-path="url(#clip350)" d="M158.056 95.6482 L174.376 95.6482 L174.376 99.5834 L152.431 99.5834 L152.431 95.6482 Q155.093 92.8936 159.677 88.264 Q164.283 83.6113 165.464 82.2687 Q167.709 79.7455 168.589 78.0094 Q169.491 76.2502 169.491 74.5604 Q169.491 71.8058 167.547 70.0697 Q165.626 68.3336 162.524 68.3336 Q160.325 68.3336 157.871 69.0975 Q155.44 69.8613 152.663 71.4123 L152.663 66.6901 Q155.487 65.5558 157.94 64.9771 Q160.394 64.3984 162.431 64.3984 Q167.802 64.3984 170.996 67.0836 Q174.19 69.7687 174.19 74.2595 Q174.19 76.3891 173.38 78.3104 Q172.593 80.2085 170.487 82.8011 Q169.908 83.4724 166.806 86.6899 Q163.704 89.8844 158.056 95.6482 Z" fill="#000000" fill-rule="evenodd" fill-opacity="1" /><path clip-path="url(#clip350)" d="M194.19 68.1021 Q190.579 68.1021 188.75 71.6669 Q186.945 75.2085 186.945 82.3381 Q186.945 89.4446 188.75 93.0094 Q190.579 96.551 194.19 96.551 Q197.825 96.551 199.63 93.0094 Q201.459 89.4446 201.459 82.3381 Q201.459 75.2085 199.63 71.6669 Q197.825 68.1021 194.19 68.1021 M194.19 64.3984 Q200 64.3984 203.056 69.0049 Q206.135 73.5882 206.135 82.3381 Q206.135 91.0649 203.056 95.6714 Q200 100.255 194.19 100.255 Q188.38 100.255 185.301 95.6714 Q182.246 91.0649 182.246 82.3381 Q182.246 73.5882 185.301 69.0049 Q188.38 64.3984 194.19 64.3984 Z" fill="#000000" fill-rule="evenodd" fill-opacity="1" /><path clip-path="url(#clip350)" d="M224.352 68.1021 Q220.741 68.1021 218.912 71.6669 Q217.107 75.2085 217.107 82.3381 Q217.107 89.4446 218.912 93.0094 Q220.741 96.551 224.352 96.551 Q227.986 96.551 229.792 93.0094 Q231.621 89.4446 231.621 82.3381 Q231.621 75.2085 229.792 71.6669 Q227.986 68.1021 224.352 68.1021 M224.352 64.3984 Q230.162 64.3984 233.218 69.0049 Q236.297 73.5882 236.297 82.3381 Q236.297 91.0649 233.218 95.6714 Q230.162 100.255 224.352 100.255 Q218.542 100.255 215.463 95.6714 Q212.408 91.0649 212.408 82.3381 Q212.408 73.5882 215.463 69.0049 Q218.542 64.3984 224.352 64.3984 Z" fill="#000000" fill-rule="evenodd" fill-opacity="1" /><path clip-path="url(#clip350)" d="M67.3143 733.525 Q73.68 736.008 75.6216 738.363 Q77.5631 740.718 77.5631 744.665 L77.5631 749.344 L72.6615 749.344 L72.6615 745.906 Q72.6615 743.487 71.5157 742.151 Q70.3699 740.814 66.1048 739.191 L63.4312 738.14 L28.3562 752.559 L28.3562 746.352 L56.238 735.212 L28.3562 724.072 L28.3562 717.865 L67.3143 733.525 Z" fill="#000000" fill-rule="evenodd" fill-opacity="1" /><polyline clip-path="url(#clip352)" style="stroke:#009af9; stroke-linecap:round; stroke-linejoin:round; stroke-width:4; stroke-opacity:1; fill:none" points="
  364.402,1317.94 347.559,1291.76 691.244,1068.71 840.509,987.464 901.134,845.647 857.541,552.476 980.134,427.72 997.703,333.434 764.035,286.852 674.701,408.75 
  740.459,486.595 987.187,278.203 1023.97,207.283 1137.7,86.1857 1658.35,167.685 1832.59,279.795 1722.68,462.022 1660.62,545.29 1594.75,530.269 1533.69,470.958 
  1563.91,379.425 1601.49,383.654 1651.01,490.777 1721.79,556.589 1590.56,710.213 1573.7,768.35 1693.46,870.179 1777.21,847.976 1834.15,811.252 1892.05,548.347 
  2132.26,595.973 2277.49,558.716 2239.51,399.156 2164.42,361.651 2136.25,407.618 2087.67,469.656 2077.7,470.768 1901.45,416.807 1821.21,342.348 1759.53,295.172 
  1720.18,308.022 1640.34,276.343 1482.5,245.537 1389.75,339.907 1386.94,452.876 1507.74,522.614 1512.05,578.949 1514.36,635.55 1453.5,680.626 1366.38,790.609 
  1258.78,820.031 1214.97,973.274 1256.12,1180.47 1390.12,1291.7 1474.5,1383.27 1823.43,1384.24 1989.72,1369.97 2123.64,1346.75 2130.95,1298.41 2109.65,1184.88 
  2015.66,1165.88 1941.14,1150.17 1818.21,1036.23 1765.81,1082.31 1793.68,1193.89 1841.59,1221.47 2037.64,1247.36 2051.55,1205.7 1834.36,931.01 1625.36,1053.72 
  1534.97,1140.66 1385.45,1072.66 1304.84,876.83 1150.1,935.038 1079.87,824.587 1021.64,827.628 965.251,1001.69 809.604,1192.75 687.18,1282.66 699.528,1330.13 
  
  "/>
<circle clip-path="url(#clip352)" cx="364.402" cy="1317.94" r="7.2" fill="#009af9" fill-rule="evenodd" fill-opacity="1" stroke="#000000" stroke-opacity="1" stroke-width="3.2"/>
<circle clip-path="url(#clip352)" cx="347.559" cy="1291.76" r="7.2" fill="#009af9" fill-rule="evenodd" fill-opacity="1" stroke="#000000" stroke-opacity="1" stroke-width="3.2"/>
<circle clip-path="url(#clip352)" cx="691.244" cy="1068.71" r="7.2" fill="#009af9" fill-rule="evenodd" fill-opacity="1" stroke="#000000" stroke-opacity="1" stroke-width="3.2"/>
<circle clip-path="url(#clip352)" cx="840.509" cy="987.464" r="7.2" fill="#009af9" fill-rule="evenodd" fill-opacity="1" stroke="#000000" stroke-opacity="1" stroke-width="3.2"/>
<circle clip-path="url(#clip352)" cx="901.134" cy="845.647" r="7.2" fill="#009af9" fill-rule="evenodd" fill-opacity="1" stroke="#000000" stroke-opacity="1" stroke-width="3.2"/>
<circle clip-path="url(#clip352)" cx="857.541" cy="552.476" r="7.2" fill="#009af9" fill-rule="evenodd" fill-opacity="1" stroke="#000000" stroke-opacity="1" stroke-width="3.2"/>
<circle clip-path="url(#clip352)" cx="980.134" cy="427.72" r="7.2" fill="#009af9" fill-rule="evenodd" fill-opacity="1" stroke="#000000" stroke-opacity="1" stroke-width="3.2"/>
<circle clip-path="url(#clip352)" cx="997.703" cy="333.434" r="7.2" fill="#009af9" fill-rule="evenodd" fill-opacity="1" stroke="#000000" stroke-opacity="1" stroke-width="3.2"/>
<circle clip-path="url(#clip352)" cx="764.035" cy="286.852" r="7.2" fill="#009af9" fill-rule="evenodd" fill-opacity="1" stroke="#000000" stroke-opacity="1" stroke-width="3.2"/>
<circle clip-path="url(#clip352)" cx="674.701" cy="408.75" r="7.2" fill="#009af9" fill-rule="evenodd" fill-opacity="1" stroke="#000000" stroke-opacity="1" stroke-width="3.2"/>
<circle clip-path="url(#clip352)" cx="740.459" cy="486.595" r="7.2" fill="#009af9" fill-rule="evenodd" fill-opacity="1" stroke="#000000" stroke-opacity="1" stroke-width="3.2"/>
<circle clip-path="url(#clip352)" cx="987.187" cy="278.203" r="7.2" fill="#009af9" fill-rule="evenodd" fill-opacity="1" stroke="#000000" stroke-opacity="1" stroke-width="3.2"/>
<circle clip-path="url(#clip352)" cx="1023.97" cy="207.283" r="7.2" fill="#009af9" fill-rule="evenodd" fill-opacity="1" stroke="#000000" stroke-opacity="1" stroke-width="3.2"/>
<circle clip-path="url(#clip352)" cx="1137.7" cy="86.1857" r="7.2" fill="#009af9" fill-rule="evenodd" fill-opacity="1" stroke="#000000" stroke-opacity="1" stroke-width="3.2"/>
<circle clip-path="url(#clip352)" cx="1658.35" cy="167.685" r="7.2" fill="#009af9" fill-rule="evenodd" fill-opacity="1" stroke="#000000" stroke-opacity="1" stroke-width="3.2"/>
<circle clip-path="url(#clip352)" cx="1832.59" cy="279.795" r="7.2" fill="#009af9" fill-rule="evenodd" fill-opacity="1" stroke="#000000" stroke-opacity="1" stroke-width="3.2"/>
<circle clip-path="url(#clip352)" cx="1722.68" cy="462.022" r="7.2" fill="#009af9" fill-rule="evenodd" fill-opacity="1" stroke="#000000" stroke-opacity="1" stroke-width="3.2"/>
<circle clip-path="url(#clip352)" cx="1660.62" cy="545.29" r="7.2" fill="#009af9" fill-rule="evenodd" fill-opacity="1" stroke="#000000" stroke-opacity="1" stroke-width="3.2"/>
<circle clip-path="url(#clip352)" cx="1594.75" cy="530.269" r="7.2" fill="#009af9" fill-rule="evenodd" fill-opacity="1" stroke="#000000" stroke-opacity="1" stroke-width="3.2"/>
<circle clip-path="url(#clip352)" cx="1533.69" cy="470.958" r="7.2" fill="#009af9" fill-rule="evenodd" fill-opacity="1" stroke="#000000" stroke-opacity="1" stroke-width="3.2"/>
<circle clip-path="url(#clip352)" cx="1563.91" cy="379.425" r="7.2" fill="#009af9" fill-rule="evenodd" fill-opacity="1" stroke="#000000" stroke-opacity="1" stroke-width="3.2"/>
<circle clip-path="url(#clip352)" cx="1601.49" cy="383.654" r="7.2" fill="#009af9" fill-rule="evenodd" fill-opacity="1" stroke="#000000" stroke-opacity="1" stroke-width="3.2"/>
<circle clip-path="url(#clip352)" cx="1651.01" cy="490.777" r="7.2" fill="#009af9" fill-rule="evenodd" fill-opacity="1" stroke="#000000" stroke-opacity="1" stroke-width="3.2"/>
<circle clip-path="url(#clip352)" cx="1721.79" cy="556.589" r="7.2" fill="#009af9" fill-rule="evenodd" fill-opacity="1" stroke="#000000" stroke-opacity="1" stroke-width="3.2"/>
<circle clip-path="url(#clip352)" cx="1590.56" cy="710.213" r="7.2" fill="#009af9" fill-rule="evenodd" fill-opacity="1" stroke="#000000" stroke-opacity="1" stroke-width="3.2"/>
<circle clip-path="url(#clip352)" cx="1573.7" cy="768.35" r="7.2" fill="#009af9" fill-rule="evenodd" fill-opacity="1" stroke="#000000" stroke-opacity="1" stroke-width="3.2"/>
<circle clip-path="url(#clip352)" cx="1693.46" cy="870.179" r="7.2" fill="#009af9" fill-rule="evenodd" fill-opacity="1" stroke="#000000" stroke-opacity="1" stroke-width="3.2"/>
<circle clip-path="url(#clip352)" cx="1777.21" cy="847.976" r="7.2" fill="#009af9" fill-rule="evenodd" fill-opacity="1" stroke="#000000" stroke-opacity="1" stroke-width="3.2"/>
<circle clip-path="url(#clip352)" cx="1834.15" cy="811.252" r="7.2" fill="#009af9" fill-rule="evenodd" fill-opacity="1" stroke="#000000" stroke-opacity="1" stroke-width="3.2"/>
<circle clip-path="url(#clip352)" cx="1892.05" cy="548.347" r="7.2" fill="#009af9" fill-rule="evenodd" fill-opacity="1" stroke="#000000" stroke-opacity="1" stroke-width="3.2"/>
<circle clip-path="url(#clip352)" cx="2132.26" cy="595.973" r="7.2" fill="#009af9" fill-rule="evenodd" fill-opacity="1" stroke="#000000" stroke-opacity="1" stroke-width="3.2"/>
<circle clip-path="url(#clip352)" cx="2277.49" cy="558.716" r="7.2" fill="#009af9" fill-rule="evenodd" fill-opacity="1" stroke="#000000" stroke-opacity="1" stroke-width="3.2"/>
<circle clip-path="url(#clip352)" cx="2239.51" cy="399.156" r="7.2" fill="#009af9" fill-rule="evenodd" fill-opacity="1" stroke="#000000" stroke-opacity="1" stroke-width="3.2"/>
<circle clip-path="url(#clip352)" cx="2164.42" cy="361.651" r="7.2" fill="#009af9" fill-rule="evenodd" fill-opacity="1" stroke="#000000" stroke-opacity="1" stroke-width="3.2"/>
<circle clip-path="url(#clip352)" cx="2136.25" cy="407.618" r="7.2" fill="#009af9" fill-rule="evenodd" fill-opacity="1" stroke="#000000" stroke-opacity="1" stroke-width="3.2"/>
<circle clip-path="url(#clip352)" cx="2087.67" cy="469.656" r="7.2" fill="#009af9" fill-rule="evenodd" fill-opacity="1" stroke="#000000" stroke-opacity="1" stroke-width="3.2"/>
<circle clip-path="url(#clip352)" cx="2077.7" cy="470.768" r="7.2" fill="#009af9" fill-rule="evenodd" fill-opacity="1" stroke="#000000" stroke-opacity="1" stroke-width="3.2"/>
<circle clip-path="url(#clip352)" cx="1901.45" cy="416.807" r="7.2" fill="#009af9" fill-rule="evenodd" fill-opacity="1" stroke="#000000" stroke-opacity="1" stroke-width="3.2"/>
<circle clip-path="url(#clip352)" cx="1821.21" cy="342.348" r="7.2" fill="#009af9" fill-rule="evenodd" fill-opacity="1" stroke="#000000" stroke-opacity="1" stroke-width="3.2"/>
<circle clip-path="url(#clip352)" cx="1759.53" cy="295.172" r="7.2" fill="#009af9" fill-rule="evenodd" fill-opacity="1" stroke="#000000" stroke-opacity="1" stroke-width="3.2"/>
<circle clip-path="url(#clip352)" cx="1720.18" cy="308.022" r="7.2" fill="#009af9" fill-rule="evenodd" fill-opacity="1" stroke="#000000" stroke-opacity="1" stroke-width="3.2"/>
<circle clip-path="url(#clip352)" cx="1640.34" cy="276.343" r="7.2" fill="#009af9" fill-rule="evenodd" fill-opacity="1" stroke="#000000" stroke-opacity="1" stroke-width="3.2"/>
<circle clip-path="url(#clip352)" cx="1482.5" cy="245.537" r="7.2" fill="#009af9" fill-rule="evenodd" fill-opacity="1" stroke="#000000" stroke-opacity="1" stroke-width="3.2"/>
<circle clip-path="url(#clip352)" cx="1389.75" cy="339.907" r="7.2" fill="#009af9" fill-rule="evenodd" fill-opacity="1" stroke="#000000" stroke-opacity="1" stroke-width="3.2"/>
<circle clip-path="url(#clip352)" cx="1386.94" cy="452.876" r="7.2" fill="#009af9" fill-rule="evenodd" fill-opacity="1" stroke="#000000" stroke-opacity="1" stroke-width="3.2"/>
<circle clip-path="url(#clip352)" cx="1507.74" cy="522.614" r="7.2" fill="#009af9" fill-rule="evenodd" fill-opacity="1" stroke="#000000" stroke-opacity="1" stroke-width="3.2"/>
<circle clip-path="url(#clip352)" cx="1512.05" cy="578.949" r="7.2" fill="#009af9" fill-rule="evenodd" fill-opacity="1" stroke="#000000" stroke-opacity="1" stroke-width="3.2"/>
<circle clip-path="url(#clip352)" cx="1514.36" cy="635.55" r="7.2" fill="#009af9" fill-rule="evenodd" fill-opacity="1" stroke="#000000" stroke-opacity="1" stroke-width="3.2"/>
<circle clip-path="url(#clip352)" cx="1453.5" cy="680.626" r="7.2" fill="#009af9" fill-rule="evenodd" fill-opacity="1" stroke="#000000" stroke-opacity="1" stroke-width="3.2"/>
<circle clip-path="url(#clip352)" cx="1366.38" cy="790.609" r="7.2" fill="#009af9" fill-rule="evenodd" fill-opacity="1" stroke="#000000" stroke-opacity="1" stroke-width="3.2"/>
<circle clip-path="url(#clip352)" cx="1258.78" cy="820.031" r="7.2" fill="#009af9" fill-rule="evenodd" fill-opacity="1" stroke="#000000" stroke-opacity="1" stroke-width="3.2"/>
<circle clip-path="url(#clip352)" cx="1214.97" cy="973.274" r="7.2" fill="#009af9" fill-rule="evenodd" fill-opacity="1" stroke="#000000" stroke-opacity="1" stroke-width="3.2"/>
<circle clip-path="url(#clip352)" cx="1256.12" cy="1180.47" r="7.2" fill="#009af9" fill-rule="evenodd" fill-opacity="1" stroke="#000000" stroke-opacity="1" stroke-width="3.2"/>
<circle clip-path="url(#clip352)" cx="1390.12" cy="1291.7" r="7.2" fill="#009af9" fill-rule="evenodd" fill-opacity="1" stroke="#000000" stroke-opacity="1" stroke-width="3.2"/>
<circle clip-path="url(#clip352)" cx="1474.5" cy="1383.27" r="7.2" fill="#009af9" fill-rule="evenodd" fill-opacity="1" stroke="#000000" stroke-opacity="1" stroke-width="3.2"/>
<circle clip-path="url(#clip352)" cx="1823.43" cy="1384.24" r="7.2" fill="#009af9" fill-rule="evenodd" fill-opacity="1" stroke="#000000" stroke-opacity="1" stroke-width="3.2"/>
<circle clip-path="url(#clip352)" cx="1989.72" cy="1369.97" r="7.2" fill="#009af9" fill-rule="evenodd" fill-opacity="1" stroke="#000000" stroke-opacity="1" stroke-width="3.2"/>
<circle clip-path="url(#clip352)" cx="2123.64" cy="1346.75" r="7.2" fill="#009af9" fill-rule="evenodd" fill-opacity="1" stroke="#000000" stroke-opacity="1" stroke-width="3.2"/>
<circle clip-path="url(#clip352)" cx="2130.95" cy="1298.41" r="7.2" fill="#009af9" fill-rule="evenodd" fill-opacity="1" stroke="#000000" stroke-opacity="1" stroke-width="3.2"/>
<circle clip-path="url(#clip352)" cx="2109.65" cy="1184.88" r="7.2" fill="#009af9" fill-rule="evenodd" fill-opacity="1" stroke="#000000" stroke-opacity="1" stroke-width="3.2"/>
<circle clip-path="url(#clip352)" cx="2015.66" cy="1165.88" r="7.2" fill="#009af9" fill-rule="evenodd" fill-opacity="1" stroke="#000000" stroke-opacity="1" stroke-width="3.2"/>
<circle clip-path="url(#clip352)" cx="1941.14" cy="1150.17" r="7.2" fill="#009af9" fill-rule="evenodd" fill-opacity="1" stroke="#000000" stroke-opacity="1" stroke-width="3.2"/>
<circle clip-path="url(#clip352)" cx="1818.21" cy="1036.23" r="7.2" fill="#009af9" fill-rule="evenodd" fill-opacity="1" stroke="#000000" stroke-opacity="1" stroke-width="3.2"/>
<circle clip-path="url(#clip352)" cx="1765.81" cy="1082.31" r="7.2" fill="#009af9" fill-rule="evenodd" fill-opacity="1" stroke="#000000" stroke-opacity="1" stroke-width="3.2"/>
<circle clip-path="url(#clip352)" cx="1793.68" cy="1193.89" r="7.2" fill="#009af9" fill-rule="evenodd" fill-opacity="1" stroke="#000000" stroke-opacity="1" stroke-width="3.2"/>
<circle clip-path="url(#clip352)" cx="1841.59" cy="1221.47" r="7.2" fill="#009af9" fill-rule="evenodd" fill-opacity="1" stroke="#000000" stroke-opacity="1" stroke-width="3.2"/>
<circle clip-path="url(#clip352)" cx="2037.64" cy="1247.36" r="7.2" fill="#009af9" fill-rule="evenodd" fill-opacity="1" stroke="#000000" stroke-opacity="1" stroke-width="3.2"/>
<circle clip-path="url(#clip352)" cx="2051.55" cy="1205.7" r="7.2" fill="#009af9" fill-rule="evenodd" fill-opacity="1" stroke="#000000" stroke-opacity="1" stroke-width="3.2"/>
<circle clip-path="url(#clip352)" cx="1834.36" cy="931.01" r="7.2" fill="#009af9" fill-rule="evenodd" fill-opacity="1" stroke="#000000" stroke-opacity="1" stroke-width="3.2"/>
<circle clip-path="url(#clip352)" cx="1625.36" cy="1053.72" r="7.2" fill="#009af9" fill-rule="evenodd" fill-opacity="1" stroke="#000000" stroke-opacity="1" stroke-width="3.2"/>
<circle clip-path="url(#clip352)" cx="1534.97" cy="1140.66" r="7.2" fill="#009af9" fill-rule="evenodd" fill-opacity="1" stroke="#000000" stroke-opacity="1" stroke-width="3.2"/>
<circle clip-path="url(#clip352)" cx="1385.45" cy="1072.66" r="7.2" fill="#009af9" fill-rule="evenodd" fill-opacity="1" stroke="#000000" stroke-opacity="1" stroke-width="3.2"/>
<circle clip-path="url(#clip352)" cx="1304.84" cy="876.83" r="7.2" fill="#009af9" fill-rule="evenodd" fill-opacity="1" stroke="#000000" stroke-opacity="1" stroke-width="3.2"/>
<circle clip-path="url(#clip352)" cx="1150.1" cy="935.038" r="7.2" fill="#009af9" fill-rule="evenodd" fill-opacity="1" stroke="#000000" stroke-opacity="1" stroke-width="3.2"/>
<circle clip-path="url(#clip352)" cx="1079.87" cy="824.587" r="7.2" fill="#009af9" fill-rule="evenodd" fill-opacity="1" stroke="#000000" stroke-opacity="1" stroke-width="3.2"/>
<circle clip-path="url(#clip352)" cx="1021.64" cy="827.628" r="7.2" fill="#009af9" fill-rule="evenodd" fill-opacity="1" stroke="#000000" stroke-opacity="1" stroke-width="3.2"/>
<circle clip-path="url(#clip352)" cx="965.251" cy="1001.69" r="7.2" fill="#009af9" fill-rule="evenodd" fill-opacity="1" stroke="#000000" stroke-opacity="1" stroke-width="3.2"/>
<circle clip-path="url(#clip352)" cx="809.604" cy="1192.75" r="7.2" fill="#009af9" fill-rule="evenodd" fill-opacity="1" stroke="#000000" stroke-opacity="1" stroke-width="3.2"/>
<circle clip-path="url(#clip352)" cx="687.18" cy="1282.66" r="7.2" fill="#009af9" fill-rule="evenodd" fill-opacity="1" stroke="#000000" stroke-opacity="1" stroke-width="3.2"/>
<circle clip-path="url(#clip352)" cx="699.528" cy="1330.13" r="7.2" fill="#009af9" fill-rule="evenodd" fill-opacity="1" stroke="#000000" stroke-opacity="1" stroke-width="3.2"/>
</svg>
