<?xml version="1.0" encoding="utf-8"?>
<svg xmlns="http://www.w3.org/2000/svg" xmlns:xlink="http://www.w3.org/1999/xlink" width="600" height="400" viewBox="0 0 2400 1600">
<defs>
  <clipPath id="clip320">
    <rect x="0" y="0" width="2400" height="1600"/>
  </clipPath>
</defs>
<path clip-path="url(#clip320)" d="
M0 1600 L2400 1600 L2400 0 L0 0  Z
  " fill="#ffffff" fill-rule="evenodd" fill-opacity="1"/>
<defs>
  <clipPath id="clip321">
    <rect x="480" y="0" width="1681" height="1600"/>
  </clipPath>
</defs>
<path clip-path="url(#clip320)" d="
M272.297 1423.18 L2352.76 1423.18 L2352.76 47.2441 L272.297 47.2441  Z
  " fill="#ffffff" fill-rule="evenodd" fill-opacity="1"/>
<defs>
  <clipPath id="clip322">
    <rect x="272" y="47" width="2081" height="1377"/>
  </clipPath>
</defs>
<polyline clip-path="url(#clip322)" style="stroke:#000000; stroke-linecap:round; stroke-linejoin:round; stroke-width:2; stroke-opacity:0.1; fill:none" points="
  305.961,1423.18 305.961,47.2441 
  "/>
<polyline clip-path="url(#clip322)" style="stroke:#000000; stroke-linecap:round; stroke-linejoin:round; stroke-width:2; stroke-opacity:0.1; fill:none" points="
  642.624,1423.18 642.624,47.2441 
  "/>
<polyline clip-path="url(#clip322)" style="stroke:#000000; stroke-linecap:round; stroke-linejoin:round; stroke-width:2; stroke-opacity:0.1; fill:none" points="
  979.287,1423.18 979.287,47.2441 
  "/>
<polyline clip-path="url(#clip322)" style="stroke:#000000; stroke-linecap:round; stroke-linejoin:round; stroke-width:2; stroke-opacity:0.1; fill:none" points="
  1315.95,1423.18 1315.95,47.2441 
  "/>
<polyline clip-path="url(#clip322)" style="stroke:#000000; stroke-linecap:round; stroke-linejoin:round; stroke-width:2; stroke-opacity:0.1; fill:none" points="
  1652.61,1423.18 1652.61,47.2441 
  "/>
<polyline clip-path="url(#clip322)" style="stroke:#000000; stroke-linecap:round; stroke-linejoin:round; stroke-width:2; stroke-opacity:0.1; fill:none" points="
  1989.28,1423.18 1989.28,47.2441 
  "/>
<polyline clip-path="url(#clip322)" style="stroke:#000000; stroke-linecap:round; stroke-linejoin:round; stroke-width:2; stroke-opacity:0.1; fill:none" points="
  2325.94,1423.18 2325.94,47.2441 
  "/>
<polyline clip-path="url(#clip320)" style="stroke:#000000; stroke-linecap:round; stroke-linejoin:round; stroke-width:4; stroke-opacity:1; fill:none" points="
  272.297,1423.18 2352.76,1423.18 
  "/>
<polyline clip-path="url(#clip320)" style="stroke:#000000; stroke-linecap:round; stroke-linejoin:round; stroke-width:4; stroke-opacity:1; fill:none" points="
  305.961,1423.18 305.961,1404.28 
  "/>
<polyline clip-path="url(#clip320)" style="stroke:#000000; stroke-linecap:round; stroke-linejoin:round; stroke-width:4; stroke-opacity:1; fill:none" points="
  642.624,1423.18 642.624,1404.28 
  "/>
<polyline clip-path="url(#clip320)" style="stroke:#000000; stroke-linecap:round; stroke-linejoin:round; stroke-width:4; stroke-opacity:1; fill:none" points="
  979.287,1423.18 979.287,1404.28 
  "/>
<polyline clip-path="url(#clip320)" style="stroke:#000000; stroke-linecap:round; stroke-linejoin:round; stroke-width:4; stroke-opacity:1; fill:none" points="
  1315.95,1423.18 1315.95,1404.28 
  "/>
<polyline clip-path="url(#clip320)" style="stroke:#000000; stroke-linecap:round; stroke-linejoin:round; stroke-width:4; stroke-opacity:1; fill:none" points="
  1652.61,1423.18 1652.61,1404.28 
  "/>
<polyline clip-path="url(#clip320)" style="stroke:#000000; stroke-linecap:round; stroke-linejoin:round; stroke-width:4; stroke-opacity:1; fill:none" points="
  1989.28,1423.18 1989.28,1404.28 
  "/>
<polyline clip-path="url(#clip320)" style="stroke:#000000; stroke-linecap:round; stroke-linejoin:round; stroke-width:4; stroke-opacity:1; fill:none" points="
  2325.94,1423.18 2325.94,1404.28 
  "/>
<path clip-path="url(#clip320)" d="M244.942 1468.75 L274.618 1468.75 L274.618 1472.69 L244.942 1472.69 L244.942 1468.75 Z" fill="#000000" fill-rule="evenodd" fill-opacity="1" /><path clip-path="url(#clip320)" d="M298.877 1466.95 Q302.234 1467.66 304.109 1469.93 Q306.007 1472.2 306.007 1475.53 Q306.007 1480.65 302.488 1483.45 Q298.97 1486.25 292.488 1486.25 Q290.312 1486.25 287.998 1485.81 Q285.706 1485.39 283.252 1484.54 L283.252 1480.02 Q285.197 1481.16 287.512 1481.74 Q289.826 1482.32 292.35 1482.32 Q296.748 1482.32 299.039 1480.58 Q301.354 1478.84 301.354 1475.53 Q301.354 1472.48 299.201 1470.77 Q297.072 1469.03 293.252 1469.03 L289.225 1469.03 L289.225 1465.19 L293.437 1465.19 Q296.887 1465.19 298.715 1463.82 Q300.544 1462.43 300.544 1459.84 Q300.544 1457.18 298.646 1455.77 Q296.771 1454.33 293.252 1454.33 Q291.331 1454.33 289.132 1454.75 Q286.933 1455.16 284.294 1456.04 L284.294 1451.88 Q286.956 1451.14 289.271 1450.77 Q291.609 1450.39 293.669 1450.39 Q298.993 1450.39 302.095 1452.83 Q305.197 1455.23 305.197 1459.35 Q305.197 1462.22 303.553 1464.21 Q301.91 1466.18 298.877 1466.95 Z" fill="#000000" fill-rule="evenodd" fill-opacity="1" /><path clip-path="url(#clip320)" d="M324.872 1454.1 Q321.261 1454.1 319.433 1457.66 Q317.627 1461.2 317.627 1468.33 Q317.627 1475.44 319.433 1479.01 Q321.261 1482.55 324.872 1482.55 Q328.507 1482.55 330.312 1479.01 Q332.141 1475.44 332.141 1468.33 Q332.141 1461.2 330.312 1457.66 Q328.507 1454.1 324.872 1454.1 M324.872 1450.39 Q330.683 1450.39 333.738 1455 Q336.817 1459.58 336.817 1468.33 Q336.817 1477.06 333.738 1481.67 Q330.683 1486.25 324.872 1486.25 Q319.062 1486.25 315.984 1481.67 Q312.928 1477.06 312.928 1468.33 Q312.928 1459.58 315.984 1455 Q319.062 1450.39 324.872 1450.39 Z" fill="#000000" fill-rule="evenodd" fill-opacity="1" /><path clip-path="url(#clip320)" d="M355.034 1454.1 Q351.423 1454.1 349.595 1457.66 Q347.789 1461.2 347.789 1468.33 Q347.789 1475.44 349.595 1479.01 Q351.423 1482.55 355.034 1482.55 Q358.669 1482.55 360.474 1479.01 Q362.303 1475.44 362.303 1468.33 Q362.303 1461.2 360.474 1457.66 Q358.669 1454.1 355.034 1454.1 M355.034 1450.39 Q360.845 1450.39 363.9 1455 Q366.979 1459.58 366.979 1468.33 Q366.979 1477.06 363.9 1481.67 Q360.845 1486.25 355.034 1486.25 Q349.224 1486.25 346.146 1481.67 Q343.09 1477.06 343.09 1468.33 Q343.09 1459.58 346.146 1455 Q349.224 1450.39 355.034 1450.39 Z" fill="#000000" fill-rule="evenodd" fill-opacity="1" /><path clip-path="url(#clip320)" d="M581.606 1468.75 L611.281 1468.75 L611.281 1472.69 L581.606 1472.69 L581.606 1468.75 Z" fill="#000000" fill-rule="evenodd" fill-opacity="1" /><path clip-path="url(#clip320)" d="M625.402 1481.64 L641.721 1481.64 L641.721 1485.58 L619.777 1485.58 L619.777 1481.64 Q622.439 1478.89 627.022 1474.26 Q631.628 1469.61 632.809 1468.27 Q635.054 1465.74 635.934 1464.01 Q636.837 1462.25 636.837 1460.56 Q636.837 1457.8 634.892 1456.07 Q632.971 1454.33 629.869 1454.33 Q627.67 1454.33 625.216 1455.09 Q622.786 1455.86 620.008 1457.41 L620.008 1452.69 Q622.832 1451.55 625.286 1450.97 Q627.74 1450.39 629.777 1450.39 Q635.147 1450.39 638.341 1453.08 Q641.536 1455.77 641.536 1460.26 Q641.536 1462.39 640.726 1464.31 Q639.939 1466.2 637.832 1468.8 Q637.253 1469.47 634.152 1472.69 Q631.05 1475.88 625.402 1481.64 Z" fill="#000000" fill-rule="evenodd" fill-opacity="1" /><path clip-path="url(#clip320)" d="M661.536 1454.1 Q657.925 1454.1 656.096 1457.66 Q654.29 1461.2 654.29 1468.33 Q654.29 1475.44 656.096 1479.01 Q657.925 1482.55 661.536 1482.55 Q665.17 1482.55 666.976 1479.01 Q668.804 1475.44 668.804 1468.33 Q668.804 1461.2 666.976 1457.66 Q665.17 1454.1 661.536 1454.1 M661.536 1450.39 Q667.346 1450.39 670.401 1455 Q673.48 1459.58 673.48 1468.33 Q673.48 1477.06 670.401 1481.67 Q667.346 1486.25 661.536 1486.25 Q655.726 1486.25 652.647 1481.67 Q649.591 1477.06 649.591 1468.33 Q649.591 1459.58 652.647 1455 Q655.726 1450.39 661.536 1450.39 Z" fill="#000000" fill-rule="evenodd" fill-opacity="1" /><path clip-path="url(#clip320)" d="M691.698 1454.1 Q688.087 1454.1 686.258 1457.66 Q684.452 1461.2 684.452 1468.33 Q684.452 1475.44 686.258 1479.01 Q688.087 1482.55 691.698 1482.55 Q695.332 1482.55 697.137 1479.01 Q698.966 1475.44 698.966 1468.33 Q698.966 1461.2 697.137 1457.66 Q695.332 1454.1 691.698 1454.1 M691.698 1450.39 Q697.508 1450.39 700.563 1455 Q703.642 1459.58 703.642 1468.33 Q703.642 1477.06 700.563 1481.67 Q697.508 1486.25 691.698 1486.25 Q685.887 1486.25 682.809 1481.67 Q679.753 1477.06 679.753 1468.33 Q679.753 1459.58 682.809 1455 Q685.887 1450.39 691.698 1450.39 Z" fill="#000000" fill-rule="evenodd" fill-opacity="1" /><path clip-path="url(#clip320)" d="M918.269 1468.75 L947.945 1468.75 L947.945 1472.69 L918.269 1472.69 L918.269 1468.75 Z" fill="#000000" fill-rule="evenodd" fill-opacity="1" /><path clip-path="url(#clip320)" d="M958.847 1481.64 L966.486 1481.64 L966.486 1455.28 L958.176 1456.95 L958.176 1452.69 L966.44 1451.02 L971.116 1451.02 L971.116 1481.64 L978.755 1481.64 L978.755 1485.58 L958.847 1485.58 L958.847 1481.64 Z" fill="#000000" fill-rule="evenodd" fill-opacity="1" /><path clip-path="url(#clip320)" d="M998.199 1454.1 Q994.588 1454.1 992.759 1457.66 Q990.954 1461.2 990.954 1468.33 Q990.954 1475.44 992.759 1479.01 Q994.588 1482.55 998.199 1482.55 Q1001.83 1482.55 1003.64 1479.01 Q1005.47 1475.44 1005.47 1468.33 Q1005.47 1461.2 1003.64 1457.66 Q1001.83 1454.1 998.199 1454.1 M998.199 1450.39 Q1004.01 1450.39 1007.06 1455 Q1010.14 1459.58 1010.14 1468.33 Q1010.14 1477.06 1007.06 1481.67 Q1004.01 1486.25 998.199 1486.25 Q992.389 1486.25 989.31 1481.67 Q986.255 1477.06 986.255 1468.33 Q986.255 1459.58 989.31 1455 Q992.389 1450.39 998.199 1450.39 Z" fill="#000000" fill-rule="evenodd" fill-opacity="1" /><path clip-path="url(#clip320)" d="M1028.36 1454.1 Q1024.75 1454.1 1022.92 1457.66 Q1021.12 1461.2 1021.12 1468.33 Q1021.12 1475.44 1022.92 1479.01 Q1024.75 1482.55 1028.36 1482.55 Q1032 1482.55 1033.8 1479.01 Q1035.63 1475.44 1035.63 1468.33 Q1035.63 1461.2 1033.8 1457.66 Q1032 1454.1 1028.36 1454.1 M1028.36 1450.39 Q1034.17 1450.39 1037.23 1455 Q1040.31 1459.58 1040.31 1468.33 Q1040.31 1477.06 1037.23 1481.67 Q1034.17 1486.25 1028.36 1486.25 Q1022.55 1486.25 1019.47 1481.67 Q1016.42 1477.06 1016.42 1468.33 Q1016.42 1459.58 1019.47 1455 Q1022.55 1450.39 1028.36 1450.39 Z" fill="#000000" fill-rule="evenodd" fill-opacity="1" /><path clip-path="url(#clip320)" d="M1315.95 1454.1 Q1312.34 1454.1 1310.51 1457.66 Q1308.7 1461.2 1308.7 1468.33 Q1308.7 1475.44 1310.51 1479.01 Q1312.34 1482.55 1315.95 1482.55 Q1319.58 1482.55 1321.39 1479.01 Q1323.22 1475.44 1323.22 1468.33 Q1323.22 1461.2 1321.39 1457.66 Q1319.58 1454.1 1315.95 1454.1 M1315.95 1450.39 Q1321.76 1450.39 1324.82 1455 Q1327.89 1459.58 1327.89 1468.33 Q1327.89 1477.06 1324.82 1481.67 Q1321.76 1486.25 1315.95 1486.25 Q1310.14 1486.25 1307.06 1481.67 Q1304.01 1477.06 1304.01 1468.33 Q1304.01 1459.58 1307.06 1455 Q1310.14 1450.39 1315.95 1450.39 Z" fill="#000000" fill-rule="evenodd" fill-opacity="1" /><path clip-path="url(#clip320)" d="M1612.22 1481.64 L1619.86 1481.64 L1619.86 1455.28 L1611.55 1456.95 L1611.55 1452.69 L1619.81 1451.02 L1624.49 1451.02 L1624.49 1481.64 L1632.13 1481.64 L1632.13 1485.58 L1612.22 1485.58 L1612.22 1481.64 Z" fill="#000000" fill-rule="evenodd" fill-opacity="1" /><path clip-path="url(#clip320)" d="M1651.57 1454.1 Q1647.96 1454.1 1646.13 1457.66 Q1644.33 1461.2 1644.33 1468.33 Q1644.33 1475.44 1646.13 1479.01 Q1647.96 1482.55 1651.57 1482.55 Q1655.21 1482.55 1657.01 1479.01 Q1658.84 1475.44 1658.84 1468.33 Q1658.84 1461.2 1657.01 1457.66 Q1655.21 1454.1 1651.57 1454.1 M1651.57 1450.39 Q1657.38 1450.39 1660.44 1455 Q1663.52 1459.58 1663.52 1468.33 Q1663.52 1477.06 1660.44 1481.67 Q1657.38 1486.25 1651.57 1486.25 Q1645.76 1486.25 1642.68 1481.67 Q1639.63 1477.06 1639.63 1468.33 Q1639.63 1459.58 1642.68 1455 Q1645.76 1450.39 1651.57 1450.39 Z" fill="#000000" fill-rule="evenodd" fill-opacity="1" /><path clip-path="url(#clip320)" d="M1681.73 1454.1 Q1678.12 1454.1 1676.29 1457.66 Q1674.49 1461.2 1674.49 1468.33 Q1674.49 1475.44 1676.29 1479.01 Q1678.12 1482.55 1681.73 1482.55 Q1685.37 1482.55 1687.17 1479.01 Q1689 1475.44 1689 1468.33 Q1689 1461.2 1687.17 1457.66 Q1685.37 1454.1 1681.73 1454.1 M1681.73 1450.39 Q1687.54 1450.39 1690.6 1455 Q1693.68 1459.58 1693.68 1468.33 Q1693.68 1477.06 1690.6 1481.67 Q1687.54 1486.25 1681.73 1486.25 Q1675.92 1486.25 1672.84 1481.67 Q1669.79 1477.06 1669.79 1468.33 Q1669.79 1459.58 1672.84 1455 Q1675.92 1450.39 1681.73 1450.39 Z" fill="#000000" fill-rule="evenodd" fill-opacity="1" /><path clip-path="url(#clip320)" d="M1952.97 1481.64 L1969.29 1481.64 L1969.29 1485.58 L1947.34 1485.58 L1947.34 1481.64 Q1950.01 1478.89 1954.59 1474.26 Q1959.2 1469.61 1960.38 1468.27 Q1962.62 1465.74 1963.5 1464.01 Q1964.4 1462.25 1964.4 1460.56 Q1964.4 1457.8 1962.46 1456.07 Q1960.54 1454.33 1957.44 1454.33 Q1955.24 1454.33 1952.78 1455.09 Q1950.35 1455.86 1947.58 1457.41 L1947.58 1452.69 Q1950.4 1451.55 1952.85 1450.97 Q1955.31 1450.39 1957.34 1450.39 Q1962.71 1450.39 1965.91 1453.08 Q1969.1 1455.77 1969.1 1460.26 Q1969.1 1462.39 1968.29 1464.31 Q1967.51 1466.2 1965.4 1468.8 Q1964.82 1469.47 1961.72 1472.69 Q1958.62 1475.88 1952.97 1481.64 Z" fill="#000000" fill-rule="evenodd" fill-opacity="1" /><path clip-path="url(#clip320)" d="M1989.1 1454.1 Q1985.49 1454.1 1983.66 1457.66 Q1981.86 1461.2 1981.86 1468.33 Q1981.86 1475.44 1983.66 1479.01 Q1985.49 1482.55 1989.1 1482.55 Q1992.74 1482.55 1994.54 1479.01 Q1996.37 1475.44 1996.37 1468.33 Q1996.37 1461.2 1994.54 1457.66 Q1992.74 1454.1 1989.1 1454.1 M1989.1 1450.39 Q1994.91 1450.39 1997.97 1455 Q2001.05 1459.58 2001.05 1468.33 Q2001.05 1477.06 1997.97 1481.67 Q1994.91 1486.25 1989.1 1486.25 Q1983.29 1486.25 1980.21 1481.67 Q1977.16 1477.06 1977.16 1468.33 Q1977.16 1459.58 1980.21 1455 Q1983.29 1450.39 1989.1 1450.39 Z" fill="#000000" fill-rule="evenodd" fill-opacity="1" /><path clip-path="url(#clip320)" d="M2019.27 1454.1 Q2015.65 1454.1 2013.83 1457.66 Q2012.02 1461.2 2012.02 1468.33 Q2012.02 1475.44 2013.83 1479.01 Q2015.65 1482.55 2019.27 1482.55 Q2022.9 1482.55 2024.7 1479.01 Q2026.53 1475.44 2026.53 1468.33 Q2026.53 1461.2 2024.7 1457.66 Q2022.9 1454.1 2019.27 1454.1 M2019.27 1450.39 Q2025.08 1450.39 2028.13 1455 Q2031.21 1459.58 2031.21 1468.33 Q2031.21 1477.06 2028.13 1481.67 Q2025.08 1486.25 2019.27 1486.25 Q2013.45 1486.25 2010.38 1481.67 Q2007.32 1477.06 2007.32 1468.33 Q2007.32 1459.58 2010.38 1455 Q2013.45 1450.39 2019.27 1450.39 Z" fill="#000000" fill-rule="evenodd" fill-opacity="1" /><path clip-path="url(#clip320)" d="M2299.7 1466.95 Q2303.06 1467.66 2304.93 1469.93 Q2306.83 1472.2 2306.83 1475.53 Q2306.83 1480.65 2303.31 1483.45 Q2299.79 1486.25 2293.31 1486.25 Q2291.14 1486.25 2288.82 1485.81 Q2286.53 1485.39 2284.08 1484.54 L2284.08 1480.02 Q2286.02 1481.16 2288.34 1481.74 Q2290.65 1482.32 2293.17 1482.32 Q2297.57 1482.32 2299.86 1480.58 Q2302.18 1478.84 2302.18 1475.53 Q2302.18 1472.48 2300.03 1470.77 Q2297.9 1469.03 2294.08 1469.03 L2290.05 1469.03 L2290.05 1465.19 L2294.26 1465.19 Q2297.71 1465.19 2299.54 1463.82 Q2301.37 1462.43 2301.37 1459.84 Q2301.37 1457.18 2299.47 1455.77 Q2297.6 1454.33 2294.08 1454.33 Q2292.16 1454.33 2289.96 1454.75 Q2287.76 1455.16 2285.12 1456.04 L2285.12 1451.88 Q2287.78 1451.14 2290.1 1450.77 Q2292.43 1450.39 2294.49 1450.39 Q2299.82 1450.39 2302.92 1452.83 Q2306.02 1455.23 2306.02 1459.35 Q2306.02 1462.22 2304.38 1464.21 Q2302.73 1466.18 2299.7 1466.95 Z" fill="#000000" fill-rule="evenodd" fill-opacity="1" /><path clip-path="url(#clip320)" d="M2325.7 1454.1 Q2322.09 1454.1 2320.26 1457.66 Q2318.45 1461.2 2318.45 1468.33 Q2318.45 1475.44 2320.26 1479.01 Q2322.09 1482.55 2325.7 1482.55 Q2329.33 1482.55 2331.14 1479.01 Q2332.97 1475.44 2332.97 1468.33 Q2332.97 1461.2 2331.14 1457.66 Q2329.33 1454.1 2325.7 1454.1 M2325.7 1450.39 Q2331.51 1450.39 2334.56 1455 Q2337.64 1459.58 2337.64 1468.33 Q2337.64 1477.06 2334.56 1481.67 Q2331.51 1486.25 2325.7 1486.25 Q2319.89 1486.25 2316.81 1481.67 Q2313.75 1477.06 2313.75 1468.33 Q2313.75 1459.58 2316.81 1455 Q2319.89 1450.39 2325.7 1450.39 Z" fill="#000000" fill-rule="evenodd" fill-opacity="1" /><path clip-path="url(#clip320)" d="M2355.86 1454.1 Q2352.25 1454.1 2350.42 1457.66 Q2348.61 1461.2 2348.61 1468.33 Q2348.61 1475.44 2350.42 1479.01 Q2352.25 1482.55 2355.86 1482.55 Q2359.49 1482.55 2361.3 1479.01 Q2363.13 1475.44 2363.13 1468.33 Q2363.13 1461.2 2361.3 1457.66 Q2359.49 1454.1 2355.86 1454.1 M2355.86 1450.39 Q2361.67 1450.39 2364.72 1455 Q2367.8 1459.58 2367.8 1468.33 Q2367.8 1477.06 2364.72 1481.67 Q2361.67 1486.25 2355.86 1486.25 Q2350.05 1486.25 2346.97 1481.67 Q2343.91 1477.06 2343.91 1468.33 Q2343.91 1459.58 2346.97 1455 Q2350.05 1450.39 2355.86 1450.39 Z" fill="#000000" fill-rule="evenodd" fill-opacity="1" /><path clip-path="url(#clip320)" d="M1329.14 1532.4 L1316.25 1549.74 L1329.81 1568.04 L1322.9 1568.04 L1312.53 1554.04 L1302.15 1568.04 L1295.24 1568.04 L1309.09 1549.39 L1296.42 1532.4 L1303.33 1532.4 L1312.78 1545.1 L1322.23 1532.4 L1329.14 1532.4 Z" fill="#000000" fill-rule="evenodd" fill-opacity="1" /><polyline clip-path="url(#clip322)" style="stroke:#000000; stroke-linecap:round; stroke-linejoin:round; stroke-width:2; stroke-opacity:0.1; fill:none" points="
  272.297,1394.49 2352.76,1394.49 
  "/>
<polyline clip-path="url(#clip322)" style="stroke:#000000; stroke-linecap:round; stroke-linejoin:round; stroke-width:2; stroke-opacity:0.1; fill:none" points="
  272.297,1057.82 2352.76,1057.82 
  "/>
<polyline clip-path="url(#clip322)" style="stroke:#000000; stroke-linecap:round; stroke-linejoin:round; stroke-width:2; stroke-opacity:0.1; fill:none" points="
  272.297,721.161 2352.76,721.161 
  "/>
<polyline clip-path="url(#clip322)" style="stroke:#000000; stroke-linecap:round; stroke-linejoin:round; stroke-width:2; stroke-opacity:0.1; fill:none" points="
  272.297,384.498 2352.76,384.498 
  "/>
<polyline clip-path="url(#clip322)" style="stroke:#000000; stroke-linecap:round; stroke-linejoin:round; stroke-width:2; stroke-opacity:0.1; fill:none" points="
  272.297,47.8349 2352.76,47.8349 
  "/>
<polyline clip-path="url(#clip320)" style="stroke:#000000; stroke-linecap:round; stroke-linejoin:round; stroke-width:4; stroke-opacity:1; fill:none" points="
  272.297,1423.18 272.297,47.2441 
  "/>
<polyline clip-path="url(#clip320)" style="stroke:#000000; stroke-linecap:round; stroke-linejoin:round; stroke-width:4; stroke-opacity:1; fill:none" points="
  272.297,1394.49 291.194,1394.49 
  "/>
<polyline clip-path="url(#clip320)" style="stroke:#000000; stroke-linecap:round; stroke-linejoin:round; stroke-width:4; stroke-opacity:1; fill:none" points="
  272.297,1057.82 291.194,1057.82 
  "/>
<polyline clip-path="url(#clip320)" style="stroke:#000000; stroke-linecap:round; stroke-linejoin:round; stroke-width:4; stroke-opacity:1; fill:none" points="
  272.297,721.161 291.194,721.161 
  "/>
<polyline clip-path="url(#clip320)" style="stroke:#000000; stroke-linecap:round; stroke-linejoin:round; stroke-width:4; stroke-opacity:1; fill:none" points="
  272.297,384.498 291.194,384.498 
  "/>
<polyline clip-path="url(#clip320)" style="stroke:#000000; stroke-linecap:round; stroke-linejoin:round; stroke-width:4; stroke-opacity:1; fill:none" points="
  272.297,47.8349 291.194,47.8349 
  "/>
<path clip-path="url(#clip320)" d="M114.26 1394.94 L143.936 1394.94 L143.936 1398.87 L114.26 1398.87 L114.26 1394.94 Z" fill="#000000" fill-rule="evenodd" fill-opacity="1" /><path clip-path="url(#clip320)" d="M158.056 1407.83 L174.376 1407.83 L174.376 1411.77 L152.431 1411.77 L152.431 1407.83 Q155.093 1405.08 159.677 1400.45 Q164.283 1395.8 165.464 1394.45 Q167.709 1391.93 168.589 1390.19 Q169.491 1388.43 169.491 1386.74 Q169.491 1383.99 167.547 1382.25 Q165.626 1380.52 162.524 1380.52 Q160.325 1380.52 157.871 1381.28 Q155.44 1382.05 152.663 1383.6 L152.663 1378.87 Q155.487 1377.74 157.94 1377.16 Q160.394 1376.58 162.431 1376.58 Q167.802 1376.58 170.996 1379.27 Q174.19 1381.95 174.19 1386.44 Q174.19 1388.57 173.38 1390.49 Q172.593 1392.39 170.487 1394.99 Q169.908 1395.66 166.806 1398.87 Q163.704 1402.07 158.056 1407.83 Z" fill="#000000" fill-rule="evenodd" fill-opacity="1" /><path clip-path="url(#clip320)" d="M194.19 1380.29 Q190.579 1380.29 188.75 1383.85 Q186.945 1387.39 186.945 1394.52 Q186.945 1401.63 188.75 1405.19 Q190.579 1408.74 194.19 1408.74 Q197.825 1408.74 199.63 1405.19 Q201.459 1401.63 201.459 1394.52 Q201.459 1387.39 199.63 1383.85 Q197.825 1380.29 194.19 1380.29 M194.19 1376.58 Q200 1376.58 203.056 1381.19 Q206.135 1385.77 206.135 1394.52 Q206.135 1403.25 203.056 1407.86 Q200 1412.44 194.19 1412.44 Q188.38 1412.44 185.301 1407.86 Q182.246 1403.25 182.246 1394.52 Q182.246 1385.77 185.301 1381.19 Q188.38 1376.58 194.19 1376.58 Z" fill="#000000" fill-rule="evenodd" fill-opacity="1" /><path clip-path="url(#clip320)" d="M224.352 1380.29 Q220.741 1380.29 218.912 1383.85 Q217.107 1387.39 217.107 1394.52 Q217.107 1401.63 218.912 1405.19 Q220.741 1408.74 224.352 1408.74 Q227.986 1408.74 229.792 1405.19 Q231.621 1401.63 231.621 1394.52 Q231.621 1387.39 229.792 1383.85 Q227.986 1380.29 224.352 1380.29 M224.352 1376.58 Q230.162 1376.58 233.218 1381.19 Q236.297 1385.77 236.297 1394.52 Q236.297 1403.25 233.218 1407.86 Q230.162 1412.44 224.352 1412.44 Q218.542 1412.44 215.463 1407.86 Q212.408 1403.25 212.408 1394.52 Q212.408 1385.77 215.463 1381.19 Q218.542 1376.58 224.352 1376.58 Z" fill="#000000" fill-rule="evenodd" fill-opacity="1" /><path clip-path="url(#clip320)" d="M114.26 1058.28 L143.936 1058.28 L143.936 1062.21 L114.26 1062.21 L114.26 1058.28 Z" fill="#000000" fill-rule="evenodd" fill-opacity="1" /><path clip-path="url(#clip320)" d="M154.839 1071.17 L162.477 1071.17 L162.477 1044.8 L154.167 1046.47 L154.167 1042.21 L162.431 1040.54 L167.107 1040.54 L167.107 1071.17 L174.746 1071.17 L174.746 1075.1 L154.839 1075.1 L154.839 1071.17 Z" fill="#000000" fill-rule="evenodd" fill-opacity="1" /><path clip-path="url(#clip320)" d="M194.19 1043.62 Q190.579 1043.62 188.75 1047.19 Q186.945 1050.73 186.945 1057.86 Q186.945 1064.97 188.75 1068.53 Q190.579 1072.07 194.19 1072.07 Q197.825 1072.07 199.63 1068.53 Q201.459 1064.97 201.459 1057.86 Q201.459 1050.73 199.63 1047.19 Q197.825 1043.62 194.19 1043.62 M194.19 1039.92 Q200 1039.92 203.056 1044.53 Q206.135 1049.11 206.135 1057.86 Q206.135 1066.59 203.056 1071.19 Q200 1075.78 194.19 1075.78 Q188.38 1075.78 185.301 1071.19 Q182.246 1066.59 182.246 1057.86 Q182.246 1049.11 185.301 1044.53 Q188.38 1039.92 194.19 1039.92 Z" fill="#000000" fill-rule="evenodd" fill-opacity="1" /><path clip-path="url(#clip320)" d="M224.352 1043.62 Q220.741 1043.62 218.912 1047.19 Q217.107 1050.73 217.107 1057.86 Q217.107 1064.97 218.912 1068.53 Q220.741 1072.07 224.352 1072.07 Q227.986 1072.07 229.792 1068.53 Q231.621 1064.97 231.621 1057.86 Q231.621 1050.73 229.792 1047.19 Q227.986 1043.62 224.352 1043.62 M224.352 1039.92 Q230.162 1039.92 233.218 1044.53 Q236.297 1049.11 236.297 1057.86 Q236.297 1066.59 233.218 1071.19 Q230.162 1075.78 224.352 1075.78 Q218.542 1075.78 215.463 1071.19 Q212.408 1066.59 212.408 1057.86 Q212.408 1049.11 215.463 1044.53 Q218.542 1039.92 224.352 1039.92 Z" fill="#000000" fill-rule="evenodd" fill-opacity="1" /><path clip-path="url(#clip320)" d="M224.352 706.96 Q220.741 706.96 218.912 710.525 Q217.107 714.066 217.107 721.196 Q217.107 728.303 218.912 731.867 Q220.741 735.409 224.352 735.409 Q227.986 735.409 229.792 731.867 Q231.621 728.303 231.621 721.196 Q231.621 714.066 229.792 710.525 Q227.986 706.96 224.352 706.96 M224.352 703.256 Q230.162 703.256 233.218 707.863 Q236.297 712.446 236.297 721.196 Q236.297 729.923 233.218 734.529 Q230.162 739.113 224.352 739.113 Q218.542 739.113 215.463 734.529 Q212.408 729.923 212.408 721.196 Q212.408 712.446 215.463 707.863 Q218.542 703.256 224.352 703.256 Z" fill="#000000" fill-rule="evenodd" fill-opacity="1" /><path clip-path="url(#clip320)" d="M154.839 397.843 L162.477 397.843 L162.477 371.477 L154.167 373.144 L154.167 368.885 L162.431 367.218 L167.107 367.218 L167.107 397.843 L174.746 397.843 L174.746 401.778 L154.839 401.778 L154.839 397.843 Z" fill="#000000" fill-rule="evenodd" fill-opacity="1" /><path clip-path="url(#clip320)" d="M194.19 370.297 Q190.579 370.297 188.75 373.862 Q186.945 377.403 186.945 384.533 Q186.945 391.639 188.75 395.204 Q190.579 398.746 194.19 398.746 Q197.825 398.746 199.63 395.204 Q201.459 391.639 201.459 384.533 Q201.459 377.403 199.63 373.862 Q197.825 370.297 194.19 370.297 M194.19 366.593 Q200 366.593 203.056 371.2 Q206.135 375.783 206.135 384.533 Q206.135 393.26 203.056 397.866 Q200 402.449 194.19 402.449 Q188.38 402.449 185.301 397.866 Q182.246 393.26 182.246 384.533 Q182.246 375.783 185.301 371.2 Q188.38 366.593 194.19 366.593 Z" fill="#000000" fill-rule="evenodd" fill-opacity="1" /><path clip-path="url(#clip320)" d="M224.352 370.297 Q220.741 370.297 218.912 373.862 Q217.107 377.403 217.107 384.533 Q217.107 391.639 218.912 395.204 Q220.741 398.746 224.352 398.746 Q227.986 398.746 229.792 395.204 Q231.621 391.639 231.621 384.533 Q231.621 377.403 229.792 373.862 Q227.986 370.297 224.352 370.297 M224.352 366.593 Q230.162 366.593 233.218 371.2 Q236.297 375.783 236.297 384.533 Q236.297 393.26 233.218 397.866 Q230.162 402.449 224.352 402.449 Q218.542 402.449 215.463 397.866 Q212.408 393.26 212.408 384.533 Q212.408 375.783 215.463 371.2 Q218.542 366.593 224.352 366.593 Z" fill="#000000" fill-rule="evenodd" fill-opacity="1" /><path clip-path="url(#clip320)" d="M158.056 61.1797 L174.376 61.1797 L174.376 65.1149 L152.431 65.1149 L152.431 61.1797 Q155.093 58.4251 159.677 53.7955 Q164.283 49.1427 165.464 47.8001 Q167.709 45.277 168.589 43.5409 Q169.491 41.7817 169.491 40.0919 Q169.491 37.3372 167.547 35.6011 Q165.626 33.865 162.524 33.865 Q160.325 33.865 157.871 34.6289 Q155.44 35.3928 152.663 36.9437 L152.663 32.2215 Q155.487 31.0873 157.94 30.5086 Q160.394 29.9299 162.431 29.9299 Q167.802 29.9299 170.996 32.615 Q174.19 35.3002 174.19 39.7909 Q174.19 41.9206 173.38 43.8418 Q172.593 45.74 170.487 48.3326 Q169.908 49.0038 166.806 52.2214 Q163.704 55.4158 158.056 61.1797 Z" fill="#000000" fill-rule="evenodd" fill-opacity="1" /><path clip-path="url(#clip320)" d="M194.19 33.6336 Q190.579 33.6336 188.75 37.1984 Q186.945 40.74 186.945 47.8696 Q186.945 54.976 188.75 58.5408 Q190.579 62.0825 194.19 62.0825 Q197.825 62.0825 199.63 58.5408 Q201.459 54.976 201.459 47.8696 Q201.459 40.74 199.63 37.1984 Q197.825 33.6336 194.19 33.6336 M194.19 29.9299 Q200 29.9299 203.056 34.5363 Q206.135 39.1196 206.135 47.8696 Q206.135 56.5964 203.056 61.2029 Q200 65.7862 194.19 65.7862 Q188.38 65.7862 185.301 61.2029 Q182.246 56.5964 182.246 47.8696 Q182.246 39.1196 185.301 34.5363 Q188.38 29.9299 194.19 29.9299 Z" fill="#000000" fill-rule="evenodd" fill-opacity="1" /><path clip-path="url(#clip320)" d="M224.352 33.6336 Q220.741 33.6336 218.912 37.1984 Q217.107 40.74 217.107 47.8696 Q217.107 54.976 218.912 58.5408 Q220.741 62.0825 224.352 62.0825 Q227.986 62.0825 229.792 58.5408 Q231.621 54.976 231.621 47.8696 Q231.621 40.74 229.792 37.1984 Q227.986 33.6336 224.352 33.6336 M224.352 29.9299 Q230.162 29.9299 233.218 34.5363 Q236.297 39.1196 236.297 47.8696 Q236.297 56.5964 233.218 61.2029 Q230.162 65.7862 224.352 65.7862 Q218.542 65.7862 215.463 61.2029 Q212.408 56.5964 212.408 47.8696 Q212.408 39.1196 215.463 34.5363 Q218.542 29.9299 224.352 29.9299 Z" fill="#000000" fill-rule="evenodd" fill-opacity="1" /><path clip-path="url(#clip320)" d="M67.3143 733.525 Q73.68 736.008 75.6216 738.363 Q77.5631 740.718 77.5631 744.665 L77.5631 749.344 L72.6615 749.344 L72.6615 745.906 Q72.6615 743.487 71.5157 742.151 Q70.3699 740.814 66.1048 739.191 L63.4312 738.14 L28.3562 752.559 L28.3562 746.352 L56.238 735.212 L28.3562 724.072 L28.3562 717.865 L67.3143 733.525 Z" fill="#000000" fill-rule="evenodd" fill-opacity="1" /><polyline clip-path="url(#clip322)" style="stroke:#009af9; stroke-linecap:round; stroke-linejoin:round; stroke-width:4; stroke-opacity:1; fill:none" points="
  2217.69,291.487 2138.18,319.884 1893.65,264.912 1708.85,276.692 1529.87,535.525 1525.92,550.426 1467.87,614.304 1400.45,602.637 1285.86,675.564 1079.67,472.911 
  1024.88,364.849 1039.3,318.965 1085.52,259.33 1409.23,151.244 1439.17,223.286 1474.32,245.771 1489.05,228.227 1446.09,86.1857 1211.61,92.2507 1165.56,148.538 
  1149.48,138.024 963.189,188.52 717.747,188.338 565.057,143.587 444.435,160.047 373.266,681.914 353.012,909.542 357.983,923.681 378.647,1097.93 367.641,1353.14 
  439.017,1384.24 468.715,1378.29 594.271,1371.81 922.621,1365.47 1177.03,1206.35 1123.16,1110.81 1118.38,980.355 1209.74,907.08 1064.67,635.168 1041.96,612.189 
  994.027,460.353 855.439,453.508 524.457,560.202 483.244,1260.76 525.764,1269.16 635.155,1322.9 820.976,1280.76 1405,1370.29 1418.18,1285.32 1620.92,1274.02 
  1796.59,1120.72 1863.01,1005.89 1792.37,711.664 1627.83,646.368 1672.93,486.322 2021.41,403.799 2122.73,453.544 2169.51,593.179 2272.04,1064.11 2202.17,1206.94 
  
  "/>
<circle clip-path="url(#clip322)" cx="2217.69" cy="291.487" r="7.2" fill="#009af9" fill-rule="evenodd" fill-opacity="1" stroke="#000000" stroke-opacity="1" stroke-width="3.2"/>
<circle clip-path="url(#clip322)" cx="2138.18" cy="319.884" r="7.2" fill="#009af9" fill-rule="evenodd" fill-opacity="1" stroke="#000000" stroke-opacity="1" stroke-width="3.2"/>
<circle clip-path="url(#clip322)" cx="1893.65" cy="264.912" r="7.2" fill="#009af9" fill-rule="evenodd" fill-opacity="1" stroke="#000000" stroke-opacity="1" stroke-width="3.2"/>
<circle clip-path="url(#clip322)" cx="1708.85" cy="276.692" r="7.2" fill="#009af9" fill-rule="evenodd" fill-opacity="1" stroke="#000000" stroke-opacity="1" stroke-width="3.2"/>
<circle clip-path="url(#clip322)" cx="1529.87" cy="535.525" r="7.2" fill="#009af9" fill-rule="evenodd" fill-opacity="1" stroke="#000000" stroke-opacity="1" stroke-width="3.2"/>
<circle clip-path="url(#clip322)" cx="1525.92" cy="550.426" r="7.2" fill="#009af9" fill-rule="evenodd" fill-opacity="1" stroke="#000000" stroke-opacity="1" stroke-width="3.2"/>
<circle clip-path="url(#clip322)" cx="1467.87" cy="614.304" r="7.2" fill="#009af9" fill-rule="evenodd" fill-opacity="1" stroke="#000000" stroke-opacity="1" stroke-width="3.2"/>
<circle clip-path="url(#clip322)" cx="1400.45" cy="602.637" r="7.2" fill="#009af9" fill-rule="evenodd" fill-opacity="1" stroke="#000000" stroke-opacity="1" stroke-width="3.2"/>
<circle clip-path="url(#clip322)" cx="1285.86" cy="675.564" r="7.2" fill="#009af9" fill-rule="evenodd" fill-opacity="1" stroke="#000000" stroke-opacity="1" stroke-width="3.2"/>
<circle clip-path="url(#clip322)" cx="1079.67" cy="472.911" r="7.2" fill="#009af9" fill-rule="evenodd" fill-opacity="1" stroke="#000000" stroke-opacity="1" stroke-width="3.2"/>
<circle clip-path="url(#clip322)" cx="1024.88" cy="364.849" r="7.2" fill="#009af9" fill-rule="evenodd" fill-opacity="1" stroke="#000000" stroke-opacity="1" stroke-width="3.2"/>
<circle clip-path="url(#clip322)" cx="1039.3" cy="318.965" r="7.2" fill="#009af9" fill-rule="evenodd" fill-opacity="1" stroke="#000000" stroke-opacity="1" stroke-width="3.2"/>
<circle clip-path="url(#clip322)" cx="1085.52" cy="259.33" r="7.2" fill="#009af9" fill-rule="evenodd" fill-opacity="1" stroke="#000000" stroke-opacity="1" stroke-width="3.2"/>
<circle clip-path="url(#clip322)" cx="1409.23" cy="151.244" r="7.2" fill="#009af9" fill-rule="evenodd" fill-opacity="1" stroke="#000000" stroke-opacity="1" stroke-width="3.2"/>
<circle clip-path="url(#clip322)" cx="1439.17" cy="223.286" r="7.2" fill="#009af9" fill-rule="evenodd" fill-opacity="1" stroke="#000000" stroke-opacity="1" stroke-width="3.2"/>
<circle clip-path="url(#clip322)" cx="1474.32" cy="245.771" r="7.2" fill="#009af9" fill-rule="evenodd" fill-opacity="1" stroke="#000000" stroke-opacity="1" stroke-width="3.2"/>
<circle clip-path="url(#clip322)" cx="1489.05" cy="228.227" r="7.2" fill="#009af9" fill-rule="evenodd" fill-opacity="1" stroke="#000000" stroke-opacity="1" stroke-width="3.2"/>
<circle clip-path="url(#clip322)" cx="1446.09" cy="86.1857" r="7.2" fill="#009af9" fill-rule="evenodd" fill-opacity="1" stroke="#000000" stroke-opacity="1" stroke-width="3.2"/>
<circle clip-path="url(#clip322)" cx="1211.61" cy="92.2507" r="7.2" fill="#009af9" fill-rule="evenodd" fill-opacity="1" stroke="#000000" stroke-opacity="1" stroke-width="3.2"/>
<circle clip-path="url(#clip322)" cx="1165.56" cy="148.538" r="7.2" fill="#009af9" fill-rule="evenodd" fill-opacity="1" stroke="#000000" stroke-opacity="1" stroke-width="3.2"/>
<circle clip-path="url(#clip322)" cx="1149.48" cy="138.024" r="7.2" fill="#009af9" fill-rule="evenodd" fill-opacity="1" stroke="#000000" stroke-opacity="1" stroke-width="3.2"/>
<circle clip-path="url(#clip322)" cx="963.189" cy="188.52" r="7.2" fill="#009af9" fill-rule="evenodd" fill-opacity="1" stroke="#000000" stroke-opacity="1" stroke-width="3.2"/>
<circle clip-path="url(#clip322)" cx="717.747" cy="188.338" r="7.2" fill="#009af9" fill-rule="evenodd" fill-opacity="1" stroke="#000000" stroke-opacity="1" stroke-width="3.2"/>
<circle clip-path="url(#clip322)" cx="565.057" cy="143.587" r="7.2" fill="#009af9" fill-rule="evenodd" fill-opacity="1" stroke="#000000" stroke-opacity="1" stroke-width="3.2"/>
<circle clip-path="url(#clip322)" cx="444.435" cy="160.047" r="7.2" fill="#009af9" fill-rule="evenodd" fill-opacity="1" stroke="#000000" stroke-opacity="1" stroke-width="3.2"/>
<circle clip-path="url(#clip322)" cx="373.266" cy="681.914" r="7.2" fill="#009af9" fill-rule="evenodd" fill-opacity="1" stroke="#000000" stroke-opacity="1" stroke-width="3.2"/>
<circle clip-path="url(#clip322)" cx="353.012" cy="909.542" r="7.2" fill="#009af9" fill-rule="evenodd" fill-opacity="1" stroke="#000000" stroke-opacity="1" stroke-width="3.2"/>
<circle clip-path="url(#clip322)" cx="357.983" cy="923.681" r="7.2" fill="#009af9" fill-rule="evenodd" fill-opacity="1" stroke="#000000" stroke-opacity="1" stroke-width="3.2"/>
<circle clip-path="url(#clip322)" cx="378.647" cy="1097.93" r="7.2" fill="#009af9" fill-rule="evenodd" fill-opacity="1" stroke="#000000" stroke-opacity="1" stroke-width="3.2"/>
<circle clip-path="url(#clip322)" cx="367.641" cy="1353.14" r="7.2" fill="#009af9" fill-rule="evenodd" fill-opacity="1" stroke="#000000" stroke-opacity="1" stroke-width="3.2"/>
<circle clip-path="url(#clip322)" cx="439.017" cy="1384.24" r="7.2" fill="#009af9" fill-rule="evenodd" fill-opacity="1" stroke="#000000" stroke-opacity="1" stroke-width="3.2"/>
<circle clip-path="url(#clip322)" cx="468.715" cy="1378.29" r="7.2" fill="#009af9" fill-rule="evenodd" fill-opacity="1" stroke="#000000" stroke-opacity="1" stroke-width="3.2"/>
<circle clip-path="url(#clip322)" cx="594.271" cy="1371.81" r="7.2" fill="#009af9" fill-rule="evenodd" fill-opacity="1" stroke="#000000" stroke-opacity="1" stroke-width="3.2"/>
<circle clip-path="url(#clip322)" cx="922.621" cy="1365.47" r="7.2" fill="#009af9" fill-rule="evenodd" fill-opacity="1" stroke="#000000" stroke-opacity="1" stroke-width="3.2"/>
<circle clip-path="url(#clip322)" cx="1177.03" cy="1206.35" r="7.2" fill="#009af9" fill-rule="evenodd" fill-opacity="1" stroke="#000000" stroke-opacity="1" stroke-width="3.2"/>
<circle clip-path="url(#clip322)" cx="1123.16" cy="1110.81" r="7.2" fill="#009af9" fill-rule="evenodd" fill-opacity="1" stroke="#000000" stroke-opacity="1" stroke-width="3.2"/>
<circle clip-path="url(#clip322)" cx="1118.38" cy="980.355" r="7.2" fill="#009af9" fill-rule="evenodd" fill-opacity="1" stroke="#000000" stroke-opacity="1" stroke-width="3.2"/>
<circle clip-path="url(#clip322)" cx="1209.74" cy="907.08" r="7.2" fill="#009af9" fill-rule="evenodd" fill-opacity="1" stroke="#000000" stroke-opacity="1" stroke-width="3.2"/>
<circle clip-path="url(#clip322)" cx="1064.67" cy="635.168" r="7.2" fill="#009af9" fill-rule="evenodd" fill-opacity="1" stroke="#000000" stroke-opacity="1" stroke-width="3.2"/>
<circle clip-path="url(#clip322)" cx="1041.96" cy="612.189" r="7.2" fill="#009af9" fill-rule="evenodd" fill-opacity="1" stroke="#000000" stroke-opacity="1" stroke-width="3.2"/>
<circle clip-path="url(#clip322)" cx="994.027" cy="460.353" r="7.2" fill="#009af9" fill-rule="evenodd" fill-opacity="1" stroke="#000000" stroke-opacity="1" stroke-width="3.2"/>
<circle clip-path="url(#clip322)" cx="855.439" cy="453.508" r="7.2" fill="#009af9" fill-rule="evenodd" fill-opacity="1" stroke="#000000" stroke-opacity="1" stroke-width="3.2"/>
<circle clip-path="url(#clip322)" cx="524.457" cy="560.202" r="7.2" fill="#009af9" fill-rule="evenodd" fill-opacity="1" stroke="#000000" stroke-opacity="1" stroke-width="3.2"/>
<circle clip-path="url(#clip322)" cx="483.244" cy="1260.76" r="7.2" fill="#009af9" fill-rule="evenodd" fill-opacity="1" stroke="#000000" stroke-opacity="1" stroke-width="3.2"/>
<circle clip-path="url(#clip322)" cx="525.764" cy="1269.16" r="7.2" fill="#009af9" fill-rule="evenodd" fill-opacity="1" stroke="#000000" stroke-opacity="1" stroke-width="3.2"/>
<circle clip-path="url(#clip322)" cx="635.155" cy="1322.9" r="7.2" fill="#009af9" fill-rule="evenodd" fill-opacity="1" stroke="#000000" stroke-opacity="1" stroke-width="3.2"/>
<circle clip-path="url(#clip322)" cx="820.976" cy="1280.76" r="7.2" fill="#009af9" fill-rule="evenodd" fill-opacity="1" stroke="#000000" stroke-opacity="1" stroke-width="3.2"/>
<circle clip-path="url(#clip322)" cx="1405" cy="1370.29" r="7.2" fill="#009af9" fill-rule="evenodd" fill-opacity="1" stroke="#000000" stroke-opacity="1" stroke-width="3.2"/>
<circle clip-path="url(#clip322)" cx="1418.18" cy="1285.32" r="7.2" fill="#009af9" fill-rule="evenodd" fill-opacity="1" stroke="#000000" stroke-opacity="1" stroke-width="3.2"/>
<circle clip-path="url(#clip322)" cx="1620.92" cy="1274.02" r="7.2" fill="#009af9" fill-rule="evenodd" fill-opacity="1" stroke="#000000" stroke-opacity="1" stroke-width="3.2"/>
<circle clip-path="url(#clip322)" cx="1796.59" cy="1120.72" r="7.2" fill="#009af9" fill-rule="evenodd" fill-opacity="1" stroke="#000000" stroke-opacity="1" stroke-width="3.2"/>
<circle clip-path="url(#clip322)" cx="1863.01" cy="1005.89" r="7.2" fill="#009af9" fill-rule="evenodd" fill-opacity="1" stroke="#000000" stroke-opacity="1" stroke-width="3.2"/>
<circle clip-path="url(#clip322)" cx="1792.37" cy="711.664" r="7.2" fill="#009af9" fill-rule="evenodd" fill-opacity="1" stroke="#000000" stroke-opacity="1" stroke-width="3.2"/>
<circle clip-path="url(#clip322)" cx="1627.83" cy="646.368" r="7.2" fill="#009af9" fill-rule="evenodd" fill-opacity="1" stroke="#000000" stroke-opacity="1" stroke-width="3.2"/>
<circle clip-path="url(#clip322)" cx="1672.93" cy="486.322" r="7.2" fill="#009af9" fill-rule="evenodd" fill-opacity="1" stroke="#000000" stroke-opacity="1" stroke-width="3.2"/>
<circle clip-path="url(#clip322)" cx="2021.41" cy="403.799" r="7.2" fill="#009af9" fill-rule="evenodd" fill-opacity="1" stroke="#000000" stroke-opacity="1" stroke-width="3.2"/>
<circle clip-path="url(#clip322)" cx="2122.73" cy="453.544" r="7.2" fill="#009af9" fill-rule="evenodd" fill-opacity="1" stroke="#000000" stroke-opacity="1" stroke-width="3.2"/>
<circle clip-path="url(#clip322)" cx="2169.51" cy="593.179" r="7.2" fill="#009af9" fill-rule="evenodd" fill-opacity="1" stroke="#000000" stroke-opacity="1" stroke-width="3.2"/>
<circle clip-path="url(#clip322)" cx="2272.04" cy="1064.11" r="7.2" fill="#009af9" fill-rule="evenodd" fill-opacity="1" stroke="#000000" stroke-opacity="1" stroke-width="3.2"/>
<circle clip-path="url(#clip322)" cx="2202.17" cy="1206.94" r="7.2" fill="#009af9" fill-rule="evenodd" fill-opacity="1" stroke="#000000" stroke-opacity="1" stroke-width="3.2"/>
</svg>
