<?xml version="1.0" encoding="utf-8"?>
<svg xmlns="http://www.w3.org/2000/svg" xmlns:xlink="http://www.w3.org/1999/xlink" width="600" height="400" viewBox="0 0 2400 1600">
<defs>
  <clipPath id="clip230">
    <rect x="0" y="0" width="2400" height="1600"/>
  </clipPath>
</defs>
<path clip-path="url(#clip230)" d="
M0 1600 L2400 1600 L2400 0 L0 0  Z
  " fill="#ffffff" fill-rule="evenodd" fill-opacity="1"/>
<defs>
  <clipPath id="clip231">
    <rect x="480" y="0" width="1681" height="1600"/>
  </clipPath>
</defs>
<path clip-path="url(#clip230)" d="
M272.297 1423.18 L2352.76 1423.18 L2352.76 47.2441 L272.297 47.2441  Z
  " fill="#ffffff" fill-rule="evenodd" fill-opacity="1"/>
<defs>
  <clipPath id="clip232">
    <rect x="272" y="47" width="2081" height="1377"/>
  </clipPath>
</defs>
<polyline clip-path="url(#clip232)" style="stroke:#000000; stroke-linecap:round; stroke-linejoin:round; stroke-width:2; stroke-opacity:0.1; fill:none" points="
  338.987,1423.18 338.987,47.2441 
  "/>
<polyline clip-path="url(#clip232)" style="stroke:#000000; stroke-linecap:round; stroke-linejoin:round; stroke-width:2; stroke-opacity:0.1; fill:none" points="
  663.5,1423.18 663.5,47.2441 
  "/>
<polyline clip-path="url(#clip232)" style="stroke:#000000; stroke-linecap:round; stroke-linejoin:round; stroke-width:2; stroke-opacity:0.1; fill:none" points="
  988.013,1423.18 988.013,47.2441 
  "/>
<polyline clip-path="url(#clip232)" style="stroke:#000000; stroke-linecap:round; stroke-linejoin:round; stroke-width:2; stroke-opacity:0.1; fill:none" points="
  1312.53,1423.18 1312.53,47.2441 
  "/>
<polyline clip-path="url(#clip232)" style="stroke:#000000; stroke-linecap:round; stroke-linejoin:round; stroke-width:2; stroke-opacity:0.1; fill:none" points="
  1637.04,1423.18 1637.04,47.2441 
  "/>
<polyline clip-path="url(#clip232)" style="stroke:#000000; stroke-linecap:round; stroke-linejoin:round; stroke-width:2; stroke-opacity:0.1; fill:none" points="
  1961.55,1423.18 1961.55,47.2441 
  "/>
<polyline clip-path="url(#clip232)" style="stroke:#000000; stroke-linecap:round; stroke-linejoin:round; stroke-width:2; stroke-opacity:0.1; fill:none" points="
  2286.07,1423.18 2286.07,47.2441 
  "/>
<polyline clip-path="url(#clip230)" style="stroke:#000000; stroke-linecap:round; stroke-linejoin:round; stroke-width:4; stroke-opacity:1; fill:none" points="
  272.297,1423.18 2352.76,1423.18 
  "/>
<polyline clip-path="url(#clip230)" style="stroke:#000000; stroke-linecap:round; stroke-linejoin:round; stroke-width:4; stroke-opacity:1; fill:none" points="
  338.987,1423.18 338.987,1404.28 
  "/>
<polyline clip-path="url(#clip230)" style="stroke:#000000; stroke-linecap:round; stroke-linejoin:round; stroke-width:4; stroke-opacity:1; fill:none" points="
  663.5,1423.18 663.5,1404.28 
  "/>
<polyline clip-path="url(#clip230)" style="stroke:#000000; stroke-linecap:round; stroke-linejoin:round; stroke-width:4; stroke-opacity:1; fill:none" points="
  988.013,1423.18 988.013,1404.28 
  "/>
<polyline clip-path="url(#clip230)" style="stroke:#000000; stroke-linecap:round; stroke-linejoin:round; stroke-width:4; stroke-opacity:1; fill:none" points="
  1312.53,1423.18 1312.53,1404.28 
  "/>
<polyline clip-path="url(#clip230)" style="stroke:#000000; stroke-linecap:round; stroke-linejoin:round; stroke-width:4; stroke-opacity:1; fill:none" points="
  1637.04,1423.18 1637.04,1404.28 
  "/>
<polyline clip-path="url(#clip230)" style="stroke:#000000; stroke-linecap:round; stroke-linejoin:round; stroke-width:4; stroke-opacity:1; fill:none" points="
  1961.55,1423.18 1961.55,1404.28 
  "/>
<polyline clip-path="url(#clip230)" style="stroke:#000000; stroke-linecap:round; stroke-linejoin:round; stroke-width:4; stroke-opacity:1; fill:none" points="
  2286.07,1423.18 2286.07,1404.28 
  "/>
<path clip-path="url(#clip230)" d="M277.969 1468.75 L307.644 1468.75 L307.644 1472.69 L277.969 1472.69 L277.969 1468.75 Z" fill="#000000" fill-rule="evenodd" fill-opacity="1" /><path clip-path="url(#clip230)" d="M331.903 1466.95 Q335.26 1467.66 337.135 1469.93 Q339.033 1472.2 339.033 1475.53 Q339.033 1480.65 335.515 1483.45 Q331.996 1486.25 325.515 1486.25 Q323.339 1486.25 321.024 1485.81 Q318.732 1485.39 316.279 1484.54 L316.279 1480.02 Q318.223 1481.16 320.538 1481.74 Q322.853 1482.32 325.376 1482.32 Q329.774 1482.32 332.066 1480.58 Q334.38 1478.84 334.38 1475.53 Q334.38 1472.48 332.228 1470.77 Q330.098 1469.03 326.279 1469.03 L322.251 1469.03 L322.251 1465.19 L326.464 1465.19 Q329.913 1465.19 331.741 1463.82 Q333.57 1462.43 333.57 1459.84 Q333.57 1457.18 331.672 1455.77 Q329.797 1454.33 326.279 1454.33 Q324.357 1454.33 322.158 1454.75 Q319.959 1455.16 317.32 1456.04 L317.32 1451.88 Q319.982 1451.14 322.297 1450.77 Q324.635 1450.39 326.695 1450.39 Q332.019 1450.39 335.121 1452.83 Q338.223 1455.23 338.223 1459.35 Q338.223 1462.22 336.579 1464.21 Q334.936 1466.18 331.903 1466.95 Z" fill="#000000" fill-rule="evenodd" fill-opacity="1" /><path clip-path="url(#clip230)" d="M357.899 1454.1 Q354.288 1454.1 352.459 1457.66 Q350.653 1461.2 350.653 1468.33 Q350.653 1475.44 352.459 1479.01 Q354.288 1482.55 357.899 1482.55 Q361.533 1482.55 363.339 1479.01 Q365.167 1475.44 365.167 1468.33 Q365.167 1461.2 363.339 1457.66 Q361.533 1454.1 357.899 1454.1 M357.899 1450.39 Q363.709 1450.39 366.764 1455 Q369.843 1459.58 369.843 1468.33 Q369.843 1477.06 366.764 1481.67 Q363.709 1486.25 357.899 1486.25 Q352.089 1486.25 349.01 1481.67 Q345.954 1477.06 345.954 1468.33 Q345.954 1459.58 349.01 1455 Q352.089 1450.39 357.899 1450.39 Z" fill="#000000" fill-rule="evenodd" fill-opacity="1" /><path clip-path="url(#clip230)" d="M388.061 1454.1 Q384.449 1454.1 382.621 1457.66 Q380.815 1461.2 380.815 1468.33 Q380.815 1475.44 382.621 1479.01 Q384.449 1482.55 388.061 1482.55 Q391.695 1482.55 393.5 1479.01 Q395.329 1475.44 395.329 1468.33 Q395.329 1461.2 393.5 1457.66 Q391.695 1454.1 388.061 1454.1 M388.061 1450.39 Q393.871 1450.39 396.926 1455 Q400.005 1459.58 400.005 1468.33 Q400.005 1477.06 396.926 1481.67 Q393.871 1486.25 388.061 1486.25 Q382.25 1486.25 379.172 1481.67 Q376.116 1477.06 376.116 1468.33 Q376.116 1459.58 379.172 1455 Q382.25 1450.39 388.061 1450.39 Z" fill="#000000" fill-rule="evenodd" fill-opacity="1" /><path clip-path="url(#clip230)" d="M602.482 1468.75 L632.158 1468.75 L632.158 1472.69 L602.482 1472.69 L602.482 1468.75 Z" fill="#000000" fill-rule="evenodd" fill-opacity="1" /><path clip-path="url(#clip230)" d="M646.278 1481.64 L662.597 1481.64 L662.597 1485.58 L640.653 1485.58 L640.653 1481.64 Q643.315 1478.89 647.898 1474.26 Q652.505 1469.61 653.685 1468.27 Q655.931 1465.74 656.81 1464.01 Q657.713 1462.25 657.713 1460.56 Q657.713 1457.8 655.768 1456.07 Q653.847 1454.33 650.745 1454.33 Q648.546 1454.33 646.093 1455.09 Q643.662 1455.86 640.884 1457.41 L640.884 1452.69 Q643.708 1451.55 646.162 1450.97 Q648.616 1450.39 650.653 1450.39 Q656.023 1450.39 659.218 1453.08 Q662.412 1455.77 662.412 1460.26 Q662.412 1462.39 661.602 1464.31 Q660.815 1466.2 658.708 1468.8 Q658.13 1469.47 655.028 1472.69 Q651.926 1475.88 646.278 1481.64 Z" fill="#000000" fill-rule="evenodd" fill-opacity="1" /><path clip-path="url(#clip230)" d="M682.412 1454.1 Q678.801 1454.1 676.972 1457.66 Q675.167 1461.2 675.167 1468.33 Q675.167 1475.44 676.972 1479.01 Q678.801 1482.55 682.412 1482.55 Q686.046 1482.55 687.852 1479.01 Q689.68 1475.44 689.68 1468.33 Q689.68 1461.2 687.852 1457.66 Q686.046 1454.1 682.412 1454.1 M682.412 1450.39 Q688.222 1450.39 691.278 1455 Q694.356 1459.58 694.356 1468.33 Q694.356 1477.06 691.278 1481.67 Q688.222 1486.25 682.412 1486.25 Q676.602 1486.25 673.523 1481.67 Q670.467 1477.06 670.467 1468.33 Q670.467 1459.58 673.523 1455 Q676.602 1450.39 682.412 1450.39 Z" fill="#000000" fill-rule="evenodd" fill-opacity="1" /><path clip-path="url(#clip230)" d="M712.574 1454.1 Q708.963 1454.1 707.134 1457.66 Q705.328 1461.2 705.328 1468.33 Q705.328 1475.44 707.134 1479.01 Q708.963 1482.55 712.574 1482.55 Q716.208 1482.55 718.014 1479.01 Q719.842 1475.44 719.842 1468.33 Q719.842 1461.2 718.014 1457.66 Q716.208 1454.1 712.574 1454.1 M712.574 1450.39 Q718.384 1450.39 721.439 1455 Q724.518 1459.58 724.518 1468.33 Q724.518 1477.06 721.439 1481.67 Q718.384 1486.25 712.574 1486.25 Q706.764 1486.25 703.685 1481.67 Q700.629 1477.06 700.629 1468.33 Q700.629 1459.58 703.685 1455 Q706.764 1450.39 712.574 1450.39 Z" fill="#000000" fill-rule="evenodd" fill-opacity="1" /><path clip-path="url(#clip230)" d="M926.995 1468.75 L956.671 1468.75 L956.671 1472.69 L926.995 1472.69 L926.995 1468.75 Z" fill="#000000" fill-rule="evenodd" fill-opacity="1" /><path clip-path="url(#clip230)" d="M967.573 1481.64 L975.212 1481.64 L975.212 1455.28 L966.902 1456.95 L966.902 1452.69 L975.166 1451.02 L979.842 1451.02 L979.842 1481.64 L987.481 1481.64 L987.481 1485.58 L967.573 1485.58 L967.573 1481.64 Z" fill="#000000" fill-rule="evenodd" fill-opacity="1" /><path clip-path="url(#clip230)" d="M1006.93 1454.1 Q1003.31 1454.1 1001.49 1457.66 Q999.68 1461.2 999.68 1468.33 Q999.68 1475.44 1001.49 1479.01 Q1003.31 1482.55 1006.93 1482.55 Q1010.56 1482.55 1012.36 1479.01 Q1014.19 1475.44 1014.19 1468.33 Q1014.19 1461.2 1012.36 1457.66 Q1010.56 1454.1 1006.93 1454.1 M1006.93 1450.39 Q1012.74 1450.39 1015.79 1455 Q1018.87 1459.58 1018.87 1468.33 Q1018.87 1477.06 1015.79 1481.67 Q1012.74 1486.25 1006.93 1486.25 Q1001.11 1486.25 998.036 1481.67 Q994.981 1477.06 994.981 1468.33 Q994.981 1459.58 998.036 1455 Q1001.11 1450.39 1006.93 1450.39 Z" fill="#000000" fill-rule="evenodd" fill-opacity="1" /><path clip-path="url(#clip230)" d="M1037.09 1454.1 Q1033.48 1454.1 1031.65 1457.66 Q1029.84 1461.2 1029.84 1468.33 Q1029.84 1475.44 1031.65 1479.01 Q1033.48 1482.55 1037.09 1482.55 Q1040.72 1482.55 1042.53 1479.01 Q1044.36 1475.44 1044.36 1468.33 Q1044.36 1461.2 1042.53 1457.66 Q1040.72 1454.1 1037.09 1454.1 M1037.09 1450.39 Q1042.9 1450.39 1045.95 1455 Q1049.03 1459.58 1049.03 1468.33 Q1049.03 1477.06 1045.95 1481.67 Q1042.9 1486.25 1037.09 1486.25 Q1031.28 1486.25 1028.2 1481.67 Q1025.14 1477.06 1025.14 1468.33 Q1025.14 1459.58 1028.2 1455 Q1031.28 1450.39 1037.09 1450.39 Z" fill="#000000" fill-rule="evenodd" fill-opacity="1" /><path clip-path="url(#clip230)" d="M1312.53 1454.1 Q1308.92 1454.1 1307.09 1457.66 Q1305.28 1461.2 1305.28 1468.33 Q1305.28 1475.44 1307.09 1479.01 Q1308.92 1482.55 1312.53 1482.55 Q1316.16 1482.55 1317.97 1479.01 Q1319.79 1475.44 1319.79 1468.33 Q1319.79 1461.2 1317.97 1457.66 Q1316.16 1454.1 1312.53 1454.1 M1312.53 1450.39 Q1318.34 1450.39 1321.39 1455 Q1324.47 1459.58 1324.47 1468.33 Q1324.47 1477.06 1321.39 1481.67 Q1318.34 1486.25 1312.53 1486.25 Q1306.72 1486.25 1303.64 1481.67 Q1300.58 1477.06 1300.58 1468.33 Q1300.58 1459.58 1303.64 1455 Q1306.72 1450.39 1312.53 1450.39 Z" fill="#000000" fill-rule="evenodd" fill-opacity="1" /><path clip-path="url(#clip230)" d="M1596.65 1481.64 L1604.28 1481.64 L1604.28 1455.28 L1595.97 1456.95 L1595.97 1452.69 L1604.24 1451.02 L1608.91 1451.02 L1608.91 1481.64 L1616.55 1481.64 L1616.55 1485.58 L1596.65 1485.58 L1596.65 1481.64 Z" fill="#000000" fill-rule="evenodd" fill-opacity="1" /><path clip-path="url(#clip230)" d="M1636 1454.1 Q1632.39 1454.1 1630.56 1457.66 Q1628.75 1461.2 1628.75 1468.33 Q1628.75 1475.44 1630.56 1479.01 Q1632.39 1482.55 1636 1482.55 Q1639.63 1482.55 1641.44 1479.01 Q1643.27 1475.44 1643.27 1468.33 Q1643.27 1461.2 1641.44 1457.66 Q1639.63 1454.1 1636 1454.1 M1636 1450.39 Q1641.81 1450.39 1644.86 1455 Q1647.94 1459.58 1647.94 1468.33 Q1647.94 1477.06 1644.86 1481.67 Q1641.81 1486.25 1636 1486.25 Q1630.19 1486.25 1627.11 1481.67 Q1624.05 1477.06 1624.05 1468.33 Q1624.05 1459.58 1627.11 1455 Q1630.19 1450.39 1636 1450.39 Z" fill="#000000" fill-rule="evenodd" fill-opacity="1" /><path clip-path="url(#clip230)" d="M1666.16 1454.1 Q1662.55 1454.1 1660.72 1457.66 Q1658.91 1461.2 1658.91 1468.33 Q1658.91 1475.44 1660.72 1479.01 Q1662.55 1482.55 1666.16 1482.55 Q1669.79 1482.55 1671.6 1479.01 Q1673.43 1475.44 1673.43 1468.33 Q1673.43 1461.2 1671.6 1457.66 Q1669.79 1454.1 1666.16 1454.1 M1666.16 1450.39 Q1671.97 1450.39 1675.03 1455 Q1678.1 1459.58 1678.1 1468.33 Q1678.1 1477.06 1675.03 1481.67 Q1671.97 1486.25 1666.16 1486.25 Q1660.35 1486.25 1657.27 1481.67 Q1654.22 1477.06 1654.22 1468.33 Q1654.22 1459.58 1657.27 1455 Q1660.35 1450.39 1666.16 1450.39 Z" fill="#000000" fill-rule="evenodd" fill-opacity="1" /><path clip-path="url(#clip230)" d="M1925.24 1481.64 L1941.56 1481.64 L1941.56 1485.58 L1919.62 1485.58 L1919.62 1481.64 Q1922.28 1478.89 1926.87 1474.26 Q1931.47 1469.61 1932.65 1468.27 Q1934.9 1465.74 1935.78 1464.01 Q1936.68 1462.25 1936.68 1460.56 Q1936.68 1457.8 1934.74 1456.07 Q1932.81 1454.33 1929.71 1454.33 Q1927.51 1454.33 1925.06 1455.09 Q1922.63 1455.86 1919.85 1457.41 L1919.85 1452.69 Q1922.68 1451.55 1925.13 1450.97 Q1927.58 1450.39 1929.62 1450.39 Q1934.99 1450.39 1938.18 1453.08 Q1941.38 1455.77 1941.38 1460.26 Q1941.38 1462.39 1940.57 1464.31 Q1939.78 1466.2 1937.68 1468.8 Q1937.1 1469.47 1933.99 1472.69 Q1930.89 1475.88 1925.24 1481.64 Z" fill="#000000" fill-rule="evenodd" fill-opacity="1" /><path clip-path="url(#clip230)" d="M1961.38 1454.1 Q1957.77 1454.1 1955.94 1457.66 Q1954.13 1461.2 1954.13 1468.33 Q1954.13 1475.44 1955.94 1479.01 Q1957.77 1482.55 1961.38 1482.55 Q1965.01 1482.55 1966.82 1479.01 Q1968.65 1475.44 1968.65 1468.33 Q1968.65 1461.2 1966.82 1457.66 Q1965.01 1454.1 1961.38 1454.1 M1961.38 1450.39 Q1967.19 1450.39 1970.24 1455 Q1973.32 1459.58 1973.32 1468.33 Q1973.32 1477.06 1970.24 1481.67 Q1967.19 1486.25 1961.38 1486.25 Q1955.57 1486.25 1952.49 1481.67 Q1949.43 1477.06 1949.43 1468.33 Q1949.43 1459.58 1952.49 1455 Q1955.57 1450.39 1961.38 1450.39 Z" fill="#000000" fill-rule="evenodd" fill-opacity="1" /><path clip-path="url(#clip230)" d="M1991.54 1454.1 Q1987.93 1454.1 1986.1 1457.66 Q1984.3 1461.2 1984.3 1468.33 Q1984.3 1475.44 1986.1 1479.01 Q1987.93 1482.55 1991.54 1482.55 Q1995.18 1482.55 1996.98 1479.01 Q1998.81 1475.44 1998.81 1468.33 Q1998.81 1461.2 1996.98 1457.66 Q1995.18 1454.1 1991.54 1454.1 M1991.54 1450.39 Q1997.35 1450.39 2000.41 1455 Q2003.49 1459.58 2003.49 1468.33 Q2003.49 1477.06 2000.41 1481.67 Q1997.35 1486.25 1991.54 1486.25 Q1985.73 1486.25 1982.65 1481.67 Q1979.6 1477.06 1979.6 1468.33 Q1979.6 1459.58 1982.65 1455 Q1985.73 1450.39 1991.54 1450.39 Z" fill="#000000" fill-rule="evenodd" fill-opacity="1" /><path clip-path="url(#clip230)" d="M2259.83 1466.95 Q2263.18 1467.66 2265.06 1469.93 Q2266.96 1472.2 2266.96 1475.53 Q2266.96 1480.65 2263.44 1483.45 Q2259.92 1486.25 2253.44 1486.25 Q2251.26 1486.25 2248.95 1485.81 Q2246.66 1485.39 2244.2 1484.54 L2244.2 1480.02 Q2246.15 1481.16 2248.46 1481.74 Q2250.78 1482.32 2253.3 1482.32 Q2257.7 1482.32 2259.99 1480.58 Q2262.3 1478.84 2262.3 1475.53 Q2262.3 1472.48 2260.15 1470.77 Q2258.02 1469.03 2254.2 1469.03 L2250.17 1469.03 L2250.17 1465.19 L2254.39 1465.19 Q2257.84 1465.19 2259.67 1463.82 Q2261.49 1462.43 2261.49 1459.84 Q2261.49 1457.18 2259.6 1455.77 Q2257.72 1454.33 2254.2 1454.33 Q2252.28 1454.33 2250.08 1454.75 Q2247.88 1455.16 2245.24 1456.04 L2245.24 1451.88 Q2247.91 1451.14 2250.22 1450.77 Q2252.56 1450.39 2254.62 1450.39 Q2259.94 1450.39 2263.04 1452.83 Q2266.15 1455.23 2266.15 1459.35 Q2266.15 1462.22 2264.5 1464.21 Q2262.86 1466.18 2259.83 1466.95 Z" fill="#000000" fill-rule="evenodd" fill-opacity="1" /><path clip-path="url(#clip230)" d="M2285.82 1454.1 Q2282.21 1454.1 2280.38 1457.66 Q2278.58 1461.2 2278.58 1468.33 Q2278.58 1475.44 2280.38 1479.01 Q2282.21 1482.55 2285.82 1482.55 Q2289.46 1482.55 2291.26 1479.01 Q2293.09 1475.44 2293.09 1468.33 Q2293.09 1461.2 2291.26 1457.66 Q2289.46 1454.1 2285.82 1454.1 M2285.82 1450.39 Q2291.63 1450.39 2294.69 1455 Q2297.77 1459.58 2297.77 1468.33 Q2297.77 1477.06 2294.69 1481.67 Q2291.63 1486.25 2285.82 1486.25 Q2280.01 1486.25 2276.93 1481.67 Q2273.88 1477.06 2273.88 1468.33 Q2273.88 1459.58 2276.93 1455 Q2280.01 1450.39 2285.82 1450.39 Z" fill="#000000" fill-rule="evenodd" fill-opacity="1" /><path clip-path="url(#clip230)" d="M2315.98 1454.1 Q2312.37 1454.1 2310.54 1457.66 Q2308.74 1461.2 2308.74 1468.33 Q2308.74 1475.44 2310.54 1479.01 Q2312.37 1482.55 2315.98 1482.55 Q2319.62 1482.55 2321.42 1479.01 Q2323.25 1475.44 2323.25 1468.33 Q2323.25 1461.2 2321.42 1457.66 Q2319.62 1454.1 2315.98 1454.1 M2315.98 1450.39 Q2321.79 1450.39 2324.85 1455 Q2327.93 1459.58 2327.93 1468.33 Q2327.93 1477.06 2324.85 1481.67 Q2321.79 1486.25 2315.98 1486.25 Q2310.17 1486.25 2307.1 1481.67 Q2304.04 1477.06 2304.04 1468.33 Q2304.04 1459.58 2307.1 1455 Q2310.17 1450.39 2315.98 1450.39 Z" fill="#000000" fill-rule="evenodd" fill-opacity="1" /><path clip-path="url(#clip230)" d="M1329.14 1532.4 L1316.25 1549.74 L1329.81 1568.04 L1322.9 1568.04 L1312.53 1554.04 L1302.15 1568.04 L1295.24 1568.04 L1309.09 1549.39 L1296.42 1532.4 L1303.33 1532.4 L1312.78 1545.1 L1322.23 1532.4 L1329.14 1532.4 Z" fill="#000000" fill-rule="evenodd" fill-opacity="1" /><polyline clip-path="url(#clip232)" style="stroke:#000000; stroke-linecap:round; stroke-linejoin:round; stroke-width:2; stroke-opacity:0.1; fill:none" points="
  272.297,1384.24 2352.76,1384.24 
  "/>
<polyline clip-path="url(#clip232)" style="stroke:#000000; stroke-linecap:round; stroke-linejoin:round; stroke-width:2; stroke-opacity:0.1; fill:none" points="
  272.297,1059.73 2352.76,1059.73 
  "/>
<polyline clip-path="url(#clip232)" style="stroke:#000000; stroke-linecap:round; stroke-linejoin:round; stroke-width:2; stroke-opacity:0.1; fill:none" points="
  272.297,735.212 2352.76,735.212 
  "/>
<polyline clip-path="url(#clip232)" style="stroke:#000000; stroke-linecap:round; stroke-linejoin:round; stroke-width:2; stroke-opacity:0.1; fill:none" points="
  272.297,410.699 2352.76,410.699 
  "/>
<polyline clip-path="url(#clip232)" style="stroke:#000000; stroke-linecap:round; stroke-linejoin:round; stroke-width:2; stroke-opacity:0.1; fill:none" points="
  272.297,86.1857 2352.76,86.1857 
  "/>
<polyline clip-path="url(#clip230)" style="stroke:#000000; stroke-linecap:round; stroke-linejoin:round; stroke-width:4; stroke-opacity:1; fill:none" points="
  272.297,1423.18 272.297,47.2441 
  "/>
<polyline clip-path="url(#clip230)" style="stroke:#000000; stroke-linecap:round; stroke-linejoin:round; stroke-width:4; stroke-opacity:1; fill:none" points="
  272.297,1384.24 291.194,1384.24 
  "/>
<polyline clip-path="url(#clip230)" style="stroke:#000000; stroke-linecap:round; stroke-linejoin:round; stroke-width:4; stroke-opacity:1; fill:none" points="
  272.297,1059.73 291.194,1059.73 
  "/>
<polyline clip-path="url(#clip230)" style="stroke:#000000; stroke-linecap:round; stroke-linejoin:round; stroke-width:4; stroke-opacity:1; fill:none" points="
  272.297,735.212 291.194,735.212 
  "/>
<polyline clip-path="url(#clip230)" style="stroke:#000000; stroke-linecap:round; stroke-linejoin:round; stroke-width:4; stroke-opacity:1; fill:none" points="
  272.297,410.699 291.194,410.699 
  "/>
<polyline clip-path="url(#clip230)" style="stroke:#000000; stroke-linecap:round; stroke-linejoin:round; stroke-width:4; stroke-opacity:1; fill:none" points="
  272.297,86.1857 291.194,86.1857 
  "/>
<path clip-path="url(#clip230)" d="M114.26 1384.69 L143.936 1384.69 L143.936 1388.62 L114.26 1388.62 L114.26 1384.69 Z" fill="#000000" fill-rule="evenodd" fill-opacity="1" /><path clip-path="url(#clip230)" d="M158.056 1397.58 L174.376 1397.58 L174.376 1401.52 L152.431 1401.52 L152.431 1397.58 Q155.093 1394.83 159.677 1390.2 Q164.283 1385.55 165.464 1384.2 Q167.709 1381.68 168.589 1379.94 Q169.491 1378.19 169.491 1376.5 Q169.491 1373.74 167.547 1372 Q165.626 1370.27 162.524 1370.27 Q160.325 1370.27 157.871 1371.03 Q155.44 1371.8 152.663 1373.35 L152.663 1368.62 Q155.487 1367.49 157.94 1366.91 Q160.394 1366.33 162.431 1366.33 Q167.802 1366.33 170.996 1369.02 Q174.19 1371.7 174.19 1376.19 Q174.19 1378.32 173.38 1380.25 Q172.593 1382.14 170.487 1384.74 Q169.908 1385.41 166.806 1388.62 Q163.704 1391.82 158.056 1397.58 Z" fill="#000000" fill-rule="evenodd" fill-opacity="1" /><path clip-path="url(#clip230)" d="M194.19 1370.04 Q190.579 1370.04 188.75 1373.6 Q186.945 1377.14 186.945 1384.27 Q186.945 1391.38 188.75 1394.94 Q190.579 1398.49 194.19 1398.49 Q197.825 1398.49 199.63 1394.94 Q201.459 1391.38 201.459 1384.27 Q201.459 1377.14 199.63 1373.6 Q197.825 1370.04 194.19 1370.04 M194.19 1366.33 Q200 1366.33 203.056 1370.94 Q206.135 1375.52 206.135 1384.27 Q206.135 1393 203.056 1397.61 Q200 1402.19 194.19 1402.19 Q188.38 1402.19 185.301 1397.61 Q182.246 1393 182.246 1384.27 Q182.246 1375.52 185.301 1370.94 Q188.38 1366.33 194.19 1366.33 Z" fill="#000000" fill-rule="evenodd" fill-opacity="1" /><path clip-path="url(#clip230)" d="M224.352 1370.04 Q220.741 1370.04 218.912 1373.6 Q217.107 1377.14 217.107 1384.27 Q217.107 1391.38 218.912 1394.94 Q220.741 1398.49 224.352 1398.49 Q227.986 1398.49 229.792 1394.94 Q231.621 1391.38 231.621 1384.27 Q231.621 1377.14 229.792 1373.6 Q227.986 1370.04 224.352 1370.04 M224.352 1366.33 Q230.162 1366.33 233.218 1370.94 Q236.297 1375.52 236.297 1384.27 Q236.297 1393 233.218 1397.61 Q230.162 1402.19 224.352 1402.19 Q218.542 1402.19 215.463 1397.61 Q212.408 1393 212.408 1384.27 Q212.408 1375.52 215.463 1370.94 Q218.542 1366.33 224.352 1366.33 Z" fill="#000000" fill-rule="evenodd" fill-opacity="1" /><path clip-path="url(#clip230)" d="M114.26 1060.18 L143.936 1060.18 L143.936 1064.11 L114.26 1064.11 L114.26 1060.18 Z" fill="#000000" fill-rule="evenodd" fill-opacity="1" /><path clip-path="url(#clip230)" d="M154.839 1073.07 L162.477 1073.07 L162.477 1046.7 L154.167 1048.37 L154.167 1044.11 L162.431 1042.45 L167.107 1042.45 L167.107 1073.07 L174.746 1073.07 L174.746 1077.01 L154.839 1077.01 L154.839 1073.07 Z" fill="#000000" fill-rule="evenodd" fill-opacity="1" /><path clip-path="url(#clip230)" d="M194.19 1045.52 Q190.579 1045.52 188.75 1049.09 Q186.945 1052.63 186.945 1059.76 Q186.945 1066.87 188.75 1070.43 Q190.579 1073.97 194.19 1073.97 Q197.825 1073.97 199.63 1070.43 Q201.459 1066.87 201.459 1059.76 Q201.459 1052.63 199.63 1049.09 Q197.825 1045.52 194.19 1045.52 M194.19 1041.82 Q200 1041.82 203.056 1046.43 Q206.135 1051.01 206.135 1059.76 Q206.135 1068.49 203.056 1073.09 Q200 1077.68 194.19 1077.68 Q188.38 1077.68 185.301 1073.09 Q182.246 1068.49 182.246 1059.76 Q182.246 1051.01 185.301 1046.43 Q188.38 1041.82 194.19 1041.82 Z" fill="#000000" fill-rule="evenodd" fill-opacity="1" /><path clip-path="url(#clip230)" d="M224.352 1045.52 Q220.741 1045.52 218.912 1049.09 Q217.107 1052.63 217.107 1059.76 Q217.107 1066.87 218.912 1070.43 Q220.741 1073.97 224.352 1073.97 Q227.986 1073.97 229.792 1070.43 Q231.621 1066.87 231.621 1059.76 Q231.621 1052.63 229.792 1049.09 Q227.986 1045.52 224.352 1045.52 M224.352 1041.82 Q230.162 1041.82 233.218 1046.43 Q236.297 1051.01 236.297 1059.76 Q236.297 1068.49 233.218 1073.09 Q230.162 1077.68 224.352 1077.68 Q218.542 1077.68 215.463 1073.09 Q212.408 1068.49 212.408 1059.76 Q212.408 1051.01 215.463 1046.43 Q218.542 1041.82 224.352 1041.82 Z" fill="#000000" fill-rule="evenodd" fill-opacity="1" /><path clip-path="url(#clip230)" d="M224.352 721.011 Q220.741 721.011 218.912 724.575 Q217.107 728.117 217.107 735.247 Q217.107 742.353 218.912 745.918 Q220.741 749.46 224.352 749.46 Q227.986 749.46 229.792 745.918 Q231.621 742.353 231.621 735.247 Q231.621 728.117 229.792 724.575 Q227.986 721.011 224.352 721.011 M224.352 717.307 Q230.162 717.307 233.218 721.913 Q236.297 726.497 236.297 735.247 Q236.297 743.973 233.218 748.58 Q230.162 753.163 224.352 753.163 Q218.542 753.163 215.463 748.58 Q212.408 743.973 212.408 735.247 Q212.408 726.497 215.463 721.913 Q218.542 717.307 224.352 717.307 Z" fill="#000000" fill-rule="evenodd" fill-opacity="1" /><path clip-path="url(#clip230)" d="M154.839 424.044 L162.477 424.044 L162.477 397.678 L154.167 399.345 L154.167 395.085 L162.431 393.419 L167.107 393.419 L167.107 424.044 L174.746 424.044 L174.746 427.979 L154.839 427.979 L154.839 424.044 Z" fill="#000000" fill-rule="evenodd" fill-opacity="1" /><path clip-path="url(#clip230)" d="M194.19 396.498 Q190.579 396.498 188.75 400.062 Q186.945 403.604 186.945 410.734 Q186.945 417.84 188.75 421.405 Q190.579 424.946 194.19 424.946 Q197.825 424.946 199.63 421.405 Q201.459 417.84 201.459 410.734 Q201.459 403.604 199.63 400.062 Q197.825 396.498 194.19 396.498 M194.19 392.794 Q200 392.794 203.056 397.4 Q206.135 401.984 206.135 410.734 Q206.135 419.46 203.056 424.067 Q200 428.65 194.19 428.65 Q188.38 428.65 185.301 424.067 Q182.246 419.46 182.246 410.734 Q182.246 401.984 185.301 397.4 Q188.38 392.794 194.19 392.794 Z" fill="#000000" fill-rule="evenodd" fill-opacity="1" /><path clip-path="url(#clip230)" d="M224.352 396.498 Q220.741 396.498 218.912 400.062 Q217.107 403.604 217.107 410.734 Q217.107 417.84 218.912 421.405 Q220.741 424.946 224.352 424.946 Q227.986 424.946 229.792 421.405 Q231.621 417.84 231.621 410.734 Q231.621 403.604 229.792 400.062 Q227.986 396.498 224.352 396.498 M224.352 392.794 Q230.162 392.794 233.218 397.4 Q236.297 401.984 236.297 410.734 Q236.297 419.46 233.218 424.067 Q230.162 428.65 224.352 428.65 Q218.542 428.65 215.463 424.067 Q212.408 419.46 212.408 410.734 Q212.408 401.984 215.463 397.4 Q218.542 392.794 224.352 392.794 Z" fill="#000000" fill-rule="evenodd" fill-opacity="1" /><path clip-path="url(#clip230)" d="M158.056 99.5305 L174.376 99.5305 L174.376 103.466 L152.431 103.466 L152.431 99.5305 Q155.093 96.7759 159.677 92.1463 Q164.283 87.4935 165.464 86.151 Q167.709 83.6278 168.589 81.8917 Q169.491 80.1325 169.491 78.4427 Q169.491 75.688 167.547 73.9519 Q165.626 72.2158 162.524 72.2158 Q160.325 72.2158 157.871 72.9797 Q155.44 73.7436 152.663 75.2945 L152.663 70.5723 Q155.487 69.4381 157.94 68.8594 Q160.394 68.2807 162.431 68.2807 Q167.802 68.2807 170.996 70.9658 Q174.19 73.651 174.19 78.1417 Q174.19 80.2714 173.38 82.1926 Q172.593 84.0908 170.487 86.6834 Q169.908 87.3546 166.806 90.5722 Q163.704 93.7667 158.056 99.5305 Z" fill="#000000" fill-rule="evenodd" fill-opacity="1" /><path clip-path="url(#clip230)" d="M194.19 71.9844 Q190.579 71.9844 188.75 75.5492 Q186.945 79.0908 186.945 86.2204 Q186.945 93.3268 188.75 96.8916 Q190.579 100.433 194.19 100.433 Q197.825 100.433 199.63 96.8916 Q201.459 93.3268 201.459 86.2204 Q201.459 79.0908 199.63 75.5492 Q197.825 71.9844 194.19 71.9844 M194.19 68.2807 Q200 68.2807 203.056 72.8871 Q206.135 77.4704 206.135 86.2204 Q206.135 94.9472 203.056 99.5537 Q200 104.137 194.19 104.137 Q188.38 104.137 185.301 99.5537 Q182.246 94.9472 182.246 86.2204 Q182.246 77.4704 185.301 72.8871 Q188.38 68.2807 194.19 68.2807 Z" fill="#000000" fill-rule="evenodd" fill-opacity="1" /><path clip-path="url(#clip230)" d="M224.352 71.9844 Q220.741 71.9844 218.912 75.5492 Q217.107 79.0908 217.107 86.2204 Q217.107 93.3268 218.912 96.8916 Q220.741 100.433 224.352 100.433 Q227.986 100.433 229.792 96.8916 Q231.621 93.3268 231.621 86.2204 Q231.621 79.0908 229.792 75.5492 Q227.986 71.9844 224.352 71.9844 M224.352 68.2807 Q230.162 68.2807 233.218 72.8871 Q236.297 77.4704 236.297 86.2204 Q236.297 94.9472 233.218 99.5537 Q230.162 104.137 224.352 104.137 Q218.542 104.137 215.463 99.5537 Q212.408 94.9472 212.408 86.2204 Q212.408 77.4704 215.463 72.8871 Q218.542 68.2807 224.352 68.2807 Z" fill="#000000" fill-rule="evenodd" fill-opacity="1" /><path clip-path="url(#clip230)" d="M67.3143 733.525 Q73.68 736.008 75.6216 738.363 Q77.5631 740.718 77.5631 744.665 L77.5631 749.344 L72.6615 749.344 L72.6615 745.906 Q72.6615 743.487 71.5157 742.151 Q70.3699 740.814 66.1048 739.191 L63.4312 738.14 L28.3562 752.559 L28.3562 746.352 L56.238 735.212 L28.3562 724.072 L28.3562 717.865 L67.3143 733.525 Z" fill="#000000" fill-rule="evenodd" fill-opacity="1" /><polyline clip-path="url(#clip232)" style="stroke:#009af9; stroke-linecap:round; stroke-linejoin:round; stroke-width:4; stroke-opacity:1; fill:none" points="
  1026.41,341.407 950.786,409.499 890.971,491.827 849.581,584.792 828.423,684.331 828.423,786.093 849.581,885.632 890.971,978.597 950.786,1060.92 1026.41,1129.02 
  1114.54,1179.9 1211.32,1211.34 1312.53,1221.98 1413.73,1211.34 1510.51,1179.9 1598.64,1129.02 1674.27,1060.92 1734.08,978.597 1775.47,885.632 1796.63,786.093 
  1796.63,684.331 1775.47,584.792 1734.08,491.827 1674.27,409.499 1598.64,341.407 1510.51,290.526 1413.73,259.079 1312.53,248.442 1211.32,259.079 1114.54,290.526 
  931.038,210.139 830.206,300.929 750.453,410.699 695.266,534.652 667.055,667.37 667.055,803.054 695.266,935.772 750.453,1059.73 830.206,1169.5 931.038,1260.29 
  1048.54,1328.13 1177.59,1370.06 1312.53,1384.24 1447.47,1370.06 1576.51,1328.13 1694.01,1260.29 1794.85,1169.5 1874.6,1059.73 1929.79,935.772 1958,803.054 
  1958,667.37 1929.79,534.652 1874.6,410.699 1794.85,300.929 1694.01,210.139 1576.51,142.297 1447.47,100.368 1312.53,86.1857 1177.59,100.368 1048.54,142.297 
  
  "/>
<circle clip-path="url(#clip232)" cx="1026.41" cy="341.407" r="7.2" fill="#009af9" fill-rule="evenodd" fill-opacity="1" stroke="#000000" stroke-opacity="1" stroke-width="3.2"/>
<circle clip-path="url(#clip232)" cx="950.786" cy="409.499" r="7.2" fill="#009af9" fill-rule="evenodd" fill-opacity="1" stroke="#000000" stroke-opacity="1" stroke-width="3.2"/>
<circle clip-path="url(#clip232)" cx="890.971" cy="491.827" r="7.2" fill="#009af9" fill-rule="evenodd" fill-opacity="1" stroke="#000000" stroke-opacity="1" stroke-width="3.2"/>
<circle clip-path="url(#clip232)" cx="849.581" cy="584.792" r="7.2" fill="#009af9" fill-rule="evenodd" fill-opacity="1" stroke="#000000" stroke-opacity="1" stroke-width="3.2"/>
<circle clip-path="url(#clip232)" cx="828.423" cy="684.331" r="7.2" fill="#009af9" fill-rule="evenodd" fill-opacity="1" stroke="#000000" stroke-opacity="1" stroke-width="3.2"/>
<circle clip-path="url(#clip232)" cx="828.423" cy="786.093" r="7.2" fill="#009af9" fill-rule="evenodd" fill-opacity="1" stroke="#000000" stroke-opacity="1" stroke-width="3.2"/>
<circle clip-path="url(#clip232)" cx="849.581" cy="885.632" r="7.2" fill="#009af9" fill-rule="evenodd" fill-opacity="1" stroke="#000000" stroke-opacity="1" stroke-width="3.2"/>
<circle clip-path="url(#clip232)" cx="890.971" cy="978.597" r="7.2" fill="#009af9" fill-rule="evenodd" fill-opacity="1" stroke="#000000" stroke-opacity="1" stroke-width="3.2"/>
<circle clip-path="url(#clip232)" cx="950.786" cy="1060.92" r="7.2" fill="#009af9" fill-rule="evenodd" fill-opacity="1" stroke="#000000" stroke-opacity="1" stroke-width="3.2"/>
<circle clip-path="url(#clip232)" cx="1026.41" cy="1129.02" r="7.2" fill="#009af9" fill-rule="evenodd" fill-opacity="1" stroke="#000000" stroke-opacity="1" stroke-width="3.2"/>
<circle clip-path="url(#clip232)" cx="1114.54" cy="1179.9" r="7.2" fill="#009af9" fill-rule="evenodd" fill-opacity="1" stroke="#000000" stroke-opacity="1" stroke-width="3.2"/>
<circle clip-path="url(#clip232)" cx="1211.32" cy="1211.34" r="7.2" fill="#009af9" fill-rule="evenodd" fill-opacity="1" stroke="#000000" stroke-opacity="1" stroke-width="3.2"/>
<circle clip-path="url(#clip232)" cx="1312.53" cy="1221.98" r="7.2" fill="#009af9" fill-rule="evenodd" fill-opacity="1" stroke="#000000" stroke-opacity="1" stroke-width="3.2"/>
<circle clip-path="url(#clip232)" cx="1413.73" cy="1211.34" r="7.2" fill="#009af9" fill-rule="evenodd" fill-opacity="1" stroke="#000000" stroke-opacity="1" stroke-width="3.2"/>
<circle clip-path="url(#clip232)" cx="1510.51" cy="1179.9" r="7.2" fill="#009af9" fill-rule="evenodd" fill-opacity="1" stroke="#000000" stroke-opacity="1" stroke-width="3.2"/>
<circle clip-path="url(#clip232)" cx="1598.64" cy="1129.02" r="7.2" fill="#009af9" fill-rule="evenodd" fill-opacity="1" stroke="#000000" stroke-opacity="1" stroke-width="3.2"/>
<circle clip-path="url(#clip232)" cx="1674.27" cy="1060.92" r="7.2" fill="#009af9" fill-rule="evenodd" fill-opacity="1" stroke="#000000" stroke-opacity="1" stroke-width="3.2"/>
<circle clip-path="url(#clip232)" cx="1734.08" cy="978.597" r="7.2" fill="#009af9" fill-rule="evenodd" fill-opacity="1" stroke="#000000" stroke-opacity="1" stroke-width="3.2"/>
<circle clip-path="url(#clip232)" cx="1775.47" cy="885.632" r="7.2" fill="#009af9" fill-rule="evenodd" fill-opacity="1" stroke="#000000" stroke-opacity="1" stroke-width="3.2"/>
<circle clip-path="url(#clip232)" cx="1796.63" cy="786.093" r="7.2" fill="#009af9" fill-rule="evenodd" fill-opacity="1" stroke="#000000" stroke-opacity="1" stroke-width="3.2"/>
<circle clip-path="url(#clip232)" cx="1796.63" cy="684.331" r="7.2" fill="#009af9" fill-rule="evenodd" fill-opacity="1" stroke="#000000" stroke-opacity="1" stroke-width="3.2"/>
<circle clip-path="url(#clip232)" cx="1775.47" cy="584.792" r="7.2" fill="#009af9" fill-rule="evenodd" fill-opacity="1" stroke="#000000" stroke-opacity="1" stroke-width="3.2"/>
<circle clip-path="url(#clip232)" cx="1734.08" cy="491.827" r="7.2" fill="#009af9" fill-rule="evenodd" fill-opacity="1" stroke="#000000" stroke-opacity="1" stroke-width="3.2"/>
<circle clip-path="url(#clip232)" cx="1674.27" cy="409.499" r="7.2" fill="#009af9" fill-rule="evenodd" fill-opacity="1" stroke="#000000" stroke-opacity="1" stroke-width="3.2"/>
<circle clip-path="url(#clip232)" cx="1598.64" cy="341.407" r="7.2" fill="#009af9" fill-rule="evenodd" fill-opacity="1" stroke="#000000" stroke-opacity="1" stroke-width="3.2"/>
<circle clip-path="url(#clip232)" cx="1510.51" cy="290.526" r="7.2" fill="#009af9" fill-rule="evenodd" fill-opacity="1" stroke="#000000" stroke-opacity="1" stroke-width="3.2"/>
<circle clip-path="url(#clip232)" cx="1413.73" cy="259.079" r="7.2" fill="#009af9" fill-rule="evenodd" fill-opacity="1" stroke="#000000" stroke-opacity="1" stroke-width="3.2"/>
<circle clip-path="url(#clip232)" cx="1312.53" cy="248.442" r="7.2" fill="#009af9" fill-rule="evenodd" fill-opacity="1" stroke="#000000" stroke-opacity="1" stroke-width="3.2"/>
<circle clip-path="url(#clip232)" cx="1211.32" cy="259.079" r="7.2" fill="#009af9" fill-rule="evenodd" fill-opacity="1" stroke="#000000" stroke-opacity="1" stroke-width="3.2"/>
<circle clip-path="url(#clip232)" cx="1114.54" cy="290.526" r="7.2" fill="#009af9" fill-rule="evenodd" fill-opacity="1" stroke="#000000" stroke-opacity="1" stroke-width="3.2"/>
<circle clip-path="url(#clip232)" cx="931.038" cy="210.139" r="7.2" fill="#009af9" fill-rule="evenodd" fill-opacity="1" stroke="#000000" stroke-opacity="1" stroke-width="3.2"/>
<circle clip-path="url(#clip232)" cx="830.206" cy="300.929" r="7.2" fill="#009af9" fill-rule="evenodd" fill-opacity="1" stroke="#000000" stroke-opacity="1" stroke-width="3.2"/>
<circle clip-path="url(#clip232)" cx="750.453" cy="410.699" r="7.2" fill="#009af9" fill-rule="evenodd" fill-opacity="1" stroke="#000000" stroke-opacity="1" stroke-width="3.2"/>
<circle clip-path="url(#clip232)" cx="695.266" cy="534.652" r="7.2" fill="#009af9" fill-rule="evenodd" fill-opacity="1" stroke="#000000" stroke-opacity="1" stroke-width="3.2"/>
<circle clip-path="url(#clip232)" cx="667.055" cy="667.37" r="7.2" fill="#009af9" fill-rule="evenodd" fill-opacity="1" stroke="#000000" stroke-opacity="1" stroke-width="3.2"/>
<circle clip-path="url(#clip232)" cx="667.055" cy="803.054" r="7.2" fill="#009af9" fill-rule="evenodd" fill-opacity="1" stroke="#000000" stroke-opacity="1" stroke-width="3.2"/>
<circle clip-path="url(#clip232)" cx="695.266" cy="935.772" r="7.2" fill="#009af9" fill-rule="evenodd" fill-opacity="1" stroke="#000000" stroke-opacity="1" stroke-width="3.2"/>
<circle clip-path="url(#clip232)" cx="750.453" cy="1059.73" r="7.2" fill="#009af9" fill-rule="evenodd" fill-opacity="1" stroke="#000000" stroke-opacity="1" stroke-width="3.2"/>
<circle clip-path="url(#clip232)" cx="830.206" cy="1169.5" r="7.2" fill="#009af9" fill-rule="evenodd" fill-opacity="1" stroke="#000000" stroke-opacity="1" stroke-width="3.2"/>
<circle clip-path="url(#clip232)" cx="931.038" cy="1260.29" r="7.2" fill="#009af9" fill-rule="evenodd" fill-opacity="1" stroke="#000000" stroke-opacity="1" stroke-width="3.2"/>
<circle clip-path="url(#clip232)" cx="1048.54" cy="1328.13" r="7.2" fill="#009af9" fill-rule="evenodd" fill-opacity="1" stroke="#000000" stroke-opacity="1" stroke-width="3.2"/>
<circle clip-path="url(#clip232)" cx="1177.59" cy="1370.06" r="7.2" fill="#009af9" fill-rule="evenodd" fill-opacity="1" stroke="#000000" stroke-opacity="1" stroke-width="3.2"/>
<circle clip-path="url(#clip232)" cx="1312.53" cy="1384.24" r="7.2" fill="#009af9" fill-rule="evenodd" fill-opacity="1" stroke="#000000" stroke-opacity="1" stroke-width="3.2"/>
<circle clip-path="url(#clip232)" cx="1447.47" cy="1370.06" r="7.2" fill="#009af9" fill-rule="evenodd" fill-opacity="1" stroke="#000000" stroke-opacity="1" stroke-width="3.2"/>
<circle clip-path="url(#clip232)" cx="1576.51" cy="1328.13" r="7.2" fill="#009af9" fill-rule="evenodd" fill-opacity="1" stroke="#000000" stroke-opacity="1" stroke-width="3.2"/>
<circle clip-path="url(#clip232)" cx="1694.01" cy="1260.29" r="7.2" fill="#009af9" fill-rule="evenodd" fill-opacity="1" stroke="#000000" stroke-opacity="1" stroke-width="3.2"/>
<circle clip-path="url(#clip232)" cx="1794.85" cy="1169.5" r="7.2" fill="#009af9" fill-rule="evenodd" fill-opacity="1" stroke="#000000" stroke-opacity="1" stroke-width="3.2"/>
<circle clip-path="url(#clip232)" cx="1874.6" cy="1059.73" r="7.2" fill="#009af9" fill-rule="evenodd" fill-opacity="1" stroke="#000000" stroke-opacity="1" stroke-width="3.2"/>
<circle clip-path="url(#clip232)" cx="1929.79" cy="935.772" r="7.2" fill="#009af9" fill-rule="evenodd" fill-opacity="1" stroke="#000000" stroke-opacity="1" stroke-width="3.2"/>
<circle clip-path="url(#clip232)" cx="1958" cy="803.054" r="7.2" fill="#009af9" fill-rule="evenodd" fill-opacity="1" stroke="#000000" stroke-opacity="1" stroke-width="3.2"/>
<circle clip-path="url(#clip232)" cx="1958" cy="667.37" r="7.2" fill="#009af9" fill-rule="evenodd" fill-opacity="1" stroke="#000000" stroke-opacity="1" stroke-width="3.2"/>
<circle clip-path="url(#clip232)" cx="1929.79" cy="534.652" r="7.2" fill="#009af9" fill-rule="evenodd" fill-opacity="1" stroke="#000000" stroke-opacity="1" stroke-width="3.2"/>
<circle clip-path="url(#clip232)" cx="1874.6" cy="410.699" r="7.2" fill="#009af9" fill-rule="evenodd" fill-opacity="1" stroke="#000000" stroke-opacity="1" stroke-width="3.2"/>
<circle clip-path="url(#clip232)" cx="1794.85" cy="300.929" r="7.2" fill="#009af9" fill-rule="evenodd" fill-opacity="1" stroke="#000000" stroke-opacity="1" stroke-width="3.2"/>
<circle clip-path="url(#clip232)" cx="1694.01" cy="210.139" r="7.2" fill="#009af9" fill-rule="evenodd" fill-opacity="1" stroke="#000000" stroke-opacity="1" stroke-width="3.2"/>
<circle clip-path="url(#clip232)" cx="1576.51" cy="142.297" r="7.2" fill="#009af9" fill-rule="evenodd" fill-opacity="1" stroke="#000000" stroke-opacity="1" stroke-width="3.2"/>
<circle clip-path="url(#clip232)" cx="1447.47" cy="100.368" r="7.2" fill="#009af9" fill-rule="evenodd" fill-opacity="1" stroke="#000000" stroke-opacity="1" stroke-width="3.2"/>
<circle clip-path="url(#clip232)" cx="1312.53" cy="86.1857" r="7.2" fill="#009af9" fill-rule="evenodd" fill-opacity="1" stroke="#000000" stroke-opacity="1" stroke-width="3.2"/>
<circle clip-path="url(#clip232)" cx="1177.59" cy="100.368" r="7.2" fill="#009af9" fill-rule="evenodd" fill-opacity="1" stroke="#000000" stroke-opacity="1" stroke-width="3.2"/>
<circle clip-path="url(#clip232)" cx="1048.54" cy="142.297" r="7.2" fill="#009af9" fill-rule="evenodd" fill-opacity="1" stroke="#000000" stroke-opacity="1" stroke-width="3.2"/>
</svg>
