<?xml version="1.0" encoding="utf-8"?>
<svg xmlns="http://www.w3.org/2000/svg" xmlns:xlink="http://www.w3.org/1999/xlink" width="600" height="400" viewBox="0 0 2400 1600">
<defs>
  <clipPath id="clip200">
    <rect x="0" y="0" width="2400" height="1600"/>
  </clipPath>
</defs>
<path clip-path="url(#clip200)" d="
M0 1600 L2400 1600 L2400 0 L0 0  Z
  " fill="#ffffff" fill-rule="evenodd" fill-opacity="1"/>
<defs>
  <clipPath id="clip201">
    <rect x="480" y="0" width="1681" height="1600"/>
  </clipPath>
</defs>
<path clip-path="url(#clip200)" d="
M272.297 1423.18 L2352.76 1423.18 L2352.76 47.2441 L272.297 47.2441  Z
  " fill="#ffffff" fill-rule="evenodd" fill-opacity="1"/>
<defs>
  <clipPath id="clip202">
    <rect x="272" y="47" width="2081" height="1377"/>
  </clipPath>
</defs>
<polyline clip-path="url(#clip202)" style="stroke:#000000; stroke-linecap:round; stroke-linejoin:round; stroke-width:2; stroke-opacity:0.1; fill:none" points="
  355.113,1423.18 355.113,47.2441 
  "/>
<polyline clip-path="url(#clip202)" style="stroke:#000000; stroke-linecap:round; stroke-linejoin:round; stroke-width:2; stroke-opacity:0.1; fill:none" points="
  833.82,1423.18 833.82,47.2441 
  "/>
<polyline clip-path="url(#clip202)" style="stroke:#000000; stroke-linecap:round; stroke-linejoin:round; stroke-width:2; stroke-opacity:0.1; fill:none" points="
  1312.53,1423.18 1312.53,47.2441 
  "/>
<polyline clip-path="url(#clip202)" style="stroke:#000000; stroke-linecap:round; stroke-linejoin:round; stroke-width:2; stroke-opacity:0.1; fill:none" points="
  1791.23,1423.18 1791.23,47.2441 
  "/>
<polyline clip-path="url(#clip202)" style="stroke:#000000; stroke-linecap:round; stroke-linejoin:round; stroke-width:2; stroke-opacity:0.1; fill:none" points="
  2269.94,1423.18 2269.94,47.2441 
  "/>
<polyline clip-path="url(#clip200)" style="stroke:#000000; stroke-linecap:round; stroke-linejoin:round; stroke-width:4; stroke-opacity:1; fill:none" points="
  272.297,1423.18 2352.76,1423.18 
  "/>
<polyline clip-path="url(#clip200)" style="stroke:#000000; stroke-linecap:round; stroke-linejoin:round; stroke-width:4; stroke-opacity:1; fill:none" points="
  355.113,1423.18 355.113,1404.28 
  "/>
<polyline clip-path="url(#clip200)" style="stroke:#000000; stroke-linecap:round; stroke-linejoin:round; stroke-width:4; stroke-opacity:1; fill:none" points="
  833.82,1423.18 833.82,1404.28 
  "/>
<polyline clip-path="url(#clip200)" style="stroke:#000000; stroke-linecap:round; stroke-linejoin:round; stroke-width:4; stroke-opacity:1; fill:none" points="
  1312.53,1423.18 1312.53,1404.28 
  "/>
<polyline clip-path="url(#clip200)" style="stroke:#000000; stroke-linecap:round; stroke-linejoin:round; stroke-width:4; stroke-opacity:1; fill:none" points="
  1791.23,1423.18 1791.23,1404.28 
  "/>
<polyline clip-path="url(#clip200)" style="stroke:#000000; stroke-linecap:round; stroke-linejoin:round; stroke-width:4; stroke-opacity:1; fill:none" points="
  2269.94,1423.18 2269.94,1404.28 
  "/>
<path clip-path="url(#clip200)" d="M355.113 1454.1 Q351.502 1454.1 349.673 1457.66 Q347.867 1461.2 347.867 1468.33 Q347.867 1475.44 349.673 1479.01 Q351.502 1482.55 355.113 1482.55 Q358.747 1482.55 360.553 1479.01 Q362.381 1475.44 362.381 1468.33 Q362.381 1461.2 360.553 1457.66 Q358.747 1454.1 355.113 1454.1 M355.113 1450.39 Q360.923 1450.39 363.978 1455 Q367.057 1459.58 367.057 1468.33 Q367.057 1477.06 363.978 1481.67 Q360.923 1486.25 355.113 1486.25 Q349.303 1486.25 346.224 1481.67 Q343.168 1477.06 343.168 1468.33 Q343.168 1459.58 346.224 1455 Q349.303 1450.39 355.113 1450.39 Z" fill="#000000" fill-rule="evenodd" fill-opacity="1" /><path clip-path="url(#clip200)" d="M793.426 1481.64 L801.065 1481.64 L801.065 1455.28 L792.755 1456.95 L792.755 1452.69 L801.019 1451.02 L805.695 1451.02 L805.695 1481.64 L813.334 1481.64 L813.334 1485.58 L793.426 1485.58 L793.426 1481.64 Z" fill="#000000" fill-rule="evenodd" fill-opacity="1" /><path clip-path="url(#clip200)" d="M832.778 1454.1 Q829.167 1454.1 827.338 1457.66 Q825.533 1461.2 825.533 1468.33 Q825.533 1475.44 827.338 1479.01 Q829.167 1482.55 832.778 1482.55 Q836.412 1482.55 838.218 1479.01 Q840.046 1475.44 840.046 1468.33 Q840.046 1461.2 838.218 1457.66 Q836.412 1454.1 832.778 1454.1 M832.778 1450.39 Q838.588 1450.39 841.644 1455 Q844.722 1459.58 844.722 1468.33 Q844.722 1477.06 841.644 1481.67 Q838.588 1486.25 832.778 1486.25 Q826.968 1486.25 823.889 1481.67 Q820.833 1477.06 820.833 1468.33 Q820.833 1459.58 823.889 1455 Q826.968 1450.39 832.778 1450.39 Z" fill="#000000" fill-rule="evenodd" fill-opacity="1" /><path clip-path="url(#clip200)" d="M862.94 1454.1 Q859.329 1454.1 857.5 1457.66 Q855.694 1461.2 855.694 1468.33 Q855.694 1475.44 857.5 1479.01 Q859.329 1482.55 862.94 1482.55 Q866.574 1482.55 868.38 1479.01 Q870.208 1475.44 870.208 1468.33 Q870.208 1461.2 868.38 1457.66 Q866.574 1454.1 862.94 1454.1 M862.94 1450.39 Q868.75 1450.39 871.805 1455 Q874.884 1459.58 874.884 1468.33 Q874.884 1477.06 871.805 1481.67 Q868.75 1486.25 862.94 1486.25 Q857.13 1486.25 854.051 1481.67 Q850.995 1477.06 850.995 1468.33 Q850.995 1459.58 854.051 1455 Q857.13 1450.39 862.94 1450.39 Z" fill="#000000" fill-rule="evenodd" fill-opacity="1" /><path clip-path="url(#clip200)" d="M1276.22 1481.64 L1292.54 1481.64 L1292.54 1485.58 L1270.59 1485.58 L1270.59 1481.64 Q1273.26 1478.89 1277.84 1474.26 Q1282.45 1469.61 1283.63 1468.27 Q1285.87 1465.74 1286.75 1464.01 Q1287.65 1462.25 1287.65 1460.56 Q1287.65 1457.8 1285.71 1456.07 Q1283.79 1454.33 1280.69 1454.33 Q1278.49 1454.33 1276.03 1455.09 Q1273.6 1455.86 1270.83 1457.41 L1270.83 1452.69 Q1273.65 1451.55 1276.1 1450.97 Q1278.56 1450.39 1280.59 1450.39 Q1285.96 1450.39 1289.16 1453.08 Q1292.35 1455.77 1292.35 1460.26 Q1292.35 1462.39 1291.54 1464.31 Q1290.76 1466.2 1288.65 1468.8 Q1288.07 1469.47 1284.97 1472.69 Q1281.87 1475.88 1276.22 1481.64 Z" fill="#000000" fill-rule="evenodd" fill-opacity="1" /><path clip-path="url(#clip200)" d="M1312.35 1454.1 Q1308.74 1454.1 1306.91 1457.66 Q1305.11 1461.2 1305.11 1468.33 Q1305.11 1475.44 1306.91 1479.01 Q1308.74 1482.55 1312.35 1482.55 Q1315.99 1482.55 1317.79 1479.01 Q1319.62 1475.44 1319.62 1468.33 Q1319.62 1461.2 1317.79 1457.66 Q1315.99 1454.1 1312.35 1454.1 M1312.35 1450.39 Q1318.16 1450.39 1321.22 1455 Q1324.3 1459.58 1324.3 1468.33 Q1324.3 1477.06 1321.22 1481.67 Q1318.16 1486.25 1312.35 1486.25 Q1306.54 1486.25 1303.46 1481.67 Q1300.41 1477.06 1300.41 1468.33 Q1300.41 1459.58 1303.46 1455 Q1306.54 1450.39 1312.35 1450.39 Z" fill="#000000" fill-rule="evenodd" fill-opacity="1" /><path clip-path="url(#clip200)" d="M1342.51 1454.1 Q1338.9 1454.1 1337.07 1457.66 Q1335.27 1461.2 1335.27 1468.33 Q1335.27 1475.44 1337.07 1479.01 Q1338.9 1482.55 1342.51 1482.55 Q1346.15 1482.55 1347.95 1479.01 Q1349.78 1475.44 1349.78 1468.33 Q1349.78 1461.2 1347.95 1457.66 Q1346.15 1454.1 1342.51 1454.1 M1342.51 1450.39 Q1348.32 1450.39 1351.38 1455 Q1354.46 1459.58 1354.46 1468.33 Q1354.46 1477.06 1351.38 1481.67 Q1348.32 1486.25 1342.51 1486.25 Q1336.7 1486.25 1333.63 1481.67 Q1330.57 1477.06 1330.57 1468.33 Q1330.57 1459.58 1333.63 1455 Q1336.7 1450.39 1342.51 1450.39 Z" fill="#000000" fill-rule="evenodd" fill-opacity="1" /><path clip-path="url(#clip200)" d="M1764.99 1466.95 Q1768.35 1467.66 1770.23 1469.93 Q1772.12 1472.2 1772.12 1475.53 Q1772.12 1480.65 1768.61 1483.45 Q1765.09 1486.25 1758.61 1486.25 Q1756.43 1486.25 1754.12 1485.81 Q1751.82 1485.39 1749.37 1484.54 L1749.37 1480.02 Q1751.31 1481.16 1753.63 1481.74 Q1755.94 1482.32 1758.47 1482.32 Q1762.87 1482.32 1765.16 1480.58 Q1767.47 1478.84 1767.47 1475.53 Q1767.47 1472.48 1765.32 1470.77 Q1763.19 1469.03 1759.37 1469.03 L1755.34 1469.03 L1755.34 1465.19 L1759.55 1465.19 Q1763 1465.19 1764.83 1463.82 Q1766.66 1462.43 1766.66 1459.84 Q1766.66 1457.18 1764.76 1455.77 Q1762.89 1454.33 1759.37 1454.33 Q1757.45 1454.33 1755.25 1454.75 Q1753.05 1455.16 1750.41 1456.04 L1750.41 1451.88 Q1753.07 1451.14 1755.39 1450.77 Q1757.73 1450.39 1759.79 1450.39 Q1765.11 1450.39 1768.21 1452.83 Q1771.31 1455.23 1771.31 1459.35 Q1771.31 1462.22 1769.67 1464.21 Q1768.03 1466.18 1764.99 1466.95 Z" fill="#000000" fill-rule="evenodd" fill-opacity="1" /><path clip-path="url(#clip200)" d="M1790.99 1454.1 Q1787.38 1454.1 1785.55 1457.66 Q1783.74 1461.2 1783.74 1468.33 Q1783.74 1475.44 1785.55 1479.01 Q1787.38 1482.55 1790.99 1482.55 Q1794.62 1482.55 1796.43 1479.01 Q1798.26 1475.44 1798.26 1468.33 Q1798.26 1461.2 1796.43 1457.66 Q1794.62 1454.1 1790.99 1454.1 M1790.99 1450.39 Q1796.8 1450.39 1799.86 1455 Q1802.93 1459.58 1802.93 1468.33 Q1802.93 1477.06 1799.86 1481.67 Q1796.8 1486.25 1790.99 1486.25 Q1785.18 1486.25 1782.1 1481.67 Q1779.05 1477.06 1779.05 1468.33 Q1779.05 1459.58 1782.1 1455 Q1785.18 1450.39 1790.99 1450.39 Z" fill="#000000" fill-rule="evenodd" fill-opacity="1" /><path clip-path="url(#clip200)" d="M1821.15 1454.1 Q1817.54 1454.1 1815.71 1457.66 Q1813.91 1461.2 1813.91 1468.33 Q1813.91 1475.44 1815.71 1479.01 Q1817.54 1482.55 1821.15 1482.55 Q1824.79 1482.55 1826.59 1479.01 Q1828.42 1475.44 1828.42 1468.33 Q1828.42 1461.2 1826.59 1457.66 Q1824.79 1454.1 1821.15 1454.1 M1821.15 1450.39 Q1826.96 1450.39 1830.02 1455 Q1833.1 1459.58 1833.1 1468.33 Q1833.1 1477.06 1830.02 1481.67 Q1826.96 1486.25 1821.15 1486.25 Q1815.34 1486.25 1812.26 1481.67 Q1809.21 1477.06 1809.21 1468.33 Q1809.21 1459.58 1812.26 1455 Q1815.34 1450.39 1821.15 1450.39 Z" fill="#000000" fill-rule="evenodd" fill-opacity="1" /><path clip-path="url(#clip200)" d="M2243.03 1455.09 L2231.22 1473.54 L2243.03 1473.54 L2243.03 1455.09 M2241.8 1451.02 L2247.68 1451.02 L2247.68 1473.54 L2252.61 1473.54 L2252.61 1477.43 L2247.68 1477.43 L2247.68 1485.58 L2243.03 1485.58 L2243.03 1477.43 L2227.43 1477.43 L2227.43 1472.92 L2241.8 1451.02 Z" fill="#000000" fill-rule="evenodd" fill-opacity="1" /><path clip-path="url(#clip200)" d="M2270.34 1454.1 Q2266.73 1454.1 2264.9 1457.66 Q2263.1 1461.2 2263.1 1468.33 Q2263.1 1475.44 2264.9 1479.01 Q2266.73 1482.55 2270.34 1482.55 Q2273.98 1482.55 2275.78 1479.01 Q2277.61 1475.44 2277.61 1468.33 Q2277.61 1461.2 2275.78 1457.66 Q2273.98 1454.1 2270.34 1454.1 M2270.34 1450.39 Q2276.15 1450.39 2279.21 1455 Q2282.29 1459.58 2282.29 1468.33 Q2282.29 1477.06 2279.21 1481.67 Q2276.15 1486.25 2270.34 1486.25 Q2264.53 1486.25 2261.46 1481.67 Q2258.4 1477.06 2258.4 1468.33 Q2258.4 1459.58 2261.46 1455 Q2264.53 1450.39 2270.34 1450.39 Z" fill="#000000" fill-rule="evenodd" fill-opacity="1" /><path clip-path="url(#clip200)" d="M2300.51 1454.1 Q2296.9 1454.1 2295.07 1457.66 Q2293.26 1461.2 2293.26 1468.33 Q2293.26 1475.44 2295.07 1479.01 Q2296.9 1482.55 2300.51 1482.55 Q2304.14 1482.55 2305.95 1479.01 Q2307.78 1475.44 2307.78 1468.33 Q2307.78 1461.2 2305.95 1457.66 Q2304.14 1454.1 2300.51 1454.1 M2300.51 1450.39 Q2306.32 1450.39 2309.37 1455 Q2312.45 1459.58 2312.45 1468.33 Q2312.45 1477.06 2309.37 1481.67 Q2306.32 1486.25 2300.51 1486.25 Q2294.7 1486.25 2291.62 1481.67 Q2288.56 1477.06 2288.56 1468.33 Q2288.56 1459.58 2291.62 1455 Q2294.7 1450.39 2300.51 1450.39 Z" fill="#000000" fill-rule="evenodd" fill-opacity="1" /><path clip-path="url(#clip200)" d="M1329.14 1532.4 L1316.25 1549.74 L1329.81 1568.04 L1322.9 1568.04 L1312.53 1554.04 L1302.15 1568.04 L1295.24 1568.04 L1309.09 1549.39 L1296.42 1532.4 L1303.33 1532.4 L1312.78 1545.1 L1322.23 1532.4 L1329.14 1532.4 Z" fill="#000000" fill-rule="evenodd" fill-opacity="1" /><polyline clip-path="url(#clip202)" style="stroke:#000000; stroke-linecap:round; stroke-linejoin:round; stroke-width:2; stroke-opacity:0.1; fill:none" points="
  272.297,1285.72 2352.76,1285.72 
  "/>
<polyline clip-path="url(#clip202)" style="stroke:#000000; stroke-linecap:round; stroke-linejoin:round; stroke-width:2; stroke-opacity:0.1; fill:none" points="
  272.297,1046.37 2352.76,1046.37 
  "/>
<polyline clip-path="url(#clip202)" style="stroke:#000000; stroke-linecap:round; stroke-linejoin:round; stroke-width:2; stroke-opacity:0.1; fill:none" points="
  272.297,807.018 2352.76,807.018 
  "/>
<polyline clip-path="url(#clip202)" style="stroke:#000000; stroke-linecap:round; stroke-linejoin:round; stroke-width:2; stroke-opacity:0.1; fill:none" points="
  272.297,567.665 2352.76,567.665 
  "/>
<polyline clip-path="url(#clip202)" style="stroke:#000000; stroke-linecap:round; stroke-linejoin:round; stroke-width:2; stroke-opacity:0.1; fill:none" points="
  272.297,328.311 2352.76,328.311 
  "/>
<polyline clip-path="url(#clip202)" style="stroke:#000000; stroke-linecap:round; stroke-linejoin:round; stroke-width:2; stroke-opacity:0.1; fill:none" points="
  272.297,88.9579 2352.76,88.9579 
  "/>
<polyline clip-path="url(#clip200)" style="stroke:#000000; stroke-linecap:round; stroke-linejoin:round; stroke-width:4; stroke-opacity:1; fill:none" points="
  272.297,1423.18 272.297,47.2441 
  "/>
<polyline clip-path="url(#clip200)" style="stroke:#000000; stroke-linecap:round; stroke-linejoin:round; stroke-width:4; stroke-opacity:1; fill:none" points="
  272.297,1285.72 291.194,1285.72 
  "/>
<polyline clip-path="url(#clip200)" style="stroke:#000000; stroke-linecap:round; stroke-linejoin:round; stroke-width:4; stroke-opacity:1; fill:none" points="
  272.297,1046.37 291.194,1046.37 
  "/>
<polyline clip-path="url(#clip200)" style="stroke:#000000; stroke-linecap:round; stroke-linejoin:round; stroke-width:4; stroke-opacity:1; fill:none" points="
  272.297,807.018 291.194,807.018 
  "/>
<polyline clip-path="url(#clip200)" style="stroke:#000000; stroke-linecap:round; stroke-linejoin:round; stroke-width:4; stroke-opacity:1; fill:none" points="
  272.297,567.665 291.194,567.665 
  "/>
<polyline clip-path="url(#clip200)" style="stroke:#000000; stroke-linecap:round; stroke-linejoin:round; stroke-width:4; stroke-opacity:1; fill:none" points="
  272.297,328.311 291.194,328.311 
  "/>
<polyline clip-path="url(#clip200)" style="stroke:#000000; stroke-linecap:round; stroke-linejoin:round; stroke-width:4; stroke-opacity:1; fill:none" points="
  272.297,88.9579 291.194,88.9579 
  "/>
<path clip-path="url(#clip200)" d="M114.26 1286.18 L143.936 1286.18 L143.936 1290.11 L114.26 1290.11 L114.26 1286.18 Z" fill="#000000" fill-rule="evenodd" fill-opacity="1" /><path clip-path="url(#clip200)" d="M154.839 1299.07 L162.477 1299.07 L162.477 1272.7 L154.167 1274.37 L154.167 1270.11 L162.431 1268.44 L167.107 1268.44 L167.107 1299.07 L174.746 1299.07 L174.746 1303 L154.839 1303 L154.839 1299.07 Z" fill="#000000" fill-rule="evenodd" fill-opacity="1" /><path clip-path="url(#clip200)" d="M194.19 1271.52 Q190.579 1271.52 188.75 1275.09 Q186.945 1278.63 186.945 1285.76 Q186.945 1292.87 188.75 1296.43 Q190.579 1299.97 194.19 1299.97 Q197.825 1299.97 199.63 1296.43 Q201.459 1292.87 201.459 1285.76 Q201.459 1278.63 199.63 1275.09 Q197.825 1271.52 194.19 1271.52 M194.19 1267.82 Q200 1267.82 203.056 1272.43 Q206.135 1277.01 206.135 1285.76 Q206.135 1294.49 203.056 1299.09 Q200 1303.68 194.19 1303.68 Q188.38 1303.68 185.301 1299.09 Q182.246 1294.49 182.246 1285.76 Q182.246 1277.01 185.301 1272.43 Q188.38 1267.82 194.19 1267.82 Z" fill="#000000" fill-rule="evenodd" fill-opacity="1" /><path clip-path="url(#clip200)" d="M224.352 1271.52 Q220.741 1271.52 218.912 1275.09 Q217.107 1278.63 217.107 1285.76 Q217.107 1292.87 218.912 1296.43 Q220.741 1299.97 224.352 1299.97 Q227.986 1299.97 229.792 1296.43 Q231.621 1292.87 231.621 1285.76 Q231.621 1278.63 229.792 1275.09 Q227.986 1271.52 224.352 1271.52 M224.352 1267.82 Q230.162 1267.82 233.218 1272.43 Q236.297 1277.01 236.297 1285.76 Q236.297 1294.49 233.218 1299.09 Q230.162 1303.68 224.352 1303.68 Q218.542 1303.68 215.463 1299.09 Q212.408 1294.49 212.408 1285.76 Q212.408 1277.01 215.463 1272.43 Q218.542 1267.82 224.352 1267.82 Z" fill="#000000" fill-rule="evenodd" fill-opacity="1" /><path clip-path="url(#clip200)" d="M144.422 1046.82 L174.098 1046.82 L174.098 1050.76 L144.422 1050.76 L144.422 1046.82 Z" fill="#000000" fill-rule="evenodd" fill-opacity="1" /><path clip-path="url(#clip200)" d="M184.237 1029.09 L202.593 1029.09 L202.593 1033.03 L188.519 1033.03 L188.519 1041.5 Q189.538 1041.15 190.556 1040.99 Q191.575 1040.8 192.593 1040.8 Q198.38 1040.8 201.76 1043.98 Q205.139 1047.15 205.139 1052.56 Q205.139 1058.14 201.667 1061.24 Q198.195 1064.32 191.875 1064.32 Q189.7 1064.32 187.431 1063.95 Q185.186 1063.58 182.778 1062.84 L182.778 1058.14 Q184.862 1059.28 187.084 1059.83 Q189.306 1060.39 191.783 1060.39 Q195.787 1060.39 198.125 1058.28 Q200.463 1056.17 200.463 1052.56 Q200.463 1048.95 198.125 1046.85 Q195.787 1044.74 191.783 1044.74 Q189.908 1044.74 188.033 1045.16 Q186.181 1045.57 184.237 1046.45 L184.237 1029.09 Z" fill="#000000" fill-rule="evenodd" fill-opacity="1" /><path clip-path="url(#clip200)" d="M224.352 1032.17 Q220.741 1032.17 218.912 1035.73 Q217.107 1039.28 217.107 1046.41 Q217.107 1053.51 218.912 1057.08 Q220.741 1060.62 224.352 1060.62 Q227.986 1060.62 229.792 1057.08 Q231.621 1053.51 231.621 1046.41 Q231.621 1039.28 229.792 1035.73 Q227.986 1032.17 224.352 1032.17 M224.352 1028.47 Q230.162 1028.47 233.218 1033.07 Q236.297 1037.66 236.297 1046.41 Q236.297 1055.13 233.218 1059.74 Q230.162 1064.32 224.352 1064.32 Q218.542 1064.32 215.463 1059.74 Q212.408 1055.13 212.408 1046.41 Q212.408 1037.66 215.463 1033.07 Q218.542 1028.47 224.352 1028.47 Z" fill="#000000" fill-rule="evenodd" fill-opacity="1" /><path clip-path="url(#clip200)" d="M224.352 792.817 Q220.741 792.817 218.912 796.381 Q217.107 799.923 217.107 807.053 Q217.107 814.159 218.912 817.724 Q220.741 821.266 224.352 821.266 Q227.986 821.266 229.792 817.724 Q231.621 814.159 231.621 807.053 Q231.621 799.923 229.792 796.381 Q227.986 792.817 224.352 792.817 M224.352 789.113 Q230.162 789.113 233.218 793.719 Q236.297 798.303 236.297 807.053 Q236.297 815.78 233.218 820.386 Q230.162 824.969 224.352 824.969 Q218.542 824.969 215.463 820.386 Q212.408 815.78 212.408 807.053 Q212.408 798.303 215.463 793.719 Q218.542 789.113 224.352 789.113 Z" fill="#000000" fill-rule="evenodd" fill-opacity="1" /><path clip-path="url(#clip200)" d="M184.237 550.385 L202.593 550.385 L202.593 554.32 L188.519 554.32 L188.519 562.792 Q189.538 562.445 190.556 562.283 Q191.575 562.098 192.593 562.098 Q198.38 562.098 201.76 565.269 Q205.139 568.44 205.139 573.857 Q205.139 579.435 201.667 582.537 Q198.195 585.616 191.875 585.616 Q189.7 585.616 187.431 585.246 Q185.186 584.875 182.778 584.134 L182.778 579.435 Q184.862 580.57 187.084 581.125 Q189.306 581.681 191.783 581.681 Q195.787 581.681 198.125 579.574 Q200.463 577.468 200.463 573.857 Q200.463 570.246 198.125 568.139 Q195.787 566.033 191.783 566.033 Q189.908 566.033 188.033 566.449 Q186.181 566.866 184.237 567.746 L184.237 550.385 Z" fill="#000000" fill-rule="evenodd" fill-opacity="1" /><path clip-path="url(#clip200)" d="M224.352 553.463 Q220.741 553.463 218.912 557.028 Q217.107 560.57 217.107 567.699 Q217.107 574.806 218.912 578.371 Q220.741 581.912 224.352 581.912 Q227.986 581.912 229.792 578.371 Q231.621 574.806 231.621 567.699 Q231.621 560.57 229.792 557.028 Q227.986 553.463 224.352 553.463 M224.352 549.76 Q230.162 549.76 233.218 554.366 Q236.297 558.949 236.297 567.699 Q236.297 576.426 233.218 581.033 Q230.162 585.616 224.352 585.616 Q218.542 585.616 215.463 581.033 Q212.408 576.426 212.408 567.699 Q212.408 558.949 215.463 554.366 Q218.542 549.76 224.352 549.76 Z" fill="#000000" fill-rule="evenodd" fill-opacity="1" /><path clip-path="url(#clip200)" d="M154.839 341.656 L162.477 341.656 L162.477 315.291 L154.167 316.957 L154.167 312.698 L162.431 311.031 L167.107 311.031 L167.107 341.656 L174.746 341.656 L174.746 345.591 L154.839 345.591 L154.839 341.656 Z" fill="#000000" fill-rule="evenodd" fill-opacity="1" /><path clip-path="url(#clip200)" d="M194.19 314.11 Q190.579 314.11 188.75 317.675 Q186.945 321.216 186.945 328.346 Q186.945 335.452 188.75 339.017 Q190.579 342.559 194.19 342.559 Q197.825 342.559 199.63 339.017 Q201.459 335.452 201.459 328.346 Q201.459 321.216 199.63 317.675 Q197.825 314.11 194.19 314.11 M194.19 310.406 Q200 310.406 203.056 315.013 Q206.135 319.596 206.135 328.346 Q206.135 337.073 203.056 341.679 Q200 346.263 194.19 346.263 Q188.38 346.263 185.301 341.679 Q182.246 337.073 182.246 328.346 Q182.246 319.596 185.301 315.013 Q188.38 310.406 194.19 310.406 Z" fill="#000000" fill-rule="evenodd" fill-opacity="1" /><path clip-path="url(#clip200)" d="M224.352 314.11 Q220.741 314.11 218.912 317.675 Q217.107 321.216 217.107 328.346 Q217.107 335.452 218.912 339.017 Q220.741 342.559 224.352 342.559 Q227.986 342.559 229.792 339.017 Q231.621 335.452 231.621 328.346 Q231.621 321.216 229.792 317.675 Q227.986 314.11 224.352 314.11 M224.352 310.406 Q230.162 310.406 233.218 315.013 Q236.297 319.596 236.297 328.346 Q236.297 337.073 233.218 341.679 Q230.162 346.263 224.352 346.263 Q218.542 346.263 215.463 341.679 Q212.408 337.073 212.408 328.346 Q212.408 319.596 215.463 315.013 Q218.542 310.406 224.352 310.406 Z" fill="#000000" fill-rule="evenodd" fill-opacity="1" /><path clip-path="url(#clip200)" d="M154.839 102.303 L162.477 102.303 L162.477 75.9371 L154.167 77.6038 L154.167 73.3446 L162.431 71.6779 L167.107 71.6779 L167.107 102.303 L174.746 102.303 L174.746 106.238 L154.839 106.238 L154.839 102.303 Z" fill="#000000" fill-rule="evenodd" fill-opacity="1" /><path clip-path="url(#clip200)" d="M184.237 71.6779 L202.593 71.6779 L202.593 75.6131 L188.519 75.6131 L188.519 84.0852 Q189.538 83.738 190.556 83.576 Q191.575 83.3908 192.593 83.3908 Q198.38 83.3908 201.76 86.5621 Q205.139 89.7334 205.139 95.15 Q205.139 100.729 201.667 103.831 Q198.195 106.909 191.875 106.909 Q189.7 106.909 187.431 106.539 Q185.186 106.168 182.778 105.428 L182.778 100.729 Q184.862 101.863 187.084 102.418 Q189.306 102.974 191.783 102.974 Q195.787 102.974 198.125 100.868 Q200.463 98.7611 200.463 95.15 Q200.463 91.5389 198.125 89.4324 Q195.787 87.326 191.783 87.326 Q189.908 87.326 188.033 87.7426 Q186.181 88.1593 184.237 89.0389 L184.237 71.6779 Z" fill="#000000" fill-rule="evenodd" fill-opacity="1" /><path clip-path="url(#clip200)" d="M224.352 74.7566 Q220.741 74.7566 218.912 78.3214 Q217.107 81.863 217.107 88.9926 Q217.107 96.0991 218.912 99.6639 Q220.741 103.206 224.352 103.206 Q227.986 103.206 229.792 99.6639 Q231.621 96.0991 231.621 88.9926 Q231.621 81.863 229.792 78.3214 Q227.986 74.7566 224.352 74.7566 M224.352 71.0529 Q230.162 71.0529 233.218 75.6594 Q236.297 80.2427 236.297 88.9926 Q236.297 97.7194 233.218 102.326 Q230.162 106.909 224.352 106.909 Q218.542 106.909 215.463 102.326 Q212.408 97.7194 212.408 88.9926 Q212.408 80.2427 215.463 75.6594 Q218.542 71.0529 224.352 71.0529 Z" fill="#000000" fill-rule="evenodd" fill-opacity="1" /><path clip-path="url(#clip200)" d="M67.3143 733.525 Q73.68 736.008 75.6216 738.363 Q77.5631 740.718 77.5631 744.665 L77.5631 749.344 L72.6615 749.344 L72.6615 745.906 Q72.6615 743.487 71.5157 742.151 Q70.3699 740.814 66.1048 739.191 L63.4312 738.14 L28.3562 752.559 L28.3562 746.352 L56.238 735.212 L28.3562 724.072 L28.3562 717.865 L67.3143 733.525 Z" fill="#000000" fill-rule="evenodd" fill-opacity="1" /><polyline clip-path="url(#clip202)" style="stroke:#009af9; stroke-linecap:round; stroke-linejoin:round; stroke-width:4; stroke-opacity:1; fill:none" points="
  2269.94,663.406 2222.07,663.406 2174.2,663.406 2126.33,663.406 2078.46,663.406 2030.59,663.406 1982.72,663.406 1934.84,663.406 1886.97,663.406 1839.1,663.406 
  1791.23,663.406 1743.36,663.406 1695.49,663.406 1647.62,663.406 1599.75,663.406 1551.88,663.406 1504.01,663.406 1456.14,663.406 1408.27,663.406 1360.4,663.406 
  1312.53,663.406 1264.66,663.406 1216.78,663.406 1168.91,663.406 1121.04,663.406 1073.17,663.406 1025.3,663.406 977.432,663.406 929.561,663.406 881.69,663.406 
  833.82,663.406 785.949,663.406 738.078,663.406 690.207,663.406 642.337,663.406 594.466,663.406 546.595,663.406 498.725,663.406 450.854,663.406 402.983,663.406 
  355.113,663.406 331.177,735.212 355.113,807.018 402.983,807.018 450.854,807.018 498.725,807.018 546.595,807.018 594.466,807.018 642.337,807.018 690.207,807.018 
  738.078,807.018 785.949,807.018 833.82,807.018 881.69,807.018 929.561,807.018 977.432,807.018 1025.3,807.018 1073.17,807.018 1121.04,807.018 1168.91,807.018 
  1216.78,807.018 1264.66,807.018 1312.53,807.018 1360.4,807.018 1408.27,807.018 1456.14,807.018 1504.01,807.018 1551.88,807.018 1599.75,807.018 1647.62,807.018 
  1695.49,807.018 1743.36,807.018 1791.23,807.018 1839.1,807.018 1886.97,807.018 1934.84,807.018 1982.72,807.018 2030.59,807.018 2078.46,807.018 2126.33,807.018 
  2174.2,807.018 2222.07,807.018 2269.94,807.018 2293.87,735.212 
  "/>
<circle clip-path="url(#clip202)" cx="2269.94" cy="663.406" r="7.2" fill="#009af9" fill-rule="evenodd" fill-opacity="1" stroke="#000000" stroke-opacity="1" stroke-width="3.2"/>
<circle clip-path="url(#clip202)" cx="2222.07" cy="663.406" r="7.2" fill="#009af9" fill-rule="evenodd" fill-opacity="1" stroke="#000000" stroke-opacity="1" stroke-width="3.2"/>
<circle clip-path="url(#clip202)" cx="2174.2" cy="663.406" r="7.2" fill="#009af9" fill-rule="evenodd" fill-opacity="1" stroke="#000000" stroke-opacity="1" stroke-width="3.2"/>
<circle clip-path="url(#clip202)" cx="2126.33" cy="663.406" r="7.2" fill="#009af9" fill-rule="evenodd" fill-opacity="1" stroke="#000000" stroke-opacity="1" stroke-width="3.2"/>
<circle clip-path="url(#clip202)" cx="2078.46" cy="663.406" r="7.2" fill="#009af9" fill-rule="evenodd" fill-opacity="1" stroke="#000000" stroke-opacity="1" stroke-width="3.2"/>
<circle clip-path="url(#clip202)" cx="2030.59" cy="663.406" r="7.2" fill="#009af9" fill-rule="evenodd" fill-opacity="1" stroke="#000000" stroke-opacity="1" stroke-width="3.2"/>
<circle clip-path="url(#clip202)" cx="1982.72" cy="663.406" r="7.2" fill="#009af9" fill-rule="evenodd" fill-opacity="1" stroke="#000000" stroke-opacity="1" stroke-width="3.2"/>
<circle clip-path="url(#clip202)" cx="1934.84" cy="663.406" r="7.2" fill="#009af9" fill-rule="evenodd" fill-opacity="1" stroke="#000000" stroke-opacity="1" stroke-width="3.2"/>
<circle clip-path="url(#clip202)" cx="1886.97" cy="663.406" r="7.2" fill="#009af9" fill-rule="evenodd" fill-opacity="1" stroke="#000000" stroke-opacity="1" stroke-width="3.2"/>
<circle clip-path="url(#clip202)" cx="1839.1" cy="663.406" r="7.2" fill="#009af9" fill-rule="evenodd" fill-opacity="1" stroke="#000000" stroke-opacity="1" stroke-width="3.2"/>
<circle clip-path="url(#clip202)" cx="1791.23" cy="663.406" r="7.2" fill="#009af9" fill-rule="evenodd" fill-opacity="1" stroke="#000000" stroke-opacity="1" stroke-width="3.2"/>
<circle clip-path="url(#clip202)" cx="1743.36" cy="663.406" r="7.2" fill="#009af9" fill-rule="evenodd" fill-opacity="1" stroke="#000000" stroke-opacity="1" stroke-width="3.2"/>
<circle clip-path="url(#clip202)" cx="1695.49" cy="663.406" r="7.2" fill="#009af9" fill-rule="evenodd" fill-opacity="1" stroke="#000000" stroke-opacity="1" stroke-width="3.2"/>
<circle clip-path="url(#clip202)" cx="1647.62" cy="663.406" r="7.2" fill="#009af9" fill-rule="evenodd" fill-opacity="1" stroke="#000000" stroke-opacity="1" stroke-width="3.2"/>
<circle clip-path="url(#clip202)" cx="1599.75" cy="663.406" r="7.2" fill="#009af9" fill-rule="evenodd" fill-opacity="1" stroke="#000000" stroke-opacity="1" stroke-width="3.2"/>
<circle clip-path="url(#clip202)" cx="1551.88" cy="663.406" r="7.2" fill="#009af9" fill-rule="evenodd" fill-opacity="1" stroke="#000000" stroke-opacity="1" stroke-width="3.2"/>
<circle clip-path="url(#clip202)" cx="1504.01" cy="663.406" r="7.2" fill="#009af9" fill-rule="evenodd" fill-opacity="1" stroke="#000000" stroke-opacity="1" stroke-width="3.2"/>
<circle clip-path="url(#clip202)" cx="1456.14" cy="663.406" r="7.2" fill="#009af9" fill-rule="evenodd" fill-opacity="1" stroke="#000000" stroke-opacity="1" stroke-width="3.2"/>
<circle clip-path="url(#clip202)" cx="1408.27" cy="663.406" r="7.2" fill="#009af9" fill-rule="evenodd" fill-opacity="1" stroke="#000000" stroke-opacity="1" stroke-width="3.2"/>
<circle clip-path="url(#clip202)" cx="1360.4" cy="663.406" r="7.2" fill="#009af9" fill-rule="evenodd" fill-opacity="1" stroke="#000000" stroke-opacity="1" stroke-width="3.2"/>
<circle clip-path="url(#clip202)" cx="1312.53" cy="663.406" r="7.2" fill="#009af9" fill-rule="evenodd" fill-opacity="1" stroke="#000000" stroke-opacity="1" stroke-width="3.2"/>
<circle clip-path="url(#clip202)" cx="1264.66" cy="663.406" r="7.2" fill="#009af9" fill-rule="evenodd" fill-opacity="1" stroke="#000000" stroke-opacity="1" stroke-width="3.2"/>
<circle clip-path="url(#clip202)" cx="1216.78" cy="663.406" r="7.2" fill="#009af9" fill-rule="evenodd" fill-opacity="1" stroke="#000000" stroke-opacity="1" stroke-width="3.2"/>
<circle clip-path="url(#clip202)" cx="1168.91" cy="663.406" r="7.2" fill="#009af9" fill-rule="evenodd" fill-opacity="1" stroke="#000000" stroke-opacity="1" stroke-width="3.2"/>
<circle clip-path="url(#clip202)" cx="1121.04" cy="663.406" r="7.2" fill="#009af9" fill-rule="evenodd" fill-opacity="1" stroke="#000000" stroke-opacity="1" stroke-width="3.2"/>
<circle clip-path="url(#clip202)" cx="1073.17" cy="663.406" r="7.2" fill="#009af9" fill-rule="evenodd" fill-opacity="1" stroke="#000000" stroke-opacity="1" stroke-width="3.2"/>
<circle clip-path="url(#clip202)" cx="1025.3" cy="663.406" r="7.2" fill="#009af9" fill-rule="evenodd" fill-opacity="1" stroke="#000000" stroke-opacity="1" stroke-width="3.2"/>
<circle clip-path="url(#clip202)" cx="977.432" cy="663.406" r="7.2" fill="#009af9" fill-rule="evenodd" fill-opacity="1" stroke="#000000" stroke-opacity="1" stroke-width="3.2"/>
<circle clip-path="url(#clip202)" cx="929.561" cy="663.406" r="7.2" fill="#009af9" fill-rule="evenodd" fill-opacity="1" stroke="#000000" stroke-opacity="1" stroke-width="3.2"/>
<circle clip-path="url(#clip202)" cx="881.69" cy="663.406" r="7.2" fill="#009af9" fill-rule="evenodd" fill-opacity="1" stroke="#000000" stroke-opacity="1" stroke-width="3.2"/>
<circle clip-path="url(#clip202)" cx="833.82" cy="663.406" r="7.2" fill="#009af9" fill-rule="evenodd" fill-opacity="1" stroke="#000000" stroke-opacity="1" stroke-width="3.2"/>
<circle clip-path="url(#clip202)" cx="785.949" cy="663.406" r="7.2" fill="#009af9" fill-rule="evenodd" fill-opacity="1" stroke="#000000" stroke-opacity="1" stroke-width="3.2"/>
<circle clip-path="url(#clip202)" cx="738.078" cy="663.406" r="7.2" fill="#009af9" fill-rule="evenodd" fill-opacity="1" stroke="#000000" stroke-opacity="1" stroke-width="3.2"/>
<circle clip-path="url(#clip202)" cx="690.207" cy="663.406" r="7.2" fill="#009af9" fill-rule="evenodd" fill-opacity="1" stroke="#000000" stroke-opacity="1" stroke-width="3.2"/>
<circle clip-path="url(#clip202)" cx="642.337" cy="663.406" r="7.2" fill="#009af9" fill-rule="evenodd" fill-opacity="1" stroke="#000000" stroke-opacity="1" stroke-width="3.2"/>
<circle clip-path="url(#clip202)" cx="594.466" cy="663.406" r="7.2" fill="#009af9" fill-rule="evenodd" fill-opacity="1" stroke="#000000" stroke-opacity="1" stroke-width="3.2"/>
<circle clip-path="url(#clip202)" cx="546.595" cy="663.406" r="7.2" fill="#009af9" fill-rule="evenodd" fill-opacity="1" stroke="#000000" stroke-opacity="1" stroke-width="3.2"/>
<circle clip-path="url(#clip202)" cx="498.725" cy="663.406" r="7.2" fill="#009af9" fill-rule="evenodd" fill-opacity="1" stroke="#000000" stroke-opacity="1" stroke-width="3.2"/>
<circle clip-path="url(#clip202)" cx="450.854" cy="663.406" r="7.2" fill="#009af9" fill-rule="evenodd" fill-opacity="1" stroke="#000000" stroke-opacity="1" stroke-width="3.2"/>
<circle clip-path="url(#clip202)" cx="402.983" cy="663.406" r="7.2" fill="#009af9" fill-rule="evenodd" fill-opacity="1" stroke="#000000" stroke-opacity="1" stroke-width="3.2"/>
<circle clip-path="url(#clip202)" cx="355.113" cy="663.406" r="7.2" fill="#009af9" fill-rule="evenodd" fill-opacity="1" stroke="#000000" stroke-opacity="1" stroke-width="3.2"/>
<circle clip-path="url(#clip202)" cx="331.177" cy="735.212" r="7.2" fill="#009af9" fill-rule="evenodd" fill-opacity="1" stroke="#000000" stroke-opacity="1" stroke-width="3.2"/>
<circle clip-path="url(#clip202)" cx="355.113" cy="807.018" r="7.2" fill="#009af9" fill-rule="evenodd" fill-opacity="1" stroke="#000000" stroke-opacity="1" stroke-width="3.2"/>
<circle clip-path="url(#clip202)" cx="402.983" cy="807.018" r="7.2" fill="#009af9" fill-rule="evenodd" fill-opacity="1" stroke="#000000" stroke-opacity="1" stroke-width="3.2"/>
<circle clip-path="url(#clip202)" cx="450.854" cy="807.018" r="7.2" fill="#009af9" fill-rule="evenodd" fill-opacity="1" stroke="#000000" stroke-opacity="1" stroke-width="3.2"/>
<circle clip-path="url(#clip202)" cx="498.725" cy="807.018" r="7.2" fill="#009af9" fill-rule="evenodd" fill-opacity="1" stroke="#000000" stroke-opacity="1" stroke-width="3.2"/>
<circle clip-path="url(#clip202)" cx="546.595" cy="807.018" r="7.2" fill="#009af9" fill-rule="evenodd" fill-opacity="1" stroke="#000000" stroke-opacity="1" stroke-width="3.2"/>
<circle clip-path="url(#clip202)" cx="594.466" cy="807.018" r="7.2" fill="#009af9" fill-rule="evenodd" fill-opacity="1" stroke="#000000" stroke-opacity="1" stroke-width="3.2"/>
<circle clip-path="url(#clip202)" cx="642.337" cy="807.018" r="7.2" fill="#009af9" fill-rule="evenodd" fill-opacity="1" stroke="#000000" stroke-opacity="1" stroke-width="3.2"/>
<circle clip-path="url(#clip202)" cx="690.207" cy="807.018" r="7.2" fill="#009af9" fill-rule="evenodd" fill-opacity="1" stroke="#000000" stroke-opacity="1" stroke-width="3.2"/>
<circle clip-path="url(#clip202)" cx="738.078" cy="807.018" r="7.2" fill="#009af9" fill-rule="evenodd" fill-opacity="1" stroke="#000000" stroke-opacity="1" stroke-width="3.2"/>
<circle clip-path="url(#clip202)" cx="785.949" cy="807.018" r="7.2" fill="#009af9" fill-rule="evenodd" fill-opacity="1" stroke="#000000" stroke-opacity="1" stroke-width="3.2"/>
<circle clip-path="url(#clip202)" cx="833.82" cy="807.018" r="7.2" fill="#009af9" fill-rule="evenodd" fill-opacity="1" stroke="#000000" stroke-opacity="1" stroke-width="3.2"/>
<circle clip-path="url(#clip202)" cx="881.69" cy="807.018" r="7.2" fill="#009af9" fill-rule="evenodd" fill-opacity="1" stroke="#000000" stroke-opacity="1" stroke-width="3.2"/>
<circle clip-path="url(#clip202)" cx="929.561" cy="807.018" r="7.2" fill="#009af9" fill-rule="evenodd" fill-opacity="1" stroke="#000000" stroke-opacity="1" stroke-width="3.2"/>
<circle clip-path="url(#clip202)" cx="977.432" cy="807.018" r="7.2" fill="#009af9" fill-rule="evenodd" fill-opacity="1" stroke="#000000" stroke-opacity="1" stroke-width="3.2"/>
<circle clip-path="url(#clip202)" cx="1025.3" cy="807.018" r="7.2" fill="#009af9" fill-rule="evenodd" fill-opacity="1" stroke="#000000" stroke-opacity="1" stroke-width="3.2"/>
<circle clip-path="url(#clip202)" cx="1073.17" cy="807.018" r="7.2" fill="#009af9" fill-rule="evenodd" fill-opacity="1" stroke="#000000" stroke-opacity="1" stroke-width="3.2"/>
<circle clip-path="url(#clip202)" cx="1121.04" cy="807.018" r="7.2" fill="#009af9" fill-rule="evenodd" fill-opacity="1" stroke="#000000" stroke-opacity="1" stroke-width="3.2"/>
<circle clip-path="url(#clip202)" cx="1168.91" cy="807.018" r="7.2" fill="#009af9" fill-rule="evenodd" fill-opacity="1" stroke="#000000" stroke-opacity="1" stroke-width="3.2"/>
<circle clip-path="url(#clip202)" cx="1216.78" cy="807.018" r="7.2" fill="#009af9" fill-rule="evenodd" fill-opacity="1" stroke="#000000" stroke-opacity="1" stroke-width="3.2"/>
<circle clip-path="url(#clip202)" cx="1264.66" cy="807.018" r="7.2" fill="#009af9" fill-rule="evenodd" fill-opacity="1" stroke="#000000" stroke-opacity="1" stroke-width="3.2"/>
<circle clip-path="url(#clip202)" cx="1312.53" cy="807.018" r="7.2" fill="#009af9" fill-rule="evenodd" fill-opacity="1" stroke="#000000" stroke-opacity="1" stroke-width="3.2"/>
<circle clip-path="url(#clip202)" cx="1360.4" cy="807.018" r="7.2" fill="#009af9" fill-rule="evenodd" fill-opacity="1" stroke="#000000" stroke-opacity="1" stroke-width="3.2"/>
<circle clip-path="url(#clip202)" cx="1408.27" cy="807.018" r="7.2" fill="#009af9" fill-rule="evenodd" fill-opacity="1" stroke="#000000" stroke-opacity="1" stroke-width="3.2"/>
<circle clip-path="url(#clip202)" cx="1456.14" cy="807.018" r="7.2" fill="#009af9" fill-rule="evenodd" fill-opacity="1" stroke="#000000" stroke-opacity="1" stroke-width="3.2"/>
<circle clip-path="url(#clip202)" cx="1504.01" cy="807.018" r="7.2" fill="#009af9" fill-rule="evenodd" fill-opacity="1" stroke="#000000" stroke-opacity="1" stroke-width="3.2"/>
<circle clip-path="url(#clip202)" cx="1551.88" cy="807.018" r="7.2" fill="#009af9" fill-rule="evenodd" fill-opacity="1" stroke="#000000" stroke-opacity="1" stroke-width="3.2"/>
<circle clip-path="url(#clip202)" cx="1599.75" cy="807.018" r="7.2" fill="#009af9" fill-rule="evenodd" fill-opacity="1" stroke="#000000" stroke-opacity="1" stroke-width="3.2"/>
<circle clip-path="url(#clip202)" cx="1647.62" cy="807.018" r="7.2" fill="#009af9" fill-rule="evenodd" fill-opacity="1" stroke="#000000" stroke-opacity="1" stroke-width="3.2"/>
<circle clip-path="url(#clip202)" cx="1695.49" cy="807.018" r="7.2" fill="#009af9" fill-rule="evenodd" fill-opacity="1" stroke="#000000" stroke-opacity="1" stroke-width="3.2"/>
<circle clip-path="url(#clip202)" cx="1743.36" cy="807.018" r="7.2" fill="#009af9" fill-rule="evenodd" fill-opacity="1" stroke="#000000" stroke-opacity="1" stroke-width="3.2"/>
<circle clip-path="url(#clip202)" cx="1791.23" cy="807.018" r="7.2" fill="#009af9" fill-rule="evenodd" fill-opacity="1" stroke="#000000" stroke-opacity="1" stroke-width="3.2"/>
<circle clip-path="url(#clip202)" cx="1839.1" cy="807.018" r="7.2" fill="#009af9" fill-rule="evenodd" fill-opacity="1" stroke="#000000" stroke-opacity="1" stroke-width="3.2"/>
<circle clip-path="url(#clip202)" cx="1886.97" cy="807.018" r="7.2" fill="#009af9" fill-rule="evenodd" fill-opacity="1" stroke="#000000" stroke-opacity="1" stroke-width="3.2"/>
<circle clip-path="url(#clip202)" cx="1934.84" cy="807.018" r="7.2" fill="#009af9" fill-rule="evenodd" fill-opacity="1" stroke="#000000" stroke-opacity="1" stroke-width="3.2"/>
<circle clip-path="url(#clip202)" cx="1982.72" cy="807.018" r="7.2" fill="#009af9" fill-rule="evenodd" fill-opacity="1" stroke="#000000" stroke-opacity="1" stroke-width="3.2"/>
<circle clip-path="url(#clip202)" cx="2030.59" cy="807.018" r="7.2" fill="#009af9" fill-rule="evenodd" fill-opacity="1" stroke="#000000" stroke-opacity="1" stroke-width="3.2"/>
<circle clip-path="url(#clip202)" cx="2078.46" cy="807.018" r="7.2" fill="#009af9" fill-rule="evenodd" fill-opacity="1" stroke="#000000" stroke-opacity="1" stroke-width="3.2"/>
<circle clip-path="url(#clip202)" cx="2126.33" cy="807.018" r="7.2" fill="#009af9" fill-rule="evenodd" fill-opacity="1" stroke="#000000" stroke-opacity="1" stroke-width="3.2"/>
<circle clip-path="url(#clip202)" cx="2174.2" cy="807.018" r="7.2" fill="#009af9" fill-rule="evenodd" fill-opacity="1" stroke="#000000" stroke-opacity="1" stroke-width="3.2"/>
<circle clip-path="url(#clip202)" cx="2222.07" cy="807.018" r="7.2" fill="#009af9" fill-rule="evenodd" fill-opacity="1" stroke="#000000" stroke-opacity="1" stroke-width="3.2"/>
<circle clip-path="url(#clip202)" cx="2269.94" cy="807.018" r="7.2" fill="#009af9" fill-rule="evenodd" fill-opacity="1" stroke="#000000" stroke-opacity="1" stroke-width="3.2"/>
<circle clip-path="url(#clip202)" cx="2293.87" cy="735.212" r="7.2" fill="#009af9" fill-rule="evenodd" fill-opacity="1" stroke="#000000" stroke-opacity="1" stroke-width="3.2"/>
</svg>
